<?xml version="1.0" encoding="UTF-8" standalone="no"?><svg xmlns="http://www.w3.org/2000/svg" xmlns:xlink="http://www.w3.org/1999/xlink" contentScriptType="application/ecmascript" contentStyleType="text/css" height="609px" preserveAspectRatio="none" style="width:2194px;height:609px;background:#FFFFFF;" version="1.1" viewBox="0 0 2194 609" width="2194px" zoomAndPan="magnify"><defs><filter height="300%" id="f1t60b2lwg9kt9" width="300%" x="-1" y="-1"><feGaussianBlur result="blurOut" stdDeviation="2.0"/><feColorMatrix in="blurOut" result="blurOut2" type="matrix" values="0 0 0 0 0 0 0 0 0 0 0 0 0 0 0 0 0 0 .4 0"/><feOffset dx="4.0" dy="4.0" in="blurOut2" result="blurOut3"/><feBlend in="SourceGraphic" in2="blurOut3" mode="normal"/></filter></defs><g><!--MD5=[05d04b564e9d963c5556604ff8f07e7e]
class Analysis--><rect fill="#FEFECE" filter="url(#f1t60b2lwg9kt9)" height="48" id="Analysis" style="stroke:#A80036;stroke-width:1.5;" width="81" x="1331.5" y="7"/><ellipse cx="1346.5" cy="23" fill="#ADD1B2" rx="11" ry="11" style="stroke:#A80036;stroke-width:1.0;"/><path d="M1348.8438,18.6719 C1347.9063,18.2344 1347.3125,18.0938 1346.4375,18.0938 C1343.8125,18.0938 1341.8125,20.1719 1341.8125,22.8906 L1341.8125,24.0156 C1341.8125,26.5938 1343.9219,28.4844 1346.8125,28.4844 C1348.0313,28.4844 1349.1875,28.1875 1349.9375,27.6406 C1350.5156,27.2344 1350.8438,26.7813 1350.8438,26.3906 C1350.8438,25.9375 1350.4531,25.5469 1349.9844,25.5469 C1349.7656,25.5469 1349.5625,25.625 1349.375,25.8125 C1348.9219,26.2969 1348.9219,26.2969 1348.7344,26.3906 C1348.3125,26.6563 1347.625,26.7813 1346.8594,26.7813 C1344.8125,26.7813 1343.5156,25.6875 1343.5156,23.9844 L1343.5156,22.8906 C1343.5156,21.1094 1344.7656,19.7969 1346.5,19.7969 C1347.0781,19.7969 1347.6875,19.9531 1348.1563,20.2031 C1348.6406,20.4844 1348.8125,20.7031 1348.9063,21.1094 C1348.9688,21.5156 1349,21.6406 1349.1406,21.7656 C1349.2813,21.9063 1349.5156,22.0156 1349.7344,22.0156 C1350,22.0156 1350.2656,21.875 1350.4375,21.6563 C1350.5469,21.5 1350.5781,21.3125 1350.5781,20.8906 L1350.5781,19.4688 C1350.5781,19.0313 1350.5625,18.9063 1350.4688,18.75 C1350.3125,18.4844 1350.0313,18.3438 1349.7344,18.3438 C1349.4375,18.3438 1349.2344,18.4375 1349.0156,18.75 L1348.8438,18.6719 Z " fill="#000000"/><text fill="#000000" font-family="sans-serif" font-size="12" lengthAdjust="spacing" textLength="49" x="1360.5" y="27.1543">Analysis</text><line style="stroke:#A80036;stroke-width:1.5;" x1="1332.5" x2="1411.5" y1="39" y2="39"/><line style="stroke:#A80036;stroke-width:1.5;" x1="1332.5" x2="1411.5" y1="47" y2="47"/><!--MD5=[d230686d49c1c157d539c4ba189f8be7]
class SignalAnalysis--><rect fill="#FEFECE" filter="url(#f1t60b2lwg9kt9)" height="48" id="SignalAnalysis" style="stroke:#A80036;stroke-width:1.5;" width="117" x="1249.5" y="115"/><ellipse cx="1264.5" cy="131" fill="#ADD1B2" rx="11" ry="11" style="stroke:#A80036;stroke-width:1.0;"/><path d="M1266.8438,126.6719 C1265.9063,126.2344 1265.3125,126.0938 1264.4375,126.0938 C1261.8125,126.0938 1259.8125,128.1719 1259.8125,130.8906 L1259.8125,132.0156 C1259.8125,134.5938 1261.9219,136.4844 1264.8125,136.4844 C1266.0313,136.4844 1267.1875,136.1875 1267.9375,135.6406 C1268.5156,135.2344 1268.8438,134.7813 1268.8438,134.3906 C1268.8438,133.9375 1268.4531,133.5469 1267.9844,133.5469 C1267.7656,133.5469 1267.5625,133.625 1267.375,133.8125 C1266.9219,134.2969 1266.9219,134.2969 1266.7344,134.3906 C1266.3125,134.6563 1265.625,134.7813 1264.8594,134.7813 C1262.8125,134.7813 1261.5156,133.6875 1261.5156,131.9844 L1261.5156,130.8906 C1261.5156,129.1094 1262.7656,127.7969 1264.5,127.7969 C1265.0781,127.7969 1265.6875,127.9531 1266.1563,128.2031 C1266.6406,128.4844 1266.8125,128.7031 1266.9063,129.1094 C1266.9688,129.5156 1267,129.6406 1267.1406,129.7656 C1267.2813,129.9063 1267.5156,130.0156 1267.7344,130.0156 C1268,130.0156 1268.2656,129.875 1268.4375,129.6563 C1268.5469,129.5 1268.5781,129.3125 1268.5781,128.8906 L1268.5781,127.4688 C1268.5781,127.0313 1268.5625,126.9063 1268.4688,126.75 C1268.3125,126.4844 1268.0313,126.3438 1267.7344,126.3438 C1267.4375,126.3438 1267.2344,126.4375 1267.0156,126.75 L1266.8438,126.6719 Z " fill="#000000"/><text fill="#000000" font-family="sans-serif" font-size="12" lengthAdjust="spacing" textLength="85" x="1278.5" y="135.1543">SignalAnalysis</text><line style="stroke:#A80036;stroke-width:1.5;" x1="1250.5" x2="1365.5" y1="147" y2="147"/><line style="stroke:#A80036;stroke-width:1.5;" x1="1250.5" x2="1365.5" y1="155" y2="155"/><!--MD5=[87851aff569e8cf13f5a83ac0bf92be3]
class FeatureExtractor--><rect fill="#FEFECE" filter="url(#f1t60b2lwg9kt9)" height="48" id="FeatureExtractor" style="stroke:#A80036;stroke-width:1.5;" width="132" x="1181" y="331"/><ellipse cx="1196" cy="347" fill="#ADD1B2" rx="11" ry="11" style="stroke:#A80036;stroke-width:1.0;"/><path d="M1198.3438,342.6719 C1197.4063,342.2344 1196.8125,342.0938 1195.9375,342.0938 C1193.3125,342.0938 1191.3125,344.1719 1191.3125,346.8906 L1191.3125,348.0156 C1191.3125,350.5938 1193.4219,352.4844 1196.3125,352.4844 C1197.5313,352.4844 1198.6875,352.1875 1199.4375,351.6406 C1200.0156,351.2344 1200.3438,350.7813 1200.3438,350.3906 C1200.3438,349.9375 1199.9531,349.5469 1199.4844,349.5469 C1199.2656,349.5469 1199.0625,349.625 1198.875,349.8125 C1198.4219,350.2969 1198.4219,350.2969 1198.2344,350.3906 C1197.8125,350.6563 1197.125,350.7813 1196.3594,350.7813 C1194.3125,350.7813 1193.0156,349.6875 1193.0156,347.9844 L1193.0156,346.8906 C1193.0156,345.1094 1194.2656,343.7969 1196,343.7969 C1196.5781,343.7969 1197.1875,343.9531 1197.6563,344.2031 C1198.1406,344.4844 1198.3125,344.7031 1198.4063,345.1094 C1198.4688,345.5156 1198.5,345.6406 1198.6406,345.7656 C1198.7813,345.9063 1199.0156,346.0156 1199.2344,346.0156 C1199.5,346.0156 1199.7656,345.875 1199.9375,345.6563 C1200.0469,345.5 1200.0781,345.3125 1200.0781,344.8906 L1200.0781,343.4688 C1200.0781,343.0313 1200.0625,342.9063 1199.9688,342.75 C1199.8125,342.4844 1199.5313,342.3438 1199.2344,342.3438 C1198.9375,342.3438 1198.7344,342.4375 1198.5156,342.75 L1198.3438,342.6719 Z " fill="#000000"/><text fill="#000000" font-family="sans-serif" font-size="12" lengthAdjust="spacing" textLength="100" x="1210" y="351.1543">FeatureExtractor</text><line style="stroke:#A80036;stroke-width:1.5;" x1="1182" x2="1312" y1="363" y2="363"/><line style="stroke:#A80036;stroke-width:1.5;" x1="1182" x2="1312" y1="371" y2="371"/><!--MD5=[c236195548b94606f88a9d5b14ac8fa6]
class SpatialTuning--><rect fill="#FEFECE" filter="url(#f1t60b2lwg9kt9)" height="48" id="SpatialTuning" style="stroke:#A80036;stroke-width:1.5;" width="111" x="636.5" y="331"/><ellipse cx="651.5" cy="347" fill="#ADD1B2" rx="11" ry="11" style="stroke:#A80036;stroke-width:1.0;"/><path d="M653.8438,342.6719 C652.9063,342.2344 652.3125,342.0938 651.4375,342.0938 C648.8125,342.0938 646.8125,344.1719 646.8125,346.8906 L646.8125,348.0156 C646.8125,350.5938 648.9219,352.4844 651.8125,352.4844 C653.0313,352.4844 654.1875,352.1875 654.9375,351.6406 C655.5156,351.2344 655.8438,350.7813 655.8438,350.3906 C655.8438,349.9375 655.4531,349.5469 654.9844,349.5469 C654.7656,349.5469 654.5625,349.625 654.375,349.8125 C653.9219,350.2969 653.9219,350.2969 653.7344,350.3906 C653.3125,350.6563 652.625,350.7813 651.8594,350.7813 C649.8125,350.7813 648.5156,349.6875 648.5156,347.9844 L648.5156,346.8906 C648.5156,345.1094 649.7656,343.7969 651.5,343.7969 C652.0781,343.7969 652.6875,343.9531 653.1563,344.2031 C653.6406,344.4844 653.8125,344.7031 653.9063,345.1094 C653.9688,345.5156 654,345.6406 654.1406,345.7656 C654.2813,345.9063 654.5156,346.0156 654.7344,346.0156 C655,346.0156 655.2656,345.875 655.4375,345.6563 C655.5469,345.5 655.5781,345.3125 655.5781,344.8906 L655.5781,343.4688 C655.5781,343.0313 655.5625,342.9063 655.4688,342.75 C655.3125,342.4844 655.0313,342.3438 654.7344,342.3438 C654.4375,342.3438 654.2344,342.4375 654.0156,342.75 L653.8438,342.6719 Z " fill="#000000"/><text fill="#000000" font-family="sans-serif" font-size="12" lengthAdjust="spacing" textLength="79" x="665.5" y="351.1543">SpatialTuning</text><line style="stroke:#A80036;stroke-width:1.5;" x1="637.5" x2="746.5" y1="363" y2="363"/><line style="stroke:#A80036;stroke-width:1.5;" x1="637.5" x2="746.5" y1="371" y2="371"/><!--MD5=[59d8e3c4c8f2bcfff598a5c8d47da5e3]
class SpatialFeatureExtractor--><rect fill="#FEFECE" filter="url(#f1t60b2lwg9kt9)" height="48" id="SpatialFeatureExtractor" style="stroke:#A80036;stroke-width:1.5;" width="172" x="976" y="439"/><ellipse cx="991" cy="455" fill="#ADD1B2" rx="11" ry="11" style="stroke:#A80036;stroke-width:1.0;"/><path d="M993.3438,450.6719 C992.4063,450.2344 991.8125,450.0938 990.9375,450.0938 C988.3125,450.0938 986.3125,452.1719 986.3125,454.8906 L986.3125,456.0156 C986.3125,458.5938 988.4219,460.4844 991.3125,460.4844 C992.5313,460.4844 993.6875,460.1875 994.4375,459.6406 C995.0156,459.2344 995.3438,458.7813 995.3438,458.3906 C995.3438,457.9375 994.9531,457.5469 994.4844,457.5469 C994.2656,457.5469 994.0625,457.625 993.875,457.8125 C993.4219,458.2969 993.4219,458.2969 993.2344,458.3906 C992.8125,458.6563 992.125,458.7813 991.3594,458.7813 C989.3125,458.7813 988.0156,457.6875 988.0156,455.9844 L988.0156,454.8906 C988.0156,453.1094 989.2656,451.7969 991,451.7969 C991.5781,451.7969 992.1875,451.9531 992.6563,452.2031 C993.1406,452.4844 993.3125,452.7031 993.4063,453.1094 C993.4688,453.5156 993.5,453.6406 993.6406,453.7656 C993.7813,453.9063 994.0156,454.0156 994.2344,454.0156 C994.5,454.0156 994.7656,453.875 994.9375,453.6563 C995.0469,453.5 995.0781,453.3125 995.0781,452.8906 L995.0781,451.4688 C995.0781,451.0313 995.0625,450.9063 994.9688,450.75 C994.8125,450.4844 994.5313,450.3438 994.2344,450.3438 C993.9375,450.3438 993.7344,450.4375 993.5156,450.75 L993.3438,450.6719 Z " fill="#000000"/><text fill="#000000" font-family="sans-serif" font-size="12" lengthAdjust="spacing" textLength="140" x="1005" y="459.1543">SpatialFeatureExtractor</text><line style="stroke:#A80036;stroke-width:1.5;" x1="977" x2="1147" y1="471" y2="471"/><line style="stroke:#A80036;stroke-width:1.5;" x1="977" x2="1147" y1="479" y2="479"/><!--MD5=[321eabbd68a0a92d4c16a9096a1f73d8]
class ResponsivenessFeatureExtractor--><rect fill="#FEFECE" filter="url(#f1t60b2lwg9kt9)" height="48" id="ResponsivenessFeatureExtractor" style="stroke:#A80036;stroke-width:1.5;" width="231" x="1262.5" y="547"/><ellipse cx="1277.5" cy="563" fill="#ADD1B2" rx="11" ry="11" style="stroke:#A80036;stroke-width:1.0;"/><path d="M1279.8438,558.6719 C1278.9063,558.2344 1278.3125,558.0938 1277.4375,558.0938 C1274.8125,558.0938 1272.8125,560.1719 1272.8125,562.8906 L1272.8125,564.0156 C1272.8125,566.5938 1274.9219,568.4844 1277.8125,568.4844 C1279.0313,568.4844 1280.1875,568.1875 1280.9375,567.6406 C1281.5156,567.2344 1281.8438,566.7813 1281.8438,566.3906 C1281.8438,565.9375 1281.4531,565.5469 1280.9844,565.5469 C1280.7656,565.5469 1280.5625,565.625 1280.375,565.8125 C1279.9219,566.2969 1279.9219,566.2969 1279.7344,566.3906 C1279.3125,566.6563 1278.625,566.7813 1277.8594,566.7813 C1275.8125,566.7813 1274.5156,565.6875 1274.5156,563.9844 L1274.5156,562.8906 C1274.5156,561.1094 1275.7656,559.7969 1277.5,559.7969 C1278.0781,559.7969 1278.6875,559.9531 1279.1563,560.2031 C1279.6406,560.4844 1279.8125,560.7031 1279.9063,561.1094 C1279.9688,561.5156 1280,561.6406 1280.1406,561.7656 C1280.2813,561.9063 1280.5156,562.0156 1280.7344,562.0156 C1281,562.0156 1281.2656,561.875 1281.4375,561.6563 C1281.5469,561.5 1281.5781,561.3125 1281.5781,560.8906 L1281.5781,559.4688 C1281.5781,559.0313 1281.5625,558.9063 1281.4688,558.75 C1281.3125,558.4844 1281.0313,558.3438 1280.7344,558.3438 C1280.4375,558.3438 1280.2344,558.4375 1280.0156,558.75 L1279.8438,558.6719 Z " fill="#000000"/><text fill="#000000" font-family="sans-serif" font-size="12" lengthAdjust="spacing" textLength="199" x="1291.5" y="567.1543">ResponsivenessFeatureExtractor</text><line style="stroke:#A80036;stroke-width:1.5;" x1="1263.5" x2="1492.5" y1="579" y2="579"/><line style="stroke:#A80036;stroke-width:1.5;" x1="1263.5" x2="1492.5" y1="587" y2="587"/><!--MD5=[b0d98c59f54d966784f1e0dab13e2eac]
class Responsiveness--><rect fill="#FEFECE" filter="url(#f1t60b2lwg9kt9)" height="48" id="Responsiveness" style="stroke:#A80036;stroke-width:1.5;" width="131" x="1490.5" y="439"/><ellipse cx="1505.5" cy="455" fill="#ADD1B2" rx="11" ry="11" style="stroke:#A80036;stroke-width:1.0;"/><path d="M1507.8438,450.6719 C1506.9063,450.2344 1506.3125,450.0938 1505.4375,450.0938 C1502.8125,450.0938 1500.8125,452.1719 1500.8125,454.8906 L1500.8125,456.0156 C1500.8125,458.5938 1502.9219,460.4844 1505.8125,460.4844 C1507.0313,460.4844 1508.1875,460.1875 1508.9375,459.6406 C1509.5156,459.2344 1509.8438,458.7813 1509.8438,458.3906 C1509.8438,457.9375 1509.4531,457.5469 1508.9844,457.5469 C1508.7656,457.5469 1508.5625,457.625 1508.375,457.8125 C1507.9219,458.2969 1507.9219,458.2969 1507.7344,458.3906 C1507.3125,458.6563 1506.625,458.7813 1505.8594,458.7813 C1503.8125,458.7813 1502.5156,457.6875 1502.5156,455.9844 L1502.5156,454.8906 C1502.5156,453.1094 1503.7656,451.7969 1505.5,451.7969 C1506.0781,451.7969 1506.6875,451.9531 1507.1563,452.2031 C1507.6406,452.4844 1507.8125,452.7031 1507.9063,453.1094 C1507.9688,453.5156 1508,453.6406 1508.1406,453.7656 C1508.2813,453.9063 1508.5156,454.0156 1508.7344,454.0156 C1509,454.0156 1509.2656,453.875 1509.4375,453.6563 C1509.5469,453.5 1509.5781,453.3125 1509.5781,452.8906 L1509.5781,451.4688 C1509.5781,451.0313 1509.5625,450.9063 1509.4688,450.75 C1509.3125,450.4844 1509.0313,450.3438 1508.7344,450.3438 C1508.4375,450.3438 1508.2344,450.4375 1508.0156,450.75 L1507.8438,450.6719 Z " fill="#000000"/><text fill="#000000" font-family="sans-serif" font-size="12" lengthAdjust="spacing" textLength="99" x="1519.5" y="459.1543">Responsiveness</text><line style="stroke:#A80036;stroke-width:1.5;" x1="1491.5" x2="1620.5" y1="471" y2="471"/><line style="stroke:#A80036;stroke-width:1.5;" x1="1491.5" x2="1620.5" y1="479" y2="479"/><!--MD5=[6d9fdae6b31af81a324880c69559263b]
class Moment--><rect fill="#FEFECE" filter="url(#f1t60b2lwg9kt9)" height="48" id="Moment" style="stroke:#A80036;stroke-width:1.5;" width="80" x="1254" y="439"/><ellipse cx="1269" cy="455" fill="#ADD1B2" rx="11" ry="11" style="stroke:#A80036;stroke-width:1.0;"/><path d="M1271.3438,450.6719 C1270.4063,450.2344 1269.8125,450.0938 1268.9375,450.0938 C1266.3125,450.0938 1264.3125,452.1719 1264.3125,454.8906 L1264.3125,456.0156 C1264.3125,458.5938 1266.4219,460.4844 1269.3125,460.4844 C1270.5313,460.4844 1271.6875,460.1875 1272.4375,459.6406 C1273.0156,459.2344 1273.3438,458.7813 1273.3438,458.3906 C1273.3438,457.9375 1272.9531,457.5469 1272.4844,457.5469 C1272.2656,457.5469 1272.0625,457.625 1271.875,457.8125 C1271.4219,458.2969 1271.4219,458.2969 1271.2344,458.3906 C1270.8125,458.6563 1270.125,458.7813 1269.3594,458.7813 C1267.3125,458.7813 1266.0156,457.6875 1266.0156,455.9844 L1266.0156,454.8906 C1266.0156,453.1094 1267.2656,451.7969 1269,451.7969 C1269.5781,451.7969 1270.1875,451.9531 1270.6563,452.2031 C1271.1406,452.4844 1271.3125,452.7031 1271.4063,453.1094 C1271.4688,453.5156 1271.5,453.6406 1271.6406,453.7656 C1271.7813,453.9063 1272.0156,454.0156 1272.2344,454.0156 C1272.5,454.0156 1272.7656,453.875 1272.9375,453.6563 C1273.0469,453.5 1273.0781,453.3125 1273.0781,452.8906 L1273.0781,451.4688 C1273.0781,451.0313 1273.0625,450.9063 1272.9688,450.75 C1272.8125,450.4844 1272.5313,450.3438 1272.2344,450.3438 C1271.9375,450.3438 1271.7344,450.4375 1271.5156,450.75 L1271.3438,450.6719 Z " fill="#000000"/><text fill="#000000" font-family="sans-serif" font-size="12" lengthAdjust="spacing" textLength="48" x="1283" y="459.1543">Moment</text><line style="stroke:#A80036;stroke-width:1.5;" x1="1255" x2="1333" y1="471" y2="471"/><line style="stroke:#A80036;stroke-width:1.5;" x1="1255" x2="1333" y1="479" y2="479"/><!--MD5=[0a4ccf51eb3cc50b2974e9dcb37ae524]
class Cumulant--><rect fill="#FEFECE" filter="url(#f1t60b2lwg9kt9)" height="48" id="Cumulant" style="stroke:#A80036;stroke-width:1.5;" width="86" x="1369" y="439"/><ellipse cx="1384" cy="455" fill="#ADD1B2" rx="11" ry="11" style="stroke:#A80036;stroke-width:1.0;"/><path d="M1386.3438,450.6719 C1385.4063,450.2344 1384.8125,450.0938 1383.9375,450.0938 C1381.3125,450.0938 1379.3125,452.1719 1379.3125,454.8906 L1379.3125,456.0156 C1379.3125,458.5938 1381.4219,460.4844 1384.3125,460.4844 C1385.5313,460.4844 1386.6875,460.1875 1387.4375,459.6406 C1388.0156,459.2344 1388.3438,458.7813 1388.3438,458.3906 C1388.3438,457.9375 1387.9531,457.5469 1387.4844,457.5469 C1387.2656,457.5469 1387.0625,457.625 1386.875,457.8125 C1386.4219,458.2969 1386.4219,458.2969 1386.2344,458.3906 C1385.8125,458.6563 1385.125,458.7813 1384.3594,458.7813 C1382.3125,458.7813 1381.0156,457.6875 1381.0156,455.9844 L1381.0156,454.8906 C1381.0156,453.1094 1382.2656,451.7969 1384,451.7969 C1384.5781,451.7969 1385.1875,451.9531 1385.6563,452.2031 C1386.1406,452.4844 1386.3125,452.7031 1386.4063,453.1094 C1386.4688,453.5156 1386.5,453.6406 1386.6406,453.7656 C1386.7813,453.9063 1387.0156,454.0156 1387.2344,454.0156 C1387.5,454.0156 1387.7656,453.875 1387.9375,453.6563 C1388.0469,453.5 1388.0781,453.3125 1388.0781,452.8906 L1388.0781,451.4688 C1388.0781,451.0313 1388.0625,450.9063 1387.9688,450.75 C1387.8125,450.4844 1387.5313,450.3438 1387.2344,450.3438 C1386.9375,450.3438 1386.7344,450.4375 1386.5156,450.75 L1386.3438,450.6719 Z " fill="#000000"/><text fill="#000000" font-family="sans-serif" font-size="12" lengthAdjust="spacing" textLength="54" x="1398" y="459.1543">Cumulant</text><line style="stroke:#A80036;stroke-width:1.5;" x1="1370" x2="1454" y1="471" y2="471"/><line style="stroke:#A80036;stroke-width:1.5;" x1="1370" x2="1454" y1="479" y2="479"/><!--MD5=[6dfe6df5067d63dcccccf8724ae3004d]
class _SingleEventPSTH--><rect fill="#FEFECE" filter="url(#f1t60b2lwg9kt9)" height="48" id="_SingleEventPSTH" style="stroke:#A80036;stroke-width:1.5;" width="138" x="1300" y="223"/><ellipse cx="1315" cy="239" fill="#ADD1B2" rx="11" ry="11" style="stroke:#A80036;stroke-width:1.0;"/><path d="M1317.3438,234.6719 C1316.4063,234.2344 1315.8125,234.0938 1314.9375,234.0938 C1312.3125,234.0938 1310.3125,236.1719 1310.3125,238.8906 L1310.3125,240.0156 C1310.3125,242.5938 1312.4219,244.4844 1315.3125,244.4844 C1316.5313,244.4844 1317.6875,244.1875 1318.4375,243.6406 C1319.0156,243.2344 1319.3438,242.7813 1319.3438,242.3906 C1319.3438,241.9375 1318.9531,241.5469 1318.4844,241.5469 C1318.2656,241.5469 1318.0625,241.625 1317.875,241.8125 C1317.4219,242.2969 1317.4219,242.2969 1317.2344,242.3906 C1316.8125,242.6563 1316.125,242.7813 1315.3594,242.7813 C1313.3125,242.7813 1312.0156,241.6875 1312.0156,239.9844 L1312.0156,238.8906 C1312.0156,237.1094 1313.2656,235.7969 1315,235.7969 C1315.5781,235.7969 1316.1875,235.9531 1316.6563,236.2031 C1317.1406,236.4844 1317.3125,236.7031 1317.4063,237.1094 C1317.4688,237.5156 1317.5,237.6406 1317.6406,237.7656 C1317.7813,237.9063 1318.0156,238.0156 1318.2344,238.0156 C1318.5,238.0156 1318.7656,237.875 1318.9375,237.6563 C1319.0469,237.5 1319.0781,237.3125 1319.0781,236.8906 L1319.0781,235.4688 C1319.0781,235.0313 1319.0625,234.9063 1318.9688,234.75 C1318.8125,234.4844 1318.5313,234.3438 1318.2344,234.3438 C1317.9375,234.3438 1317.7344,234.4375 1317.5156,234.75 L1317.3438,234.6719 Z " fill="#000000"/><text fill="#000000" font-family="sans-serif" font-size="12" lengthAdjust="spacing" textLength="106" x="1329" y="243.1543">_SingleEventPSTH</text><line style="stroke:#A80036;stroke-width:1.5;" x1="1301" x2="1437" y1="255" y2="255"/><line style="stroke:#A80036;stroke-width:1.5;" x1="1301" x2="1437" y1="263" y2="263"/><!--MD5=[2fd5430343f632e1c9a230c57b9232a8]
class PSTH--><rect fill="#FEFECE" filter="url(#f1t60b2lwg9kt9)" height="48" id="PSTH" style="stroke:#A80036;stroke-width:1.5;" width="62" x="1444" y="331"/><ellipse cx="1459" cy="347" fill="#ADD1B2" rx="11" ry="11" style="stroke:#A80036;stroke-width:1.0;"/><path d="M1461.3438,342.6719 C1460.4063,342.2344 1459.8125,342.0938 1458.9375,342.0938 C1456.3125,342.0938 1454.3125,344.1719 1454.3125,346.8906 L1454.3125,348.0156 C1454.3125,350.5938 1456.4219,352.4844 1459.3125,352.4844 C1460.5313,352.4844 1461.6875,352.1875 1462.4375,351.6406 C1463.0156,351.2344 1463.3438,350.7813 1463.3438,350.3906 C1463.3438,349.9375 1462.9531,349.5469 1462.4844,349.5469 C1462.2656,349.5469 1462.0625,349.625 1461.875,349.8125 C1461.4219,350.2969 1461.4219,350.2969 1461.2344,350.3906 C1460.8125,350.6563 1460.125,350.7813 1459.3594,350.7813 C1457.3125,350.7813 1456.0156,349.6875 1456.0156,347.9844 L1456.0156,346.8906 C1456.0156,345.1094 1457.2656,343.7969 1459,343.7969 C1459.5781,343.7969 1460.1875,343.9531 1460.6563,344.2031 C1461.1406,344.4844 1461.3125,344.7031 1461.4063,345.1094 C1461.4688,345.5156 1461.5,345.6406 1461.6406,345.7656 C1461.7813,345.9063 1462.0156,346.0156 1462.2344,346.0156 C1462.5,346.0156 1462.7656,345.875 1462.9375,345.6563 C1463.0469,345.5 1463.0781,345.3125 1463.0781,344.8906 L1463.0781,343.4688 C1463.0781,343.0313 1463.0625,342.9063 1462.9688,342.75 C1462.8125,342.4844 1462.5313,342.3438 1462.2344,342.3438 C1461.9375,342.3438 1461.7344,342.4375 1461.5156,342.75 L1461.3438,342.6719 Z " fill="#000000"/><text fill="#000000" font-family="sans-serif" font-size="12" lengthAdjust="spacing" textLength="30" x="1473" y="351.1543">PSTH</text><line style="stroke:#A80036;stroke-width:1.5;" x1="1445" x2="1505" y1="363" y2="363"/><line style="stroke:#A80036;stroke-width:1.5;" x1="1445" x2="1505" y1="371" y2="371"/><!--MD5=[fb5ea3f8c07eb0839cc446eb7b9364c7]
class PlaceFields--><rect fill="#FEFECE" filter="url(#f1t60b2lwg9kt9)" height="48" id="PlaceFields" style="stroke:#A80036;stroke-width:1.5;" width="99" x="1473.5" y="223"/><ellipse cx="1488.5" cy="239" fill="#ADD1B2" rx="11" ry="11" style="stroke:#A80036;stroke-width:1.0;"/><path d="M1490.8438,234.6719 C1489.9063,234.2344 1489.3125,234.0938 1488.4375,234.0938 C1485.8125,234.0938 1483.8125,236.1719 1483.8125,238.8906 L1483.8125,240.0156 C1483.8125,242.5938 1485.9219,244.4844 1488.8125,244.4844 C1490.0313,244.4844 1491.1875,244.1875 1491.9375,243.6406 C1492.5156,243.2344 1492.8438,242.7813 1492.8438,242.3906 C1492.8438,241.9375 1492.4531,241.5469 1491.9844,241.5469 C1491.7656,241.5469 1491.5625,241.625 1491.375,241.8125 C1490.9219,242.2969 1490.9219,242.2969 1490.7344,242.3906 C1490.3125,242.6563 1489.625,242.7813 1488.8594,242.7813 C1486.8125,242.7813 1485.5156,241.6875 1485.5156,239.9844 L1485.5156,238.8906 C1485.5156,237.1094 1486.7656,235.7969 1488.5,235.7969 C1489.0781,235.7969 1489.6875,235.9531 1490.1563,236.2031 C1490.6406,236.4844 1490.8125,236.7031 1490.9063,237.1094 C1490.9688,237.5156 1491,237.6406 1491.1406,237.7656 C1491.2813,237.9063 1491.5156,238.0156 1491.7344,238.0156 C1492,238.0156 1492.2656,237.875 1492.4375,237.6563 C1492.5469,237.5 1492.5781,237.3125 1492.5781,236.8906 L1492.5781,235.4688 C1492.5781,235.0313 1492.5625,234.9063 1492.4688,234.75 C1492.3125,234.4844 1492.0313,234.3438 1491.7344,234.3438 C1491.4375,234.3438 1491.2344,234.4375 1491.0156,234.75 L1490.8438,234.6719 Z " fill="#000000"/><text fill="#000000" font-family="sans-serif" font-size="12" lengthAdjust="spacing" textLength="67" x="1502.5" y="243.1543">PlaceFields</text><line style="stroke:#A80036;stroke-width:1.5;" x1="1474.5" x2="1571.5" y1="255" y2="255"/><line style="stroke:#A80036;stroke-width:1.5;" x1="1474.5" x2="1571.5" y1="263" y2="263"/><!--MD5=[d18fc7d26f1ad1e9e8be6c8401f48ce8]
class _SingleLapSpatialTuning--><rect fill="#FEFECE" filter="url(#f1t60b2lwg9kt9)" height="48" id="_SingleLapSpatialTuning" style="stroke:#A80036;stroke-width:1.5;" width="175" x="788.5" y="223"/><ellipse cx="803.5" cy="239" fill="#ADD1B2" rx="11" ry="11" style="stroke:#A80036;stroke-width:1.0;"/><path d="M805.8438,234.6719 C804.9063,234.2344 804.3125,234.0938 803.4375,234.0938 C800.8125,234.0938 798.8125,236.1719 798.8125,238.8906 L798.8125,240.0156 C798.8125,242.5938 800.9219,244.4844 803.8125,244.4844 C805.0313,244.4844 806.1875,244.1875 806.9375,243.6406 C807.5156,243.2344 807.8438,242.7813 807.8438,242.3906 C807.8438,241.9375 807.4531,241.5469 806.9844,241.5469 C806.7656,241.5469 806.5625,241.625 806.375,241.8125 C805.9219,242.2969 805.9219,242.2969 805.7344,242.3906 C805.3125,242.6563 804.625,242.7813 803.8594,242.7813 C801.8125,242.7813 800.5156,241.6875 800.5156,239.9844 L800.5156,238.8906 C800.5156,237.1094 801.7656,235.7969 803.5,235.7969 C804.0781,235.7969 804.6875,235.9531 805.1563,236.2031 C805.6406,236.4844 805.8125,236.7031 805.9063,237.1094 C805.9688,237.5156 806,237.6406 806.1406,237.7656 C806.2813,237.9063 806.5156,238.0156 806.7344,238.0156 C807,238.0156 807.2656,237.875 807.4375,237.6563 C807.5469,237.5 807.5781,237.3125 807.5781,236.8906 L807.5781,235.4688 C807.5781,235.0313 807.5625,234.9063 807.4688,234.75 C807.3125,234.4844 807.0313,234.3438 806.7344,234.3438 C806.4375,234.3438 806.2344,234.4375 806.0156,234.75 L805.8438,234.6719 Z " fill="#000000"/><text fill="#000000" font-family="sans-serif" font-size="12" lengthAdjust="spacing" textLength="143" x="817.5" y="243.1543">_SingleLapSpatialTuning</text><line style="stroke:#A80036;stroke-width:1.5;" x1="789.5" x2="962.5" y1="255" y2="255"/><line style="stroke:#A80036;stroke-width:1.5;" x1="789.5" x2="962.5" y1="263" y2="263"/><!--MD5=[01097d3460073b21a61402072bb3a1d6]
class EventSpatialTuning--><rect fill="#FEFECE" filter="url(#f1t60b2lwg9kt9)" height="48" id="EventSpatialTuning" style="stroke:#A80036;stroke-width:1.5;" width="144" x="463" y="439"/><ellipse cx="478" cy="455" fill="#ADD1B2" rx="11" ry="11" style="stroke:#A80036;stroke-width:1.0;"/><path d="M480.3438,450.6719 C479.4063,450.2344 478.8125,450.0938 477.9375,450.0938 C475.3125,450.0938 473.3125,452.1719 473.3125,454.8906 L473.3125,456.0156 C473.3125,458.5938 475.4219,460.4844 478.3125,460.4844 C479.5313,460.4844 480.6875,460.1875 481.4375,459.6406 C482.0156,459.2344 482.3438,458.7813 482.3438,458.3906 C482.3438,457.9375 481.9531,457.5469 481.4844,457.5469 C481.2656,457.5469 481.0625,457.625 480.875,457.8125 C480.4219,458.2969 480.4219,458.2969 480.2344,458.3906 C479.8125,458.6563 479.125,458.7813 478.3594,458.7813 C476.3125,458.7813 475.0156,457.6875 475.0156,455.9844 L475.0156,454.8906 C475.0156,453.1094 476.2656,451.7969 478,451.7969 C478.5781,451.7969 479.1875,451.9531 479.6563,452.2031 C480.1406,452.4844 480.3125,452.7031 480.4063,453.1094 C480.4688,453.5156 480.5,453.6406 480.6406,453.7656 C480.7813,453.9063 481.0156,454.0156 481.2344,454.0156 C481.5,454.0156 481.7656,453.875 481.9375,453.6563 C482.0469,453.5 482.0781,453.3125 482.0781,452.8906 L482.0781,451.4688 C482.0781,451.0313 482.0625,450.9063 481.9688,450.75 C481.8125,450.4844 481.5313,450.3438 481.2344,450.3438 C480.9375,450.3438 480.7344,450.4375 480.5156,450.75 L480.3438,450.6719 Z " fill="#000000"/><text fill="#000000" font-family="sans-serif" font-size="12" lengthAdjust="spacing" textLength="112" x="492" y="459.1543">EventSpatialTuning</text><line style="stroke:#A80036;stroke-width:1.5;" x1="464" x2="606" y1="471" y2="471"/><line style="stroke:#A80036;stroke-width:1.5;" x1="464" x2="606" y1="479" y2="479"/><!--MD5=[55cee7fba3fc8acb2eec15988af657cc]
class Occupancy--><rect fill="#FEFECE" filter="url(#f1t60b2lwg9kt9)" height="48" id="Occupancy" style="stroke:#A80036;stroke-width:1.5;" width="99" x="642.5" y="439"/><ellipse cx="657.5" cy="455" fill="#ADD1B2" rx="11" ry="11" style="stroke:#A80036;stroke-width:1.0;"/><path d="M659.8438,450.6719 C658.9063,450.2344 658.3125,450.0938 657.4375,450.0938 C654.8125,450.0938 652.8125,452.1719 652.8125,454.8906 L652.8125,456.0156 C652.8125,458.5938 654.9219,460.4844 657.8125,460.4844 C659.0313,460.4844 660.1875,460.1875 660.9375,459.6406 C661.5156,459.2344 661.8438,458.7813 661.8438,458.3906 C661.8438,457.9375 661.4531,457.5469 660.9844,457.5469 C660.7656,457.5469 660.5625,457.625 660.375,457.8125 C659.9219,458.2969 659.9219,458.2969 659.7344,458.3906 C659.3125,458.6563 658.625,458.7813 657.8594,458.7813 C655.8125,458.7813 654.5156,457.6875 654.5156,455.9844 L654.5156,454.8906 C654.5156,453.1094 655.7656,451.7969 657.5,451.7969 C658.0781,451.7969 658.6875,451.9531 659.1563,452.2031 C659.6406,452.4844 659.8125,452.7031 659.9063,453.1094 C659.9688,453.5156 660,453.6406 660.1406,453.7656 C660.2813,453.9063 660.5156,454.0156 660.7344,454.0156 C661,454.0156 661.2656,453.875 661.4375,453.6563 C661.5469,453.5 661.5781,453.3125 661.5781,452.8906 L661.5781,451.4688 C661.5781,451.0313 661.5625,450.9063 661.4688,450.75 C661.3125,450.4844 661.0313,450.3438 660.7344,450.3438 C660.4375,450.3438 660.2344,450.4375 660.0156,450.75 L659.8438,450.6719 Z " fill="#000000"/><text fill="#000000" font-family="sans-serif" font-size="12" lengthAdjust="spacing" textLength="67" x="671.5" y="459.1543">Occupancy</text><line style="stroke:#A80036;stroke-width:1.5;" x1="643.5" x2="740.5" y1="471" y2="471"/><line style="stroke:#A80036;stroke-width:1.5;" x1="643.5" x2="740.5" y1="479" y2="479"/><!--MD5=[4b6c881c43675ba56e8effbbed971238]
class PopulationVectorCorrelations--><rect fill="#FEFECE" filter="url(#f1t60b2lwg9kt9)" height="48" id="PopulationVectorCorrelations" style="stroke:#A80036;stroke-width:1.5;" width="206" x="7" y="439"/><ellipse cx="22" cy="455" fill="#ADD1B2" rx="11" ry="11" style="stroke:#A80036;stroke-width:1.0;"/><path d="M24.3438,450.6719 C23.4063,450.2344 22.8125,450.0938 21.9375,450.0938 C19.3125,450.0938 17.3125,452.1719 17.3125,454.8906 L17.3125,456.0156 C17.3125,458.5938 19.4219,460.4844 22.3125,460.4844 C23.5313,460.4844 24.6875,460.1875 25.4375,459.6406 C26.0156,459.2344 26.3438,458.7813 26.3438,458.3906 C26.3438,457.9375 25.9531,457.5469 25.4844,457.5469 C25.2656,457.5469 25.0625,457.625 24.875,457.8125 C24.4219,458.2969 24.4219,458.2969 24.2344,458.3906 C23.8125,458.6563 23.125,458.7813 22.3594,458.7813 C20.3125,458.7813 19.0156,457.6875 19.0156,455.9844 L19.0156,454.8906 C19.0156,453.1094 20.2656,451.7969 22,451.7969 C22.5781,451.7969 23.1875,451.9531 23.6563,452.2031 C24.1406,452.4844 24.3125,452.7031 24.4063,453.1094 C24.4688,453.5156 24.5,453.6406 24.6406,453.7656 C24.7813,453.9063 25.0156,454.0156 25.2344,454.0156 C25.5,454.0156 25.7656,453.875 25.9375,453.6563 C26.0469,453.5 26.0781,453.3125 26.0781,452.8906 L26.0781,451.4688 C26.0781,451.0313 26.0625,450.9063 25.9688,450.75 C25.8125,450.4844 25.5313,450.3438 25.2344,450.3438 C24.9375,450.3438 24.7344,450.4375 24.5156,450.75 L24.3438,450.6719 Z " fill="#000000"/><text fill="#000000" font-family="sans-serif" font-size="12" lengthAdjust="spacing" textLength="174" x="36" y="459.1543">PopulationVectorCorrelations</text><line style="stroke:#A80036;stroke-width:1.5;" x1="8" x2="212" y1="471" y2="471"/><line style="stroke:#A80036;stroke-width:1.5;" x1="8" x2="212" y1="479" y2="479"/><!--MD5=[f61fecd9b0bc01488990e23f80cf16ab]
class TuningCurveCorrelations--><rect fill="#FEFECE" filter="url(#f1t60b2lwg9kt9)" height="48" id="TuningCurveCorrelations" style="stroke:#A80036;stroke-width:1.5;" width="179" x="248.5" y="439"/><ellipse cx="263.5" cy="455" fill="#ADD1B2" rx="11" ry="11" style="stroke:#A80036;stroke-width:1.0;"/><path d="M265.8438,450.6719 C264.9063,450.2344 264.3125,450.0938 263.4375,450.0938 C260.8125,450.0938 258.8125,452.1719 258.8125,454.8906 L258.8125,456.0156 C258.8125,458.5938 260.9219,460.4844 263.8125,460.4844 C265.0313,460.4844 266.1875,460.1875 266.9375,459.6406 C267.5156,459.2344 267.8438,458.7813 267.8438,458.3906 C267.8438,457.9375 267.4531,457.5469 266.9844,457.5469 C266.7656,457.5469 266.5625,457.625 266.375,457.8125 C265.9219,458.2969 265.9219,458.2969 265.7344,458.3906 C265.3125,458.6563 264.625,458.7813 263.8594,458.7813 C261.8125,458.7813 260.5156,457.6875 260.5156,455.9844 L260.5156,454.8906 C260.5156,453.1094 261.7656,451.7969 263.5,451.7969 C264.0781,451.7969 264.6875,451.9531 265.1563,452.2031 C265.6406,452.4844 265.8125,452.7031 265.9063,453.1094 C265.9688,453.5156 266,453.6406 266.1406,453.7656 C266.2813,453.9063 266.5156,454.0156 266.7344,454.0156 C267,454.0156 267.2656,453.875 267.4375,453.6563 C267.5469,453.5 267.5781,453.3125 267.5781,452.8906 L267.5781,451.4688 C267.5781,451.0313 267.5625,450.9063 267.4688,450.75 C267.3125,450.4844 267.0313,450.3438 266.7344,450.3438 C266.4375,450.3438 266.2344,450.4375 266.0156,450.75 L265.8438,450.6719 Z " fill="#000000"/><text fill="#000000" font-family="sans-serif" font-size="12" lengthAdjust="spacing" textLength="147" x="277.5" y="459.1543">TuningCurveCorrelations</text><line style="stroke:#A80036;stroke-width:1.5;" x1="249.5" x2="426.5" y1="471" y2="471"/><line style="stroke:#A80036;stroke-width:1.5;" x1="249.5" x2="426.5" y1="479" y2="479"/><!--MD5=[9ae16a2c664e827aa93cef8175b558c8]
class SkaggsSpatialInformation--><rect fill="#FEFECE" filter="url(#f1t60b2lwg9kt9)" height="48" id="SkaggsSpatialInformation" style="stroke:#A80036;stroke-width:1.5;" width="184" x="443" y="547"/><ellipse cx="458" cy="563" fill="#ADD1B2" rx="11" ry="11" style="stroke:#A80036;stroke-width:1.0;"/><path d="M460.3438,558.6719 C459.4063,558.2344 458.8125,558.0938 457.9375,558.0938 C455.3125,558.0938 453.3125,560.1719 453.3125,562.8906 L453.3125,564.0156 C453.3125,566.5938 455.4219,568.4844 458.3125,568.4844 C459.5313,568.4844 460.6875,568.1875 461.4375,567.6406 C462.0156,567.2344 462.3438,566.7813 462.3438,566.3906 C462.3438,565.9375 461.9531,565.5469 461.4844,565.5469 C461.2656,565.5469 461.0625,565.625 460.875,565.8125 C460.4219,566.2969 460.4219,566.2969 460.2344,566.3906 C459.8125,566.6563 459.125,566.7813 458.3594,566.7813 C456.3125,566.7813 455.0156,565.6875 455.0156,563.9844 L455.0156,562.8906 C455.0156,561.1094 456.2656,559.7969 458,559.7969 C458.5781,559.7969 459.1875,559.9531 459.6563,560.2031 C460.1406,560.4844 460.3125,560.7031 460.4063,561.1094 C460.4688,561.5156 460.5,561.6406 460.6406,561.7656 C460.7813,561.9063 461.0156,562.0156 461.2344,562.0156 C461.5,562.0156 461.7656,561.875 461.9375,561.6563 C462.0469,561.5 462.0781,561.3125 462.0781,560.8906 L462.0781,559.4688 C462.0781,559.0313 462.0625,558.9063 461.9688,558.75 C461.8125,558.4844 461.5313,558.3438 461.2344,558.3438 C460.9375,558.3438 460.7344,558.4375 460.5156,558.75 L460.3438,558.6719 Z " fill="#000000"/><text fill="#000000" font-family="sans-serif" font-size="12" lengthAdjust="spacing" textLength="152" x="472" y="567.1543">SkaggsSpatialInformation</text><line style="stroke:#A80036;stroke-width:1.5;" x1="444" x2="626" y1="579" y2="579"/><line style="stroke:#A80036;stroke-width:1.5;" x1="444" x2="626" y1="587" y2="587"/><!--MD5=[fc0e804bc42a3c5e6d742c66d9f8152e]
class Kuiper--><rect fill="#FEFECE" filter="url(#f1t60b2lwg9kt9)" height="48" id="Kuiper" style="stroke:#A80036;stroke-width:1.5;" width="71" x="1401.5" y="115"/><ellipse cx="1416.5" cy="131" fill="#ADD1B2" rx="11" ry="11" style="stroke:#A80036;stroke-width:1.0;"/><path d="M1418.8438,126.6719 C1417.9063,126.2344 1417.3125,126.0938 1416.4375,126.0938 C1413.8125,126.0938 1411.8125,128.1719 1411.8125,130.8906 L1411.8125,132.0156 C1411.8125,134.5938 1413.9219,136.4844 1416.8125,136.4844 C1418.0313,136.4844 1419.1875,136.1875 1419.9375,135.6406 C1420.5156,135.2344 1420.8438,134.7813 1420.8438,134.3906 C1420.8438,133.9375 1420.4531,133.5469 1419.9844,133.5469 C1419.7656,133.5469 1419.5625,133.625 1419.375,133.8125 C1418.9219,134.2969 1418.9219,134.2969 1418.7344,134.3906 C1418.3125,134.6563 1417.625,134.7813 1416.8594,134.7813 C1414.8125,134.7813 1413.5156,133.6875 1413.5156,131.9844 L1413.5156,130.8906 C1413.5156,129.1094 1414.7656,127.7969 1416.5,127.7969 C1417.0781,127.7969 1417.6875,127.9531 1418.1563,128.2031 C1418.6406,128.4844 1418.8125,128.7031 1418.9063,129.1094 C1418.9688,129.5156 1419,129.6406 1419.1406,129.7656 C1419.2813,129.9063 1419.5156,130.0156 1419.7344,130.0156 C1420,130.0156 1420.2656,129.875 1420.4375,129.6563 C1420.5469,129.5 1420.5781,129.3125 1420.5781,128.8906 L1420.5781,127.4688 C1420.5781,127.0313 1420.5625,126.9063 1420.4688,126.75 C1420.3125,126.4844 1420.0313,126.3438 1419.7344,126.3438 C1419.4375,126.3438 1419.2344,126.4375 1419.0156,126.75 L1418.8438,126.6719 Z " fill="#000000"/><text fill="#000000" font-family="sans-serif" font-size="12" lengthAdjust="spacing" textLength="39" x="1430.5" y="135.1543">Kuiper</text><line style="stroke:#A80036;stroke-width:1.5;" x1="1402.5" x2="1471.5" y1="147" y2="147"/><line style="stroke:#A80036;stroke-width:1.5;" x1="1402.5" x2="1471.5" y1="155" y2="155"/><!--MD5=[85590f9ae73402143ddb0e28c8babdea]
class BaseSignalAnalysis--><rect fill="#FEFECE" filter="url(#f1t60b2lwg9kt9)" height="48" id="BaseSignalAnalysis" style="stroke:#A80036;stroke-width:1.5;" width="147" x="1913.5" y="7"/><ellipse cx="1928.5" cy="23" fill="#ADD1B2" rx="11" ry="11" style="stroke:#A80036;stroke-width:1.0;"/><path d="M1930.8438,18.6719 C1929.9063,18.2344 1929.3125,18.0938 1928.4375,18.0938 C1925.8125,18.0938 1923.8125,20.1719 1923.8125,22.8906 L1923.8125,24.0156 C1923.8125,26.5938 1925.9219,28.4844 1928.8125,28.4844 C1930.0313,28.4844 1931.1875,28.1875 1931.9375,27.6406 C1932.5156,27.2344 1932.8438,26.7813 1932.8438,26.3906 C1932.8438,25.9375 1932.4531,25.5469 1931.9844,25.5469 C1931.7656,25.5469 1931.5625,25.625 1931.375,25.8125 C1930.9219,26.2969 1930.9219,26.2969 1930.7344,26.3906 C1930.3125,26.6563 1929.625,26.7813 1928.8594,26.7813 C1926.8125,26.7813 1925.5156,25.6875 1925.5156,23.9844 L1925.5156,22.8906 C1925.5156,21.1094 1926.7656,19.7969 1928.5,19.7969 C1929.0781,19.7969 1929.6875,19.9531 1930.1563,20.2031 C1930.6406,20.4844 1930.8125,20.7031 1930.9063,21.1094 C1930.9688,21.5156 1931,21.6406 1931.1406,21.7656 C1931.2813,21.9063 1931.5156,22.0156 1931.7344,22.0156 C1932,22.0156 1932.2656,21.875 1932.4375,21.6563 C1932.5469,21.5 1932.5781,21.3125 1932.5781,20.8906 L1932.5781,19.4688 C1932.5781,19.0313 1932.5625,18.9063 1932.4688,18.75 C1932.3125,18.4844 1932.0313,18.3438 1931.7344,18.3438 C1931.4375,18.3438 1931.2344,18.4375 1931.0156,18.75 L1930.8438,18.6719 Z " fill="#000000"/><text fill="#000000" font-family="sans-serif" font-size="12" lengthAdjust="spacing" textLength="115" x="1942.5" y="27.1543">BaseSignalAnalysis</text><line style="stroke:#A80036;stroke-width:1.5;" x1="1914.5" x2="2059.5" y1="39" y2="39"/><line style="stroke:#A80036;stroke-width:1.5;" x1="1914.5" x2="2059.5" y1="47" y2="47"/><!--MD5=[655e50b646e774fd43ae484185cadbe8]
class PlaceFieldStrategy--><rect fill="#FEFECE" filter="url(#f1t60b2lwg9kt9)" height="48" id="PlaceFieldStrategy" style="stroke:#A80036;stroke-width:1.5;" width="143" x="1779.5" y="115"/><ellipse cx="1794.5" cy="131" fill="#ADD1B2" rx="11" ry="11" style="stroke:#A80036;stroke-width:1.0;"/><path d="M1796.8438,126.6719 C1795.9063,126.2344 1795.3125,126.0938 1794.4375,126.0938 C1791.8125,126.0938 1789.8125,128.1719 1789.8125,130.8906 L1789.8125,132.0156 C1789.8125,134.5938 1791.9219,136.4844 1794.8125,136.4844 C1796.0313,136.4844 1797.1875,136.1875 1797.9375,135.6406 C1798.5156,135.2344 1798.8438,134.7813 1798.8438,134.3906 C1798.8438,133.9375 1798.4531,133.5469 1797.9844,133.5469 C1797.7656,133.5469 1797.5625,133.625 1797.375,133.8125 C1796.9219,134.2969 1796.9219,134.2969 1796.7344,134.3906 C1796.3125,134.6563 1795.625,134.7813 1794.8594,134.7813 C1792.8125,134.7813 1791.5156,133.6875 1791.5156,131.9844 L1791.5156,130.8906 C1791.5156,129.1094 1792.7656,127.7969 1794.5,127.7969 C1795.0781,127.7969 1795.6875,127.9531 1796.1563,128.2031 C1796.6406,128.4844 1796.8125,128.7031 1796.9063,129.1094 C1796.9688,129.5156 1797,129.6406 1797.1406,129.7656 C1797.2813,129.9063 1797.5156,130.0156 1797.7344,130.0156 C1798,130.0156 1798.2656,129.875 1798.4375,129.6563 C1798.5469,129.5 1798.5781,129.3125 1798.5781,128.8906 L1798.5781,127.4688 C1798.5781,127.0313 1798.5625,126.9063 1798.4688,126.75 C1798.3125,126.4844 1798.0313,126.3438 1797.7344,126.3438 C1797.4375,126.3438 1797.2344,126.4375 1797.0156,126.75 L1796.8438,126.6719 Z " fill="#000000"/><text fill="#000000" font-family="sans-serif" font-size="12" lengthAdjust="spacing" textLength="111" x="1808.5" y="135.1543">PlaceFieldStrategy</text><line style="stroke:#A80036;stroke-width:1.5;" x1="1780.5" x2="1921.5" y1="147" y2="147"/><line style="stroke:#A80036;stroke-width:1.5;" x1="1780.5" x2="1921.5" y1="155" y2="155"/><!--MD5=[8fd0b9a7524e577c7fee7058f713e021]
class PlaceFieldMeta--><rect fill="#FEFECE" filter="url(#f1t60b2lwg9kt9)" height="48" id="PlaceFieldMeta" style="stroke:#A80036;stroke-width:1.5;" width="121" x="1757.5" y="7"/><ellipse cx="1772.5" cy="23" fill="#ADD1B2" rx="11" ry="11" style="stroke:#A80036;stroke-width:1.0;"/><path d="M1774.8438,18.6719 C1773.9063,18.2344 1773.3125,18.0938 1772.4375,18.0938 C1769.8125,18.0938 1767.8125,20.1719 1767.8125,22.8906 L1767.8125,24.0156 C1767.8125,26.5938 1769.9219,28.4844 1772.8125,28.4844 C1774.0313,28.4844 1775.1875,28.1875 1775.9375,27.6406 C1776.5156,27.2344 1776.8438,26.7813 1776.8438,26.3906 C1776.8438,25.9375 1776.4531,25.5469 1775.9844,25.5469 C1775.7656,25.5469 1775.5625,25.625 1775.375,25.8125 C1774.9219,26.2969 1774.9219,26.2969 1774.7344,26.3906 C1774.3125,26.6563 1773.625,26.7813 1772.8594,26.7813 C1770.8125,26.7813 1769.5156,25.6875 1769.5156,23.9844 L1769.5156,22.8906 C1769.5156,21.1094 1770.7656,19.7969 1772.5,19.7969 C1773.0781,19.7969 1773.6875,19.9531 1774.1563,20.2031 C1774.6406,20.4844 1774.8125,20.7031 1774.9063,21.1094 C1774.9688,21.5156 1775,21.6406 1775.1406,21.7656 C1775.2813,21.9063 1775.5156,22.0156 1775.7344,22.0156 C1776,22.0156 1776.2656,21.875 1776.4375,21.6563 C1776.5469,21.5 1776.5781,21.3125 1776.5781,20.8906 L1776.5781,19.4688 C1776.5781,19.0313 1776.5625,18.9063 1776.4688,18.75 C1776.3125,18.4844 1776.0313,18.3438 1775.7344,18.3438 C1775.4375,18.3438 1775.2344,18.4375 1775.0156,18.75 L1774.8438,18.6719 Z " fill="#000000"/><text fill="#000000" font-family="sans-serif" font-size="12" lengthAdjust="spacing" textLength="89" x="1786.5" y="27.1543">PlaceFieldMeta</text><line style="stroke:#A80036;stroke-width:1.5;" x1="1758.5" x2="1877.5" y1="39" y2="39"/><line style="stroke:#A80036;stroke-width:1.5;" x1="1758.5" x2="1877.5" y1="47" y2="47"/><!--MD5=[094aec953e580b1607ad7659ea62ad9e]
class SimplePFDetector--><rect fill="#FEFECE" filter="url(#f1t60b2lwg9kt9)" height="48" id="SimplePFDetector" style="stroke:#A80036;stroke-width:1.5;" width="139" x="1637.5" y="223"/><ellipse cx="1652.5" cy="239" fill="#ADD1B2" rx="11" ry="11" style="stroke:#A80036;stroke-width:1.0;"/><path d="M1654.8438,234.6719 C1653.9063,234.2344 1653.3125,234.0938 1652.4375,234.0938 C1649.8125,234.0938 1647.8125,236.1719 1647.8125,238.8906 L1647.8125,240.0156 C1647.8125,242.5938 1649.9219,244.4844 1652.8125,244.4844 C1654.0313,244.4844 1655.1875,244.1875 1655.9375,243.6406 C1656.5156,243.2344 1656.8438,242.7813 1656.8438,242.3906 C1656.8438,241.9375 1656.4531,241.5469 1655.9844,241.5469 C1655.7656,241.5469 1655.5625,241.625 1655.375,241.8125 C1654.9219,242.2969 1654.9219,242.2969 1654.7344,242.3906 C1654.3125,242.6563 1653.625,242.7813 1652.8594,242.7813 C1650.8125,242.7813 1649.5156,241.6875 1649.5156,239.9844 L1649.5156,238.8906 C1649.5156,237.1094 1650.7656,235.7969 1652.5,235.7969 C1653.0781,235.7969 1653.6875,235.9531 1654.1563,236.2031 C1654.6406,236.4844 1654.8125,236.7031 1654.9063,237.1094 C1654.9688,237.5156 1655,237.6406 1655.1406,237.7656 C1655.2813,237.9063 1655.5156,238.0156 1655.7344,238.0156 C1656,238.0156 1656.2656,237.875 1656.4375,237.6563 C1656.5469,237.5 1656.5781,237.3125 1656.5781,236.8906 L1656.5781,235.4688 C1656.5781,235.0313 1656.5625,234.9063 1656.4688,234.75 C1656.3125,234.4844 1656.0313,234.3438 1655.7344,234.3438 C1655.4375,234.3438 1655.2344,234.4375 1655.0156,234.75 L1654.8438,234.6719 Z " fill="#000000"/><text fill="#000000" font-family="sans-serif" font-size="12" lengthAdjust="spacing" textLength="107" x="1666.5" y="243.1543">SimplePFDetector</text><line style="stroke:#A80036;stroke-width:1.5;" x1="1638.5" x2="1775.5" y1="255" y2="255"/><line style="stroke:#A80036;stroke-width:1.5;" x1="1638.5" x2="1775.5" y1="263" y2="263"/><!--MD5=[3fe2520de9b19a5a62eed48942c24ed6]
class SignedPFDetector--><rect fill="#FEFECE" filter="url(#f1t60b2lwg9kt9)" height="48" id="SignedPFDetector" style="stroke:#A80036;stroke-width:1.5;" width="140" x="1637" y="331"/><ellipse cx="1652" cy="347" fill="#ADD1B2" rx="11" ry="11" style="stroke:#A80036;stroke-width:1.0;"/><path d="M1654.3438,342.6719 C1653.4063,342.2344 1652.8125,342.0938 1651.9375,342.0938 C1649.3125,342.0938 1647.3125,344.1719 1647.3125,346.8906 L1647.3125,348.0156 C1647.3125,350.5938 1649.4219,352.4844 1652.3125,352.4844 C1653.5313,352.4844 1654.6875,352.1875 1655.4375,351.6406 C1656.0156,351.2344 1656.3438,350.7813 1656.3438,350.3906 C1656.3438,349.9375 1655.9531,349.5469 1655.4844,349.5469 C1655.2656,349.5469 1655.0625,349.625 1654.875,349.8125 C1654.4219,350.2969 1654.4219,350.2969 1654.2344,350.3906 C1653.8125,350.6563 1653.125,350.7813 1652.3594,350.7813 C1650.3125,350.7813 1649.0156,349.6875 1649.0156,347.9844 L1649.0156,346.8906 C1649.0156,345.1094 1650.2656,343.7969 1652,343.7969 C1652.5781,343.7969 1653.1875,343.9531 1653.6563,344.2031 C1654.1406,344.4844 1654.3125,344.7031 1654.4063,345.1094 C1654.4688,345.5156 1654.5,345.6406 1654.6406,345.7656 C1654.7813,345.9063 1655.0156,346.0156 1655.2344,346.0156 C1655.5,346.0156 1655.7656,345.875 1655.9375,345.6563 C1656.0469,345.5 1656.0781,345.3125 1656.0781,344.8906 L1656.0781,343.4688 C1656.0781,343.0313 1656.0625,342.9063 1655.9688,342.75 C1655.8125,342.4844 1655.5313,342.3438 1655.2344,342.3438 C1654.9375,342.3438 1654.7344,342.4375 1654.5156,342.75 L1654.3438,342.6719 Z " fill="#000000"/><text fill="#000000" font-family="sans-serif" font-size="12" lengthAdjust="spacing" textLength="108" x="1666" y="351.1543">SignedPFDetector</text><line style="stroke:#A80036;stroke-width:1.5;" x1="1638" x2="1776" y1="363" y2="363"/><line style="stroke:#A80036;stroke-width:1.5;" x1="1638" x2="1776" y1="371" y2="371"/><!--MD5=[5b5cd970729ce70ee2e09cf2db9970be]
class PeakPFDetector--><rect fill="#FEFECE" filter="url(#f1t60b2lwg9kt9)" height="48" id="PeakPFDetector" style="stroke:#A80036;stroke-width:1.5;" width="126" x="1812" y="223"/><ellipse cx="1827" cy="239" fill="#ADD1B2" rx="11" ry="11" style="stroke:#A80036;stroke-width:1.0;"/><path d="M1829.3438,234.6719 C1828.4063,234.2344 1827.8125,234.0938 1826.9375,234.0938 C1824.3125,234.0938 1822.3125,236.1719 1822.3125,238.8906 L1822.3125,240.0156 C1822.3125,242.5938 1824.4219,244.4844 1827.3125,244.4844 C1828.5313,244.4844 1829.6875,244.1875 1830.4375,243.6406 C1831.0156,243.2344 1831.3438,242.7813 1831.3438,242.3906 C1831.3438,241.9375 1830.9531,241.5469 1830.4844,241.5469 C1830.2656,241.5469 1830.0625,241.625 1829.875,241.8125 C1829.4219,242.2969 1829.4219,242.2969 1829.2344,242.3906 C1828.8125,242.6563 1828.125,242.7813 1827.3594,242.7813 C1825.3125,242.7813 1824.0156,241.6875 1824.0156,239.9844 L1824.0156,238.8906 C1824.0156,237.1094 1825.2656,235.7969 1827,235.7969 C1827.5781,235.7969 1828.1875,235.9531 1828.6563,236.2031 C1829.1406,236.4844 1829.3125,236.7031 1829.4063,237.1094 C1829.4688,237.5156 1829.5,237.6406 1829.6406,237.7656 C1829.7813,237.9063 1830.0156,238.0156 1830.2344,238.0156 C1830.5,238.0156 1830.7656,237.875 1830.9375,237.6563 C1831.0469,237.5 1831.0781,237.3125 1831.0781,236.8906 L1831.0781,235.4688 C1831.0781,235.0313 1831.0625,234.9063 1830.9688,234.75 C1830.8125,234.4844 1830.5313,234.3438 1830.2344,234.3438 C1829.9375,234.3438 1829.7344,234.4375 1829.5156,234.75 L1829.3438,234.6719 Z " fill="#000000"/><text fill="#000000" font-family="sans-serif" font-size="12" lengthAdjust="spacing" textLength="94" x="1841" y="243.1543">PeakPFDetector</text><line style="stroke:#A80036;stroke-width:1.5;" x1="1813" x2="1937" y1="255" y2="255"/><line style="stroke:#A80036;stroke-width:1.5;" x1="1813" x2="1937" y1="263" y2="263"/><!--MD5=[780ae08494f9f3ddf7442a5b6c5a22bd]
class AutocorrelationMixin--><rect fill="#FEFECE" filter="url(#f1t60b2lwg9kt9)" height="48" id="AutocorrelationMixin" style="stroke:#A80036;stroke-width:1.5;" width="154" x="783" y="331"/><ellipse cx="798" cy="347" fill="#ADD1B2" rx="11" ry="11" style="stroke:#A80036;stroke-width:1.0;"/><path d="M800.3438,342.6719 C799.4063,342.2344 798.8125,342.0938 797.9375,342.0938 C795.3125,342.0938 793.3125,344.1719 793.3125,346.8906 L793.3125,348.0156 C793.3125,350.5938 795.4219,352.4844 798.3125,352.4844 C799.5313,352.4844 800.6875,352.1875 801.4375,351.6406 C802.0156,351.2344 802.3438,350.7813 802.3438,350.3906 C802.3438,349.9375 801.9531,349.5469 801.4844,349.5469 C801.2656,349.5469 801.0625,349.625 800.875,349.8125 C800.4219,350.2969 800.4219,350.2969 800.2344,350.3906 C799.8125,350.6563 799.125,350.7813 798.3594,350.7813 C796.3125,350.7813 795.0156,349.6875 795.0156,347.9844 L795.0156,346.8906 C795.0156,345.1094 796.2656,343.7969 798,343.7969 C798.5781,343.7969 799.1875,343.9531 799.6563,344.2031 C800.1406,344.4844 800.3125,344.7031 800.4063,345.1094 C800.4688,345.5156 800.5,345.6406 800.6406,345.7656 C800.7813,345.9063 801.0156,346.0156 801.2344,346.0156 C801.5,346.0156 801.7656,345.875 801.9375,345.6563 C802.0469,345.5 802.0781,345.3125 802.0781,344.8906 L802.0781,343.4688 C802.0781,343.0313 802.0625,342.9063 801.9688,342.75 C801.8125,342.4844 801.5313,342.3438 801.2344,342.3438 C800.9375,342.3438 800.7344,342.4375 800.5156,342.75 L800.3438,342.6719 Z " fill="#000000"/><text fill="#000000" font-family="sans-serif" font-size="12" lengthAdjust="spacing" textLength="122" x="812" y="351.1543">AutocorrelationMixin</text><line style="stroke:#A80036;stroke-width:1.5;" x1="784" x2="936" y1="363" y2="363"/><line style="stroke:#A80036;stroke-width:1.5;" x1="784" x2="936" y1="371" y2="371"/><!--MD5=[3f448abd8f7d352f39f034aeea01e9eb]
class SpatialAutocorrelation--><rect fill="#FEFECE" filter="url(#f1t60b2lwg9kt9)" height="48" id="SpatialAutocorrelation" style="stroke:#A80036;stroke-width:1.5;" width="164" x="777" y="439"/><ellipse cx="792" cy="455" fill="#ADD1B2" rx="11" ry="11" style="stroke:#A80036;stroke-width:1.0;"/><path d="M794.3438,450.6719 C793.4063,450.2344 792.8125,450.0938 791.9375,450.0938 C789.3125,450.0938 787.3125,452.1719 787.3125,454.8906 L787.3125,456.0156 C787.3125,458.5938 789.4219,460.4844 792.3125,460.4844 C793.5313,460.4844 794.6875,460.1875 795.4375,459.6406 C796.0156,459.2344 796.3438,458.7813 796.3438,458.3906 C796.3438,457.9375 795.9531,457.5469 795.4844,457.5469 C795.2656,457.5469 795.0625,457.625 794.875,457.8125 C794.4219,458.2969 794.4219,458.2969 794.2344,458.3906 C793.8125,458.6563 793.125,458.7813 792.3594,458.7813 C790.3125,458.7813 789.0156,457.6875 789.0156,455.9844 L789.0156,454.8906 C789.0156,453.1094 790.2656,451.7969 792,451.7969 C792.5781,451.7969 793.1875,451.9531 793.6563,452.2031 C794.1406,452.4844 794.3125,452.7031 794.4063,453.1094 C794.4688,453.5156 794.5,453.6406 794.6406,453.7656 C794.7813,453.9063 795.0156,454.0156 795.2344,454.0156 C795.5,454.0156 795.7656,453.875 795.9375,453.6563 C796.0469,453.5 796.0781,453.3125 796.0781,452.8906 L796.0781,451.4688 C796.0781,451.0313 796.0625,450.9063 795.9688,450.75 C795.8125,450.4844 795.5313,450.3438 795.2344,450.3438 C794.9375,450.3438 794.7344,450.4375 794.5156,450.75 L794.3438,450.6719 Z " fill="#000000"/><text fill="#000000" font-family="sans-serif" font-size="12" lengthAdjust="spacing" textLength="132" x="806" y="459.1543">SpatialAutocorrelation</text><line style="stroke:#A80036;stroke-width:1.5;" x1="778" x2="940" y1="471" y2="471"/><line style="stroke:#A80036;stroke-width:1.5;" x1="778" x2="940" y1="479" y2="479"/><!--MD5=[4c1d6359098f8c8201b2438818952a3d]
class SpatialAutocorrelationWidth--><rect fill="#FEFECE" filter="url(#f1t60b2lwg9kt9)" height="48" id="SpatialAutocorrelationWidth" style="stroke:#A80036;stroke-width:1.5;" width="198" x="760" y="547"/><ellipse cx="775" cy="563" fill="#ADD1B2" rx="11" ry="11" style="stroke:#A80036;stroke-width:1.0;"/><path d="M777.3438,558.6719 C776.4063,558.2344 775.8125,558.0938 774.9375,558.0938 C772.3125,558.0938 770.3125,560.1719 770.3125,562.8906 L770.3125,564.0156 C770.3125,566.5938 772.4219,568.4844 775.3125,568.4844 C776.5313,568.4844 777.6875,568.1875 778.4375,567.6406 C779.0156,567.2344 779.3438,566.7813 779.3438,566.3906 C779.3438,565.9375 778.9531,565.5469 778.4844,565.5469 C778.2656,565.5469 778.0625,565.625 777.875,565.8125 C777.4219,566.2969 777.4219,566.2969 777.2344,566.3906 C776.8125,566.6563 776.125,566.7813 775.3594,566.7813 C773.3125,566.7813 772.0156,565.6875 772.0156,563.9844 L772.0156,562.8906 C772.0156,561.1094 773.2656,559.7969 775,559.7969 C775.5781,559.7969 776.1875,559.9531 776.6563,560.2031 C777.1406,560.4844 777.3125,560.7031 777.4063,561.1094 C777.4688,561.5156 777.5,561.6406 777.6406,561.7656 C777.7813,561.9063 778.0156,562.0156 778.2344,562.0156 C778.5,562.0156 778.7656,561.875 778.9375,561.6563 C779.0469,561.5 779.0781,561.3125 779.0781,560.8906 L779.0781,559.4688 C779.0781,559.0313 779.0625,558.9063 778.9688,558.75 C778.8125,558.4844 778.5313,558.3438 778.2344,558.3438 C777.9375,558.3438 777.7344,558.4375 777.5156,558.75 L777.3438,558.6719 Z " fill="#000000"/><text fill="#000000" font-family="sans-serif" font-size="12" lengthAdjust="spacing" textLength="166" x="789" y="567.1543">SpatialAutocorrelationWidth</text><line style="stroke:#A80036;stroke-width:1.5;" x1="761" x2="957" y1="579" y2="579"/><line style="stroke:#A80036;stroke-width:1.5;" x1="761" x2="957" y1="587" y2="587"/><!--MD5=[6058caa3e0aed3f589f46f4143369d65]
class SpatialTuningStrategy--><rect fill="#FEFECE" filter="url(#f1t60b2lwg9kt9)" height="48" id="SpatialTuningStrategy" style="stroke:#A80036;stroke-width:1.5;" width="162" x="1991" y="115"/><ellipse cx="2006" cy="131" fill="#ADD1B2" rx="11" ry="11" style="stroke:#A80036;stroke-width:1.0;"/><path d="M2008.3438,126.6719 C2007.4063,126.2344 2006.8125,126.0938 2005.9375,126.0938 C2003.3125,126.0938 2001.3125,128.1719 2001.3125,130.8906 L2001.3125,132.0156 C2001.3125,134.5938 2003.4219,136.4844 2006.3125,136.4844 C2007.5313,136.4844 2008.6875,136.1875 2009.4375,135.6406 C2010.0156,135.2344 2010.3438,134.7813 2010.3438,134.3906 C2010.3438,133.9375 2009.9531,133.5469 2009.4844,133.5469 C2009.2656,133.5469 2009.0625,133.625 2008.875,133.8125 C2008.4219,134.2969 2008.4219,134.2969 2008.2344,134.3906 C2007.8125,134.6563 2007.125,134.7813 2006.3594,134.7813 C2004.3125,134.7813 2003.0156,133.6875 2003.0156,131.9844 L2003.0156,130.8906 C2003.0156,129.1094 2004.2656,127.7969 2006,127.7969 C2006.5781,127.7969 2007.1875,127.9531 2007.6563,128.2031 C2008.1406,128.4844 2008.3125,128.7031 2008.4063,129.1094 C2008.4688,129.5156 2008.5,129.6406 2008.6406,129.7656 C2008.7813,129.9063 2009.0156,130.0156 2009.2344,130.0156 C2009.5,130.0156 2009.7656,129.875 2009.9375,129.6563 C2010.0469,129.5 2010.0781,129.3125 2010.0781,128.8906 L2010.0781,127.4688 C2010.0781,127.0313 2010.0625,126.9063 2009.9688,126.75 C2009.8125,126.4844 2009.5313,126.3438 2009.2344,126.3438 C2008.9375,126.3438 2008.7344,126.4375 2008.5156,126.75 L2008.3438,126.6719 Z " fill="#000000"/><text fill="#000000" font-family="sans-serif" font-size="12" lengthAdjust="spacing" textLength="130" x="2020" y="135.1543">SpatialTuningStrategy</text><line style="stroke:#A80036;stroke-width:1.5;" x1="1992" x2="2152" y1="147" y2="147"/><line style="stroke:#A80036;stroke-width:1.5;" x1="1992" x2="2152" y1="155" y2="155"/><!--MD5=[2b96faa03152b4c8a739642b471d8c88]
class ABCMeta--><rect fill="#FEFECE" filter="url(#f1t60b2lwg9kt9)" height="48" id="ABCMeta" style="stroke:#A80036;stroke-width:1.5;" width="85" x="2095.5" y="7"/><ellipse cx="2110.5" cy="23" fill="#ADD1B2" rx="11" ry="11" style="stroke:#A80036;stroke-width:1.0;"/><path d="M2112.8438,18.6719 C2111.9063,18.2344 2111.3125,18.0938 2110.4375,18.0938 C2107.8125,18.0938 2105.8125,20.1719 2105.8125,22.8906 L2105.8125,24.0156 C2105.8125,26.5938 2107.9219,28.4844 2110.8125,28.4844 C2112.0313,28.4844 2113.1875,28.1875 2113.9375,27.6406 C2114.5156,27.2344 2114.8438,26.7813 2114.8438,26.3906 C2114.8438,25.9375 2114.4531,25.5469 2113.9844,25.5469 C2113.7656,25.5469 2113.5625,25.625 2113.375,25.8125 C2112.9219,26.2969 2112.9219,26.2969 2112.7344,26.3906 C2112.3125,26.6563 2111.625,26.7813 2110.8594,26.7813 C2108.8125,26.7813 2107.5156,25.6875 2107.5156,23.9844 L2107.5156,22.8906 C2107.5156,21.1094 2108.7656,19.7969 2110.5,19.7969 C2111.0781,19.7969 2111.6875,19.9531 2112.1563,20.2031 C2112.6406,20.4844 2112.8125,20.7031 2112.9063,21.1094 C2112.9688,21.5156 2113,21.6406 2113.1406,21.7656 C2113.2813,21.9063 2113.5156,22.0156 2113.7344,22.0156 C2114,22.0156 2114.2656,21.875 2114.4375,21.6563 C2114.5469,21.5 2114.5781,21.3125 2114.5781,20.8906 L2114.5781,19.4688 C2114.5781,19.0313 2114.5625,18.9063 2114.4688,18.75 C2114.3125,18.4844 2114.0313,18.3438 2113.7344,18.3438 C2113.4375,18.3438 2113.2344,18.4375 2113.0156,18.75 L2112.8438,18.6719 Z " fill="#000000"/><text fill="#000000" font-family="sans-serif" font-size="12" lengthAdjust="spacing" textLength="53" x="2124.5" y="27.1543">ABCMeta</text><line style="stroke:#A80036;stroke-width:1.5;" x1="2096.5" x2="2179.5" y1="39" y2="39"/><line style="stroke:#A80036;stroke-width:1.5;" x1="2096.5" x2="2179.5" y1="47" y2="47"/><!--MD5=[7952bd31a46a6bb2b9fd3ae02547e2ba]
class SimpleSpatialTuning--><rect fill="#FEFECE" filter="url(#f1t60b2lwg9kt9)" height="48" id="SimpleSpatialTuning" style="stroke:#A80036;stroke-width:1.5;" width="152" x="1996" y="223"/><ellipse cx="2011" cy="239" fill="#ADD1B2" rx="11" ry="11" style="stroke:#A80036;stroke-width:1.0;"/><path d="M2013.3438,234.6719 C2012.4063,234.2344 2011.8125,234.0938 2010.9375,234.0938 C2008.3125,234.0938 2006.3125,236.1719 2006.3125,238.8906 L2006.3125,240.0156 C2006.3125,242.5938 2008.4219,244.4844 2011.3125,244.4844 C2012.5313,244.4844 2013.6875,244.1875 2014.4375,243.6406 C2015.0156,243.2344 2015.3438,242.7813 2015.3438,242.3906 C2015.3438,241.9375 2014.9531,241.5469 2014.4844,241.5469 C2014.2656,241.5469 2014.0625,241.625 2013.875,241.8125 C2013.4219,242.2969 2013.4219,242.2969 2013.2344,242.3906 C2012.8125,242.6563 2012.125,242.7813 2011.3594,242.7813 C2009.3125,242.7813 2008.0156,241.6875 2008.0156,239.9844 L2008.0156,238.8906 C2008.0156,237.1094 2009.2656,235.7969 2011,235.7969 C2011.5781,235.7969 2012.1875,235.9531 2012.6563,236.2031 C2013.1406,236.4844 2013.3125,236.7031 2013.4063,237.1094 C2013.4688,237.5156 2013.5,237.6406 2013.6406,237.7656 C2013.7813,237.9063 2014.0156,238.0156 2014.2344,238.0156 C2014.5,238.0156 2014.7656,237.875 2014.9375,237.6563 C2015.0469,237.5 2015.0781,237.3125 2015.0781,236.8906 L2015.0781,235.4688 C2015.0781,235.0313 2015.0625,234.9063 2014.9688,234.75 C2014.8125,234.4844 2014.5313,234.3438 2014.2344,234.3438 C2013.9375,234.3438 2013.7344,234.4375 2013.5156,234.75 L2013.3438,234.6719 Z " fill="#000000"/><text fill="#000000" font-family="sans-serif" font-size="12" lengthAdjust="spacing" textLength="120" x="2025" y="243.1543">SimpleSpatialTuning</text><line style="stroke:#A80036;stroke-width:1.5;" x1="1997" x2="2147" y1="255" y2="255"/><line style="stroke:#A80036;stroke-width:1.5;" x1="1997" x2="2147" y1="263" y2="263"/><!--MD5=[8ae30cf691c985a545d5206b2468ba4d]
reverse link Analysis to SignalAnalysis--><path codeLine="2" d="M1347.77,72.134 C1339.09,86.499 1329.61,102.207 1322.08,114.678 " fill="none" id="Analysis-backto-SignalAnalysis" style="stroke:#A80036;stroke-width:1.0;"/><polygon fill="none" points="1341.78,68.504,1358.11,55,1353.77,75.74,1341.78,68.504" style="stroke:#A80036;stroke-width:1.0;"/><!--MD5=[6b70f7c2be2f3bb5814bfac36ccb092c]
reverse link SignalAnalysis to FeatureExtractor--><path codeLine="5" d="M1294.26,182.639 C1290.2,195.569 1285.82,209.835 1282,223 C1271.11,260.531 1259.63,304.47 1252.9,330.727 " fill="none" id="SignalAnalysis-backto-FeatureExtractor" style="stroke:#A80036;stroke-width:1.0;"/><polygon fill="none" points="1287.72,180.114,1300.45,163.175,1301.06,184.356,1287.72,180.114" style="stroke:#A80036;stroke-width:1.0;"/><!--MD5=[286c1a83496f3dfbcec5058dbd39df1e]
reverse link SpatialTuning to SpatialFeatureExtractor--><path codeLine="6" d="M767.029,379.497 C847.842,403.394 921.535,423.875 976.653,438.945 " fill="none" id="SpatialTuning-backto-SpatialFeatureExtractor" style="stroke:#A80036;stroke-width:1.0;"/><polygon fill="none" points="764.921,386.173,747.742,373.769,768.907,372.753,764.921,386.173" style="stroke:#A80036;stroke-width:1.0;"/><!--MD5=[3dde6aabf5841cafe5d160d2de4ad9b0]
reverse link FeatureExtractor to SpatialFeatureExtractor--><path codeLine="7" d="M1189.19,389.121 C1161.01,405.27 1127.8,424.298 1102.38,438.862 " fill="none" id="FeatureExtractor-backto-SpatialFeatureExtractor" style="stroke:#A80036;stroke-width:1.0;"/><polygon fill="none" points="1186.02,382.87,1206.86,379,1192.98,395.017,1186.02,382.87" style="stroke:#A80036;stroke-width:1.0;"/><!--MD5=[be2e6acfb587f333a8e125b99ee2be83]
reverse link FeatureExtractor to ResponsivenessFeatureExtractor--><path codeLine="8" d="M1231.64,398.339 C1224.55,425.408 1220.69,460.314 1236,487 C1251.85,514.6159 1280.83,533.921 1308.49,546.9159 " fill="none" id="FeatureExtractor-backto-ResponsivenessFeatureExtractor" style="stroke:#A80036;stroke-width:1.0;"/><polygon fill="none" points="1225.01,396.09,1237.57,379.025,1238.39,400.199,1225.01,396.09" style="stroke:#A80036;stroke-width:1.0;"/><!--MD5=[86ec47df92f87f8bee756b4f0bfb9e82]
reverse link Responsiveness to ResponsivenessFeatureExtractor--><path codeLine="9" d="M1499.99,497.3518 C1472.96,513.451 1441.19,532.3677 1416.85,546.8617 " fill="none" id="Responsiveness-backto-ResponsivenessFeatureExtractor" style="stroke:#A80036;stroke-width:1.0;"/><polygon fill="none" points="1496.61,491.219,1517.38,487,1503.77,503.2479,1496.61,491.219" style="stroke:#A80036;stroke-width:1.0;"/><!--MD5=[05ac8de5b5d02d29c39bca5514c71f53]
reverse link FeatureExtractor to Moment--><path codeLine="10" d="M1265.43,397.575 C1271.63,411.543 1278.31,426.622 1283.66,438.678 " fill="none" id="FeatureExtractor-backto-Moment" style="stroke:#A80036;stroke-width:1.0;"/><polygon fill="none" points="1258.91,400.121,1257.2,379,1271.7,394.446,1258.91,400.121" style="stroke:#A80036;stroke-width:1.0;"/><!--MD5=[48a6f01f3554f95e6511a2bc4febbcd4]
reverse link FeatureExtractor to Cumulant--><path codeLine="11" d="M1299.64,389.815 C1324.54,405.813 1353.64,424.506 1375.98,438.862 " fill="none" id="FeatureExtractor-backto-Cumulant" style="stroke:#A80036;stroke-width:1.0;"/><polygon fill="none" points="1295.85,395.7,1282.8,379,1303.41,383.921,1295.85,395.7" style="stroke:#A80036;stroke-width:1.0;"/><!--MD5=[f80a68e268bd116a5369362bdfe24202]
reverse link SignalAnalysis to _SingleEventPSTH--><path codeLine="14" d="M1331.37,180.613 C1339.56,194.848 1348.48,210.345 1355.58,222.678 " fill="none" id="SignalAnalysis-backto-_SingleEventPSTH" style="stroke:#A80036;stroke-width:1.0;"/><polygon fill="none" points="1325.14,183.826,1321.24,163,1337.28,176.844,1325.14,183.826" style="stroke:#A80036;stroke-width:1.0;"/><!--MD5=[ab426e89cab515b8989b868e0f2b11ce]
reverse link _SingleEventPSTH to PSTH--><path codeLine="15" d="M1406.28,285.28 C1421.39,300.391 1438.38,317.375 1451.68,330.678 " fill="none" id="_SingleEventPSTH-backto-PSTH" style="stroke:#A80036;stroke-width:1.0;"/><polygon fill="none" points="1401.19,290.092,1392,271,1411.09,280.193,1401.19,290.092" style="stroke:#A80036;stroke-width:1.0;"/><!--MD5=[f1fd831c316cc7d19f378c4301783f0d]
reverse link PSTH to Responsiveness--><path codeLine="16" d="M1504.94,395.178 C1516.11,409.8 1528.44,425.929 1538.18,438.678 " fill="none" id="PSTH-backto-Responsiveness" style="stroke:#A80036;stroke-width:1.0;"/><polygon fill="none" points="1499.16,399.142,1492.58,379,1510.28,390.642,1499.16,399.142" style="stroke:#A80036;stroke-width:1.0;"/><!--MD5=[e3ee5a77d8c3bd86666a413b83c46264]
reverse link SignalAnalysis to PlaceFields--><path codeLine="19" d="M1372.85,171.972 C1406.09,188.361 1445.83,207.952 1476.07,222.862 " fill="none" id="SignalAnalysis-backto-PlaceFields" style="stroke:#A80036;stroke-width:1.0;"/><polygon fill="none" points="1369.49,178.123,1354.65,163,1375.69,165.566,1369.49,178.123" style="stroke:#A80036;stroke-width:1.0;"/><!--MD5=[2c2aabed9109b2407dc34af47499830a]
reverse link SignalAnalysis to _SingleLapSpatialTuning--><path codeLine="22" d="M1229.68,159.218 C1154.69,177.617 1041.75,205.33 963.766,224.465 " fill="none" id="SignalAnalysis-backto-_SingleLapSpatialTuning" style="stroke:#A80036;stroke-width:1.0;"/><polygon fill="none" points="1228.2,152.374,1249.29,154.406,1231.53,165.97,1228.2,152.374" style="stroke:#A80036;stroke-width:1.0;"/><!--MD5=[ed1c9964a20d47fa5c00892144892ed5]
reverse link _SingleLapSpatialTuning to SpatialTuning--><path codeLine="23" d="M818.507,281.121 C790.475,297.27 757.444,316.298 732.165,330.862 " fill="none" id="_SingleLapSpatialTuning-backto-SpatialTuning" style="stroke:#A80036;stroke-width:1.0;"/><polygon fill="none" points="815.25,274.919,836.075,271,822.239,287.05,815.25,274.919" style="stroke:#A80036;stroke-width:1.0;"/><!--MD5=[7435235b0e553be3dec0284528f3acad]
reverse link SpatialTuning to EventSpatialTuning--><path codeLine="24" d="M641.228,390.279 C617.687,406.173 590.327,424.645 569.271,438.862 " fill="none" id="SpatialTuning-backto-EventSpatialTuning" style="stroke:#A80036;stroke-width:1.0;"/><polygon fill="none" points="637.441,384.39,657.933,379,645.275,395.993,637.441,384.39" style="stroke:#A80036;stroke-width:1.0;"/><!--MD5=[7e54ba5694b5bcd4bdaf85e93b2caaab]
reverse link SpatialTuning to Occupancy--><path codeLine="25" d="M692,399.024 C692,412.579 692,427.038 692,438.678 " fill="none" id="SpatialTuning-backto-Occupancy" style="stroke:#A80036;stroke-width:1.0;"/><polygon fill="none" points="685,399,692,379,699,399,685,399" style="stroke:#A80036;stroke-width:1.0;"/><!--MD5=[ac6bd6748524368c6342391a2cff000f]
reverse link SpatialTuning to PopulationVectorCorrelations--><path codeLine="26" d="M616.453,369.37 C525.106,385.589 366.716,413.885 231,439 C225.218,440.07 219.282,441.176 213.291,442.297 " fill="none" id="SpatialTuning-backto-PopulationVectorCorrelations" style="stroke:#A80036;stroke-width:1.0;"/><polygon fill="none" points="615.348,362.457,636.263,365.855,617.793,376.241,615.348,362.457" style="stroke:#A80036;stroke-width:1.0;"/><!--MD5=[a87d09a7af90cc6998775c140d64e88b]
reverse link SpatialTuning to TuningCurveCorrelations--><path codeLine="27" d="M617.118,378.422 C557.728,396.206 475.027,420.969 415.074,438.921 " fill="none" id="SpatialTuning-backto-TuningCurveCorrelations" style="stroke:#A80036;stroke-width:1.0;"/><polygon fill="none" points="615.131,371.71,636.298,372.679,619.147,385.122,615.131,371.71" style="stroke:#A80036;stroke-width:1.0;"/><!--MD5=[3c168b01aa2ceef9a31265e756268946]
reverse link EventSpatialTuning to SkaggsSpatialInformation--><path codeLine="30" d="M535,507.0236 C535,520.5792 535,535.0381 535,546.6784 " fill="none" id="EventSpatialTuning-backto-SkaggsSpatialInformation" style="stroke:#A80036;stroke-width:1.0;"/><polygon fill="none" points="528,507.0005,535,487,542,507.0004,528,507.0005" style="stroke:#A80036;stroke-width:1.0;"/><!--MD5=[383873585ecade8ff8cf3779c0e805ad]
reverse link Analysis to Kuiper--><path codeLine="31" d="M1396.61,72.134 C1405.42,86.499 1415.05,102.207 1422.7,114.678 " fill="none" id="Analysis-backto-Kuiper" style="stroke:#A80036;stroke-width:1.0;"/><polygon fill="none" points="1390.59,75.709,1386.1,55,1402.53,68.391,1390.59,75.709" style="stroke:#A80036;stroke-width:1.0;"/><!--MD5=[057c15a15733d4d30678224b817220e4]
reverse link BaseSignalAnalysis to PlaceFieldStrategy--><path codeLine="34" d="M1941.58,67.402 C1921.61,82.969 1898.7,100.821 1880.92,114.678 " fill="none" id="BaseSignalAnalysis-backto-PlaceFieldStrategy" style="stroke:#A80036;stroke-width:1.0;"/><polygon fill="none" points="1937.41,61.774,1957.49,55,1946.02,72.816,1937.41,61.774" style="stroke:#A80036;stroke-width:1.0;"/><!--MD5=[f6e7f9afa1c246ede79846c812b79506]
reverse link PlaceFieldMeta to PlaceFieldStrategy--><path codeLine="35" d="M1831.24,74.54 C1835.51,88.235 1840.07,102.9 1843.74,114.678 " fill="none" id="PlaceFieldMeta-backto-PlaceFieldStrategy" style="stroke:#A80036;stroke-width:1.0;"/><polygon fill="none" points="1824.42,76.177,1825.16,55,1837.79,72.016,1824.42,76.177" style="stroke:#A80036;stroke-width:1.0;"/><!--MD5=[5e2d3321bb3fea1ee341d0494db774cf]
reverse link PlaceFieldStrategy to SimplePFDetector--><path codeLine="36" d="M1803.54,174.935 C1782.24,190.611 1757.7,208.682 1738.68,222.678 " fill="none" id="PlaceFieldStrategy-backto-SimplePFDetector" style="stroke:#A80036;stroke-width:1.0;"/><polygon fill="none" points="1799.5,169.219,1819.75,163,1807.8,180.494,1799.5,169.219" style="stroke:#A80036;stroke-width:1.0;"/><!--MD5=[71e7e307dbc15f2b7a5ee62e7015731d]
reverse link SimplePFDetector to SignedPFDetector--><path codeLine="37" d="M1707,291.024 C1707,304.579 1707,319.038 1707,330.678 " fill="none" id="SimplePFDetector-backto-SignedPFDetector" style="stroke:#A80036;stroke-width:1.0;"/><polygon fill="none" points="1700,291,1707,271,1714,291,1700,291" style="stroke:#A80036;stroke-width:1.0;"/><!--MD5=[26708595cedff88cb808ba1bce2f73d0]
reverse link PlaceFieldStrategy to PeakPFDetector--><path codeLine="38" d="M1860.63,182.54 C1863.73,196.235 1867.05,210.9 1869.72,222.678 " fill="none" id="PlaceFieldStrategy-backto-PeakPFDetector" style="stroke:#A80036;stroke-width:1.0;"/><polygon fill="none" points="1853.8,184.052,1856.21,163,1867.45,180.961,1853.8,184.052" style="stroke:#A80036;stroke-width:1.0;"/><!--MD5=[2c11da636bf41c7dcb1dfec1646da5fc]
reverse link AutocorrelationMixin to SpatialAutocorrelation--><path codeLine="41" d="M859.594,399.024 C859.466,412.579 859.33,427.038 859.22,438.678 " fill="none" id="AutocorrelationMixin-backto-SpatialAutocorrelation" style="stroke:#A80036;stroke-width:1.0;"/><polygon fill="none" points="852.595,398.933,859.783,379,866.594,399.066,852.595,398.933" style="stroke:#A80036;stroke-width:1.0;"/><!--MD5=[4c1c3718fd64f30d74d9058e04420ab7]
reverse link SpatialTuning to SpatialAutocorrelation--><path codeLine="42" d="M745.274,389.815 C770.478,405.813 799.93,424.506 822.546,438.862 " fill="none" id="SpatialTuning-backto-SpatialAutocorrelation" style="stroke:#A80036;stroke-width:1.0;"/><polygon fill="none" points="741.371,395.628,728.237,379,748.874,383.808,741.371,395.628" style="stroke:#A80036;stroke-width:1.0;"/><!--MD5=[82f9454676cae43f30665018571b33e2]
reverse link SpatialAutocorrelation to SpatialAutocorrelationWidth--><path codeLine="43" d="M859,507.0236 C859,520.5792 859,535.0381 859,546.6784 " fill="none" id="SpatialAutocorrelation-backto-SpatialAutocorrelationWidth" style="stroke:#A80036;stroke-width:1.0;"/><polygon fill="none" points="852,507.0005,859,487,866,507.0004,852,507.0005" style="stroke:#A80036;stroke-width:1.0;"/><!--MD5=[239db6521b6a4f1fab5837a4514a4ca3]
reverse link BaseSignalAnalysis to SpatialTuningStrategy--><path codeLine="46" d="M2018.03,70.702 C2029.86,85.448 2042.96,101.791 2053.3,114.678 " fill="none" id="BaseSignalAnalysis-backto-SpatialTuningStrategy" style="stroke:#A80036;stroke-width:1.0;"/><polygon fill="none" points="2012.49,74.983,2005.44,55,2023.42,66.224,2012.49,74.983" style="stroke:#A80036;stroke-width:1.0;"/><!--MD5=[64c9a521bebb32d4eb187defb0e65cf1]
reverse link ABCMeta to SpatialTuningStrategy--><path codeLine="47" d="M2113.01,72.134 C2104.07,86.499 2094.29,102.207 2086.52,114.678 " fill="none" id="ABCMeta-backto-SpatialTuningStrategy" style="stroke:#A80036;stroke-width:1.0;"/><polygon fill="none" points="2107.17,68.278,2123.68,55,2119.05,75.678,2107.17,68.278" style="stroke:#A80036;stroke-width:1.0;"/><!--MD5=[0b9c3aa61336744d14c6298d5de47612]
reverse link SpatialTuningStrategy to SimpleSpatialTuning--><path codeLine="48" d="M2072,183.024 C2072,196.579 2072,211.038 2072,222.678 " fill="none" id="SpatialTuningStrategy-backto-SimpleSpatialTuning" style="stroke:#A80036;stroke-width:1.0;"/><polygon fill="none" points="2065,183,2072,163,2079,183,2065,183" style="stroke:#A80036;stroke-width:1.0;"/><!--MD5=[71f200f7305a68dd6cbd8441ce732a0e]
@startuml
' ### lab3.analysis.base
Analysis <|- - SignalAnalysis

' ### lab3.analysis.basic.features
SignalAnalysis <|- - FeatureExtractor
SpatialTuning <|- - SpatialFeatureExtractor
FeatureExtractor <|- - SpatialFeatureExtractor
FeatureExtractor <|- - ResponsivenessFeatureExtractor
Responsiveness <|- - ResponsivenessFeatureExtractor
FeatureExtractor <|- - Moment
FeatureExtractor <|- - Cumulant

' ### lab3.analysis.basic.psth
SignalAnalysis <|- - _SingleEventPSTH
_SingleEventPSTH <|- - PSTH
PSTH <|- - Responsiveness

' ### lab3.analysis.spatial.abstract_place_fields
SignalAnalysis <|- - PlaceFields

' ### lab3.analysis.spatial.abstract_spatial_tuning
SignalAnalysis <|- - _SingleLapSpatialTuning
_SingleLapSpatialTuning <|- - SpatialTuning
SpatialTuning <|- - EventSpatialTuning
SpatialTuning <|- - Occupancy
SpatialTuning <|- - PopulationVectorCorrelations
SpatialTuning <|- - TuningCurveCorrelations

' ### lab3.analysis.spatial.metrics
EventSpatialTuning <|- - SkaggsSpatialInformation
Analysis <|- - Kuiper

' ### lab3.analysis.spatial.place_fields
BaseSignalAnalysis <|- - PlaceFieldStrategy
PlaceFieldMeta <|- - PlaceFieldStrategy
PlaceFieldStrategy <|- - SimplePFDetector
SimplePFDetector <|- - SignedPFDetector
PlaceFieldStrategy <|- - PeakPFDetector

' ### lab3.analysis.spatial.spatial_autocorrelation
AutocorrelationMixin <|- - SpatialAutocorrelation
SpatialTuning <|- - SpatialAutocorrelation
SpatialAutocorrelation <|- - SpatialAutocorrelationWidth

' ### lab3.analysis.spatial.spatial_tuning
BaseSignalAnalysis <|- - SpatialTuningStrategy
ABCMeta <|- - SpatialTuningStrategy
SpatialTuningStrategy <|- - SimpleSpatialTuning
@enduml

@startuml
Analysis <|- - SignalAnalysis

SignalAnalysis <|- - FeatureExtractor
SpatialTuning <|- - SpatialFeatureExtractor
FeatureExtractor <|- - SpatialFeatureExtractor
FeatureExtractor <|- - ResponsivenessFeatureExtractor
Responsiveness <|- - ResponsivenessFeatureExtractor
FeatureExtractor <|- - Moment
FeatureExtractor <|- - Cumulant

SignalAnalysis <|- - _SingleEventPSTH
_SingleEventPSTH <|- - PSTH
PSTH <|- - Responsiveness

SignalAnalysis <|- - PlaceFields

SignalAnalysis <|- - _SingleLapSpatialTuning
_SingleLapSpatialTuning <|- - SpatialTuning
SpatialTuning <|- - EventSpatialTuning
SpatialTuning <|- - Occupancy
SpatialTuning <|- - PopulationVectorCorrelations
SpatialTuning <|- - TuningCurveCorrelations

EventSpatialTuning <|- - SkaggsSpatialInformation
Analysis <|- - Kuiper

BaseSignalAnalysis <|- - PlaceFieldStrategy
PlaceFieldMeta <|- - PlaceFieldStrategy
PlaceFieldStrategy <|- - SimplePFDetector
SimplePFDetector <|- - SignedPFDetector
PlaceFieldStrategy <|- - PeakPFDetector

AutocorrelationMixin <|- - SpatialAutocorrelation
SpatialTuning <|- - SpatialAutocorrelation
SpatialAutocorrelation <|- - SpatialAutocorrelationWidth

BaseSignalAnalysis <|- - SpatialTuningStrategy
ABCMeta <|- - SpatialTuningStrategy
SpatialTuningStrategy <|- - SimpleSpatialTuning
@enduml

PlantUML version 1.2021.9beta2(Unknown compile time)
(GPL source distribution)
Java Runtime: Java(TM) SE Runtime Environment
JVM: Java HotSpot(TM) 64-Bit Server VM
Default Encoding: UTF-8
Language: en
Country: US
--></g></svg>