<?xml version="1.0" encoding="UTF-8" standalone="no"?><svg xmlns="http://www.w3.org/2000/svg" xmlns:xlink="http://www.w3.org/1999/xlink" contentScriptType="application/ecmascript" contentStyleType="text/css" height="427px" preserveAspectRatio="none" style="width:855px;height:427px;background:#FFFFFF;" version="1.1" viewBox="0 0 855 427" width="855px" zoomAndPan="magnify"><defs><filter height="300%" id="fitwpo6rb1fkw" width="300%" x="-1" y="-1"><feGaussianBlur result="blurOut" stdDeviation="2.0"/><feColorMatrix in="blurOut" result="blurOut2" type="matrix" values="0 0 0 0 0 0 0 0 0 0 0 0 0 0 0 0 0 0 .4 0"/><feOffset dx="4.0" dy="4.0" in="blurOut2" result="blurOut3"/><feBlend in="SourceGraphic" in2="blurOut3" mode="normal"/></filter></defs><g><!--MD5=[c23c53dfca18c97704152f5fda5f5931]
cluster pd--><polygon fill="#FFFFFF" filter="url(#fitwpo6rb1fkw)" points="696.5,6,722.5,6,729.5,28.2969,826.5,28.2969,826.5,105,696.5,105,696.5,6" style="stroke:#000000;stroke-width:1.5;"/><line style="stroke:#000000;stroke-width:1.5;" x1="696.5" x2="729.5" y1="28.2969" y2="28.2969"/><text fill="#000000" font-family="sans-serif" font-size="14" font-weight="bold" lengthAdjust="spacing" textLength="20" x="700.5" y="20.9951">pd</text><!--MD5=[f99c4367c453e5fe9db9cf62c28422b8]
class pd.DataFrame--><rect fill="#FEFECE" filter="url(#fitwpo6rb1fkw)" height="48" id="pd.DataFrame" style="stroke:#A80036;stroke-width:1.5;" width="97" x="713" y="41"/><ellipse cx="728" cy="57" fill="#ADD1B2" rx="11" ry="11" style="stroke:#A80036;stroke-width:1.0;"/><path d="M730.3438,52.6719 C729.4063,52.2344 728.8125,52.0938 727.9375,52.0938 C725.3125,52.0938 723.3125,54.1719 723.3125,56.8906 L723.3125,58.0156 C723.3125,60.5938 725.4219,62.4844 728.3125,62.4844 C729.5313,62.4844 730.6875,62.1875 731.4375,61.6406 C732.0156,61.2344 732.3438,60.7813 732.3438,60.3906 C732.3438,59.9375 731.9531,59.5469 731.4844,59.5469 C731.2656,59.5469 731.0625,59.625 730.875,59.8125 C730.4219,60.2969 730.4219,60.2969 730.2344,60.3906 C729.8125,60.6563 729.125,60.7813 728.3594,60.7813 C726.3125,60.7813 725.0156,59.6875 725.0156,57.9844 L725.0156,56.8906 C725.0156,55.1094 726.2656,53.7969 728,53.7969 C728.5781,53.7969 729.1875,53.9531 729.6563,54.2031 C730.1406,54.4844 730.3125,54.7031 730.4063,55.1094 C730.4688,55.5156 730.5,55.6406 730.6406,55.7656 C730.7813,55.9063 731.0156,56.0156 731.2344,56.0156 C731.5,56.0156 731.7656,55.875 731.9375,55.6563 C732.0469,55.5 732.0781,55.3125 732.0781,54.8906 L732.0781,53.4688 C732.0781,53.0313 732.0625,52.9063 731.9688,52.75 C731.8125,52.4844 731.5313,52.3438 731.2344,52.3438 C730.9375,52.3438 730.7344,52.4375 730.5156,52.75 L730.3438,52.6719 Z " fill="#000000"/><text fill="#000000" font-family="sans-serif" font-size="12" lengthAdjust="spacing" textLength="65" x="742" y="61.1543">DataFrame</text><line style="stroke:#A80036;stroke-width:1.5;" x1="714" x2="809" y1="73" y2="73"/><line style="stroke:#A80036;stroke-width:1.5;" x1="714" x2="809" y1="81" y2="81"/><!--MD5=[44a1b4afaef76c16e6c9ec4990ad0c8d]
class Item--><rect fill="#FEFECE" filter="url(#fitwpo6rb1fkw)" height="48" id="Item" style="stroke:#A80036;stroke-width:1.5;" width="58" x="515.5" y="41"/><ellipse cx="530.5" cy="57" fill="#ADD1B2" rx="11" ry="11" style="stroke:#A80036;stroke-width:1.0;"/><path d="M532.8438,52.6719 C531.9063,52.2344 531.3125,52.0938 530.4375,52.0938 C527.8125,52.0938 525.8125,54.1719 525.8125,56.8906 L525.8125,58.0156 C525.8125,60.5938 527.9219,62.4844 530.8125,62.4844 C532.0313,62.4844 533.1875,62.1875 533.9375,61.6406 C534.5156,61.2344 534.8438,60.7813 534.8438,60.3906 C534.8438,59.9375 534.4531,59.5469 533.9844,59.5469 C533.7656,59.5469 533.5625,59.625 533.375,59.8125 C532.9219,60.2969 532.9219,60.2969 532.7344,60.3906 C532.3125,60.6563 531.625,60.7813 530.8594,60.7813 C528.8125,60.7813 527.5156,59.6875 527.5156,57.9844 L527.5156,56.8906 C527.5156,55.1094 528.7656,53.7969 530.5,53.7969 C531.0781,53.7969 531.6875,53.9531 532.1563,54.2031 C532.6406,54.4844 532.8125,54.7031 532.9063,55.1094 C532.9688,55.5156 533,55.6406 533.1406,55.7656 C533.2813,55.9063 533.5156,56.0156 533.7344,56.0156 C534,56.0156 534.2656,55.875 534.4375,55.6563 C534.5469,55.5 534.5781,55.3125 534.5781,54.8906 L534.5781,53.4688 C534.5781,53.0313 534.5625,52.9063 534.4688,52.75 C534.3125,52.4844 534.0313,52.3438 533.7344,52.3438 C533.4375,52.3438 533.2344,52.4375 533.0156,52.75 L532.8438,52.6719 Z " fill="#000000"/><text fill="#000000" font-family="sans-serif" font-size="12" lengthAdjust="spacing" textLength="26" x="544.5" y="61.1543">Item</text><line style="stroke:#A80036;stroke-width:1.5;" x1="516.5" x2="572.5" y1="73" y2="73"/><line style="stroke:#A80036;stroke-width:1.5;" x1="516.5" x2="572.5" y1="81" y2="81"/><!--MD5=[41314a0efc36828092cff9ebad2fcafd]
class Group--><rect fill="#FEFECE" filter="url(#fitwpo6rb1fkw)" height="48" id="Group" style="stroke:#A80036;stroke-width:1.5;" width="69" x="466" y="149"/><ellipse cx="481" cy="165" fill="#ADD1B2" rx="11" ry="11" style="stroke:#A80036;stroke-width:1.0;"/><path d="M483.3438,160.6719 C482.4063,160.2344 481.8125,160.0938 480.9375,160.0938 C478.3125,160.0938 476.3125,162.1719 476.3125,164.8906 L476.3125,166.0156 C476.3125,168.5938 478.4219,170.4844 481.3125,170.4844 C482.5313,170.4844 483.6875,170.1875 484.4375,169.6406 C485.0156,169.2344 485.3438,168.7813 485.3438,168.3906 C485.3438,167.9375 484.9531,167.5469 484.4844,167.5469 C484.2656,167.5469 484.0625,167.625 483.875,167.8125 C483.4219,168.2969 483.4219,168.2969 483.2344,168.3906 C482.8125,168.6563 482.125,168.7813 481.3594,168.7813 C479.3125,168.7813 478.0156,167.6875 478.0156,165.9844 L478.0156,164.8906 C478.0156,163.1094 479.2656,161.7969 481,161.7969 C481.5781,161.7969 482.1875,161.9531 482.6563,162.2031 C483.1406,162.4844 483.3125,162.7031 483.4063,163.1094 C483.4688,163.5156 483.5,163.6406 483.6406,163.7656 C483.7813,163.9063 484.0156,164.0156 484.2344,164.0156 C484.5,164.0156 484.7656,163.875 484.9375,163.6563 C485.0469,163.5 485.0781,163.3125 485.0781,162.8906 L485.0781,161.4688 C485.0781,161.0313 485.0625,160.9063 484.9688,160.75 C484.8125,160.4844 484.5313,160.3438 484.2344,160.3438 C483.9375,160.3438 483.7344,160.4375 483.5156,160.75 L483.3438,160.6719 Z " fill="#000000"/><text fill="#000000" font-family="sans-serif" font-size="12" lengthAdjust="spacing" textLength="37" x="495" y="169.1543">Group</text><line style="stroke:#A80036;stroke-width:1.5;" x1="467" x2="534" y1="181" y2="181"/><line style="stroke:#A80036;stroke-width:1.5;" x1="467" x2="534" y1="189" y2="189"/><!--MD5=[ce0bdc9c9d7363fc59409c686ba93793]
class list--><rect fill="#FEFECE" filter="url(#fitwpo6rb1fkw)" height="48" id="list" style="stroke:#A80036;stroke-width:1.5;" width="49" x="431" y="41"/><ellipse cx="446" cy="57" fill="#ADD1B2" rx="11" ry="11" style="stroke:#A80036;stroke-width:1.0;"/><path d="M448.3438,52.6719 C447.4063,52.2344 446.8125,52.0938 445.9375,52.0938 C443.3125,52.0938 441.3125,54.1719 441.3125,56.8906 L441.3125,58.0156 C441.3125,60.5938 443.4219,62.4844 446.3125,62.4844 C447.5313,62.4844 448.6875,62.1875 449.4375,61.6406 C450.0156,61.2344 450.3438,60.7813 450.3438,60.3906 C450.3438,59.9375 449.9531,59.5469 449.4844,59.5469 C449.2656,59.5469 449.0625,59.625 448.875,59.8125 C448.4219,60.2969 448.4219,60.2969 448.2344,60.3906 C447.8125,60.6563 447.125,60.7813 446.3594,60.7813 C444.3125,60.7813 443.0156,59.6875 443.0156,57.9844 L443.0156,56.8906 C443.0156,55.1094 444.2656,53.7969 446,53.7969 C446.5781,53.7969 447.1875,53.9531 447.6563,54.2031 C448.1406,54.4844 448.3125,54.7031 448.4063,55.1094 C448.4688,55.5156 448.5,55.6406 448.6406,55.7656 C448.7813,55.9063 449.0156,56.0156 449.2344,56.0156 C449.5,56.0156 449.7656,55.875 449.9375,55.6563 C450.0469,55.5 450.0781,55.3125 450.0781,54.8906 L450.0781,53.4688 C450.0781,53.0313 450.0625,52.9063 449.9688,52.75 C449.8125,52.4844 449.5313,52.3438 449.2344,52.3438 C448.9375,52.3438 448.7344,52.4375 448.5156,52.75 L448.3438,52.6719 Z " fill="#000000"/><text fill="#000000" font-family="sans-serif" font-size="12" lengthAdjust="spacing" textLength="17" x="460" y="61.1543">list</text><line style="stroke:#A80036;stroke-width:1.5;" x1="432" x2="479" y1="73" y2="73"/><line style="stroke:#A80036;stroke-width:1.5;" x1="432" x2="479" y1="81" y2="81"/><!--MD5=[05d04b564e9d963c5556604ff8f07e7e]
class Analysis--><rect fill="#FEFECE" filter="url(#fitwpo6rb1fkw)" height="48" id="Analysis" style="stroke:#A80036;stroke-width:1.5;" width="81" x="587" y="149"/><ellipse cx="602" cy="165" fill="#ADD1B2" rx="11" ry="11" style="stroke:#A80036;stroke-width:1.0;"/><path d="M604.3438,160.6719 C603.4063,160.2344 602.8125,160.0938 601.9375,160.0938 C599.3125,160.0938 597.3125,162.1719 597.3125,164.8906 L597.3125,166.0156 C597.3125,168.5938 599.4219,170.4844 602.3125,170.4844 C603.5313,170.4844 604.6875,170.1875 605.4375,169.6406 C606.0156,169.2344 606.3438,168.7813 606.3438,168.3906 C606.3438,167.9375 605.9531,167.5469 605.4844,167.5469 C605.2656,167.5469 605.0625,167.625 604.875,167.8125 C604.4219,168.2969 604.4219,168.2969 604.2344,168.3906 C603.8125,168.6563 603.125,168.7813 602.3594,168.7813 C600.3125,168.7813 599.0156,167.6875 599.0156,165.9844 L599.0156,164.8906 C599.0156,163.1094 600.2656,161.7969 602,161.7969 C602.5781,161.7969 603.1875,161.9531 603.6563,162.2031 C604.1406,162.4844 604.3125,162.7031 604.4063,163.1094 C604.4688,163.5156 604.5,163.6406 604.6406,163.7656 C604.7813,163.9063 605.0156,164.0156 605.2344,164.0156 C605.5,164.0156 605.7656,163.875 605.9375,163.6563 C606.0469,163.5 606.0781,163.3125 606.0781,162.8906 L606.0781,161.4688 C606.0781,161.0313 606.0625,160.9063 605.9688,160.75 C605.8125,160.4844 605.5313,160.3438 605.2344,160.3438 C604.9375,160.3438 604.7344,160.4375 604.5156,160.75 L604.3438,160.6719 Z " fill="#000000"/><text fill="#000000" font-family="sans-serif" font-size="12" lengthAdjust="spacing" textLength="49" x="616" y="169.1543">Analysis</text><line style="stroke:#A80036;stroke-width:1.5;" x1="588" x2="667" y1="181" y2="181"/><line style="stroke:#A80036;stroke-width:1.5;" x1="588" x2="667" y1="189" y2="189"/><!--MD5=[15d141ce390878be018b97eb44e340b2]
class Automorphism--><rect fill="#FEFECE" filter="url(#fitwpo6rb1fkw)" height="48" id="Automorphism" style="stroke:#A80036;stroke-width:1.5;" width="119" x="722" y="257"/><ellipse cx="737" cy="273" fill="#ADD1B2" rx="11" ry="11" style="stroke:#A80036;stroke-width:1.0;"/><path d="M739.3438,268.6719 C738.4063,268.2344 737.8125,268.0938 736.9375,268.0938 C734.3125,268.0938 732.3125,270.1719 732.3125,272.8906 L732.3125,274.0156 C732.3125,276.5938 734.4219,278.4844 737.3125,278.4844 C738.5313,278.4844 739.6875,278.1875 740.4375,277.6406 C741.0156,277.2344 741.3438,276.7813 741.3438,276.3906 C741.3438,275.9375 740.9531,275.5469 740.4844,275.5469 C740.2656,275.5469 740.0625,275.625 739.875,275.8125 C739.4219,276.2969 739.4219,276.2969 739.2344,276.3906 C738.8125,276.6563 738.125,276.7813 737.3594,276.7813 C735.3125,276.7813 734.0156,275.6875 734.0156,273.9844 L734.0156,272.8906 C734.0156,271.1094 735.2656,269.7969 737,269.7969 C737.5781,269.7969 738.1875,269.9531 738.6563,270.2031 C739.1406,270.4844 739.3125,270.7031 739.4063,271.1094 C739.4688,271.5156 739.5,271.6406 739.6406,271.7656 C739.7813,271.9063 740.0156,272.0156 740.2344,272.0156 C740.5,272.0156 740.7656,271.875 740.9375,271.6563 C741.0469,271.5 741.0781,271.3125 741.0781,270.8906 L741.0781,269.4688 C741.0781,269.0313 741.0625,268.9063 740.9688,268.75 C740.8125,268.4844 740.5313,268.3438 740.2344,268.3438 C739.9375,268.3438 739.7344,268.4375 739.5156,268.75 L739.3438,268.6719 Z " fill="#000000"/><text fill="#000000" font-family="sans-serif" font-size="12" lengthAdjust="spacing" textLength="87" x="751" y="277.1543">Automorphism</text><line style="stroke:#A80036;stroke-width:1.5;" x1="723" x2="840" y1="289" y2="289"/><line style="stroke:#A80036;stroke-width:1.5;" x1="723" x2="840" y1="297" y2="297"/><!--MD5=[2eeb7529c659a6c397c6d1287cfde411]
class AnalysisGroup--><rect fill="#FEFECE" filter="url(#fitwpo6rb1fkw)" height="48" id="AnalysisGroup" style="stroke:#A80036;stroke-width:1.5;" width="118" x="568.5" y="257"/><ellipse cx="583.5" cy="273" fill="#ADD1B2" rx="11" ry="11" style="stroke:#A80036;stroke-width:1.0;"/><path d="M585.8438,268.6719 C584.9063,268.2344 584.3125,268.0938 583.4375,268.0938 C580.8125,268.0938 578.8125,270.1719 578.8125,272.8906 L578.8125,274.0156 C578.8125,276.5938 580.9219,278.4844 583.8125,278.4844 C585.0313,278.4844 586.1875,278.1875 586.9375,277.6406 C587.5156,277.2344 587.8438,276.7813 587.8438,276.3906 C587.8438,275.9375 587.4531,275.5469 586.9844,275.5469 C586.7656,275.5469 586.5625,275.625 586.375,275.8125 C585.9219,276.2969 585.9219,276.2969 585.7344,276.3906 C585.3125,276.6563 584.625,276.7813 583.8594,276.7813 C581.8125,276.7813 580.5156,275.6875 580.5156,273.9844 L580.5156,272.8906 C580.5156,271.1094 581.7656,269.7969 583.5,269.7969 C584.0781,269.7969 584.6875,269.9531 585.1563,270.2031 C585.6406,270.4844 585.8125,270.7031 585.9063,271.1094 C585.9688,271.5156 586,271.6406 586.1406,271.7656 C586.2813,271.9063 586.5156,272.0156 586.7344,272.0156 C587,272.0156 587.2656,271.875 587.4375,271.6563 C587.5469,271.5 587.5781,271.3125 587.5781,270.8906 L587.5781,269.4688 C587.5781,269.0313 587.5625,268.9063 587.4688,268.75 C587.3125,268.4844 587.0313,268.3438 586.7344,268.3438 C586.4375,268.3438 586.2344,268.4375 586.0156,268.75 L585.8438,268.6719 Z " fill="#000000"/><text fill="#000000" font-family="sans-serif" font-size="12" lengthAdjust="spacing" textLength="86" x="597.5" y="277.1543">AnalysisGroup</text><line style="stroke:#A80036;stroke-width:1.5;" x1="569.5" x2="685.5" y1="289" y2="289"/><line style="stroke:#A80036;stroke-width:1.5;" x1="569.5" x2="685.5" y1="297" y2="297"/><!--MD5=[05e6577bf674e329da7ca1d11ba0d859]
class AnalysisResult--><rect fill="#FEFECE" filter="url(#fitwpo6rb1fkw)" height="48" id="AnalysisResult" style="stroke:#A80036;stroke-width:1.5;" width="117" x="703" y="149"/><ellipse cx="718" cy="165" fill="#ADD1B2" rx="11" ry="11" style="stroke:#A80036;stroke-width:1.0;"/><path d="M720.3438,160.6719 C719.4063,160.2344 718.8125,160.0938 717.9375,160.0938 C715.3125,160.0938 713.3125,162.1719 713.3125,164.8906 L713.3125,166.0156 C713.3125,168.5938 715.4219,170.4844 718.3125,170.4844 C719.5313,170.4844 720.6875,170.1875 721.4375,169.6406 C722.0156,169.2344 722.3438,168.7813 722.3438,168.3906 C722.3438,167.9375 721.9531,167.5469 721.4844,167.5469 C721.2656,167.5469 721.0625,167.625 720.875,167.8125 C720.4219,168.2969 720.4219,168.2969 720.2344,168.3906 C719.8125,168.6563 719.125,168.7813 718.3594,168.7813 C716.3125,168.7813 715.0156,167.6875 715.0156,165.9844 L715.0156,164.8906 C715.0156,163.1094 716.2656,161.7969 718,161.7969 C718.5781,161.7969 719.1875,161.9531 719.6563,162.2031 C720.1406,162.4844 720.3125,162.7031 720.4063,163.1094 C720.4688,163.5156 720.5,163.6406 720.6406,163.7656 C720.7813,163.9063 721.0156,164.0156 721.2344,164.0156 C721.5,164.0156 721.7656,163.875 721.9375,163.6563 C722.0469,163.5 722.0781,163.3125 722.0781,162.8906 L722.0781,161.4688 C722.0781,161.0313 722.0625,160.9063 721.9688,160.75 C721.8125,160.4844 721.5313,160.3438 721.2344,160.3438 C720.9375,160.3438 720.7344,160.4375 720.5156,160.75 L720.3438,160.6719 Z " fill="#000000"/><text fill="#000000" font-family="sans-serif" font-size="12" lengthAdjust="spacing" textLength="85" x="732" y="169.1543">AnalysisResult</text><line style="stroke:#A80036;stroke-width:1.5;" x1="704" x2="819" y1="181" y2="181"/><line style="stroke:#A80036;stroke-width:1.5;" x1="704" x2="819" y1="189" y2="189"/><!--MD5=[bddb511951cf0a1d6a79f67b0c2ed87d]
class Filter--><rect fill="#FEFECE" filter="url(#fitwpo6rb1fkw)" height="48" id="Filter" style="stroke:#A80036;stroke-width:1.5;" width="62" x="314.5" y="149"/><ellipse cx="329.5" cy="165" fill="#ADD1B2" rx="11" ry="11" style="stroke:#A80036;stroke-width:1.0;"/><path d="M331.8438,160.6719 C330.9063,160.2344 330.3125,160.0938 329.4375,160.0938 C326.8125,160.0938 324.8125,162.1719 324.8125,164.8906 L324.8125,166.0156 C324.8125,168.5938 326.9219,170.4844 329.8125,170.4844 C331.0313,170.4844 332.1875,170.1875 332.9375,169.6406 C333.5156,169.2344 333.8438,168.7813 333.8438,168.3906 C333.8438,167.9375 333.4531,167.5469 332.9844,167.5469 C332.7656,167.5469 332.5625,167.625 332.375,167.8125 C331.9219,168.2969 331.9219,168.2969 331.7344,168.3906 C331.3125,168.6563 330.625,168.7813 329.8594,168.7813 C327.8125,168.7813 326.5156,167.6875 326.5156,165.9844 L326.5156,164.8906 C326.5156,163.1094 327.7656,161.7969 329.5,161.7969 C330.0781,161.7969 330.6875,161.9531 331.1563,162.2031 C331.6406,162.4844 331.8125,162.7031 331.9063,163.1094 C331.9688,163.5156 332,163.6406 332.1406,163.7656 C332.2813,163.9063 332.5156,164.0156 332.7344,164.0156 C333,164.0156 333.2656,163.875 333.4375,163.6563 C333.5469,163.5 333.5781,163.3125 333.5781,162.8906 L333.5781,161.4688 C333.5781,161.0313 333.5625,160.9063 333.4688,160.75 C333.3125,160.4844 333.0313,160.3438 332.7344,160.3438 C332.4375,160.3438 332.2344,160.4375 332.0156,160.75 L331.8438,160.6719 Z " fill="#000000"/><text fill="#000000" font-family="sans-serif" font-size="12" lengthAdjust="spacing" textLength="30" x="343.5" y="169.1543">Filter</text><line style="stroke:#A80036;stroke-width:1.5;" x1="315.5" x2="375.5" y1="181" y2="181"/><line style="stroke:#A80036;stroke-width:1.5;" x1="315.5" x2="375.5" y1="189" y2="189"/><!--MD5=[8e17386280aab1875f6f7c2a39b3575a]
class _BoundFilter--><rect fill="#FEFECE" filter="url(#fitwpo6rb1fkw)" height="48" id="_BoundFilter" style="stroke:#A80036;stroke-width:1.5;" width="106" x="292.5" y="257"/><ellipse cx="307.5" cy="273" fill="#ADD1B2" rx="11" ry="11" style="stroke:#A80036;stroke-width:1.0;"/><path d="M309.8438,268.6719 C308.9063,268.2344 308.3125,268.0938 307.4375,268.0938 C304.8125,268.0938 302.8125,270.1719 302.8125,272.8906 L302.8125,274.0156 C302.8125,276.5938 304.9219,278.4844 307.8125,278.4844 C309.0313,278.4844 310.1875,278.1875 310.9375,277.6406 C311.5156,277.2344 311.8438,276.7813 311.8438,276.3906 C311.8438,275.9375 311.4531,275.5469 310.9844,275.5469 C310.7656,275.5469 310.5625,275.625 310.375,275.8125 C309.9219,276.2969 309.9219,276.2969 309.7344,276.3906 C309.3125,276.6563 308.625,276.7813 307.8594,276.7813 C305.8125,276.7813 304.5156,275.6875 304.5156,273.9844 L304.5156,272.8906 C304.5156,271.1094 305.7656,269.7969 307.5,269.7969 C308.0781,269.7969 308.6875,269.9531 309.1563,270.2031 C309.6406,270.4844 309.8125,270.7031 309.9063,271.1094 C309.9688,271.5156 310,271.6406 310.1406,271.7656 C310.2813,271.9063 310.5156,272.0156 310.7344,272.0156 C311,272.0156 311.2656,271.875 311.4375,271.6563 C311.5469,271.5 311.5781,271.3125 311.5781,270.8906 L311.5781,269.4688 C311.5781,269.0313 311.5625,268.9063 311.4688,268.75 C311.3125,268.4844 311.0313,268.3438 310.7344,268.3438 C310.4375,268.3438 310.2344,268.4375 310.0156,268.75 L309.8438,268.6719 Z " fill="#000000"/><text fill="#000000" font-family="sans-serif" font-size="12" lengthAdjust="spacing" textLength="74" x="321.5" y="277.1543">_BoundFilter</text><line style="stroke:#A80036;stroke-width:1.5;" x1="293.5" x2="397.5" y1="289" y2="289"/><line style="stroke:#A80036;stroke-width:1.5;" x1="293.5" x2="397.5" y1="297" y2="297"/><!--MD5=[d9d4c9de175e2b37d8a881ad95056145]
class FilterGroup--><rect fill="#FEFECE" filter="url(#fitwpo6rb1fkw)" height="48" id="FilterGroup" style="stroke:#A80036;stroke-width:1.5;" width="99" x="434" y="257"/><ellipse cx="449" cy="273" fill="#ADD1B2" rx="11" ry="11" style="stroke:#A80036;stroke-width:1.0;"/><path d="M451.3438,268.6719 C450.4063,268.2344 449.8125,268.0938 448.9375,268.0938 C446.3125,268.0938 444.3125,270.1719 444.3125,272.8906 L444.3125,274.0156 C444.3125,276.5938 446.4219,278.4844 449.3125,278.4844 C450.5313,278.4844 451.6875,278.1875 452.4375,277.6406 C453.0156,277.2344 453.3438,276.7813 453.3438,276.3906 C453.3438,275.9375 452.9531,275.5469 452.4844,275.5469 C452.2656,275.5469 452.0625,275.625 451.875,275.8125 C451.4219,276.2969 451.4219,276.2969 451.2344,276.3906 C450.8125,276.6563 450.125,276.7813 449.3594,276.7813 C447.3125,276.7813 446.0156,275.6875 446.0156,273.9844 L446.0156,272.8906 C446.0156,271.1094 447.2656,269.7969 449,269.7969 C449.5781,269.7969 450.1875,269.9531 450.6563,270.2031 C451.1406,270.4844 451.3125,270.7031 451.4063,271.1094 C451.4688,271.5156 451.5,271.6406 451.6406,271.7656 C451.7813,271.9063 452.0156,272.0156 452.2344,272.0156 C452.5,272.0156 452.7656,271.875 452.9375,271.6563 C453.0469,271.5 453.0781,271.3125 453.0781,270.8906 L453.0781,269.4688 C453.0781,269.0313 453.0625,268.9063 452.9688,268.75 C452.8125,268.4844 452.5313,268.3438 452.2344,268.3438 C451.9375,268.3438 451.7344,268.4375 451.5156,268.75 L451.3438,268.6719 Z " fill="#000000"/><text fill="#000000" font-family="sans-serif" font-size="12" lengthAdjust="spacing" textLength="67" x="463" y="277.1543">FilterGroup</text><line style="stroke:#A80036;stroke-width:1.5;" x1="435" x2="532" y1="289" y2="289"/><line style="stroke:#A80036;stroke-width:1.5;" x1="435" x2="532" y1="297" y2="297"/><!--MD5=[e2f11d1444f8223077e324684d958141]
class _BoundFilterGroup--><rect fill="#FEFECE" filter="url(#fitwpo6rb1fkw)" height="48" id="_BoundFilterGroup" style="stroke:#A80036;stroke-width:1.5;" width="143" x="365" y="365"/><ellipse cx="380" cy="381" fill="#ADD1B2" rx="11" ry="11" style="stroke:#A80036;stroke-width:1.0;"/><path d="M382.3438,376.6719 C381.4063,376.2344 380.8125,376.0938 379.9375,376.0938 C377.3125,376.0938 375.3125,378.1719 375.3125,380.8906 L375.3125,382.0156 C375.3125,384.5938 377.4219,386.4844 380.3125,386.4844 C381.5313,386.4844 382.6875,386.1875 383.4375,385.6406 C384.0156,385.2344 384.3438,384.7813 384.3438,384.3906 C384.3438,383.9375 383.9531,383.5469 383.4844,383.5469 C383.2656,383.5469 383.0625,383.625 382.875,383.8125 C382.4219,384.2969 382.4219,384.2969 382.2344,384.3906 C381.8125,384.6563 381.125,384.7813 380.3594,384.7813 C378.3125,384.7813 377.0156,383.6875 377.0156,381.9844 L377.0156,380.8906 C377.0156,379.1094 378.2656,377.7969 380,377.7969 C380.5781,377.7969 381.1875,377.9531 381.6563,378.2031 C382.1406,378.4844 382.3125,378.7031 382.4063,379.1094 C382.4688,379.5156 382.5,379.6406 382.6406,379.7656 C382.7813,379.9063 383.0156,380.0156 383.2344,380.0156 C383.5,380.0156 383.7656,379.875 383.9375,379.6563 C384.0469,379.5 384.0781,379.3125 384.0781,378.8906 L384.0781,377.4688 C384.0781,377.0313 384.0625,376.9063 383.9688,376.75 C383.8125,376.4844 383.5313,376.3438 383.2344,376.3438 C382.9375,376.3438 382.7344,376.4375 382.5156,376.75 L382.3438,376.6719 Z " fill="#000000"/><text fill="#000000" font-family="sans-serif" font-size="12" lengthAdjust="spacing" textLength="111" x="394" y="385.1543">_BoundFilterGroup</text><line style="stroke:#A80036;stroke-width:1.5;" x1="366" x2="507" y1="397" y2="397"/><line style="stroke:#A80036;stroke-width:1.5;" x1="366" x2="507" y1="405" y2="405"/><!--MD5=[5d786f21dd1dc2e09913d715993b0a14]
class ROIFilter--><rect fill="#FEFECE" filter="url(#fitwpo6rb1fkw)" height="48" id="ROIFilter" style="stroke:#A80036;stroke-width:1.5;" width="82" x="31.5" y="257"/><ellipse cx="46.5" cy="273" fill="#ADD1B2" rx="11" ry="11" style="stroke:#A80036;stroke-width:1.0;"/><path d="M48.8438,268.6719 C47.9063,268.2344 47.3125,268.0938 46.4375,268.0938 C43.8125,268.0938 41.8125,270.1719 41.8125,272.8906 L41.8125,274.0156 C41.8125,276.5938 43.9219,278.4844 46.8125,278.4844 C48.0313,278.4844 49.1875,278.1875 49.9375,277.6406 C50.5156,277.2344 50.8438,276.7813 50.8438,276.3906 C50.8438,275.9375 50.4531,275.5469 49.9844,275.5469 C49.7656,275.5469 49.5625,275.625 49.375,275.8125 C48.9219,276.2969 48.9219,276.2969 48.7344,276.3906 C48.3125,276.6563 47.625,276.7813 46.8594,276.7813 C44.8125,276.7813 43.5156,275.6875 43.5156,273.9844 L43.5156,272.8906 C43.5156,271.1094 44.7656,269.7969 46.5,269.7969 C47.0781,269.7969 47.6875,269.9531 48.1563,270.2031 C48.6406,270.4844 48.8125,270.7031 48.9063,271.1094 C48.9688,271.5156 49,271.6406 49.1406,271.7656 C49.2813,271.9063 49.5156,272.0156 49.7344,272.0156 C50,272.0156 50.2656,271.875 50.4375,271.6563 C50.5469,271.5 50.5781,271.3125 50.5781,270.8906 L50.5781,269.4688 C50.5781,269.0313 50.5625,268.9063 50.4688,268.75 C50.3125,268.4844 50.0313,268.3438 49.7344,268.3438 C49.4375,268.3438 49.2344,268.4375 49.0156,268.75 L48.8438,268.6719 Z " fill="#000000"/><text fill="#000000" font-family="sans-serif" font-size="12" lengthAdjust="spacing" textLength="50" x="60.5" y="277.1543">ROIFilter</text><line style="stroke:#A80036;stroke-width:1.5;" x1="32.5" x2="112.5" y1="289" y2="289"/><line style="stroke:#A80036;stroke-width:1.5;" x1="32.5" x2="112.5" y1="297" y2="297"/><!--MD5=[a2e7e63d12c480377e267982a5b70fd5]
class TimeFilter--><rect fill="#FEFECE" filter="url(#fitwpo6rb1fkw)" height="48" id="TimeFilter" style="stroke:#A80036;stroke-width:1.5;" width="91" x="166" y="257"/><ellipse cx="181" cy="273" fill="#ADD1B2" rx="11" ry="11" style="stroke:#A80036;stroke-width:1.0;"/><path d="M183.3438,268.6719 C182.4063,268.2344 181.8125,268.0938 180.9375,268.0938 C178.3125,268.0938 176.3125,270.1719 176.3125,272.8906 L176.3125,274.0156 C176.3125,276.5938 178.4219,278.4844 181.3125,278.4844 C182.5313,278.4844 183.6875,278.1875 184.4375,277.6406 C185.0156,277.2344 185.3438,276.7813 185.3438,276.3906 C185.3438,275.9375 184.9531,275.5469 184.4844,275.5469 C184.2656,275.5469 184.0625,275.625 183.875,275.8125 C183.4219,276.2969 183.4219,276.2969 183.2344,276.3906 C182.8125,276.6563 182.125,276.7813 181.3594,276.7813 C179.3125,276.7813 178.0156,275.6875 178.0156,273.9844 L178.0156,272.8906 C178.0156,271.1094 179.2656,269.7969 181,269.7969 C181.5781,269.7969 182.1875,269.9531 182.6563,270.2031 C183.1406,270.4844 183.3125,270.7031 183.4063,271.1094 C183.4688,271.5156 183.5,271.6406 183.6406,271.7656 C183.7813,271.9063 184.0156,272.0156 184.2344,272.0156 C184.5,272.0156 184.7656,271.875 184.9375,271.6563 C185.0469,271.5 185.0781,271.3125 185.0781,270.8906 L185.0781,269.4688 C185.0781,269.0313 185.0625,268.9063 184.9688,268.75 C184.8125,268.4844 184.5313,268.3438 184.2344,268.3438 C183.9375,268.3438 183.7344,268.4375 183.5156,268.75 L183.3438,268.6719 Z " fill="#000000"/><text fill="#000000" font-family="sans-serif" font-size="12" lengthAdjust="spacing" textLength="59" x="195" y="277.1543">TimeFilter</text><line style="stroke:#A80036;stroke-width:1.5;" x1="167" x2="256" y1="289" y2="289"/><line style="stroke:#A80036;stroke-width:1.5;" x1="167" x2="256" y1="297" y2="297"/><!--MD5=[72691f73201b8d212667401955800d25]
class _IndexIdentity--><rect fill="#FEFECE" filter="url(#fitwpo6rb1fkw)" height="48" id="_IndexIdentity" style="stroke:#A80036;stroke-width:1.5;" width="115" x="7" y="365"/><ellipse cx="22" cy="381" fill="#ADD1B2" rx="11" ry="11" style="stroke:#A80036;stroke-width:1.0;"/><path d="M24.3438,376.6719 C23.4063,376.2344 22.8125,376.0938 21.9375,376.0938 C19.3125,376.0938 17.3125,378.1719 17.3125,380.8906 L17.3125,382.0156 C17.3125,384.5938 19.4219,386.4844 22.3125,386.4844 C23.5313,386.4844 24.6875,386.1875 25.4375,385.6406 C26.0156,385.2344 26.3438,384.7813 26.3438,384.3906 C26.3438,383.9375 25.9531,383.5469 25.4844,383.5469 C25.2656,383.5469 25.0625,383.625 24.875,383.8125 C24.4219,384.2969 24.4219,384.2969 24.2344,384.3906 C23.8125,384.6563 23.125,384.7813 22.3594,384.7813 C20.3125,384.7813 19.0156,383.6875 19.0156,381.9844 L19.0156,380.8906 C19.0156,379.1094 20.2656,377.7969 22,377.7969 C22.5781,377.7969 23.1875,377.9531 23.6563,378.2031 C24.1406,378.4844 24.3125,378.7031 24.4063,379.1094 C24.4688,379.5156 24.5,379.6406 24.6406,379.7656 C24.7813,379.9063 25.0156,380.0156 25.2344,380.0156 C25.5,380.0156 25.7656,379.875 25.9375,379.6563 C26.0469,379.5 26.0781,379.3125 26.0781,378.8906 L26.0781,377.4688 C26.0781,377.0313 26.0625,376.9063 25.9688,376.75 C25.8125,376.4844 25.5313,376.3438 25.2344,376.3438 C24.9375,376.3438 24.7344,376.4375 24.5156,376.75 L24.3438,376.6719 Z " fill="#000000"/><text fill="#000000" font-family="sans-serif" font-size="12" lengthAdjust="spacing" textLength="83" x="36" y="385.1543">_IndexIdentity</text><line style="stroke:#A80036;stroke-width:1.5;" x1="8" x2="121" y1="397" y2="397"/><line style="stroke:#A80036;stroke-width:1.5;" x1="8" x2="121" y1="405" y2="405"/><!--MD5=[24cfeb77a5b464d70d15d5c80c241a53]
class _ColumnIdentity--><rect fill="#FEFECE" filter="url(#fitwpo6rb1fkw)" height="48" id="_ColumnIdentity" style="stroke:#A80036;stroke-width:1.5;" width="126" x="157.5" y="365"/><ellipse cx="172.5" cy="381" fill="#ADD1B2" rx="11" ry="11" style="stroke:#A80036;stroke-width:1.0;"/><path d="M174.8438,376.6719 C173.9063,376.2344 173.3125,376.0938 172.4375,376.0938 C169.8125,376.0938 167.8125,378.1719 167.8125,380.8906 L167.8125,382.0156 C167.8125,384.5938 169.9219,386.4844 172.8125,386.4844 C174.0313,386.4844 175.1875,386.1875 175.9375,385.6406 C176.5156,385.2344 176.8438,384.7813 176.8438,384.3906 C176.8438,383.9375 176.4531,383.5469 175.9844,383.5469 C175.7656,383.5469 175.5625,383.625 175.375,383.8125 C174.9219,384.2969 174.9219,384.2969 174.7344,384.3906 C174.3125,384.6563 173.625,384.7813 172.8594,384.7813 C170.8125,384.7813 169.5156,383.6875 169.5156,381.9844 L169.5156,380.8906 C169.5156,379.1094 170.7656,377.7969 172.5,377.7969 C173.0781,377.7969 173.6875,377.9531 174.1563,378.2031 C174.6406,378.4844 174.8125,378.7031 174.9063,379.1094 C174.9688,379.5156 175,379.6406 175.1406,379.7656 C175.2813,379.9063 175.5156,380.0156 175.7344,380.0156 C176,380.0156 176.2656,379.875 176.4375,379.6563 C176.5469,379.5 176.5781,379.3125 176.5781,378.8906 L176.5781,377.4688 C176.5781,377.0313 176.5625,376.9063 176.4688,376.75 C176.3125,376.4844 176.0313,376.3438 175.7344,376.3438 C175.4375,376.3438 175.2344,376.4375 175.0156,376.75 L174.8438,376.6719 Z " fill="#000000"/><text fill="#000000" font-family="sans-serif" font-size="12" lengthAdjust="spacing" textLength="94" x="186.5" y="385.1543">_ColumnIdentity</text><line style="stroke:#A80036;stroke-width:1.5;" x1="158.5" x2="282.5" y1="397" y2="397"/><line style="stroke:#A80036;stroke-width:1.5;" x1="158.5" x2="282.5" y1="405" y2="405"/><!--MD5=[468d1a085c7ef835412527d1c57a5e4e]
reverse link Item to Group--><path codeLine="2" d="M527.243,107.575 C521.444,121.543 515.185,136.622 510.181,148.678 " fill="none" id="Item-backto-Group" style="stroke:#A80036;stroke-width:1.0;"/><polygon fill="none" points="520.82,104.789,534.953,89,533.75,110.156,520.82,104.789" style="stroke:#A80036;stroke-width:1.0;"/><!--MD5=[8897b19cbced873f06864da6580d9ad8]
reverse link list to Group--><path codeLine="3" d="M473.15,107.575 C479.079,121.543 485.481,136.622 490.599,148.678 " fill="none" id="list-backto-Group" style="stroke:#A80036;stroke-width:1.0;"/><polygon fill="none" points="466.636,110.146,465.264,89,479.523,104.675,466.636,110.146" style="stroke:#A80036;stroke-width:1.0;"/><!--MD5=[50b6b8400591b78b53b5b2903ff9650d]
reverse link Item to Analysis--><path codeLine="4" d="M575.177,105.178 C586.626,119.8 599.256,135.929 609.239,148.678 " fill="none" id="Item-backto-Analysis" style="stroke:#A80036;stroke-width:1.0;"/><polygon fill="none" points="569.329,109.063,562.51,89,580.351,100.432,569.329,109.063" style="stroke:#A80036;stroke-width:1.0;"/><!--MD5=[bd52d7a00faba2f990bb30360757d1cb]
reverse link Analysis to Automorphism--><path codeLine="5" d="M677.64,208.512 C700.655,224.354 727.33,242.714 747.884,256.862 " fill="none" id="Analysis-backto-Automorphism" style="stroke:#A80036;stroke-width:1.0;"/><polygon fill="none" points="673.421,214.106,660.916,197,681.359,202.574,673.421,214.106" style="stroke:#A80036;stroke-width:1.0;"/><!--MD5=[8a24b7e6d169d3424de41dbd9d7f0905]
reverse link Analysis to AnalysisGroup--><path codeLine="6" d="M627.5,217.024 C627.5,230.579 627.5,245.038 627.5,256.678 " fill="none" id="Analysis-backto-AnalysisGroup" style="stroke:#A80036;stroke-width:1.0;"/><polygon fill="none" points="620.5,217,627.5,197,634.5,217,620.5,217" style="stroke:#A80036;stroke-width:1.0;"/><!--MD5=[72fe0c41622c5010268c472b8f6a96f9]
reverse link Group to AnalysisGroup--><path codeLine="7" d="M543.475,209.869 C561.994,225.325 583.121,242.959 599.558,256.678 " fill="none" id="Group-backto-AnalysisGroup" style="stroke:#A80036;stroke-width:1.0;"/><polygon fill="none" points="538.926,215.19,528.057,197,547.897,204.442,538.926,215.19" style="stroke:#A80036;stroke-width:1.0;"/><!--MD5=[6ca3dc22e7ef6f06e5037b8e7f437c82]
reverse link pd.DataFrame to AnalysisResult--><path codeLine="8" d="M761.5,109.024 C761.5,122.579 761.5,137.038 761.5,148.678 " fill="none" id="pd.DataFrame-backto-AnalysisResult" style="stroke:#A80036;stroke-width:1.0;"/><polygon fill="none" points="754.5,109,761.5,89,768.5,109,754.5,109" style="stroke:#A80036;stroke-width:1.0;"/><!--MD5=[28302058c0c554d57f38d2eb9fe0c75a]
reverse link Item to Filter--><path codeLine="11" d="M510.347,103.257 C506.218,106.799 501.898,110.132 497.5,113 C459.206,137.97 408.735,154.916 376.691,164.024 " fill="none" id="Item-backto-Filter" style="stroke:#A80036;stroke-width:1.0;"/><polygon fill="none" points="505.823,97.897,525.1,89.099,515.517,107.998,505.823,97.897" style="stroke:#A80036;stroke-width:1.0;"/><!--MD5=[dbb42ed4e8dd41a3093cb7e4c28898cf]
reverse link Filter to _BoundFilter--><path codeLine="12" d="M345.5,217.024 C345.5,230.579 345.5,245.038 345.5,256.678 " fill="none" id="Filter-backto-_BoundFilter" style="stroke:#A80036;stroke-width:1.0;"/><polygon fill="none" points="338.5,217,345.5,197,352.5,217,338.5,217" style="stroke:#A80036;stroke-width:1.0;"/><!--MD5=[8bfd39f5bc7dab268a74c3c3a0c78517]
reverse link Filter to FilterGroup--><path codeLine="13" d="M391.589,209.402 C411.856,224.969 435.097,242.821 453.138,256.678 " fill="none" id="Filter-backto-FilterGroup" style="stroke:#A80036;stroke-width:1.0;"/><polygon fill="none" points="387.041,214.735,375.444,197,395.569,203.632,387.041,214.735" style="stroke:#A80036;stroke-width:1.0;"/><!--MD5=[e90c3c21d84250bea1626403dc8fc6b3]
reverse link Group to FilterGroup--><path codeLine="14" d="M493.6,217.024 C491.426,230.579 489.107,245.038 487.24,256.678 " fill="none" id="Group-backto-FilterGroup" style="stroke:#A80036;stroke-width:1.0;"/><polygon fill="none" points="486.732,215.64,496.811,197,500.556,217.857,486.732,215.64" style="stroke:#A80036;stroke-width:1.0;"/><!--MD5=[2ac6356644627ac2384ea3542e9793dc]
reverse link FilterGroup to _BoundFilterGroup--><path codeLine="15" d="M465.066,323.5748 C458.873,337.5428 452.186,352.6224 446.841,364.6784 " fill="none" id="FilterGroup-backto-_BoundFilterGroup" style="stroke:#A80036;stroke-width:1.0;"/><polygon fill="none" points="458.796,320.4464,473.302,305,471.594,326.1212,458.796,320.4464" style="stroke:#A80036;stroke-width:1.0;"/><!--MD5=[e5bfd59a6b4507b904fc1d9972d4c57d]
reverse link _BoundFilter to _BoundFilterGroup--><path codeLine="16" d="M378.318,320.227 C391.083,335.0966 405.296,351.6523 416.479,364.6784 " fill="none" id="_BoundFilter-backto-_BoundFilterGroup" style="stroke:#A80036;stroke-width:1.0;"/><polygon fill="none" points="372.962,324.7351,365.246,305,383.585,315.6158,372.962,324.7351" style="stroke:#A80036;stroke-width:1.0;"/><!--MD5=[c762ec65a1ded457c941019c2895c3ad]
reverse link Filter to ROIFilter--><path codeLine="17" d="M295.658,193.353 C243.466,213.617 162.454,245.073 113.735,263.989 " fill="none" id="Filter-backto-ROIFilter" style="stroke:#A80036;stroke-width:1.0;"/><polygon fill="none" points="293.272,186.77,314.449,186.056,298.339,199.821,293.272,186.77" style="stroke:#A80036;stroke-width:1.0;"/><!--MD5=[f7301689f81917ad0dbe1d800e9d477a]
reverse link Filter to TimeFilter--><path codeLine="18" d="M300.452,209.635 C280.842,225.147 258.412,242.89 240.982,256.678 " fill="none" id="Filter-backto-TimeFilter" style="stroke:#A80036;stroke-width:1.0;"/><polygon fill="none" points="296.395,203.919,316.424,197,305.081,214.899,296.395,203.919" style="stroke:#A80036;stroke-width:1.0;"/><!--MD5=[9e3247190ad0fa39d02126faec18d2b1]
reverse link ROIFilter to _IndexIdentity--><path codeLine="19" d="M69.2529,325.0236 C68.2299,338.5792 67.1386,353.0381 66.2601,364.6784 " fill="none" id="ROIFilter-backto-_IndexIdentity" style="stroke:#A80036;stroke-width:1.0;"/><polygon fill="none" points="62.2787,324.4169,70.7641,305,76.239,325.4705,62.2787,324.4169" style="stroke:#A80036;stroke-width:1.0;"/><!--MD5=[2cb022efb32ac32e4305108cee75cd73]
reverse link TimeFilter to _ColumnIdentity--><path codeLine="20" d="M215.153,325.0236 C216.304,338.5792 217.532,353.0381 218.52,364.6784 " fill="none" id="TimeFilter-backto-_ColumnIdentity" style="stroke:#A80036;stroke-width:1.0;"/><polygon fill="none" points="208.17,325.521,213.453,305,222.12,324.3365,208.17,325.521" style="stroke:#A80036;stroke-width:1.0;"/><!--MD5=[9d35f25f2e4d2b18c2604d81fb285963]
@startuml
' ### lab3.core.classes
Item <|- - Group
list <|- - Group
Item <|- - Analysis
Analysis <|- - Automorphism
Analysis <|- - AnalysisGroup
Group <|- - AnalysisGroup
pd.DataFrame <|- - AnalysisResult

' ### lab3.core.filters
Item <|- - Filter
Filter <|- - _BoundFilter
Filter <|- - FilterGroup
Group <|- - FilterGroup
FilterGroup <|- - _BoundFilterGroup
_BoundFilter <|- - _BoundFilterGroup
Filter <|- - ROIFilter
Filter <|- - TimeFilter
ROIFilter <|- - _IndexIdentity
TimeFilter <|- - _ColumnIdentity
@enduml

@startuml
Item <|- - Group
list <|- - Group
Item <|- - Analysis
Analysis <|- - Automorphism
Analysis <|- - AnalysisGroup
Group <|- - AnalysisGroup
pd.DataFrame <|- - AnalysisResult

Item <|- - Filter
Filter <|- - _BoundFilter
Filter <|- - FilterGroup
Group <|- - FilterGroup
FilterGroup <|- - _BoundFilterGroup
_BoundFilter <|- - _BoundFilterGroup
Filter <|- - ROIFilter
Filter <|- - TimeFilter
ROIFilter <|- - _IndexIdentity
TimeFilter <|- - _ColumnIdentity
@enduml

PlantUML version 1.2021.9beta2(Unknown compile time)
(GPL source distribution)
Java Runtime: Java(TM) SE Runtime Environment
JVM: Java HotSpot(TM) 64-Bit Server VM
Default Encoding: UTF-8
Language: en
Country: US
--></g></svg>