<?xml version="1.0" encoding="UTF-8" standalone="no"?><svg xmlns="http://www.w3.org/2000/svg" xmlns:xlink="http://www.w3.org/1999/xlink" contentScriptType="application/ecmascript" contentStyleType="text/css" height="393px" preserveAspectRatio="none" style="width:1206px;height:393px;background:#FFFFFF;" version="1.1" viewBox="0 0 1206 393" width="1206px" zoomAndPan="magnify"><defs><filter height="300%" id="fltgveiytmm8a" width="300%" x="-1" y="-1"><feGaussianBlur result="blurOut" stdDeviation="2.0"/><feColorMatrix in="blurOut" result="blurOut2" type="matrix" values="0 0 0 0 0 0 0 0 0 0 0 0 0 0 0 0 0 0 .4 0"/><feOffset dx="4.0" dy="4.0" in="blurOut2" result="blurOut3"/><feBlend in="SourceGraphic" in2="blurOut3" mode="normal"/></filter></defs><g><!--MD5=[44a1b4afaef76c16e6c9ec4990ad0c8d]
class Item--><rect fill="#FEFECE" filter="url(#fltgveiytmm8a)" height="48" id="Item" style="stroke:#A80036;stroke-width:1.5;" width="58" x="165.5" y="7"/><ellipse cx="180.5" cy="23" fill="#ADD1B2" rx="11" ry="11" style="stroke:#A80036;stroke-width:1.0;"/><path d="M182.8438,18.6719 C181.9063,18.2344 181.3125,18.0938 180.4375,18.0938 C177.8125,18.0938 175.8125,20.1719 175.8125,22.8906 L175.8125,24.0156 C175.8125,26.5938 177.9219,28.4844 180.8125,28.4844 C182.0313,28.4844 183.1875,28.1875 183.9375,27.6406 C184.5156,27.2344 184.8438,26.7813 184.8438,26.3906 C184.8438,25.9375 184.4531,25.5469 183.9844,25.5469 C183.7656,25.5469 183.5625,25.625 183.375,25.8125 C182.9219,26.2969 182.9219,26.2969 182.7344,26.3906 C182.3125,26.6563 181.625,26.7813 180.8594,26.7813 C178.8125,26.7813 177.5156,25.6875 177.5156,23.9844 L177.5156,22.8906 C177.5156,21.1094 178.7656,19.7969 180.5,19.7969 C181.0781,19.7969 181.6875,19.9531 182.1563,20.2031 C182.6406,20.4844 182.8125,20.7031 182.9063,21.1094 C182.9688,21.5156 183,21.6406 183.1406,21.7656 C183.2813,21.9063 183.5156,22.0156 183.7344,22.0156 C184,22.0156 184.2656,21.875 184.4375,21.6563 C184.5469,21.5 184.5781,21.3125 184.5781,20.8906 L184.5781,19.4688 C184.5781,19.0313 184.5625,18.9063 184.4688,18.75 C184.3125,18.4844 184.0313,18.3438 183.7344,18.3438 C183.4375,18.3438 183.2344,18.4375 183.0156,18.75 L182.8438,18.6719 Z " fill="#000000"/><text fill="#000000" font-family="sans-serif" font-size="12" lengthAdjust="spacing" textLength="26" x="194.5" y="27.1543">Item</text><line style="stroke:#A80036;stroke-width:1.5;" x1="166.5" x2="222.5" y1="39" y2="39"/><line style="stroke:#A80036;stroke-width:1.5;" x1="166.5" x2="222.5" y1="47" y2="47"/><!--MD5=[ac13618b1a974308c1f12eb6c57723dc]
class Event--><rect fill="#FEFECE" filter="url(#fltgveiytmm8a)" height="48" id="Event" style="stroke:#A80036;stroke-width:1.5;" width="65" x="162" y="115"/><ellipse cx="177" cy="131" fill="#ADD1B2" rx="11" ry="11" style="stroke:#A80036;stroke-width:1.0;"/><path d="M179.3438,126.6719 C178.4063,126.2344 177.8125,126.0938 176.9375,126.0938 C174.3125,126.0938 172.3125,128.1719 172.3125,130.8906 L172.3125,132.0156 C172.3125,134.5938 174.4219,136.4844 177.3125,136.4844 C178.5313,136.4844 179.6875,136.1875 180.4375,135.6406 C181.0156,135.2344 181.3438,134.7813 181.3438,134.3906 C181.3438,133.9375 180.9531,133.5469 180.4844,133.5469 C180.2656,133.5469 180.0625,133.625 179.875,133.8125 C179.4219,134.2969 179.4219,134.2969 179.2344,134.3906 C178.8125,134.6563 178.125,134.7813 177.3594,134.7813 C175.3125,134.7813 174.0156,133.6875 174.0156,131.9844 L174.0156,130.8906 C174.0156,129.1094 175.2656,127.7969 177,127.7969 C177.5781,127.7969 178.1875,127.9531 178.6563,128.2031 C179.1406,128.4844 179.3125,128.7031 179.4063,129.1094 C179.4688,129.5156 179.5,129.6406 179.6406,129.7656 C179.7813,129.9063 180.0156,130.0156 180.2344,130.0156 C180.5,130.0156 180.7656,129.875 180.9375,129.6563 C181.0469,129.5 181.0781,129.3125 181.0781,128.8906 L181.0781,127.4688 C181.0781,127.0313 181.0625,126.9063 180.9688,126.75 C180.8125,126.4844 180.5313,126.3438 180.2344,126.3438 C179.9375,126.3438 179.7344,126.4375 179.5156,126.75 L179.3438,126.6719 Z " fill="#000000"/><text fill="#000000" font-family="sans-serif" font-size="12" lengthAdjust="spacing" textLength="33" x="191" y="135.1543">Event</text><line style="stroke:#A80036;stroke-width:1.5;" x1="163" x2="226" y1="147" y2="147"/><line style="stroke:#A80036;stroke-width:1.5;" x1="163" x2="226" y1="155" y2="155"/><!--MD5=[a44ae851727b4bcf0a82a36fa72efccc]
class TriggerEvent--><rect fill="#FEFECE" filter="url(#fltgveiytmm8a)" height="48" id="TriggerEvent" style="stroke:#A80036;stroke-width:1.5;" width="109" x="7" y="223"/><ellipse cx="22" cy="239" fill="#ADD1B2" rx="11" ry="11" style="stroke:#A80036;stroke-width:1.0;"/><path d="M24.3438,234.6719 C23.4063,234.2344 22.8125,234.0938 21.9375,234.0938 C19.3125,234.0938 17.3125,236.1719 17.3125,238.8906 L17.3125,240.0156 C17.3125,242.5938 19.4219,244.4844 22.3125,244.4844 C23.5313,244.4844 24.6875,244.1875 25.4375,243.6406 C26.0156,243.2344 26.3438,242.7813 26.3438,242.3906 C26.3438,241.9375 25.9531,241.5469 25.4844,241.5469 C25.2656,241.5469 25.0625,241.625 24.875,241.8125 C24.4219,242.2969 24.4219,242.2969 24.2344,242.3906 C23.8125,242.6563 23.125,242.7813 22.3594,242.7813 C20.3125,242.7813 19.0156,241.6875 19.0156,239.9844 L19.0156,238.8906 C19.0156,237.1094 20.2656,235.7969 22,235.7969 C22.5781,235.7969 23.1875,235.9531 23.6563,236.2031 C24.1406,236.4844 24.3125,236.7031 24.4063,237.1094 C24.4688,237.5156 24.5,237.6406 24.6406,237.7656 C24.7813,237.9063 25.0156,238.0156 25.2344,238.0156 C25.5,238.0156 25.7656,237.875 25.9375,237.6563 C26.0469,237.5 26.0781,237.3125 26.0781,236.8906 L26.0781,235.4688 C26.0781,235.0313 26.0625,234.9063 25.9688,234.75 C25.8125,234.4844 25.5313,234.3438 25.2344,234.3438 C24.9375,234.3438 24.7344,234.4375 24.5156,234.75 L24.3438,234.6719 Z " fill="#000000"/><text fill="#000000" font-family="sans-serif" font-size="12" lengthAdjust="spacing" textLength="77" x="36" y="243.1543">TriggerEvent</text><line style="stroke:#A80036;stroke-width:1.5;" x1="8" x2="115" y1="255" y2="255"/><line style="stroke:#A80036;stroke-width:1.5;" x1="8" x2="115" y1="263" y2="263"/><!--MD5=[db0ff43611727e9f5fadc0563bb736f6]
class OffsetEvent--><rect fill="#FEFECE" filter="url(#fltgveiytmm8a)" height="48" id="OffsetEvent" style="stroke:#A80036;stroke-width:1.5;" width="102" x="10.5" y="331"/><ellipse cx="25.5" cy="347" fill="#ADD1B2" rx="11" ry="11" style="stroke:#A80036;stroke-width:1.0;"/><path d="M27.8438,342.6719 C26.9063,342.2344 26.3125,342.0938 25.4375,342.0938 C22.8125,342.0938 20.8125,344.1719 20.8125,346.8906 L20.8125,348.0156 C20.8125,350.5938 22.9219,352.4844 25.8125,352.4844 C27.0313,352.4844 28.1875,352.1875 28.9375,351.6406 C29.5156,351.2344 29.8438,350.7813 29.8438,350.3906 C29.8438,349.9375 29.4531,349.5469 28.9844,349.5469 C28.7656,349.5469 28.5625,349.625 28.375,349.8125 C27.9219,350.2969 27.9219,350.2969 27.7344,350.3906 C27.3125,350.6563 26.625,350.7813 25.8594,350.7813 C23.8125,350.7813 22.5156,349.6875 22.5156,347.9844 L22.5156,346.8906 C22.5156,345.1094 23.7656,343.7969 25.5,343.7969 C26.0781,343.7969 26.6875,343.9531 27.1563,344.2031 C27.6406,344.4844 27.8125,344.7031 27.9063,345.1094 C27.9688,345.5156 28,345.6406 28.1406,345.7656 C28.2813,345.9063 28.5156,346.0156 28.7344,346.0156 C29,346.0156 29.2656,345.875 29.4375,345.6563 C29.5469,345.5 29.5781,345.3125 29.5781,344.8906 L29.5781,343.4688 C29.5781,343.0313 29.5625,342.9063 29.4688,342.75 C29.3125,342.4844 29.0313,342.3438 28.7344,342.3438 C28.4375,342.3438 28.2344,342.4375 28.0156,342.75 L27.8438,342.6719 Z " fill="#000000"/><text fill="#000000" font-family="sans-serif" font-size="12" lengthAdjust="spacing" textLength="70" x="39.5" y="351.1543">OffsetEvent</text><line style="stroke:#A80036;stroke-width:1.5;" x1="11.5" x2="111.5" y1="363" y2="363"/><line style="stroke:#A80036;stroke-width:1.5;" x1="11.5" x2="111.5" y1="371" y2="371"/><!--MD5=[41314a0efc36828092cff9ebad2fcafd]
class Group--><rect fill="#FEFECE" filter="url(#fltgveiytmm8a)" height="48" id="Group" style="stroke:#A80036;stroke-width:1.5;" width="69" x="738" y="7"/><ellipse cx="753" cy="23" fill="#ADD1B2" rx="11" ry="11" style="stroke:#A80036;stroke-width:1.0;"/><path d="M755.3438,18.6719 C754.4063,18.2344 753.8125,18.0938 752.9375,18.0938 C750.3125,18.0938 748.3125,20.1719 748.3125,22.8906 L748.3125,24.0156 C748.3125,26.5938 750.4219,28.4844 753.3125,28.4844 C754.5313,28.4844 755.6875,28.1875 756.4375,27.6406 C757.0156,27.2344 757.3438,26.7813 757.3438,26.3906 C757.3438,25.9375 756.9531,25.5469 756.4844,25.5469 C756.2656,25.5469 756.0625,25.625 755.875,25.8125 C755.4219,26.2969 755.4219,26.2969 755.2344,26.3906 C754.8125,26.6563 754.125,26.7813 753.3594,26.7813 C751.3125,26.7813 750.0156,25.6875 750.0156,23.9844 L750.0156,22.8906 C750.0156,21.1094 751.2656,19.7969 753,19.7969 C753.5781,19.7969 754.1875,19.9531 754.6563,20.2031 C755.1406,20.4844 755.3125,20.7031 755.4063,21.1094 C755.4688,21.5156 755.5,21.6406 755.6406,21.7656 C755.7813,21.9063 756.0156,22.0156 756.2344,22.0156 C756.5,22.0156 756.7656,21.875 756.9375,21.6563 C757.0469,21.5 757.0781,21.3125 757.0781,20.8906 L757.0781,19.4688 C757.0781,19.0313 757.0625,18.9063 756.9688,18.75 C756.8125,18.4844 756.5313,18.3438 756.2344,18.3438 C755.9375,18.3438 755.7344,18.4375 755.5156,18.75 L755.3438,18.6719 Z " fill="#000000"/><text fill="#000000" font-family="sans-serif" font-size="12" lengthAdjust="spacing" textLength="37" x="767" y="27.1543">Group</text><line style="stroke:#A80036;stroke-width:1.5;" x1="739" x2="806" y1="39" y2="39"/><line style="stroke:#A80036;stroke-width:1.5;" x1="739" x2="806" y1="47" y2="47"/><!--MD5=[87a741342caa28e46eb5cf110a1366e9]
class EventGroup--><rect fill="#FEFECE" filter="url(#fltgveiytmm8a)" height="48" id="EventGroup" style="stroke:#A80036;stroke-width:1.5;" width="102" x="710.5" y="115"/><ellipse cx="725.5" cy="131" fill="#ADD1B2" rx="11" ry="11" style="stroke:#A80036;stroke-width:1.0;"/><path d="M727.8438,126.6719 C726.9063,126.2344 726.3125,126.0938 725.4375,126.0938 C722.8125,126.0938 720.8125,128.1719 720.8125,130.8906 L720.8125,132.0156 C720.8125,134.5938 722.9219,136.4844 725.8125,136.4844 C727.0313,136.4844 728.1875,136.1875 728.9375,135.6406 C729.5156,135.2344 729.8438,134.7813 729.8438,134.3906 C729.8438,133.9375 729.4531,133.5469 728.9844,133.5469 C728.7656,133.5469 728.5625,133.625 728.375,133.8125 C727.9219,134.2969 727.9219,134.2969 727.7344,134.3906 C727.3125,134.6563 726.625,134.7813 725.8594,134.7813 C723.8125,134.7813 722.5156,133.6875 722.5156,131.9844 L722.5156,130.8906 C722.5156,129.1094 723.7656,127.7969 725.5,127.7969 C726.0781,127.7969 726.6875,127.9531 727.1563,128.2031 C727.6406,128.4844 727.8125,128.7031 727.9063,129.1094 C727.9688,129.5156 728,129.6406 728.1406,129.7656 C728.2813,129.9063 728.5156,130.0156 728.7344,130.0156 C729,130.0156 729.2656,129.875 729.4375,129.6563 C729.5469,129.5 729.5781,129.3125 729.5781,128.8906 L729.5781,127.4688 C729.5781,127.0313 729.5625,126.9063 729.4688,126.75 C729.3125,126.4844 729.0313,126.3438 728.7344,126.3438 C728.4375,126.3438 728.2344,126.4375 728.0156,126.75 L727.8438,126.6719 Z " fill="#000000"/><text fill="#000000" font-family="sans-serif" font-size="12" lengthAdjust="spacing" textLength="70" x="739.5" y="135.1543">EventGroup</text><line style="stroke:#A80036;stroke-width:1.5;" x1="711.5" x2="811.5" y1="147" y2="147"/><line style="stroke:#A80036;stroke-width:1.5;" x1="711.5" x2="811.5" y1="155" y2="155"/><!--MD5=[69b957edef331d1987bdac32ed0e73f6]
class Group2DataFrameMixin--><rect fill="#FEFECE" filter="url(#fltgveiytmm8a)" height="48" id="Group2DataFrameMixin" style="stroke:#A80036;stroke-width:1.5;" width="172" x="864.5" y="7"/><ellipse cx="879.5" cy="23" fill="#ADD1B2" rx="11" ry="11" style="stroke:#A80036;stroke-width:1.0;"/><path d="M881.8438,18.6719 C880.9063,18.2344 880.3125,18.0938 879.4375,18.0938 C876.8125,18.0938 874.8125,20.1719 874.8125,22.8906 L874.8125,24.0156 C874.8125,26.5938 876.9219,28.4844 879.8125,28.4844 C881.0313,28.4844 882.1875,28.1875 882.9375,27.6406 C883.5156,27.2344 883.8438,26.7813 883.8438,26.3906 C883.8438,25.9375 883.4531,25.5469 882.9844,25.5469 C882.7656,25.5469 882.5625,25.625 882.375,25.8125 C881.9219,26.2969 881.9219,26.2969 881.7344,26.3906 C881.3125,26.6563 880.625,26.7813 879.8594,26.7813 C877.8125,26.7813 876.5156,25.6875 876.5156,23.9844 L876.5156,22.8906 C876.5156,21.1094 877.7656,19.7969 879.5,19.7969 C880.0781,19.7969 880.6875,19.9531 881.1563,20.2031 C881.6406,20.4844 881.8125,20.7031 881.9063,21.1094 C881.9688,21.5156 882,21.6406 882.1406,21.7656 C882.2813,21.9063 882.5156,22.0156 882.7344,22.0156 C883,22.0156 883.2656,21.875 883.4375,21.6563 C883.5469,21.5 883.5781,21.3125 883.5781,20.8906 L883.5781,19.4688 C883.5781,19.0313 883.5625,18.9063 883.4688,18.75 C883.3125,18.4844 883.0313,18.3438 882.7344,18.3438 C882.4375,18.3438 882.2344,18.4375 882.0156,18.75 L881.8438,18.6719 Z " fill="#000000"/><text fill="#000000" font-family="sans-serif" font-size="12" lengthAdjust="spacing" textLength="140" x="893.5" y="27.1543">Group2DataFrameMixin</text><line style="stroke:#A80036;stroke-width:1.5;" x1="865.5" x2="1035.5" y1="39" y2="39"/><line style="stroke:#A80036;stroke-width:1.5;" x1="865.5" x2="1035.5" y1="47" y2="47"/><!--MD5=[63de1ca049e2326a7cefa484cd5f4fc0]
class LFPEventGroup--><rect fill="#FEFECE" filter="url(#fltgveiytmm8a)" height="48" id="LFPEventGroup" style="stroke:#A80036;stroke-width:1.5;" width="121" x="413" y="223"/><ellipse cx="428" cy="239" fill="#ADD1B2" rx="11" ry="11" style="stroke:#A80036;stroke-width:1.0;"/><path d="M430.3438,234.6719 C429.4063,234.2344 428.8125,234.0938 427.9375,234.0938 C425.3125,234.0938 423.3125,236.1719 423.3125,238.8906 L423.3125,240.0156 C423.3125,242.5938 425.4219,244.4844 428.3125,244.4844 C429.5313,244.4844 430.6875,244.1875 431.4375,243.6406 C432.0156,243.2344 432.3438,242.7813 432.3438,242.3906 C432.3438,241.9375 431.9531,241.5469 431.4844,241.5469 C431.2656,241.5469 431.0625,241.625 430.875,241.8125 C430.4219,242.2969 430.4219,242.2969 430.2344,242.3906 C429.8125,242.6563 429.125,242.7813 428.3594,242.7813 C426.3125,242.7813 425.0156,241.6875 425.0156,239.9844 L425.0156,238.8906 C425.0156,237.1094 426.2656,235.7969 428,235.7969 C428.5781,235.7969 429.1875,235.9531 429.6563,236.2031 C430.1406,236.4844 430.3125,236.7031 430.4063,237.1094 C430.4688,237.5156 430.5,237.6406 430.6406,237.7656 C430.7813,237.9063 431.0156,238.0156 431.2344,238.0156 C431.5,238.0156 431.7656,237.875 431.9375,237.6563 C432.0469,237.5 432.0781,237.3125 432.0781,236.8906 L432.0781,235.4688 C432.0781,235.0313 432.0625,234.9063 431.9688,234.75 C431.8125,234.4844 431.5313,234.3438 431.2344,234.3438 C430.9375,234.3438 430.7344,234.4375 430.5156,234.75 L430.3438,234.6719 Z " fill="#000000"/><text fill="#000000" font-family="sans-serif" font-size="12" lengthAdjust="spacing" textLength="89" x="442" y="243.1543">LFPEventGroup</text><line style="stroke:#A80036;stroke-width:1.5;" x1="414" x2="533" y1="255" y2="255"/><line style="stroke:#A80036;stroke-width:1.5;" x1="414" x2="533" y1="263" y2="263"/><!--MD5=[7f4888f9d3abaf5814bacc908805528f]
class BehaviorEventGroup--><rect fill="#FEFECE" filter="url(#fltgveiytmm8a)" height="48" id="BehaviorEventGroup" style="stroke:#A80036;stroke-width:1.5;" width="155" x="569" y="223"/><ellipse cx="584" cy="239" fill="#ADD1B2" rx="11" ry="11" style="stroke:#A80036;stroke-width:1.0;"/><path d="M586.3438,234.6719 C585.4063,234.2344 584.8125,234.0938 583.9375,234.0938 C581.3125,234.0938 579.3125,236.1719 579.3125,238.8906 L579.3125,240.0156 C579.3125,242.5938 581.4219,244.4844 584.3125,244.4844 C585.5313,244.4844 586.6875,244.1875 587.4375,243.6406 C588.0156,243.2344 588.3438,242.7813 588.3438,242.3906 C588.3438,241.9375 587.9531,241.5469 587.4844,241.5469 C587.2656,241.5469 587.0625,241.625 586.875,241.8125 C586.4219,242.2969 586.4219,242.2969 586.2344,242.3906 C585.8125,242.6563 585.125,242.7813 584.3594,242.7813 C582.3125,242.7813 581.0156,241.6875 581.0156,239.9844 L581.0156,238.8906 C581.0156,237.1094 582.2656,235.7969 584,235.7969 C584.5781,235.7969 585.1875,235.9531 585.6563,236.2031 C586.1406,236.4844 586.3125,236.7031 586.4063,237.1094 C586.4688,237.5156 586.5,237.6406 586.6406,237.7656 C586.7813,237.9063 587.0156,238.0156 587.2344,238.0156 C587.5,238.0156 587.7656,237.875 587.9375,237.6563 C588.0469,237.5 588.0781,237.3125 588.0781,236.8906 L588.0781,235.4688 C588.0781,235.0313 588.0625,234.9063 587.9688,234.75 C587.8125,234.4844 587.5313,234.3438 587.2344,234.3438 C586.9375,234.3438 586.7344,234.4375 586.5156,234.75 L586.3438,234.6719 Z " fill="#000000"/><text fill="#000000" font-family="sans-serif" font-size="12" lengthAdjust="spacing" textLength="123" x="598" y="243.1543">BehaviorEventGroup</text><line style="stroke:#A80036;stroke-width:1.5;" x1="570" x2="723" y1="255" y2="255"/><line style="stroke:#A80036;stroke-width:1.5;" x1="570" x2="723" y1="263" y2="263"/><!--MD5=[e5f01085aae13bb72c77527db2d96c5e]
class EventGroupGroup--><rect fill="#FEFECE" filter="url(#fltgveiytmm8a)" height="48" id="EventGroupGroup" style="stroke:#A80036;stroke-width:1.5;" width="139" x="848" y="115"/><ellipse cx="863" cy="131" fill="#ADD1B2" rx="11" ry="11" style="stroke:#A80036;stroke-width:1.0;"/><path d="M865.3438,126.6719 C864.4063,126.2344 863.8125,126.0938 862.9375,126.0938 C860.3125,126.0938 858.3125,128.1719 858.3125,130.8906 L858.3125,132.0156 C858.3125,134.5938 860.4219,136.4844 863.3125,136.4844 C864.5313,136.4844 865.6875,136.1875 866.4375,135.6406 C867.0156,135.2344 867.3438,134.7813 867.3438,134.3906 C867.3438,133.9375 866.9531,133.5469 866.4844,133.5469 C866.2656,133.5469 866.0625,133.625 865.875,133.8125 C865.4219,134.2969 865.4219,134.2969 865.2344,134.3906 C864.8125,134.6563 864.125,134.7813 863.3594,134.7813 C861.3125,134.7813 860.0156,133.6875 860.0156,131.9844 L860.0156,130.8906 C860.0156,129.1094 861.2656,127.7969 863,127.7969 C863.5781,127.7969 864.1875,127.9531 864.6563,128.2031 C865.1406,128.4844 865.3125,128.7031 865.4063,129.1094 C865.4688,129.5156 865.5,129.6406 865.6406,129.7656 C865.7813,129.9063 866.0156,130.0156 866.2344,130.0156 C866.5,130.0156 866.7656,129.875 866.9375,129.6563 C867.0469,129.5 867.0781,129.3125 867.0781,128.8906 L867.0781,127.4688 C867.0781,127.0313 867.0625,126.9063 866.9688,126.75 C866.8125,126.4844 866.5313,126.3438 866.2344,126.3438 C865.9375,126.3438 865.7344,126.4375 865.5156,126.75 L865.3438,126.6719 Z " fill="#000000"/><text fill="#000000" font-family="sans-serif" font-size="12" lengthAdjust="spacing" textLength="107" x="877" y="135.1543">EventGroupGroup</text><line style="stroke:#A80036;stroke-width:1.5;" x1="849" x2="986" y1="147" y2="147"/><line style="stroke:#A80036;stroke-width:1.5;" x1="849" x2="986" y1="155" y2="155"/><!--MD5=[3fdf79f13ce15aa26608ac03ceacc6cc]
class ImagingEventGroupGroup--><rect fill="#FEFECE" filter="url(#fltgveiytmm8a)" height="48" id="ImagingEventGroupGroup" style="stroke:#A80036;stroke-width:1.5;" width="186" x="947.5" y="223"/><ellipse cx="962.5" cy="239" fill="#ADD1B2" rx="11" ry="11" style="stroke:#A80036;stroke-width:1.0;"/><path d="M964.8438,234.6719 C963.9063,234.2344 963.3125,234.0938 962.4375,234.0938 C959.8125,234.0938 957.8125,236.1719 957.8125,238.8906 L957.8125,240.0156 C957.8125,242.5938 959.9219,244.4844 962.8125,244.4844 C964.0313,244.4844 965.1875,244.1875 965.9375,243.6406 C966.5156,243.2344 966.8438,242.7813 966.8438,242.3906 C966.8438,241.9375 966.4531,241.5469 965.9844,241.5469 C965.7656,241.5469 965.5625,241.625 965.375,241.8125 C964.9219,242.2969 964.9219,242.2969 964.7344,242.3906 C964.3125,242.6563 963.625,242.7813 962.8594,242.7813 C960.8125,242.7813 959.5156,241.6875 959.5156,239.9844 L959.5156,238.8906 C959.5156,237.1094 960.7656,235.7969 962.5,235.7969 C963.0781,235.7969 963.6875,235.9531 964.1563,236.2031 C964.6406,236.4844 964.8125,236.7031 964.9063,237.1094 C964.9688,237.5156 965,237.6406 965.1406,237.7656 C965.2813,237.9063 965.5156,238.0156 965.7344,238.0156 C966,238.0156 966.2656,237.875 966.4375,237.6563 C966.5469,237.5 966.5781,237.3125 966.5781,236.8906 L966.5781,235.4688 C966.5781,235.0313 966.5625,234.9063 966.4688,234.75 C966.3125,234.4844 966.0313,234.3438 965.7344,234.3438 C965.4375,234.3438 965.2344,234.4375 965.0156,234.75 L964.8438,234.6719 Z " fill="#000000"/><text fill="#000000" font-family="sans-serif" font-size="12" lengthAdjust="spacing" textLength="154" x="976.5" y="243.1543">ImagingEventGroupGroup</text><line style="stroke:#A80036;stroke-width:1.5;" x1="948.5" x2="1132.5" y1="255" y2="255"/><line style="stroke:#A80036;stroke-width:1.5;" x1="948.5" x2="1132.5" y1="263" y2="263"/><!--MD5=[1a82cfa47675abc1e5c30db9809fed2b]
class LapEvent--><rect fill="#FEFECE" filter="url(#fltgveiytmm8a)" height="48" id="LapEvent" style="stroke:#A80036;stroke-width:1.5;" width="86" x="151.5" y="223"/><ellipse cx="166.5" cy="239" fill="#ADD1B2" rx="11" ry="11" style="stroke:#A80036;stroke-width:1.0;"/><path d="M168.8438,234.6719 C167.9063,234.2344 167.3125,234.0938 166.4375,234.0938 C163.8125,234.0938 161.8125,236.1719 161.8125,238.8906 L161.8125,240.0156 C161.8125,242.5938 163.9219,244.4844 166.8125,244.4844 C168.0313,244.4844 169.1875,244.1875 169.9375,243.6406 C170.5156,243.2344 170.8438,242.7813 170.8438,242.3906 C170.8438,241.9375 170.4531,241.5469 169.9844,241.5469 C169.7656,241.5469 169.5625,241.625 169.375,241.8125 C168.9219,242.2969 168.9219,242.2969 168.7344,242.3906 C168.3125,242.6563 167.625,242.7813 166.8594,242.7813 C164.8125,242.7813 163.5156,241.6875 163.5156,239.9844 L163.5156,238.8906 C163.5156,237.1094 164.7656,235.7969 166.5,235.7969 C167.0781,235.7969 167.6875,235.9531 168.1563,236.2031 C168.6406,236.4844 168.8125,236.7031 168.9063,237.1094 C168.9688,237.5156 169,237.6406 169.1406,237.7656 C169.2813,237.9063 169.5156,238.0156 169.7344,238.0156 C170,238.0156 170.2656,237.875 170.4375,237.6563 C170.5469,237.5 170.5781,237.3125 170.5781,236.8906 L170.5781,235.4688 C170.5781,235.0313 170.5625,234.9063 170.4688,234.75 C170.3125,234.4844 170.0313,234.3438 169.7344,234.3438 C169.4375,234.3438 169.2344,234.4375 169.0156,234.75 L168.8438,234.6719 Z " fill="#000000"/><text fill="#000000" font-family="sans-serif" font-size="12" lengthAdjust="spacing" textLength="54" x="180.5" y="243.1543">LapEvent</text><line style="stroke:#A80036;stroke-width:1.5;" x1="152.5" x2="236.5" y1="255" y2="255"/><line style="stroke:#A80036;stroke-width:1.5;" x1="152.5" x2="236.5" y1="263" y2="263"/><!--MD5=[075651de6a3585b665a8025a7dfe0ba3]
class LapGroup--><rect fill="#FEFECE" filter="url(#fltgveiytmm8a)" height="48" id="LapGroup" style="stroke:#A80036;stroke-width:1.5;" width="90" x="676.5" y="331"/><ellipse cx="691.5" cy="347" fill="#ADD1B2" rx="11" ry="11" style="stroke:#A80036;stroke-width:1.0;"/><path d="M693.8438,342.6719 C692.9063,342.2344 692.3125,342.0938 691.4375,342.0938 C688.8125,342.0938 686.8125,344.1719 686.8125,346.8906 L686.8125,348.0156 C686.8125,350.5938 688.9219,352.4844 691.8125,352.4844 C693.0313,352.4844 694.1875,352.1875 694.9375,351.6406 C695.5156,351.2344 695.8438,350.7813 695.8438,350.3906 C695.8438,349.9375 695.4531,349.5469 694.9844,349.5469 C694.7656,349.5469 694.5625,349.625 694.375,349.8125 C693.9219,350.2969 693.9219,350.2969 693.7344,350.3906 C693.3125,350.6563 692.625,350.7813 691.8594,350.7813 C689.8125,350.7813 688.5156,349.6875 688.5156,347.9844 L688.5156,346.8906 C688.5156,345.1094 689.7656,343.7969 691.5,343.7969 C692.0781,343.7969 692.6875,343.9531 693.1563,344.2031 C693.6406,344.4844 693.8125,344.7031 693.9063,345.1094 C693.9688,345.5156 694,345.6406 694.1406,345.7656 C694.2813,345.9063 694.5156,346.0156 694.7344,346.0156 C695,346.0156 695.2656,345.875 695.4375,345.6563 C695.5469,345.5 695.5781,345.3125 695.5781,344.8906 L695.5781,343.4688 C695.5781,343.0313 695.5625,342.9063 695.4688,342.75 C695.3125,342.4844 695.0313,342.3438 694.7344,342.3438 C694.4375,342.3438 694.2344,342.4375 694.0156,342.75 L693.8438,342.6719 Z " fill="#000000"/><text fill="#000000" font-family="sans-serif" font-size="12" lengthAdjust="spacing" textLength="58" x="705.5" y="351.1543">LapGroup</text><line style="stroke:#A80036;stroke-width:1.5;" x1="677.5" x2="765.5" y1="363" y2="363"/><line style="stroke:#A80036;stroke-width:1.5;" x1="677.5" x2="765.5" y1="371" y2="371"/><!--MD5=[a7c80561d5291d16365ba0dc0ed20bc9]
class SpatialEvent--><rect fill="#FEFECE" filter="url(#fltgveiytmm8a)" height="48" id="SpatialEvent" style="stroke:#A80036;stroke-width:1.5;" width="105" x="273" y="223"/><ellipse cx="288" cy="239" fill="#ADD1B2" rx="11" ry="11" style="stroke:#A80036;stroke-width:1.0;"/><path d="M290.3438,234.6719 C289.4063,234.2344 288.8125,234.0938 287.9375,234.0938 C285.3125,234.0938 283.3125,236.1719 283.3125,238.8906 L283.3125,240.0156 C283.3125,242.5938 285.4219,244.4844 288.3125,244.4844 C289.5313,244.4844 290.6875,244.1875 291.4375,243.6406 C292.0156,243.2344 292.3438,242.7813 292.3438,242.3906 C292.3438,241.9375 291.9531,241.5469 291.4844,241.5469 C291.2656,241.5469 291.0625,241.625 290.875,241.8125 C290.4219,242.2969 290.4219,242.2969 290.2344,242.3906 C289.8125,242.6563 289.125,242.7813 288.3594,242.7813 C286.3125,242.7813 285.0156,241.6875 285.0156,239.9844 L285.0156,238.8906 C285.0156,237.1094 286.2656,235.7969 288,235.7969 C288.5781,235.7969 289.1875,235.9531 289.6563,236.2031 C290.1406,236.4844 290.3125,236.7031 290.4063,237.1094 C290.4688,237.5156 290.5,237.6406 290.6406,237.7656 C290.7813,237.9063 291.0156,238.0156 291.2344,238.0156 C291.5,238.0156 291.7656,237.875 291.9375,237.6563 C292.0469,237.5 292.0781,237.3125 292.0781,236.8906 L292.0781,235.4688 C292.0781,235.0313 292.0625,234.9063 291.9688,234.75 C291.8125,234.4844 291.5313,234.3438 291.2344,234.3438 C290.9375,234.3438 290.7344,234.4375 290.5156,234.75 L290.3438,234.6719 Z " fill="#000000"/><text fill="#000000" font-family="sans-serif" font-size="12" lengthAdjust="spacing" textLength="73" x="302" y="243.1543">SpatialEvent</text><line style="stroke:#A80036;stroke-width:1.5;" x1="274" x2="377" y1="255" y2="255"/><line style="stroke:#A80036;stroke-width:1.5;" x1="274" x2="377" y1="263" y2="263"/><!--MD5=[67962f42533751c4113dd8b629c1e005]
class SpatialEventGroup--><rect fill="#FEFECE" filter="url(#fltgveiytmm8a)" height="48" id="SpatialEventGroup" style="stroke:#A80036;stroke-width:1.5;" width="142" x="499.5" y="331"/><ellipse cx="514.5" cy="347" fill="#ADD1B2" rx="11" ry="11" style="stroke:#A80036;stroke-width:1.0;"/><path d="M516.8438,342.6719 C515.9063,342.2344 515.3125,342.0938 514.4375,342.0938 C511.8125,342.0938 509.8125,344.1719 509.8125,346.8906 L509.8125,348.0156 C509.8125,350.5938 511.9219,352.4844 514.8125,352.4844 C516.0313,352.4844 517.1875,352.1875 517.9375,351.6406 C518.5156,351.2344 518.8438,350.7813 518.8438,350.3906 C518.8438,349.9375 518.4531,349.5469 517.9844,349.5469 C517.7656,349.5469 517.5625,349.625 517.375,349.8125 C516.9219,350.2969 516.9219,350.2969 516.7344,350.3906 C516.3125,350.6563 515.625,350.7813 514.8594,350.7813 C512.8125,350.7813 511.5156,349.6875 511.5156,347.9844 L511.5156,346.8906 C511.5156,345.1094 512.7656,343.7969 514.5,343.7969 C515.0781,343.7969 515.6875,343.9531 516.1563,344.2031 C516.6406,344.4844 516.8125,344.7031 516.9063,345.1094 C516.9688,345.5156 517,345.6406 517.1406,345.7656 C517.2813,345.9063 517.5156,346.0156 517.7344,346.0156 C518,346.0156 518.2656,345.875 518.4375,345.6563 C518.5469,345.5 518.5781,345.3125 518.5781,344.8906 L518.5781,343.4688 C518.5781,343.0313 518.5625,342.9063 518.4688,342.75 C518.3125,342.4844 518.0313,342.3438 517.7344,342.3438 C517.4375,342.3438 517.2344,342.4375 517.0156,342.75 L516.8438,342.6719 Z " fill="#000000"/><text fill="#000000" font-family="sans-serif" font-size="12" lengthAdjust="spacing" textLength="110" x="528.5" y="351.1543">SpatialEventGroup</text><line style="stroke:#A80036;stroke-width:1.5;" x1="500.5" x2="640.5" y1="363" y2="363"/><line style="stroke:#A80036;stroke-width:1.5;" x1="500.5" x2="640.5" y1="371" y2="371"/><!--MD5=[801eacba4b17a817d189b75b85212adc]
class IntervalEvent--><rect fill="#FEFECE" filter="url(#fltgveiytmm8a)" height="48" id="IntervalEvent" style="stroke:#A80036;stroke-width:1.5;" width="109" x="1083" y="7"/><ellipse cx="1098" cy="23" fill="#ADD1B2" rx="11" ry="11" style="stroke:#A80036;stroke-width:1.0;"/><path d="M1100.3438,18.6719 C1099.4063,18.2344 1098.8125,18.0938 1097.9375,18.0938 C1095.3125,18.0938 1093.3125,20.1719 1093.3125,22.8906 L1093.3125,24.0156 C1093.3125,26.5938 1095.4219,28.4844 1098.3125,28.4844 C1099.5313,28.4844 1100.6875,28.1875 1101.4375,27.6406 C1102.0156,27.2344 1102.3438,26.7813 1102.3438,26.3906 C1102.3438,25.9375 1101.9531,25.5469 1101.4844,25.5469 C1101.2656,25.5469 1101.0625,25.625 1100.875,25.8125 C1100.4219,26.2969 1100.4219,26.2969 1100.2344,26.3906 C1099.8125,26.6563 1099.125,26.7813 1098.3594,26.7813 C1096.3125,26.7813 1095.0156,25.6875 1095.0156,23.9844 L1095.0156,22.8906 C1095.0156,21.1094 1096.2656,19.7969 1098,19.7969 C1098.5781,19.7969 1099.1875,19.9531 1099.6563,20.2031 C1100.1406,20.4844 1100.3125,20.7031 1100.4063,21.1094 C1100.4688,21.5156 1100.5,21.6406 1100.6406,21.7656 C1100.7813,21.9063 1101.0156,22.0156 1101.2344,22.0156 C1101.5,22.0156 1101.7656,21.875 1101.9375,21.6563 C1102.0469,21.5 1102.0781,21.3125 1102.0781,20.8906 L1102.0781,19.4688 C1102.0781,19.0313 1102.0625,18.9063 1101.9688,18.75 C1101.8125,18.4844 1101.5313,18.3438 1101.2344,18.3438 C1100.9375,18.3438 1100.7344,18.4375 1100.5156,18.75 L1100.3438,18.6719 Z " fill="#000000"/><text fill="#000000" font-family="sans-serif" font-size="12" lengthAdjust="spacing" textLength="77" x="1112" y="27.1543">IntervalEvent</text><line style="stroke:#A80036;stroke-width:1.5;" x1="1084" x2="1191" y1="39" y2="39"/><line style="stroke:#A80036;stroke-width:1.5;" x1="1084" x2="1191" y1="47" y2="47"/><!--MD5=[8a5356cbd2826867a197cada5cd82247]
class Transient--><rect fill="#FEFECE" filter="url(#fltgveiytmm8a)" height="48" id="Transient" style="stroke:#A80036;stroke-width:1.5;" width="87" x="1094" y="115"/><ellipse cx="1109" cy="131" fill="#ADD1B2" rx="11" ry="11" style="stroke:#A80036;stroke-width:1.0;"/><path d="M1111.3438,126.6719 C1110.4063,126.2344 1109.8125,126.0938 1108.9375,126.0938 C1106.3125,126.0938 1104.3125,128.1719 1104.3125,130.8906 L1104.3125,132.0156 C1104.3125,134.5938 1106.4219,136.4844 1109.3125,136.4844 C1110.5313,136.4844 1111.6875,136.1875 1112.4375,135.6406 C1113.0156,135.2344 1113.3438,134.7813 1113.3438,134.3906 C1113.3438,133.9375 1112.9531,133.5469 1112.4844,133.5469 C1112.2656,133.5469 1112.0625,133.625 1111.875,133.8125 C1111.4219,134.2969 1111.4219,134.2969 1111.2344,134.3906 C1110.8125,134.6563 1110.125,134.7813 1109.3594,134.7813 C1107.3125,134.7813 1106.0156,133.6875 1106.0156,131.9844 L1106.0156,130.8906 C1106.0156,129.1094 1107.2656,127.7969 1109,127.7969 C1109.5781,127.7969 1110.1875,127.9531 1110.6563,128.2031 C1111.1406,128.4844 1111.3125,128.7031 1111.4063,129.1094 C1111.4688,129.5156 1111.5,129.6406 1111.6406,129.7656 C1111.7813,129.9063 1112.0156,130.0156 1112.2344,130.0156 C1112.5,130.0156 1112.7656,129.875 1112.9375,129.6563 C1113.0469,129.5 1113.0781,129.3125 1113.0781,128.8906 L1113.0781,127.4688 C1113.0781,127.0313 1113.0625,126.9063 1112.9688,126.75 C1112.8125,126.4844 1112.5313,126.3438 1112.2344,126.3438 C1111.9375,126.3438 1111.7344,126.4375 1111.5156,126.75 L1111.3438,126.6719 Z " fill="#000000"/><text fill="#000000" font-family="sans-serif" font-size="12" lengthAdjust="spacing" textLength="55" x="1123" y="135.1543">Transient</text><line style="stroke:#A80036;stroke-width:1.5;" x1="1095" x2="1180" y1="147" y2="147"/><line style="stroke:#A80036;stroke-width:1.5;" x1="1095" x2="1180" y1="155" y2="155"/><!--MD5=[8d6a6d71d9f1fc22a1f75ef600ab6025]
class SingleCellTransients--><rect fill="#FEFECE" filter="url(#fltgveiytmm8a)" height="48" id="SingleCellTransients" style="stroke:#A80036;stroke-width:1.5;" width="153" x="759" y="223"/><ellipse cx="774" cy="239" fill="#ADD1B2" rx="11" ry="11" style="stroke:#A80036;stroke-width:1.0;"/><path d="M776.3438,234.6719 C775.4063,234.2344 774.8125,234.0938 773.9375,234.0938 C771.3125,234.0938 769.3125,236.1719 769.3125,238.8906 L769.3125,240.0156 C769.3125,242.5938 771.4219,244.4844 774.3125,244.4844 C775.5313,244.4844 776.6875,244.1875 777.4375,243.6406 C778.0156,243.2344 778.3438,242.7813 778.3438,242.3906 C778.3438,241.9375 777.9531,241.5469 777.4844,241.5469 C777.2656,241.5469 777.0625,241.625 776.875,241.8125 C776.4219,242.2969 776.4219,242.2969 776.2344,242.3906 C775.8125,242.6563 775.125,242.7813 774.3594,242.7813 C772.3125,242.7813 771.0156,241.6875 771.0156,239.9844 L771.0156,238.8906 C771.0156,237.1094 772.2656,235.7969 774,235.7969 C774.5781,235.7969 775.1875,235.9531 775.6563,236.2031 C776.1406,236.4844 776.3125,236.7031 776.4063,237.1094 C776.4688,237.5156 776.5,237.6406 776.6406,237.7656 C776.7813,237.9063 777.0156,238.0156 777.2344,238.0156 C777.5,238.0156 777.7656,237.875 777.9375,237.6563 C778.0469,237.5 778.0781,237.3125 778.0781,236.8906 L778.0781,235.4688 C778.0781,235.0313 778.0625,234.9063 777.9688,234.75 C777.8125,234.4844 777.5313,234.3438 777.2344,234.3438 C776.9375,234.3438 776.7344,234.4375 776.5156,234.75 L776.3438,234.6719 Z " fill="#000000"/><text fill="#000000" font-family="sans-serif" font-size="12" lengthAdjust="spacing" textLength="121" x="788" y="243.1543">SingleCellTransients</text><line style="stroke:#A80036;stroke-width:1.5;" x1="760" x2="911" y1="255" y2="255"/><line style="stroke:#A80036;stroke-width:1.5;" x1="760" x2="911" y1="263" y2="263"/><!--MD5=[e732ec18b7103ff8837b222e20f7d526]
class ExperimentTransientGroup--><rect fill="#FEFECE" filter="url(#fltgveiytmm8a)" height="48" id="ExperimentTransientGroup" style="stroke:#A80036;stroke-width:1.5;" width="192" x="944.5" y="331"/><ellipse cx="959.5" cy="347" fill="#ADD1B2" rx="11" ry="11" style="stroke:#A80036;stroke-width:1.0;"/><path d="M961.8438,342.6719 C960.9063,342.2344 960.3125,342.0938 959.4375,342.0938 C956.8125,342.0938 954.8125,344.1719 954.8125,346.8906 L954.8125,348.0156 C954.8125,350.5938 956.9219,352.4844 959.8125,352.4844 C961.0313,352.4844 962.1875,352.1875 962.9375,351.6406 C963.5156,351.2344 963.8438,350.7813 963.8438,350.3906 C963.8438,349.9375 963.4531,349.5469 962.9844,349.5469 C962.7656,349.5469 962.5625,349.625 962.375,349.8125 C961.9219,350.2969 961.9219,350.2969 961.7344,350.3906 C961.3125,350.6563 960.625,350.7813 959.8594,350.7813 C957.8125,350.7813 956.5156,349.6875 956.5156,347.9844 L956.5156,346.8906 C956.5156,345.1094 957.7656,343.7969 959.5,343.7969 C960.0781,343.7969 960.6875,343.9531 961.1563,344.2031 C961.6406,344.4844 961.8125,344.7031 961.9063,345.1094 C961.9688,345.5156 962,345.6406 962.1406,345.7656 C962.2813,345.9063 962.5156,346.0156 962.7344,346.0156 C963,346.0156 963.2656,345.875 963.4375,345.6563 C963.5469,345.5 963.5781,345.3125 963.5781,344.8906 L963.5781,343.4688 C963.5781,343.0313 963.5625,342.9063 963.4688,342.75 C963.3125,342.4844 963.0313,342.3438 962.7344,342.3438 C962.4375,342.3438 962.2344,342.4375 962.0156,342.75 L961.8438,342.6719 Z " fill="#000000"/><text fill="#000000" font-family="sans-serif" font-size="12" lengthAdjust="spacing" textLength="160" x="973.5" y="351.1543">ExperimentTransientGroup</text><line style="stroke:#A80036;stroke-width:1.5;" x1="945.5" x2="1135.5" y1="363" y2="363"/><line style="stroke:#A80036;stroke-width:1.5;" x1="945.5" x2="1135.5" y1="371" y2="371"/><!--MD5=[f1a9c886747e2b27304e9091da77978d]
reverse link Item to Event--><path codeLine="2" d="M194.5,75.024 C194.5,88.579 194.5,103.038 194.5,114.678 " fill="none" id="Item-backto-Event" style="stroke:#A80036;stroke-width:1.0;"/><polygon fill="none" points="187.5,75,194.5,55,201.5,75,187.5,75" style="stroke:#A80036;stroke-width:1.0;"/><!--MD5=[d0e59a6865f11f6a1d2401be284f8781]
reverse link Event to TriggerEvent--><path codeLine="3" d="M149.788,175.635 C130.325,191.147 108.062,208.89 90.762,222.678 " fill="none" id="Event-backto-TriggerEvent" style="stroke:#A80036;stroke-width:1.0;"/><polygon fill="none" points="145.638,169.992,165.641,163,154.363,180.94,145.638,169.992" style="stroke:#A80036;stroke-width:1.0;"/><!--MD5=[4ede82b0ec8a8514f11f18458a5fcc05]
reverse link TriggerEvent to OffsetEvent--><path codeLine="4" d="M61.5,291.0236 C61.5,304.5792 61.5,319.0381 61.5,330.6784 " fill="none" id="TriggerEvent-backto-OffsetEvent" style="stroke:#A80036;stroke-width:1.0;"/><polygon fill="none" points="54.5001,291.0005,61.5,271,68.5001,291.0004,54.5001,291.0005" style="stroke:#A80036;stroke-width:1.0;"/><!--MD5=[8566416812cdd05ff78841339cbb9871]
reverse link Group to EventGroup--><path codeLine="7" d="M768.035,75.024 C766.629,88.579 765.128,103.038 763.92,114.678 " fill="none" id="Group-backto-EventGroup" style="stroke:#A80036;stroke-width:1.0;"/><polygon fill="none" points="761.086,74.171,770.113,55,775.011,75.616,761.086,74.171" style="stroke:#A80036;stroke-width:1.0;"/><!--MD5=[64520d3bc75ec1f1908fdce763986d62]
reverse link Group2DataFrameMixin to EventGroup--><path codeLine="8" d="M891.856,64.89 C862.974,81.089 828.846,100.229 802.756,114.862 " fill="none" id="Group2DataFrameMixin-backto-EventGroup" style="stroke:#A80036;stroke-width:1.0;"/><polygon fill="none" points="888.622,58.678,909.49,55,895.47,70.889,888.622,58.678" style="stroke:#A80036;stroke-width:1.0;"/><!--MD5=[a6ec29f3ac3dabff3be580058f028220]
reverse link EventGroup to LFPEventGroup--><path codeLine="9" d="M691.405,165.799 C643.301,183.504 580.103,206.764 534.162,223.673 " fill="none" id="EventGroup-backto-LFPEventGroup" style="stroke:#A80036;stroke-width:1.0;"/><polygon fill="none" points="689.156,159.167,710.343,158.829,693.992,172.306,689.156,159.167" style="stroke:#A80036;stroke-width:1.0;"/><!--MD5=[e8f403b905af7f57541aa1800a8675a0]
reverse link EventGroup to BehaviorEventGroup--><path codeLine="10" d="M721.821,176.573 C705.238,191.859 686.46,209.167 671.802,222.678 " fill="none" id="EventGroup-backto-BehaviorEventGroup" style="stroke:#A80036;stroke-width:1.0;"/><polygon fill="none" points="717.097,171.408,736.547,163,726.585,181.702,717.097,171.408" style="stroke:#A80036;stroke-width:1.0;"/><!--MD5=[233d7982490e736b23487972b9be65df]
reverse link Group to EventGroupGroup--><path codeLine="11" d="M820.348,66.979 C841.872,82.713 866.686,100.853 885.849,114.862 " fill="none" id="Group-backto-EventGroupGroup" style="stroke:#A80036;stroke-width:1.0;"/><polygon fill="none" points="815.978,72.455,803.963,55,824.24,61.153,815.978,72.455" style="stroke:#A80036;stroke-width:1.0;"/><!--MD5=[380d92f166cc0513d044354e3eba2c71]
reverse link EventGroupGroup to ImagingEventGroupGroup--><path codeLine="12" d="M959.394,176.104 C977.263,191.503 997.599,209.029 1013.44,222.678 " fill="none" id="EventGroupGroup-backto-ImagingEventGroupGroup" style="stroke:#A80036;stroke-width:1.0;"/><polygon fill="none" points="954.77,181.359,944.189,163,963.909,170.754,954.77,181.359" style="stroke:#A80036;stroke-width:1.0;"/><!--MD5=[9deb77272573328de6fdb7707b6c9b0e]
reverse link Group2DataFrameMixin to ImagingEventGroupGroup--><path codeLine="13" d="M979.992,71.861 C988.797,85.096 997.861,100.232 1004.5,115 C1020.65,150.925 1031.05,195.727 1036.33,222.536 " fill="none" id="Group2DataFrameMixin-backto-ImagingEventGroupGroup" style="stroke:#A80036;stroke-width:1.0;"/><polygon fill="none" points="974.079,75.619,968.397,55.206,985.569,67.62,974.079,75.619" style="stroke:#A80036;stroke-width:1.0;"/><!--MD5=[ed2eab2ed36aa1792a97062c8a79456e]
reverse link Event to LapEvent--><path codeLine="16" d="M194.5,183.024 C194.5,196.579 194.5,211.038 194.5,222.678 " fill="none" id="Event-backto-LapEvent" style="stroke:#A80036;stroke-width:1.0;"/><polygon fill="none" points="187.5,183,194.5,163,201.5,183,187.5,183" style="stroke:#A80036;stroke-width:1.0;"/><!--MD5=[7fa408cf3add262d21a4fb8437e46a66]
reverse link BehaviorEventGroup to LapGroup--><path codeLine="17" d="M674.558,287.6557 C684.814,302.1498 696.076,318.0681 704.999,330.6784 " fill="none" id="BehaviorEventGroup-backto-LapGroup" style="stroke:#A80036;stroke-width:1.0;"/><polygon fill="none" points="668.611,291.3701,662.774,271,680.04,283.2838,668.611,291.3701" style="stroke:#A80036;stroke-width:1.0;"/><!--MD5=[0ec917da8e72837b11931090a3031cc7]
reverse link Event to SpatialEvent--><path codeLine="20" d="M238.54,175.635 C257.71,191.147 279.638,208.89 296.678,222.678 " fill="none" id="Event-backto-SpatialEvent" style="stroke:#A80036;stroke-width:1.0;"/><polygon fill="none" points="234.07,181.023,222.925,163,242.876,170.139,234.07,181.023" style="stroke:#A80036;stroke-width:1.0;"/><!--MD5=[85d89bcb46879808594c1d08226796eb]
reverse link BehaviorEventGroup to SpatialEventGroup--><path codeLine="21" d="M618.068,287.6557 C607.676,302.1498 596.263,318.0681 587.221,330.6784 " fill="none" id="BehaviorEventGroup-backto-SpatialEventGroup" style="stroke:#A80036;stroke-width:1.0;"/><polygon fill="none" points="612.666,283.1755,630.009,271,624.044,291.3332,612.666,283.1755" style="stroke:#A80036;stroke-width:1.0;"/><!--MD5=[0d05ab1f36347d9e5d500d1d16d34dcd]
reverse link IntervalEvent to Transient--><path codeLine="24" d="M1137.5,75.024 C1137.5,88.579 1137.5,103.038 1137.5,114.678 " fill="none" id="IntervalEvent-backto-Transient" style="stroke:#A80036;stroke-width:1.0;"/><polygon fill="none" points="1130.5,75,1137.5,55,1144.5,75,1130.5,75" style="stroke:#A80036;stroke-width:1.0;"/><!--MD5=[cbc1525d190707ef90d5fb03bd94839d]
reverse link EventGroup to SingleCellTransients--><path codeLine="25" d="M789.184,179.656 C799.303,194.15 810.415,210.068 819.219,222.678 " fill="none" id="EventGroup-backto-SingleCellTransients" style="stroke:#A80036;stroke-width:1.0;"/><polygon fill="none" points="783.266,183.407,777.557,163,794.745,175.393,783.266,183.407" style="stroke:#A80036;stroke-width:1.0;"/><!--MD5=[260be29aa79c1c5abc9102f85865e0ca]
reverse link ImagingEventGroupGroup to ExperimentTransientGroup--><path codeLine="26" d="M1040.5,291.0236 C1040.5,304.5792 1040.5,319.0381 1040.5,330.6784 " fill="none" id="ImagingEventGroupGroup-backto-ExperimentTransientGroup" style="stroke:#A80036;stroke-width:1.0;"/><polygon fill="none" points="1033.5,291.0005,1040.5,271,1047.5,291.0004,1033.5,291.0005" style="stroke:#A80036;stroke-width:1.0;"/><!--MD5=[44a5915b99f235005ccf23a54a8618b0]
@startuml
' ### lab3.event.base
Item <|- - Event
Event <|- - TriggerEvent
TriggerEvent <|- - OffsetEvent

' ### lab3.event.group
Group <|- - EventGroup
Group2DataFrameMixin <|- - EventGroup
EventGroup <|- - LFPEventGroup
EventGroup <|- - BehaviorEventGroup
Group <|- - EventGroupGroup
EventGroupGroup <|- - ImagingEventGroupGroup
Group2DataFrameMixin <|- - ImagingEventGroupGroup

' ### lab3.event.lap
Event <|- - LapEvent
BehaviorEventGroup <|- - LapGroup

' ### lab3.event.spatial
Event <|- - SpatialEvent
BehaviorEventGroup <|- - SpatialEventGroup

' ### lab3.event.transient
IntervalEvent <|- - Transient
EventGroup <|- - SingleCellTransients
ImagingEventGroupGroup <|- - ExperimentTransientGroup
@enduml

@startuml
Item <|- - Event
Event <|- - TriggerEvent
TriggerEvent <|- - OffsetEvent

Group <|- - EventGroup
Group2DataFrameMixin <|- - EventGroup
EventGroup <|- - LFPEventGroup
EventGroup <|- - BehaviorEventGroup
Group <|- - EventGroupGroup
EventGroupGroup <|- - ImagingEventGroupGroup
Group2DataFrameMixin <|- - ImagingEventGroupGroup

Event <|- - LapEvent
BehaviorEventGroup <|- - LapGroup

Event <|- - SpatialEvent
BehaviorEventGroup <|- - SpatialEventGroup

IntervalEvent <|- - Transient
EventGroup <|- - SingleCellTransients
ImagingEventGroupGroup <|- - ExperimentTransientGroup
@enduml

PlantUML version 1.2021.9beta2(Unknown compile time)
(GPL source distribution)
Java Runtime: Java(TM) SE Runtime Environment
JVM: Java HotSpot(TM) 64-Bit Server VM
Default Encoding: UTF-8
Language: en
Country: US
--></g></svg>