<?xml version="1.0" encoding="UTF-8" standalone="no"?><svg xmlns="http://www.w3.org/2000/svg" xmlns:xlink="http://www.w3.org/1999/xlink" contentScriptType="application/ecmascript" contentStyleType="text/css" height="501px" preserveAspectRatio="none" style="width:1537px;height:501px;background:#FFFFFF;" version="1.1" viewBox="0 0 1537 501" width="1537px" zoomAndPan="magnify"><defs><filter height="300%" id="f1dj9allnhntgy" width="300%" x="-1" y="-1"><feGaussianBlur result="blurOut" stdDeviation="2.0"/><feColorMatrix in="blurOut" result="blurOut2" type="matrix" values="0 0 0 0 0 0 0 0 0 0 0 0 0 0 0 0 0 0 .4 0"/><feOffset dx="4.0" dy="4.0" in="blurOut2" result="blurOut3"/><feBlend in="SourceGraphic" in2="blurOut3" mode="normal"/></filter></defs><g><!--MD5=[44a1b4afaef76c16e6c9ec4990ad0c8d]
class Item--><rect fill="#FEFECE" filter="url(#f1dj9allnhntgy)" height="48" id="Item" style="stroke:#A80036;stroke-width:1.5;" width="58" x="390.5" y="7"/><ellipse cx="405.5" cy="23" fill="#ADD1B2" rx="11" ry="11" style="stroke:#A80036;stroke-width:1.0;"/><path d="M407.8438,18.6719 C406.9063,18.2344 406.3125,18.0938 405.4375,18.0938 C402.8125,18.0938 400.8125,20.1719 400.8125,22.8906 L400.8125,24.0156 C400.8125,26.5938 402.9219,28.4844 405.8125,28.4844 C407.0313,28.4844 408.1875,28.1875 408.9375,27.6406 C409.5156,27.2344 409.8438,26.7813 409.8438,26.3906 C409.8438,25.9375 409.4531,25.5469 408.9844,25.5469 C408.7656,25.5469 408.5625,25.625 408.375,25.8125 C407.9219,26.2969 407.9219,26.2969 407.7344,26.3906 C407.3125,26.6563 406.625,26.7813 405.8594,26.7813 C403.8125,26.7813 402.5156,25.6875 402.5156,23.9844 L402.5156,22.8906 C402.5156,21.1094 403.7656,19.7969 405.5,19.7969 C406.0781,19.7969 406.6875,19.9531 407.1563,20.2031 C407.6406,20.4844 407.8125,20.7031 407.9063,21.1094 C407.9688,21.5156 408,21.6406 408.1406,21.7656 C408.2813,21.9063 408.5156,22.0156 408.7344,22.0156 C409,22.0156 409.2656,21.875 409.4375,21.6563 C409.5469,21.5 409.5781,21.3125 409.5781,20.8906 L409.5781,19.4688 C409.5781,19.0313 409.5625,18.9063 409.4688,18.75 C409.3125,18.4844 409.0313,18.3438 408.7344,18.3438 C408.4375,18.3438 408.2344,18.4375 408.0156,18.75 L407.8438,18.6719 Z " fill="#000000"/><text fill="#000000" font-family="sans-serif" font-size="12" lengthAdjust="spacing" textLength="26" x="419.5" y="27.1543">Item</text><line style="stroke:#A80036;stroke-width:1.5;" x1="391.5" x2="447.5" y1="39" y2="39"/><line style="stroke:#A80036;stroke-width:1.5;" x1="391.5" x2="447.5" y1="47" y2="47"/><!--MD5=[f6e2d66a10cb70b14272977a29843e2d]
class _BaseExperiment--><rect fill="#FEFECE" filter="url(#f1dj9allnhntgy)" height="48" id="_BaseExperiment" style="stroke:#A80036;stroke-width:1.5;" width="136" x="351.5" y="115"/><ellipse cx="366.5" cy="131" fill="#ADD1B2" rx="11" ry="11" style="stroke:#A80036;stroke-width:1.0;"/><path d="M368.8438,126.6719 C367.9063,126.2344 367.3125,126.0938 366.4375,126.0938 C363.8125,126.0938 361.8125,128.1719 361.8125,130.8906 L361.8125,132.0156 C361.8125,134.5938 363.9219,136.4844 366.8125,136.4844 C368.0313,136.4844 369.1875,136.1875 369.9375,135.6406 C370.5156,135.2344 370.8438,134.7813 370.8438,134.3906 C370.8438,133.9375 370.4531,133.5469 369.9844,133.5469 C369.7656,133.5469 369.5625,133.625 369.375,133.8125 C368.9219,134.2969 368.9219,134.2969 368.7344,134.3906 C368.3125,134.6563 367.625,134.7813 366.8594,134.7813 C364.8125,134.7813 363.5156,133.6875 363.5156,131.9844 L363.5156,130.8906 C363.5156,129.1094 364.7656,127.7969 366.5,127.7969 C367.0781,127.7969 367.6875,127.9531 368.1563,128.2031 C368.6406,128.4844 368.8125,128.7031 368.9063,129.1094 C368.9688,129.5156 369,129.6406 369.1406,129.7656 C369.2813,129.9063 369.5156,130.0156 369.7344,130.0156 C370,130.0156 370.2656,129.875 370.4375,129.6563 C370.5469,129.5 370.5781,129.3125 370.5781,128.8906 L370.5781,127.4688 C370.5781,127.0313 370.5625,126.9063 370.4688,126.75 C370.3125,126.4844 370.0313,126.3438 369.7344,126.3438 C369.4375,126.3438 369.2344,126.4375 369.0156,126.75 L368.8438,126.6719 Z " fill="#000000"/><text fill="#000000" font-family="sans-serif" font-size="12" lengthAdjust="spacing" textLength="104" x="380.5" y="135.1543">_BaseExperiment</text><line style="stroke:#A80036;stroke-width:1.5;" x1="352.5" x2="486.5" y1="147" y2="147"/><line style="stroke:#A80036;stroke-width:1.5;" x1="352.5" x2="486.5" y1="155" y2="155"/><!--MD5=[d40a512ffecddde6505523f1c13e9ed3]
class BehaviorExperiment--><rect fill="#FEFECE" filter="url(#f1dj9allnhntgy)" height="48" id="BehaviorExperiment" style="stroke:#A80036;stroke-width:1.5;" width="153" x="343" y="223"/><ellipse cx="358" cy="239" fill="#ADD1B2" rx="11" ry="11" style="stroke:#A80036;stroke-width:1.0;"/><path d="M360.3438,234.6719 C359.4063,234.2344 358.8125,234.0938 357.9375,234.0938 C355.3125,234.0938 353.3125,236.1719 353.3125,238.8906 L353.3125,240.0156 C353.3125,242.5938 355.4219,244.4844 358.3125,244.4844 C359.5313,244.4844 360.6875,244.1875 361.4375,243.6406 C362.0156,243.2344 362.3438,242.7813 362.3438,242.3906 C362.3438,241.9375 361.9531,241.5469 361.4844,241.5469 C361.2656,241.5469 361.0625,241.625 360.875,241.8125 C360.4219,242.2969 360.4219,242.2969 360.2344,242.3906 C359.8125,242.6563 359.125,242.7813 358.3594,242.7813 C356.3125,242.7813 355.0156,241.6875 355.0156,239.9844 L355.0156,238.8906 C355.0156,237.1094 356.2656,235.7969 358,235.7969 C358.5781,235.7969 359.1875,235.9531 359.6563,236.2031 C360.1406,236.4844 360.3125,236.7031 360.4063,237.1094 C360.4688,237.5156 360.5,237.6406 360.6406,237.7656 C360.7813,237.9063 361.0156,238.0156 361.2344,238.0156 C361.5,238.0156 361.7656,237.875 361.9375,237.6563 C362.0469,237.5 362.0781,237.3125 362.0781,236.8906 L362.0781,235.4688 C362.0781,235.0313 362.0625,234.9063 361.9688,234.75 C361.8125,234.4844 361.5313,234.3438 361.2344,234.3438 C360.9375,234.3438 360.7344,234.4375 360.5156,234.75 L360.3438,234.6719 Z " fill="#000000"/><text fill="#000000" font-family="sans-serif" font-size="12" lengthAdjust="spacing" textLength="121" x="372" y="243.1543">BehaviorExperiment</text><line style="stroke:#A80036;stroke-width:1.5;" x1="344" x2="495" y1="255" y2="255"/><line style="stroke:#A80036;stroke-width:1.5;" x1="344" x2="495" y1="263" y2="263"/><!--MD5=[f717782cdc0720a0c59bac5be0e2cabe]
class ImagingMixin--><rect fill="#FEFECE" filter="url(#f1dj9allnhntgy)" height="48" id="ImagingMixin" style="stroke:#A80036;stroke-width:1.5;" width="109" x="96" y="115"/><ellipse cx="111" cy="131" fill="#ADD1B2" rx="11" ry="11" style="stroke:#A80036;stroke-width:1.0;"/><path d="M113.3438,126.6719 C112.4063,126.2344 111.8125,126.0938 110.9375,126.0938 C108.3125,126.0938 106.3125,128.1719 106.3125,130.8906 L106.3125,132.0156 C106.3125,134.5938 108.4219,136.4844 111.3125,136.4844 C112.5313,136.4844 113.6875,136.1875 114.4375,135.6406 C115.0156,135.2344 115.3438,134.7813 115.3438,134.3906 C115.3438,133.9375 114.9531,133.5469 114.4844,133.5469 C114.2656,133.5469 114.0625,133.625 113.875,133.8125 C113.4219,134.2969 113.4219,134.2969 113.2344,134.3906 C112.8125,134.6563 112.125,134.7813 111.3594,134.7813 C109.3125,134.7813 108.0156,133.6875 108.0156,131.9844 L108.0156,130.8906 C108.0156,129.1094 109.2656,127.7969 111,127.7969 C111.5781,127.7969 112.1875,127.9531 112.6563,128.2031 C113.1406,128.4844 113.3125,128.7031 113.4063,129.1094 C113.4688,129.5156 113.5,129.6406 113.6406,129.7656 C113.7813,129.9063 114.0156,130.0156 114.2344,130.0156 C114.5,130.0156 114.7656,129.875 114.9375,129.6563 C115.0469,129.5 115.0781,129.3125 115.0781,128.8906 L115.0781,127.4688 C115.0781,127.0313 115.0625,126.9063 114.9688,126.75 C114.8125,126.4844 114.5313,126.3438 114.2344,126.3438 C113.9375,126.3438 113.7344,126.4375 113.5156,126.75 L113.3438,126.6719 Z " fill="#000000"/><text fill="#000000" font-family="sans-serif" font-size="12" lengthAdjust="spacing" textLength="77" x="125" y="135.1543">ImagingMixin</text><line style="stroke:#A80036;stroke-width:1.5;" x1="97" x2="204" y1="147" y2="147"/><line style="stroke:#A80036;stroke-width:1.5;" x1="97" x2="204" y1="155" y2="155"/><!--MD5=[2c56c1361d534a443ceba9892d288970]
class ImagingExperiment--><rect fill="#FEFECE" filter="url(#f1dj9allnhntgy)" height="48" id="ImagingExperiment" style="stroke:#A80036;stroke-width:1.5;" width="147" x="7" y="331"/><ellipse cx="22" cy="347" fill="#ADD1B2" rx="11" ry="11" style="stroke:#A80036;stroke-width:1.0;"/><path d="M24.3438,342.6719 C23.4063,342.2344 22.8125,342.0938 21.9375,342.0938 C19.3125,342.0938 17.3125,344.1719 17.3125,346.8906 L17.3125,348.0156 C17.3125,350.5938 19.4219,352.4844 22.3125,352.4844 C23.5313,352.4844 24.6875,352.1875 25.4375,351.6406 C26.0156,351.2344 26.3438,350.7813 26.3438,350.3906 C26.3438,349.9375 25.9531,349.5469 25.4844,349.5469 C25.2656,349.5469 25.0625,349.625 24.875,349.8125 C24.4219,350.2969 24.4219,350.2969 24.2344,350.3906 C23.8125,350.6563 23.125,350.7813 22.3594,350.7813 C20.3125,350.7813 19.0156,349.6875 19.0156,347.9844 L19.0156,346.8906 C19.0156,345.1094 20.2656,343.7969 22,343.7969 C22.5781,343.7969 23.1875,343.9531 23.6563,344.2031 C24.1406,344.4844 24.3125,344.7031 24.4063,345.1094 C24.4688,345.5156 24.5,345.6406 24.6406,345.7656 C24.7813,345.9063 25.0156,346.0156 25.2344,346.0156 C25.5,346.0156 25.7656,345.875 25.9375,345.6563 C26.0469,345.5 26.0781,345.3125 26.0781,344.8906 L26.0781,343.4688 C26.0781,343.0313 26.0625,342.9063 25.9688,342.75 C25.8125,342.4844 25.5313,342.3438 25.2344,342.3438 C24.9375,342.3438 24.7344,342.4375 24.5156,342.75 L24.3438,342.6719 Z " fill="#000000"/><text fill="#000000" font-family="sans-serif" font-size="12" lengthAdjust="spacing" textLength="115" x="36" y="351.1543">ImagingExperiment</text><line style="stroke:#A80036;stroke-width:1.5;" x1="8" x2="153" y1="363" y2="363"/><line style="stroke:#A80036;stroke-width:1.5;" x1="8" x2="153" y1="371" y2="371"/><!--MD5=[a8c8d627faaeac9d8bc96ee8081ba47b]
class ImagingOnlyExperiment--><rect fill="#FEFECE" filter="url(#f1dj9allnhntgy)" height="48" id="ImagingOnlyExperiment" style="stroke:#A80036;stroke-width:1.5;" width="174" x="133.5" y="223"/><ellipse cx="148.5" cy="239" fill="#ADD1B2" rx="11" ry="11" style="stroke:#A80036;stroke-width:1.0;"/><path d="M150.8438,234.6719 C149.9063,234.2344 149.3125,234.0938 148.4375,234.0938 C145.8125,234.0938 143.8125,236.1719 143.8125,238.8906 L143.8125,240.0156 C143.8125,242.5938 145.9219,244.4844 148.8125,244.4844 C150.0313,244.4844 151.1875,244.1875 151.9375,243.6406 C152.5156,243.2344 152.8438,242.7813 152.8438,242.3906 C152.8438,241.9375 152.4531,241.5469 151.9844,241.5469 C151.7656,241.5469 151.5625,241.625 151.375,241.8125 C150.9219,242.2969 150.9219,242.2969 150.7344,242.3906 C150.3125,242.6563 149.625,242.7813 148.8594,242.7813 C146.8125,242.7813 145.5156,241.6875 145.5156,239.9844 L145.5156,238.8906 C145.5156,237.1094 146.7656,235.7969 148.5,235.7969 C149.0781,235.7969 149.6875,235.9531 150.1563,236.2031 C150.6406,236.4844 150.8125,236.7031 150.9063,237.1094 C150.9688,237.5156 151,237.6406 151.1406,237.7656 C151.2813,237.9063 151.5156,238.0156 151.7344,238.0156 C152,238.0156 152.2656,237.875 152.4375,237.6563 C152.5469,237.5 152.5781,237.3125 152.5781,236.8906 L152.5781,235.4688 C152.5781,235.0313 152.5625,234.9063 152.4688,234.75 C152.3125,234.4844 152.0313,234.3438 151.7344,234.3438 C151.4375,234.3438 151.2344,234.4375 151.0156,234.75 L150.8438,234.6719 Z " fill="#000000"/><text fill="#000000" font-family="sans-serif" font-size="12" lengthAdjust="spacing" textLength="142" x="162.5" y="243.1543">ImagingOnlyExperiment</text><line style="stroke:#A80036;stroke-width:1.5;" x1="134.5" x2="306.5" y1="255" y2="255"/><line style="stroke:#A80036;stroke-width:1.5;" x1="134.5" x2="306.5" y1="263" y2="263"/><!--MD5=[9ca7583627c88f8684b1858f437a6555]
class LFPMixin--><rect fill="#FEFECE" filter="url(#f1dj9allnhntgy)" height="48" id="LFPMixin" style="stroke:#A80036;stroke-width:1.5;" width="81" x="746" y="115"/><ellipse cx="761" cy="131" fill="#ADD1B2" rx="11" ry="11" style="stroke:#A80036;stroke-width:1.0;"/><path d="M763.3438,126.6719 C762.4063,126.2344 761.8125,126.0938 760.9375,126.0938 C758.3125,126.0938 756.3125,128.1719 756.3125,130.8906 L756.3125,132.0156 C756.3125,134.5938 758.4219,136.4844 761.3125,136.4844 C762.5313,136.4844 763.6875,136.1875 764.4375,135.6406 C765.0156,135.2344 765.3438,134.7813 765.3438,134.3906 C765.3438,133.9375 764.9531,133.5469 764.4844,133.5469 C764.2656,133.5469 764.0625,133.625 763.875,133.8125 C763.4219,134.2969 763.4219,134.2969 763.2344,134.3906 C762.8125,134.6563 762.125,134.7813 761.3594,134.7813 C759.3125,134.7813 758.0156,133.6875 758.0156,131.9844 L758.0156,130.8906 C758.0156,129.1094 759.2656,127.7969 761,127.7969 C761.5781,127.7969 762.1875,127.9531 762.6563,128.2031 C763.1406,128.4844 763.3125,128.7031 763.4063,129.1094 C763.4688,129.5156 763.5,129.6406 763.6406,129.7656 C763.7813,129.9063 764.0156,130.0156 764.2344,130.0156 C764.5,130.0156 764.7656,129.875 764.9375,129.6563 C765.0469,129.5 765.0781,129.3125 765.0781,128.8906 L765.0781,127.4688 C765.0781,127.0313 765.0625,126.9063 764.9688,126.75 C764.8125,126.4844 764.5313,126.3438 764.2344,126.3438 C763.9375,126.3438 763.7344,126.4375 763.5156,126.75 L763.3438,126.6719 Z " fill="#000000"/><text fill="#000000" font-family="sans-serif" font-size="12" lengthAdjust="spacing" textLength="49" x="775" y="135.1543">LFPMixin</text><line style="stroke:#A80036;stroke-width:1.5;" x1="747" x2="826" y1="147" y2="147"/><line style="stroke:#A80036;stroke-width:1.5;" x1="747" x2="826" y1="155" y2="155"/><!--MD5=[52d1727a32706979b45dd795e37a7d18]
class LFPExperiment--><rect fill="#FEFECE" filter="url(#f1dj9allnhntgy)" height="48" id="LFPExperiment" style="stroke:#A80036;stroke-width:1.5;" width="119" x="784" y="223"/><ellipse cx="799" cy="239" fill="#ADD1B2" rx="11" ry="11" style="stroke:#A80036;stroke-width:1.0;"/><path d="M801.3438,234.6719 C800.4063,234.2344 799.8125,234.0938 798.9375,234.0938 C796.3125,234.0938 794.3125,236.1719 794.3125,238.8906 L794.3125,240.0156 C794.3125,242.5938 796.4219,244.4844 799.3125,244.4844 C800.5313,244.4844 801.6875,244.1875 802.4375,243.6406 C803.0156,243.2344 803.3438,242.7813 803.3438,242.3906 C803.3438,241.9375 802.9531,241.5469 802.4844,241.5469 C802.2656,241.5469 802.0625,241.625 801.875,241.8125 C801.4219,242.2969 801.4219,242.2969 801.2344,242.3906 C800.8125,242.6563 800.125,242.7813 799.3594,242.7813 C797.3125,242.7813 796.0156,241.6875 796.0156,239.9844 L796.0156,238.8906 C796.0156,237.1094 797.2656,235.7969 799,235.7969 C799.5781,235.7969 800.1875,235.9531 800.6563,236.2031 C801.1406,236.4844 801.3125,236.7031 801.4063,237.1094 C801.4688,237.5156 801.5,237.6406 801.6406,237.7656 C801.7813,237.9063 802.0156,238.0156 802.2344,238.0156 C802.5,238.0156 802.7656,237.875 802.9375,237.6563 C803.0469,237.5 803.0781,237.3125 803.0781,236.8906 L803.0781,235.4688 C803.0781,235.0313 803.0625,234.9063 802.9688,234.75 C802.8125,234.4844 802.5313,234.3438 802.2344,234.3438 C801.9375,234.3438 801.7344,234.4375 801.5156,234.75 L801.3438,234.6719 Z " fill="#000000"/><text fill="#000000" font-family="sans-serif" font-size="12" lengthAdjust="spacing" textLength="87" x="813" y="243.1543">LFPExperiment</text><line style="stroke:#A80036;stroke-width:1.5;" x1="785" x2="902" y1="255" y2="255"/><line style="stroke:#A80036;stroke-width:1.5;" x1="785" x2="902" y1="263" y2="263"/><!--MD5=[63130849b79d837916b890b658b7b731]
class LFPEXperiment--><rect fill="#FEFECE" filter="url(#f1dj9allnhntgy)" height="48" id="LFPEXperiment" style="stroke:#A80036;stroke-width:1.5;" width="120" x="444.5" y="331"/><ellipse cx="459.5" cy="347" fill="#ADD1B2" rx="11" ry="11" style="stroke:#A80036;stroke-width:1.0;"/><path d="M461.8438,342.6719 C460.9063,342.2344 460.3125,342.0938 459.4375,342.0938 C456.8125,342.0938 454.8125,344.1719 454.8125,346.8906 L454.8125,348.0156 C454.8125,350.5938 456.9219,352.4844 459.8125,352.4844 C461.0313,352.4844 462.1875,352.1875 462.9375,351.6406 C463.5156,351.2344 463.8438,350.7813 463.8438,350.3906 C463.8438,349.9375 463.4531,349.5469 462.9844,349.5469 C462.7656,349.5469 462.5625,349.625 462.375,349.8125 C461.9219,350.2969 461.9219,350.2969 461.7344,350.3906 C461.3125,350.6563 460.625,350.7813 459.8594,350.7813 C457.8125,350.7813 456.5156,349.6875 456.5156,347.9844 L456.5156,346.8906 C456.5156,345.1094 457.7656,343.7969 459.5,343.7969 C460.0781,343.7969 460.6875,343.9531 461.1563,344.2031 C461.6406,344.4844 461.8125,344.7031 461.9063,345.1094 C461.9688,345.5156 462,345.6406 462.1406,345.7656 C462.2813,345.9063 462.5156,346.0156 462.7344,346.0156 C463,346.0156 463.2656,345.875 463.4375,345.6563 C463.5469,345.5 463.5781,345.3125 463.5781,344.8906 L463.5781,343.4688 C463.5781,343.0313 463.5625,342.9063 463.4688,342.75 C463.3125,342.4844 463.0313,342.3438 462.7344,342.3438 C462.4375,342.3438 462.2344,342.4375 462.0156,342.75 L461.8438,342.6719 Z " fill="#000000"/><text fill="#000000" font-family="sans-serif" font-size="12" lengthAdjust="spacing" textLength="88" x="473.5" y="351.1543">LFPEXperiment</text><line style="stroke:#A80036;stroke-width:1.5;" x1="445.5" x2="563.5" y1="363" y2="363"/><line style="stroke:#A80036;stroke-width:1.5;" x1="445.5" x2="563.5" y1="371" y2="371"/><!--MD5=[cd6e200461f0cdd2afda4b47c2b599de]
class LFPOnlyExperiment--><rect fill="#FEFECE" filter="url(#f1dj9allnhntgy)" height="48" id="LFPOnlyExperiment" style="stroke:#A80036;stroke-width:1.5;" width="146" x="531.5" y="223"/><ellipse cx="546.5" cy="239" fill="#ADD1B2" rx="11" ry="11" style="stroke:#A80036;stroke-width:1.0;"/><path d="M548.8438,234.6719 C547.9063,234.2344 547.3125,234.0938 546.4375,234.0938 C543.8125,234.0938 541.8125,236.1719 541.8125,238.8906 L541.8125,240.0156 C541.8125,242.5938 543.9219,244.4844 546.8125,244.4844 C548.0313,244.4844 549.1875,244.1875 549.9375,243.6406 C550.5156,243.2344 550.8438,242.7813 550.8438,242.3906 C550.8438,241.9375 550.4531,241.5469 549.9844,241.5469 C549.7656,241.5469 549.5625,241.625 549.375,241.8125 C548.9219,242.2969 548.9219,242.2969 548.7344,242.3906 C548.3125,242.6563 547.625,242.7813 546.8594,242.7813 C544.8125,242.7813 543.5156,241.6875 543.5156,239.9844 L543.5156,238.8906 C543.5156,237.1094 544.7656,235.7969 546.5,235.7969 C547.0781,235.7969 547.6875,235.9531 548.1563,236.2031 C548.6406,236.4844 548.8125,236.7031 548.9063,237.1094 C548.9688,237.5156 549,237.6406 549.1406,237.7656 C549.2813,237.9063 549.5156,238.0156 549.7344,238.0156 C550,238.0156 550.2656,237.875 550.4375,237.6563 C550.5469,237.5 550.5781,237.3125 550.5781,236.8906 L550.5781,235.4688 C550.5781,235.0313 550.5625,234.9063 550.4688,234.75 C550.3125,234.4844 550.0313,234.3438 549.7344,234.3438 C549.4375,234.3438 549.2344,234.4375 549.0156,234.75 L548.8438,234.6719 Z " fill="#000000"/><text fill="#000000" font-family="sans-serif" font-size="12" lengthAdjust="spacing" textLength="114" x="560.5" y="243.1543">LFPOnlyExperiment</text><line style="stroke:#A80036;stroke-width:1.5;" x1="532.5" x2="676.5" y1="255" y2="255"/><line style="stroke:#A80036;stroke-width:1.5;" x1="532.5" x2="676.5" y1="263" y2="263"/><!--MD5=[8b85a8ee46b164a53b9914bafa080616]
class ImagingLFPExperiment--><rect fill="#FEFECE" filter="url(#f1dj9allnhntgy)" height="48" id="ImagingLFPExperiment" style="stroke:#A80036;stroke-width:1.5;" width="166" x="322.5" y="439"/><ellipse cx="337.5" cy="455" fill="#ADD1B2" rx="11" ry="11" style="stroke:#A80036;stroke-width:1.0;"/><path d="M339.8438,450.6719 C338.9063,450.2344 338.3125,450.0938 337.4375,450.0938 C334.8125,450.0938 332.8125,452.1719 332.8125,454.8906 L332.8125,456.0156 C332.8125,458.5938 334.9219,460.4844 337.8125,460.4844 C339.0313,460.4844 340.1875,460.1875 340.9375,459.6406 C341.5156,459.2344 341.8438,458.7813 341.8438,458.3906 C341.8438,457.9375 341.4531,457.5469 340.9844,457.5469 C340.7656,457.5469 340.5625,457.625 340.375,457.8125 C339.9219,458.2969 339.9219,458.2969 339.7344,458.3906 C339.3125,458.6563 338.625,458.7813 337.8594,458.7813 C335.8125,458.7813 334.5156,457.6875 334.5156,455.9844 L334.5156,454.8906 C334.5156,453.1094 335.7656,451.7969 337.5,451.7969 C338.0781,451.7969 338.6875,451.9531 339.1563,452.2031 C339.6406,452.4844 339.8125,452.7031 339.9063,453.1094 C339.9688,453.5156 340,453.6406 340.1406,453.7656 C340.2813,453.9063 340.5156,454.0156 340.7344,454.0156 C341,454.0156 341.2656,453.875 341.4375,453.6563 C341.5469,453.5 341.5781,453.3125 341.5781,452.8906 L341.5781,451.4688 C341.5781,451.0313 341.5625,450.9063 341.4688,450.75 C341.3125,450.4844 341.0313,450.3438 340.7344,450.3438 C340.4375,450.3438 340.2344,450.4375 340.0156,450.75 L339.8438,450.6719 Z " fill="#000000"/><text fill="#000000" font-family="sans-serif" font-size="12" lengthAdjust="spacing" textLength="134" x="351.5" y="459.1543">ImagingLFPExperiment</text><line style="stroke:#A80036;stroke-width:1.5;" x1="323.5" x2="487.5" y1="471" y2="471"/><line style="stroke:#A80036;stroke-width:1.5;" x1="323.5" x2="487.5" y1="479" y2="479"/><!--MD5=[d3e3412ddb7e40369b1c10be453249f9]
class ImagingLFPOnlyExperiment--><rect fill="#FEFECE" filter="url(#f1dj9allnhntgy)" height="48" id="ImagingLFPOnlyExperiment" style="stroke:#A80036;stroke-width:1.5;" width="193" x="938" y="223"/><ellipse cx="953" cy="239" fill="#ADD1B2" rx="11" ry="11" style="stroke:#A80036;stroke-width:1.0;"/><path d="M955.3438,234.6719 C954.4063,234.2344 953.8125,234.0938 952.9375,234.0938 C950.3125,234.0938 948.3125,236.1719 948.3125,238.8906 L948.3125,240.0156 C948.3125,242.5938 950.4219,244.4844 953.3125,244.4844 C954.5313,244.4844 955.6875,244.1875 956.4375,243.6406 C957.0156,243.2344 957.3438,242.7813 957.3438,242.3906 C957.3438,241.9375 956.9531,241.5469 956.4844,241.5469 C956.2656,241.5469 956.0625,241.625 955.875,241.8125 C955.4219,242.2969 955.4219,242.2969 955.2344,242.3906 C954.8125,242.6563 954.125,242.7813 953.3594,242.7813 C951.3125,242.7813 950.0156,241.6875 950.0156,239.9844 L950.0156,238.8906 C950.0156,237.1094 951.2656,235.7969 953,235.7969 C953.5781,235.7969 954.1875,235.9531 954.6563,236.2031 C955.1406,236.4844 955.3125,236.7031 955.4063,237.1094 C955.4688,237.5156 955.5,237.6406 955.6406,237.7656 C955.7813,237.9063 956.0156,238.0156 956.2344,238.0156 C956.5,238.0156 956.7656,237.875 956.9375,237.6563 C957.0469,237.5 957.0781,237.3125 957.0781,236.8906 L957.0781,235.4688 C957.0781,235.0313 957.0625,234.9063 956.9688,234.75 C956.8125,234.4844 956.5313,234.3438 956.2344,234.3438 C955.9375,234.3438 955.7344,234.4375 955.5156,234.75 L955.3438,234.6719 Z " fill="#000000"/><text fill="#000000" font-family="sans-serif" font-size="12" lengthAdjust="spacing" textLength="161" x="967" y="243.1543">ImagingLFPOnlyExperiment</text><line style="stroke:#A80036;stroke-width:1.5;" x1="939" x2="1130" y1="255" y2="255"/><line style="stroke:#A80036;stroke-width:1.5;" x1="939" x2="1130" y1="263" y2="263"/><!--MD5=[de80b256b8c2dba24233337292571a31]
class ImagingOnlyLFPOnlyExperiment--><rect fill="#FEFECE" filter="url(#f1dj9allnhntgy)" height="48" id="ImagingOnlyLFPOnlyExperiment" style="stroke:#A80036;stroke-width:1.5;" width="220" x="189.5" y="331"/><ellipse cx="204.5" cy="347" fill="#ADD1B2" rx="11" ry="11" style="stroke:#A80036;stroke-width:1.0;"/><path d="M206.8438,342.6719 C205.9063,342.2344 205.3125,342.0938 204.4375,342.0938 C201.8125,342.0938 199.8125,344.1719 199.8125,346.8906 L199.8125,348.0156 C199.8125,350.5938 201.9219,352.4844 204.8125,352.4844 C206.0313,352.4844 207.1875,352.1875 207.9375,351.6406 C208.5156,351.2344 208.8438,350.7813 208.8438,350.3906 C208.8438,349.9375 208.4531,349.5469 207.9844,349.5469 C207.7656,349.5469 207.5625,349.625 207.375,349.8125 C206.9219,350.2969 206.9219,350.2969 206.7344,350.3906 C206.3125,350.6563 205.625,350.7813 204.8594,350.7813 C202.8125,350.7813 201.5156,349.6875 201.5156,347.9844 L201.5156,346.8906 C201.5156,345.1094 202.7656,343.7969 204.5,343.7969 C205.0781,343.7969 205.6875,343.9531 206.1563,344.2031 C206.6406,344.4844 206.8125,344.7031 206.9063,345.1094 C206.9688,345.5156 207,345.6406 207.1406,345.7656 C207.2813,345.9063 207.5156,346.0156 207.7344,346.0156 C208,346.0156 208.2656,345.875 208.4375,345.6563 C208.5469,345.5 208.5781,345.3125 208.5781,344.8906 L208.5781,343.4688 C208.5781,343.0313 208.5625,342.9063 208.4688,342.75 C208.3125,342.4844 208.0313,342.3438 207.7344,342.3438 C207.4375,342.3438 207.2344,342.4375 207.0156,342.75 L206.8438,342.6719 Z " fill="#000000"/><text fill="#000000" font-family="sans-serif" font-size="12" lengthAdjust="spacing" textLength="188" x="218.5" y="351.1543">ImagingOnlyLFPOnlyExperiment</text><line style="stroke:#A80036;stroke-width:1.5;" x1="190.5" x2="408.5" y1="363" y2="363"/><line style="stroke:#A80036;stroke-width:1.5;" x1="190.5" x2="408.5" y1="371" y2="371"/><!--MD5=[41314a0efc36828092cff9ebad2fcafd]
class Group--><rect fill="#FEFECE" filter="url(#f1dj9allnhntgy)" height="48" id="Group" style="stroke:#A80036;stroke-width:1.5;" width="69" x="1308" y="7"/><ellipse cx="1323" cy="23" fill="#ADD1B2" rx="11" ry="11" style="stroke:#A80036;stroke-width:1.0;"/><path d="M1325.3438,18.6719 C1324.4063,18.2344 1323.8125,18.0938 1322.9375,18.0938 C1320.3125,18.0938 1318.3125,20.1719 1318.3125,22.8906 L1318.3125,24.0156 C1318.3125,26.5938 1320.4219,28.4844 1323.3125,28.4844 C1324.5313,28.4844 1325.6875,28.1875 1326.4375,27.6406 C1327.0156,27.2344 1327.3438,26.7813 1327.3438,26.3906 C1327.3438,25.9375 1326.9531,25.5469 1326.4844,25.5469 C1326.2656,25.5469 1326.0625,25.625 1325.875,25.8125 C1325.4219,26.2969 1325.4219,26.2969 1325.2344,26.3906 C1324.8125,26.6563 1324.125,26.7813 1323.3594,26.7813 C1321.3125,26.7813 1320.0156,25.6875 1320.0156,23.9844 L1320.0156,22.8906 C1320.0156,21.1094 1321.2656,19.7969 1323,19.7969 C1323.5781,19.7969 1324.1875,19.9531 1324.6563,20.2031 C1325.1406,20.4844 1325.3125,20.7031 1325.4063,21.1094 C1325.4688,21.5156 1325.5,21.6406 1325.6406,21.7656 C1325.7813,21.9063 1326.0156,22.0156 1326.2344,22.0156 C1326.5,22.0156 1326.7656,21.875 1326.9375,21.6563 C1327.0469,21.5 1327.0781,21.3125 1327.0781,20.8906 L1327.0781,19.4688 C1327.0781,19.0313 1327.0625,18.9063 1326.9688,18.75 C1326.8125,18.4844 1326.5313,18.3438 1326.2344,18.3438 C1325.9375,18.3438 1325.7344,18.4375 1325.5156,18.75 L1325.3438,18.6719 Z " fill="#000000"/><text fill="#000000" font-family="sans-serif" font-size="12" lengthAdjust="spacing" textLength="37" x="1337" y="27.1543">Group</text><line style="stroke:#A80036;stroke-width:1.5;" x1="1309" x2="1376" y1="39" y2="39"/><line style="stroke:#A80036;stroke-width:1.5;" x1="1309" x2="1376" y1="47" y2="47"/><!--MD5=[258ecd177c8e9bf00e52710b3cd1789b]
class ExperimentGroup--><rect fill="#FEFECE" filter="url(#f1dj9allnhntgy)" height="48" id="ExperimentGroup" style="stroke:#A80036;stroke-width:1.5;" width="137" x="1134" y="115"/><ellipse cx="1149" cy="131" fill="#ADD1B2" rx="11" ry="11" style="stroke:#A80036;stroke-width:1.0;"/><path d="M1151.3438,126.6719 C1150.4063,126.2344 1149.8125,126.0938 1148.9375,126.0938 C1146.3125,126.0938 1144.3125,128.1719 1144.3125,130.8906 L1144.3125,132.0156 C1144.3125,134.5938 1146.4219,136.4844 1149.3125,136.4844 C1150.5313,136.4844 1151.6875,136.1875 1152.4375,135.6406 C1153.0156,135.2344 1153.3438,134.7813 1153.3438,134.3906 C1153.3438,133.9375 1152.9531,133.5469 1152.4844,133.5469 C1152.2656,133.5469 1152.0625,133.625 1151.875,133.8125 C1151.4219,134.2969 1151.4219,134.2969 1151.2344,134.3906 C1150.8125,134.6563 1150.125,134.7813 1149.3594,134.7813 C1147.3125,134.7813 1146.0156,133.6875 1146.0156,131.9844 L1146.0156,130.8906 C1146.0156,129.1094 1147.2656,127.7969 1149,127.7969 C1149.5781,127.7969 1150.1875,127.9531 1150.6563,128.2031 C1151.1406,128.4844 1151.3125,128.7031 1151.4063,129.1094 C1151.4688,129.5156 1151.5,129.6406 1151.6406,129.7656 C1151.7813,129.9063 1152.0156,130.0156 1152.2344,130.0156 C1152.5,130.0156 1152.7656,129.875 1152.9375,129.6563 C1153.0469,129.5 1153.0781,129.3125 1153.0781,128.8906 L1153.0781,127.4688 C1153.0781,127.0313 1153.0625,126.9063 1152.9688,126.75 C1152.8125,126.4844 1152.5313,126.3438 1152.2344,126.3438 C1151.9375,126.3438 1151.7344,126.4375 1151.5156,126.75 L1151.3438,126.6719 Z " fill="#000000"/><text fill="#000000" font-family="sans-serif" font-size="12" lengthAdjust="spacing" textLength="105" x="1163" y="135.1543">ExperimentGroup</text><line style="stroke:#A80036;stroke-width:1.5;" x1="1135" x2="1270" y1="147" y2="147"/><line style="stroke:#A80036;stroke-width:1.5;" x1="1135" x2="1270" y1="155" y2="155"/><!--MD5=[9d20eee4aed475d35a2e03a568297074]
class Mouse--><rect fill="#FEFECE" filter="url(#f1dj9allnhntgy)" height="48" id="Mouse" style="stroke:#A80036;stroke-width:1.5;" width="72" x="1166.5" y="223"/><ellipse cx="1181.5" cy="239" fill="#ADD1B2" rx="11" ry="11" style="stroke:#A80036;stroke-width:1.0;"/><path d="M1183.8438,234.6719 C1182.9063,234.2344 1182.3125,234.0938 1181.4375,234.0938 C1178.8125,234.0938 1176.8125,236.1719 1176.8125,238.8906 L1176.8125,240.0156 C1176.8125,242.5938 1178.9219,244.4844 1181.8125,244.4844 C1183.0313,244.4844 1184.1875,244.1875 1184.9375,243.6406 C1185.5156,243.2344 1185.8438,242.7813 1185.8438,242.3906 C1185.8438,241.9375 1185.4531,241.5469 1184.9844,241.5469 C1184.7656,241.5469 1184.5625,241.625 1184.375,241.8125 C1183.9219,242.2969 1183.9219,242.2969 1183.7344,242.3906 C1183.3125,242.6563 1182.625,242.7813 1181.8594,242.7813 C1179.8125,242.7813 1178.5156,241.6875 1178.5156,239.9844 L1178.5156,238.8906 C1178.5156,237.1094 1179.7656,235.7969 1181.5,235.7969 C1182.0781,235.7969 1182.6875,235.9531 1183.1563,236.2031 C1183.6406,236.4844 1183.8125,236.7031 1183.9063,237.1094 C1183.9688,237.5156 1184,237.6406 1184.1406,237.7656 C1184.2813,237.9063 1184.5156,238.0156 1184.7344,238.0156 C1185,238.0156 1185.2656,237.875 1185.4375,237.6563 C1185.5469,237.5 1185.5781,237.3125 1185.5781,236.8906 L1185.5781,235.4688 C1185.5781,235.0313 1185.5625,234.9063 1185.4688,234.75 C1185.3125,234.4844 1185.0313,234.3438 1184.7344,234.3438 C1184.4375,234.3438 1184.2344,234.4375 1184.0156,234.75 L1183.8438,234.6719 Z " fill="#000000"/><text fill="#000000" font-family="sans-serif" font-size="12" lengthAdjust="spacing" textLength="40" x="1195.5" y="243.1543">Mouse</text><line style="stroke:#A80036;stroke-width:1.5;" x1="1167.5" x2="1237.5" y1="255" y2="255"/><line style="stroke:#A80036;stroke-width:1.5;" x1="1167.5" x2="1237.5" y1="263" y2="263"/><!--MD5=[bc3e4ca2408b3834811ac5c013bd837e]
class Cohort--><rect fill="#FEFECE" filter="url(#f1dj9allnhntgy)" height="48" id="Cohort" style="stroke:#A80036;stroke-width:1.5;" width="72" x="1306.5" y="115"/><ellipse cx="1321.5" cy="131" fill="#ADD1B2" rx="11" ry="11" style="stroke:#A80036;stroke-width:1.0;"/><path d="M1323.8438,126.6719 C1322.9063,126.2344 1322.3125,126.0938 1321.4375,126.0938 C1318.8125,126.0938 1316.8125,128.1719 1316.8125,130.8906 L1316.8125,132.0156 C1316.8125,134.5938 1318.9219,136.4844 1321.8125,136.4844 C1323.0313,136.4844 1324.1875,136.1875 1324.9375,135.6406 C1325.5156,135.2344 1325.8438,134.7813 1325.8438,134.3906 C1325.8438,133.9375 1325.4531,133.5469 1324.9844,133.5469 C1324.7656,133.5469 1324.5625,133.625 1324.375,133.8125 C1323.9219,134.2969 1323.9219,134.2969 1323.7344,134.3906 C1323.3125,134.6563 1322.625,134.7813 1321.8594,134.7813 C1319.8125,134.7813 1318.5156,133.6875 1318.5156,131.9844 L1318.5156,130.8906 C1318.5156,129.1094 1319.7656,127.7969 1321.5,127.7969 C1322.0781,127.7969 1322.6875,127.9531 1323.1563,128.2031 C1323.6406,128.4844 1323.8125,128.7031 1323.9063,129.1094 C1323.9688,129.5156 1324,129.6406 1324.1406,129.7656 C1324.2813,129.9063 1324.5156,130.0156 1324.7344,130.0156 C1325,130.0156 1325.2656,129.875 1325.4375,129.6563 C1325.5469,129.5 1325.5781,129.3125 1325.5781,128.8906 L1325.5781,127.4688 C1325.5781,127.0313 1325.5625,126.9063 1325.4688,126.75 C1325.3125,126.4844 1325.0313,126.3438 1324.7344,126.3438 C1324.4375,126.3438 1324.2344,126.4375 1324.0156,126.75 L1323.8438,126.6719 Z " fill="#000000"/><text fill="#000000" font-family="sans-serif" font-size="12" lengthAdjust="spacing" textLength="40" x="1335.5" y="135.1543">Cohort</text><line style="stroke:#A80036;stroke-width:1.5;" x1="1307.5" x2="1377.5" y1="147" y2="147"/><line style="stroke:#A80036;stroke-width:1.5;" x1="1307.5" x2="1377.5" y1="155" y2="155"/><!--MD5=[9e468ffe00231646e12574795ca80a26]
class MouseGroup--><rect fill="#FEFECE" filter="url(#f1dj9allnhntgy)" height="48" id="MouseGroup" style="stroke:#A80036;stroke-width:1.5;" width="109" x="1288" y="223"/><ellipse cx="1303" cy="239" fill="#ADD1B2" rx="11" ry="11" style="stroke:#A80036;stroke-width:1.0;"/><path d="M1305.3438,234.6719 C1304.4063,234.2344 1303.8125,234.0938 1302.9375,234.0938 C1300.3125,234.0938 1298.3125,236.1719 1298.3125,238.8906 L1298.3125,240.0156 C1298.3125,242.5938 1300.4219,244.4844 1303.3125,244.4844 C1304.5313,244.4844 1305.6875,244.1875 1306.4375,243.6406 C1307.0156,243.2344 1307.3438,242.7813 1307.3438,242.3906 C1307.3438,241.9375 1306.9531,241.5469 1306.4844,241.5469 C1306.2656,241.5469 1306.0625,241.625 1305.875,241.8125 C1305.4219,242.2969 1305.4219,242.2969 1305.2344,242.3906 C1304.8125,242.6563 1304.125,242.7813 1303.3594,242.7813 C1301.3125,242.7813 1300.0156,241.6875 1300.0156,239.9844 L1300.0156,238.8906 C1300.0156,237.1094 1301.2656,235.7969 1303,235.7969 C1303.5781,235.7969 1304.1875,235.9531 1304.6563,236.2031 C1305.1406,236.4844 1305.3125,236.7031 1305.4063,237.1094 C1305.4688,237.5156 1305.5,237.6406 1305.6406,237.7656 C1305.7813,237.9063 1306.0156,238.0156 1306.2344,238.0156 C1306.5,238.0156 1306.7656,237.875 1306.9375,237.6563 C1307.0469,237.5 1307.0781,237.3125 1307.0781,236.8906 L1307.0781,235.4688 C1307.0781,235.0313 1307.0625,234.9063 1306.9688,234.75 C1306.8125,234.4844 1306.5313,234.3438 1306.2344,234.3438 C1305.9375,234.3438 1305.7344,234.4375 1305.5156,234.75 L1305.3438,234.6719 Z " fill="#000000"/><text fill="#000000" font-family="sans-serif" font-size="12" lengthAdjust="spacing" textLength="77" x="1317" y="243.1543">MouseGroup</text><line style="stroke:#A80036;stroke-width:1.5;" x1="1289" x2="1396" y1="255" y2="255"/><line style="stroke:#A80036;stroke-width:1.5;" x1="1289" x2="1396" y1="263" y2="263"/><!--MD5=[b33ba9eef9bd42a4b3a23aaaad92f883]
class CohortGroup--><rect fill="#FEFECE" filter="url(#f1dj9allnhntgy)" height="48" id="CohortGroup" style="stroke:#A80036;stroke-width:1.5;" width="109" x="1414" y="115"/><ellipse cx="1429" cy="131" fill="#ADD1B2" rx="11" ry="11" style="stroke:#A80036;stroke-width:1.0;"/><path d="M1431.3438,126.6719 C1430.4063,126.2344 1429.8125,126.0938 1428.9375,126.0938 C1426.3125,126.0938 1424.3125,128.1719 1424.3125,130.8906 L1424.3125,132.0156 C1424.3125,134.5938 1426.4219,136.4844 1429.3125,136.4844 C1430.5313,136.4844 1431.6875,136.1875 1432.4375,135.6406 C1433.0156,135.2344 1433.3438,134.7813 1433.3438,134.3906 C1433.3438,133.9375 1432.9531,133.5469 1432.4844,133.5469 C1432.2656,133.5469 1432.0625,133.625 1431.875,133.8125 C1431.4219,134.2969 1431.4219,134.2969 1431.2344,134.3906 C1430.8125,134.6563 1430.125,134.7813 1429.3594,134.7813 C1427.3125,134.7813 1426.0156,133.6875 1426.0156,131.9844 L1426.0156,130.8906 C1426.0156,129.1094 1427.2656,127.7969 1429,127.7969 C1429.5781,127.7969 1430.1875,127.9531 1430.6563,128.2031 C1431.1406,128.4844 1431.3125,128.7031 1431.4063,129.1094 C1431.4688,129.5156 1431.5,129.6406 1431.6406,129.7656 C1431.7813,129.9063 1432.0156,130.0156 1432.2344,130.0156 C1432.5,130.0156 1432.7656,129.875 1432.9375,129.6563 C1433.0469,129.5 1433.0781,129.3125 1433.0781,128.8906 L1433.0781,127.4688 C1433.0781,127.0313 1433.0625,126.9063 1432.9688,126.75 C1432.8125,126.4844 1432.5313,126.3438 1432.2344,126.3438 C1431.9375,126.3438 1431.7344,126.4375 1431.5156,126.75 L1431.3438,126.6719 Z " fill="#000000"/><text fill="#000000" font-family="sans-serif" font-size="12" lengthAdjust="spacing" textLength="77" x="1443" y="135.1543">CohortGroup</text><line style="stroke:#A80036;stroke-width:1.5;" x1="1415" x2="1522" y1="147" y2="147"/><line style="stroke:#A80036;stroke-width:1.5;" x1="1415" x2="1522" y1="155" y2="155"/><!--MD5=[60351862e9d59472e3d0d856a764a54c]
reverse link Item to _BaseExperiment--><path codeLine="2" d="M419.5,75.024 C419.5,88.579 419.5,103.038 419.5,114.678 " fill="none" id="Item-backto-_BaseExperiment" style="stroke:#A80036;stroke-width:1.0;"/><polygon fill="none" points="412.5,75,419.5,55,426.5,75,412.5,75" style="stroke:#A80036;stroke-width:1.0;"/><!--MD5=[bb52d69d870c69cc5f9b7eb61c6411db]
reverse link _BaseExperiment to BehaviorExperiment--><path codeLine="3" d="M419.5,183.024 C419.5,196.579 419.5,211.038 419.5,222.678 " fill="none" id="_BaseExperiment-backto-BehaviorExperiment" style="stroke:#A80036;stroke-width:1.0;"/><polygon fill="none" points="412.5,183,419.5,163,426.5,183,412.5,183" style="stroke:#A80036;stroke-width:1.0;"/><!--MD5=[f97ed51e16c092b80e4df5479e397fda]
reverse link ImagingMixin to ImagingExperiment--><path codeLine="4" d="M131.608,181.659 C126.033,194.745 120.179,209.344 115.5,223 C102.7583,260.191 91.7462,304.607 85.6294,330.994 " fill="none" id="ImagingMixin-backto-ImagingExperiment" style="stroke:#A80036;stroke-width:1.0;"/><polygon fill="none" points="125.225,178.785,139.665,163.277,138.047,184.405,125.225,178.785" style="stroke:#A80036;stroke-width:1.0;"/><!--MD5=[9b6ac5279f039f7577fe2c348e643aac]
reverse link BehaviorExperiment to ImagingExperiment--><path codeLine="5" d="M326.604,277.047 C272.334,294.017 204.795,315.135 154.206,330.953 " fill="none" id="BehaviorExperiment-backto-ImagingExperiment" style="stroke:#A80036;stroke-width:1.0;"/><polygon fill="none" points="324.764,270.288,345.942,271,328.943,283.65,324.764,270.288" style="stroke:#A80036;stroke-width:1.0;"/><!--MD5=[b5dafcd164b2c73e2ae532bd7e7b5c7c]
reverse link ImagingMixin to ImagingOnlyExperiment--><path codeLine="6" d="M177.004,180.134 C186.49,194.499 196.863,210.207 205.099,222.678 " fill="none" id="ImagingMixin-backto-ImagingOnlyExperiment" style="stroke:#A80036;stroke-width:1.0;"/><polygon fill="none" points="170.869,183.547,165.689,163,182.551,175.832,170.869,183.547" style="stroke:#A80036;stroke-width:1.0;"/><!--MD5=[a70d44bebca110b2a0b460d8b51d3dab]
reverse link _BaseExperiment to ImagingOnlyExperiment--><path codeLine="7" d="M358.616,172.431 C328.025,188.725 291.67,208.09 263.939,222.862 " fill="none" id="_BaseExperiment-backto-ImagingOnlyExperiment" style="stroke:#A80036;stroke-width:1.0;"/><polygon fill="none" points="355.377,166.225,376.32,163,361.959,178.581,355.377,166.225" style="stroke:#A80036;stroke-width:1.0;"/><!--MD5=[0b7593a16265938849502046aa7714fc]
reverse link LFPMixin to LFPExperiment--><path codeLine="8" d="M808.598,181.094 C816.181,195.196 824.402,210.484 830.959,222.678 " fill="none" id="LFPMixin-backto-LFPExperiment" style="stroke:#A80036;stroke-width:1.0;"/><polygon fill="none" points="802.175,183.93,798.868,163,814.505,177.3,802.175,183.93" style="stroke:#A80036;stroke-width:1.0;"/><!--MD5=[412dcce3fcbe9a3a54c117699a89faac]
reverse link BehaviorExperiment to LFPEXperiment--><path codeLine="9" d="M450.535,286.702 C462.36,301.448 475.464,317.791 485.799,330.678 " fill="none" id="BehaviorExperiment-backto-LFPEXperiment" style="stroke:#A80036;stroke-width:1.0;"/><polygon fill="none" points="444.995,290.983,437.944,271,455.917,282.224,444.995,290.983" style="stroke:#A80036;stroke-width:1.0;"/><!--MD5=[10e5d17fc6787d3630308937ef80e0ee]
reverse link LFPMixin to LFPOnlyExperiment--><path codeLine="10" d="M729.632,173.121 C701.905,189.27 669.233,208.298 644.228,222.862 " fill="none" id="LFPMixin-backto-LFPOnlyExperiment" style="stroke:#A80036;stroke-width:1.0;"/><polygon fill="none" points="726.203,167.017,747.009,163,733.249,179.115,726.203,167.017" style="stroke:#A80036;stroke-width:1.0;"/><!--MD5=[54eb78439cfdbdd123538a6817f62784]
reverse link _BaseExperiment to LFPOnlyExperiment--><path codeLine="11" d="M477.305,173.121 C505.49,189.27 538.7,208.298 564.117,222.862 " fill="none" id="_BaseExperiment-backto-LFPOnlyExperiment" style="stroke:#A80036;stroke-width:1.0;"/><polygon fill="none" points="473.516,179.017,459.642,163,480.476,166.87,473.516,179.017" style="stroke:#A80036;stroke-width:1.0;"/><!--MD5=[a814a15c5bae52925f1fb8cc5dce9c4b]
reverse link LFPMixin to ImagingLFPExperiment--><path codeLine="12" d="M761.571,180.425 C727.16,233.104 660.338,324.865 581.5,379 C545.853,403.4777 501.853,424.2277 466.765,438.8583 " fill="none" id="LFPMixin-backto-ImagingLFPExperiment" style="stroke:#A80036;stroke-width:1.0;"/><polygon fill="none" points="755.885,176.323,772.551,163.237,767.683,183.86,755.885,176.323" style="stroke:#A80036;stroke-width:1.0;"/><!--MD5=[5fc82013b0355751c3efbc31aed48089]
reverse link ImagingExperiment to ImagingLFPExperiment--><path codeLine="13" d="M170.245,385.271 C222.156,402.2017 286.55,423.2041 334.837,438.9531 " fill="none" id="ImagingExperiment-backto-ImagingLFPExperiment" style="stroke:#A80036;stroke-width:1.0;"/><polygon fill="none" points="167.864,391.857,151.02,379,172.205,378.547,167.864,391.857" style="stroke:#A80036;stroke-width:1.0;"/><!--MD5=[99548a1775db79658abeaf584f9ff03d]
reverse link LFPMixin to ImagingLFPOnlyExperiment--><path codeLine="14" d="M845.794,165.344 C886.68,182.819 940.603,205.867 980.334,222.848 " fill="none" id="LFPMixin-backto-ImagingLFPOnlyExperiment" style="stroke:#A80036;stroke-width:1.0;"/><polygon fill="none" points="842.814,171.682,827.174,157.385,848.316,158.809,842.814,171.682" style="stroke:#A80036;stroke-width:1.0;"/><!--MD5=[35e14ed0435d1b0557553ef77023b21f]
reverse link ImagingOnlyExperiment to ImagingOnlyLFPOnlyExperiment--><path codeLine="15" d="M249.699,287.178 C260.596,301.8 272.617,317.929 282.119,330.678 " fill="none" id="ImagingOnlyExperiment-backto-ImagingOnlyLFPOnlyExperiment" style="stroke:#A80036;stroke-width:1.0;"/><polygon fill="none" points="243.981,291.22,237.642,271,255.206,282.854,243.981,291.22" style="stroke:#A80036;stroke-width:1.0;"/><!--MD5=[55f927026fdefd88031b20b393bb2dc0]
reverse link Group to ExperimentGroup--><path codeLine="18" d="M1296.05,67.168 C1275.42,82.79 1251.7,100.752 1233.3,114.678 " fill="none" id="Group-backto-ExperimentGroup" style="stroke:#A80036;stroke-width:1.0;"/><polygon fill="none" points="1291.95,61.492,1312.12,55,1300.4,72.654,1291.95,61.492" style="stroke:#A80036;stroke-width:1.0;"/><!--MD5=[d536453295eae9569cf704efc9a4e826]
reverse link ExperimentGroup to Mouse--><path codeLine="19" d="M1202.5,183.024 C1202.5,196.579 1202.5,211.038 1202.5,222.678 " fill="none" id="ExperimentGroup-backto-Mouse" style="stroke:#A80036;stroke-width:1.0;"/><polygon fill="none" points="1195.5,183,1202.5,163,1209.5,183,1195.5,183" style="stroke:#A80036;stroke-width:1.0;"/><!--MD5=[2bac89e60a2db9c28e17eac81f411dd1]
reverse link Group to Cohort--><path codeLine="20" d="M1342.5,75.024 C1342.5,88.579 1342.5,103.038 1342.5,114.678 " fill="none" id="Group-backto-Cohort" style="stroke:#A80036;stroke-width:1.0;"/><polygon fill="none" points="1335.5,75,1342.5,55,1349.5,75,1335.5,75" style="stroke:#A80036;stroke-width:1.0;"/><!--MD5=[3492bd46ca5da75073deb82e50c9894d]
reverse link Cohort to MouseGroup--><path codeLine="21" d="M1342.5,183.024 C1342.5,196.579 1342.5,211.038 1342.5,222.678 " fill="none" id="Cohort-backto-MouseGroup" style="stroke:#A80036;stroke-width:1.0;"/><polygon fill="none" points="1335.5,183,1342.5,163,1349.5,183,1335.5,183" style="stroke:#A80036;stroke-width:1.0;"/><!--MD5=[d964471c6ca2f9cd7ef3a91d333a2ec7]
reverse link Group to CohortGroup--><path codeLine="22" d="M1385.42,68.104 C1403.72,83.503 1424.55,101.029 1440.78,114.678 " fill="none" id="Group-backto-CohortGroup" style="stroke:#A80036;stroke-width:1.0;"/><polygon fill="none" points="1380.64,73.232,1369.84,55,1389.65,62.519,1380.64,73.232" style="stroke:#A80036;stroke-width:1.0;"/><!--MD5=[17b253eb4b813d57f965c9d63974ff8c]
@startuml
' ### lab3.experiment.base
Item <|- - _BaseExperiment
_BaseExperiment <|- - BehaviorExperiment
ImagingMixin <|- - ImagingExperiment
BehaviorExperiment <|- - ImagingExperiment
ImagingMixin <|- - ImagingOnlyExperiment
_BaseExperiment <|- - ImagingOnlyExperiment
LFPMixin <|- - LFPExperiment
BehaviorExperiment <|- - LFPEXperiment
LFPMixin <|- - LFPOnlyExperiment
_BaseExperiment <|- - LFPOnlyExperiment
LFPMixin <|- - ImagingLFPExperiment
ImagingExperiment <|- - ImagingLFPExperiment
LFPMixin <|- - ImagingLFPOnlyExperiment
ImagingOnlyExperiment <|- - ImagingOnlyLFPOnlyExperiment

' ### lab3.experiment.group
Group <|- - ExperimentGroup
ExperimentGroup <|- - Mouse
Group <|- - Cohort
Cohort <|- - MouseGroup
Group <|- - CohortGroup
@enduml

@startuml
Item <|- - _BaseExperiment
_BaseExperiment <|- - BehaviorExperiment
ImagingMixin <|- - ImagingExperiment
BehaviorExperiment <|- - ImagingExperiment
ImagingMixin <|- - ImagingOnlyExperiment
_BaseExperiment <|- - ImagingOnlyExperiment
LFPMixin <|- - LFPExperiment
BehaviorExperiment <|- - LFPEXperiment
LFPMixin <|- - LFPOnlyExperiment
_BaseExperiment <|- - LFPOnlyExperiment
LFPMixin <|- - ImagingLFPExperiment
ImagingExperiment <|- - ImagingLFPExperiment
LFPMixin <|- - ImagingLFPOnlyExperiment
ImagingOnlyExperiment <|- - ImagingOnlyLFPOnlyExperiment

Group <|- - ExperimentGroup
ExperimentGroup <|- - Mouse
Group <|- - Cohort
Cohort <|- - MouseGroup
Group <|- - CohortGroup
@enduml

PlantUML version 1.2021.9beta2(Unknown compile time)
(GPL source distribution)
Java Runtime: Java(TM) SE Runtime Environment
JVM: Java HotSpot(TM) 64-Bit Server VM
Default Encoding: UTF-8
Language: en
Country: US
--></g></svg>