<?xml version="1.0" encoding="UTF-8" standalone="no"?><svg xmlns="http://www.w3.org/2000/svg" xmlns:xlink="http://www.w3.org/1999/xlink" contentScriptType="application/ecmascript" contentStyleType="text/css" height="393px" preserveAspectRatio="none" style="width:706px;height:393px;background:#FFFFFF;" version="1.1" viewBox="0 0 706 393" width="706px" zoomAndPan="magnify"><defs><filter height="300%" id="fj3z76q2t9pya" width="300%" x="-1" y="-1"><feGaussianBlur result="blurOut" stdDeviation="2.0"/><feColorMatrix in="blurOut" result="blurOut2" type="matrix" values="0 0 0 0 0 0 0 0 0 0 0 0 0 0 0 0 0 0 .4 0"/><feOffset dx="4.0" dy="4.0" in="blurOut2" result="blurOut3"/><feBlend in="SourceGraphic" in2="blurOut3" mode="normal"/></filter></defs><g><!--MD5=[ca596b6f0db8002a58b40db313f40c5a]
class ImagingDataset--><rect fill="#FEFECE" filter="url(#fj3z76q2t9pya)" height="48" id="ImagingDataset" style="stroke:#A80036;stroke-width:1.5;" width="125" x="205.5" y="7"/><ellipse cx="220.5" cy="23" fill="#ADD1B2" rx="11" ry="11" style="stroke:#A80036;stroke-width:1.0;"/><path d="M222.8438,18.6719 C221.9063,18.2344 221.3125,18.0938 220.4375,18.0938 C217.8125,18.0938 215.8125,20.1719 215.8125,22.8906 L215.8125,24.0156 C215.8125,26.5938 217.9219,28.4844 220.8125,28.4844 C222.0313,28.4844 223.1875,28.1875 223.9375,27.6406 C224.5156,27.2344 224.8438,26.7813 224.8438,26.3906 C224.8438,25.9375 224.4531,25.5469 223.9844,25.5469 C223.7656,25.5469 223.5625,25.625 223.375,25.8125 C222.9219,26.2969 222.9219,26.2969 222.7344,26.3906 C222.3125,26.6563 221.625,26.7813 220.8594,26.7813 C218.8125,26.7813 217.5156,25.6875 217.5156,23.9844 L217.5156,22.8906 C217.5156,21.1094 218.7656,19.7969 220.5,19.7969 C221.0781,19.7969 221.6875,19.9531 222.1563,20.2031 C222.6406,20.4844 222.8125,20.7031 222.9063,21.1094 C222.9688,21.5156 223,21.6406 223.1406,21.7656 C223.2813,21.9063 223.5156,22.0156 223.7344,22.0156 C224,22.0156 224.2656,21.875 224.4375,21.6563 C224.5469,21.5 224.5781,21.3125 224.5781,20.8906 L224.5781,19.4688 C224.5781,19.0313 224.5625,18.9063 224.4688,18.75 C224.3125,18.4844 224.0313,18.3438 223.7344,18.3438 C223.4375,18.3438 223.2344,18.4375 223.0156,18.75 L222.8438,18.6719 Z " fill="#000000"/><text fill="#000000" font-family="sans-serif" font-size="12" lengthAdjust="spacing" textLength="93" x="234.5" y="27.1543">ImagingDataset</text><line style="stroke:#A80036;stroke-width:1.5;" x1="206.5" x2="329.5" y1="39" y2="39"/><line style="stroke:#A80036;stroke-width:1.5;" x1="206.5" x2="329.5" y1="47" y2="47"/><!--MD5=[033ba43d06d744b3b15699622c7e968d]
class CNMFImagingDataset--><rect fill="#FEFECE" filter="url(#fj3z76q2t9pya)" height="48" id="CNMFImagingDataset" style="stroke:#A80036;stroke-width:1.5;" width="158" x="7" y="115"/><ellipse cx="22" cy="131" fill="#ADD1B2" rx="11" ry="11" style="stroke:#A80036;stroke-width:1.0;"/><path d="M24.3438,126.6719 C23.4063,126.2344 22.8125,126.0938 21.9375,126.0938 C19.3125,126.0938 17.3125,128.1719 17.3125,130.8906 L17.3125,132.0156 C17.3125,134.5938 19.4219,136.4844 22.3125,136.4844 C23.5313,136.4844 24.6875,136.1875 25.4375,135.6406 C26.0156,135.2344 26.3438,134.7813 26.3438,134.3906 C26.3438,133.9375 25.9531,133.5469 25.4844,133.5469 C25.2656,133.5469 25.0625,133.625 24.875,133.8125 C24.4219,134.2969 24.4219,134.2969 24.2344,134.3906 C23.8125,134.6563 23.125,134.7813 22.3594,134.7813 C20.3125,134.7813 19.0156,133.6875 19.0156,131.9844 L19.0156,130.8906 C19.0156,129.1094 20.2656,127.7969 22,127.7969 C22.5781,127.7969 23.1875,127.9531 23.6563,128.2031 C24.1406,128.4844 24.3125,128.7031 24.4063,129.1094 C24.4688,129.5156 24.5,129.6406 24.6406,129.7656 C24.7813,129.9063 25.0156,130.0156 25.2344,130.0156 C25.5,130.0156 25.7656,129.875 25.9375,129.6563 C26.0469,129.5 26.0781,129.3125 26.0781,128.8906 L26.0781,127.4688 C26.0781,127.0313 26.0625,126.9063 25.9688,126.75 C25.8125,126.4844 25.5313,126.3438 25.2344,126.3438 C24.9375,126.3438 24.7344,126.4375 24.5156,126.75 L24.3438,126.6719 Z " fill="#000000"/><text fill="#000000" font-family="sans-serif" font-size="12" lengthAdjust="spacing" textLength="126" x="36" y="135.1543">CNMFImagingDataset</text><line style="stroke:#A80036;stroke-width:1.5;" x1="8" x2="164" y1="147" y2="147"/><line style="stroke:#A80036;stroke-width:1.5;" x1="8" x2="164" y1="155" y2="155"/><!--MD5=[2d2c6dc9dab76d4d5f10152eff56e2b7]
class _Sequence_HDF5--><rect fill="#FEFECE" filter="url(#fj3z76q2t9pya)" height="48" id="_Sequence_HDF5" style="stroke:#A80036;stroke-width:1.5;" width="138" x="545" y="7"/><ellipse cx="560" cy="23" fill="#ADD1B2" rx="11" ry="11" style="stroke:#A80036;stroke-width:1.0;"/><path d="M562.3438,18.6719 C561.4063,18.2344 560.8125,18.0938 559.9375,18.0938 C557.3125,18.0938 555.3125,20.1719 555.3125,22.8906 L555.3125,24.0156 C555.3125,26.5938 557.4219,28.4844 560.3125,28.4844 C561.5313,28.4844 562.6875,28.1875 563.4375,27.6406 C564.0156,27.2344 564.3438,26.7813 564.3438,26.3906 C564.3438,25.9375 563.9531,25.5469 563.4844,25.5469 C563.2656,25.5469 563.0625,25.625 562.875,25.8125 C562.4219,26.2969 562.4219,26.2969 562.2344,26.3906 C561.8125,26.6563 561.125,26.7813 560.3594,26.7813 C558.3125,26.7813 557.0156,25.6875 557.0156,23.9844 L557.0156,22.8906 C557.0156,21.1094 558.2656,19.7969 560,19.7969 C560.5781,19.7969 561.1875,19.9531 561.6563,20.2031 C562.1406,20.4844 562.3125,20.7031 562.4063,21.1094 C562.4688,21.5156 562.5,21.6406 562.6406,21.7656 C562.7813,21.9063 563.0156,22.0156 563.2344,22.0156 C563.5,22.0156 563.7656,21.875 563.9375,21.6563 C564.0469,21.5 564.0781,21.3125 564.0781,20.8906 L564.0781,19.4688 C564.0781,19.0313 564.0625,18.9063 563.9688,18.75 C563.8125,18.4844 563.5313,18.3438 563.2344,18.3438 C562.9375,18.3438 562.7344,18.4375 562.5156,18.75 L562.3438,18.6719 Z " fill="#000000"/><text fill="#000000" font-family="sans-serif" font-size="12" lengthAdjust="spacing" textLength="106" x="574" y="27.1543">_Sequence_HDF5</text><line style="stroke:#A80036;stroke-width:1.5;" x1="546" x2="682" y1="39" y2="39"/><line style="stroke:#A80036;stroke-width:1.5;" x1="546" x2="682" y1="47" y2="47"/><!--MD5=[8a6f96ea9f729b8461696fe388126819]
class _DenoisedSequence--><rect fill="#FEFECE" filter="url(#fj3z76q2t9pya)" height="48" id="_DenoisedSequence" style="stroke:#A80036;stroke-width:1.5;" width="157" x="535.5" y="115"/><ellipse cx="550.5" cy="131" fill="#ADD1B2" rx="11" ry="11" style="stroke:#A80036;stroke-width:1.0;"/><path d="M552.8438,126.6719 C551.9063,126.2344 551.3125,126.0938 550.4375,126.0938 C547.8125,126.0938 545.8125,128.1719 545.8125,130.8906 L545.8125,132.0156 C545.8125,134.5938 547.9219,136.4844 550.8125,136.4844 C552.0313,136.4844 553.1875,136.1875 553.9375,135.6406 C554.5156,135.2344 554.8438,134.7813 554.8438,134.3906 C554.8438,133.9375 554.4531,133.5469 553.9844,133.5469 C553.7656,133.5469 553.5625,133.625 553.375,133.8125 C552.9219,134.2969 552.9219,134.2969 552.7344,134.3906 C552.3125,134.6563 551.625,134.7813 550.8594,134.7813 C548.8125,134.7813 547.5156,133.6875 547.5156,131.9844 L547.5156,130.8906 C547.5156,129.1094 548.7656,127.7969 550.5,127.7969 C551.0781,127.7969 551.6875,127.9531 552.1563,128.2031 C552.6406,128.4844 552.8125,128.7031 552.9063,129.1094 C552.9688,129.5156 553,129.6406 553.1406,129.7656 C553.2813,129.9063 553.5156,130.0156 553.7344,130.0156 C554,130.0156 554.2656,129.875 554.4375,129.6563 C554.5469,129.5 554.5781,129.3125 554.5781,128.8906 L554.5781,127.4688 C554.5781,127.0313 554.5625,126.9063 554.4688,126.75 C554.3125,126.4844 554.0313,126.3438 553.7344,126.3438 C553.4375,126.3438 553.2344,126.4375 553.0156,126.75 L552.8438,126.6719 Z " fill="#000000"/><text fill="#000000" font-family="sans-serif" font-size="12" lengthAdjust="spacing" textLength="125" x="564.5" y="135.1543">_DenoisedSequence</text><line style="stroke:#A80036;stroke-width:1.5;" x1="536.5" x2="691.5" y1="147" y2="147"/><line style="stroke:#A80036;stroke-width:1.5;" x1="536.5" x2="691.5" y1="155" y2="155"/><!--MD5=[65a2db4dea919cfe81b2ab8b799236a1]
class DenoisedDataset--><rect fill="#FEFECE" filter="url(#fj3z76q2t9pya)" height="48" id="DenoisedDataset" style="stroke:#A80036;stroke-width:1.5;" width="136" x="200" y="115"/><ellipse cx="215" cy="131" fill="#ADD1B2" rx="11" ry="11" style="stroke:#A80036;stroke-width:1.0;"/><path d="M217.3438,126.6719 C216.4063,126.2344 215.8125,126.0938 214.9375,126.0938 C212.3125,126.0938 210.3125,128.1719 210.3125,130.8906 L210.3125,132.0156 C210.3125,134.5938 212.4219,136.4844 215.3125,136.4844 C216.5313,136.4844 217.6875,136.1875 218.4375,135.6406 C219.0156,135.2344 219.3438,134.7813 219.3438,134.3906 C219.3438,133.9375 218.9531,133.5469 218.4844,133.5469 C218.2656,133.5469 218.0625,133.625 217.875,133.8125 C217.4219,134.2969 217.4219,134.2969 217.2344,134.3906 C216.8125,134.6563 216.125,134.7813 215.3594,134.7813 C213.3125,134.7813 212.0156,133.6875 212.0156,131.9844 L212.0156,130.8906 C212.0156,129.1094 213.2656,127.7969 215,127.7969 C215.5781,127.7969 216.1875,127.9531 216.6563,128.2031 C217.1406,128.4844 217.3125,128.7031 217.4063,129.1094 C217.4688,129.5156 217.5,129.6406 217.6406,129.7656 C217.7813,129.9063 218.0156,130.0156 218.2344,130.0156 C218.5,130.0156 218.7656,129.875 218.9375,129.6563 C219.0469,129.5 219.0781,129.3125 219.0781,128.8906 L219.0781,127.4688 C219.0781,127.0313 219.0625,126.9063 218.9688,126.75 C218.8125,126.4844 218.5313,126.3438 218.2344,126.3438 C217.9375,126.3438 217.7344,126.4375 217.5156,126.75 L217.3438,126.6719 Z " fill="#000000"/><text fill="#000000" font-family="sans-serif" font-size="12" lengthAdjust="spacing" textLength="104" x="229" y="135.1543">DenoisedDataset</text><line style="stroke:#A80036;stroke-width:1.5;" x1="201" x2="335" y1="147" y2="147"/><line style="stroke:#A80036;stroke-width:1.5;" x1="201" x2="335" y1="155" y2="155"/><!--MD5=[74dab6aa05c00f79e5c299f578021093]
class Suite2pStrategy--><rect fill="#FEFECE" filter="url(#fj3z76q2t9pya)" height="48" id="Suite2pStrategy" style="stroke:#A80036;stroke-width:1.5;" width="129" x="371.5" y="115"/><ellipse cx="386.5" cy="131" fill="#ADD1B2" rx="11" ry="11" style="stroke:#A80036;stroke-width:1.0;"/><path d="M388.8438,126.6719 C387.9063,126.2344 387.3125,126.0938 386.4375,126.0938 C383.8125,126.0938 381.8125,128.1719 381.8125,130.8906 L381.8125,132.0156 C381.8125,134.5938 383.9219,136.4844 386.8125,136.4844 C388.0313,136.4844 389.1875,136.1875 389.9375,135.6406 C390.5156,135.2344 390.8438,134.7813 390.8438,134.3906 C390.8438,133.9375 390.4531,133.5469 389.9844,133.5469 C389.7656,133.5469 389.5625,133.625 389.375,133.8125 C388.9219,134.2969 388.9219,134.2969 388.7344,134.3906 C388.3125,134.6563 387.625,134.7813 386.8594,134.7813 C384.8125,134.7813 383.5156,133.6875 383.5156,131.9844 L383.5156,130.8906 C383.5156,129.1094 384.7656,127.7969 386.5,127.7969 C387.0781,127.7969 387.6875,127.9531 388.1563,128.2031 C388.6406,128.4844 388.8125,128.7031 388.9063,129.1094 C388.9688,129.5156 389,129.6406 389.1406,129.7656 C389.2813,129.9063 389.5156,130.0156 389.7344,130.0156 C390,130.0156 390.2656,129.875 390.4375,129.6563 C390.5469,129.5 390.5781,129.3125 390.5781,128.8906 L390.5781,127.4688 C390.5781,127.0313 390.5625,126.9063 390.4688,126.75 C390.3125,126.4844 390.0313,126.3438 389.7344,126.3438 C389.4375,126.3438 389.2344,126.4375 389.0156,126.75 L388.8438,126.6719 Z " fill="#000000"/><text fill="#000000" font-family="sans-serif" font-size="12" lengthAdjust="spacing" textLength="97" x="400.5" y="135.1543">Suite2pStrategy</text><line style="stroke:#A80036;stroke-width:1.5;" x1="372.5" x2="499.5" y1="147" y2="147"/><line style="stroke:#A80036;stroke-width:1.5;" x1="372.5" x2="499.5" y1="155" y2="155"/><!--MD5=[2b96faa03152b4c8a739642b471d8c88]
class ABCMeta--><rect fill="#FEFECE" filter="url(#fj3z76q2t9pya)" height="48" id="ABCMeta" style="stroke:#A80036;stroke-width:1.5;" width="85" x="393.5" y="7"/><ellipse cx="408.5" cy="23" fill="#ADD1B2" rx="11" ry="11" style="stroke:#A80036;stroke-width:1.0;"/><path d="M410.8438,18.6719 C409.9063,18.2344 409.3125,18.0938 408.4375,18.0938 C405.8125,18.0938 403.8125,20.1719 403.8125,22.8906 L403.8125,24.0156 C403.8125,26.5938 405.9219,28.4844 408.8125,28.4844 C410.0313,28.4844 411.1875,28.1875 411.9375,27.6406 C412.5156,27.2344 412.8438,26.7813 412.8438,26.3906 C412.8438,25.9375 412.4531,25.5469 411.9844,25.5469 C411.7656,25.5469 411.5625,25.625 411.375,25.8125 C410.9219,26.2969 410.9219,26.2969 410.7344,26.3906 C410.3125,26.6563 409.625,26.7813 408.8594,26.7813 C406.8125,26.7813 405.5156,25.6875 405.5156,23.9844 L405.5156,22.8906 C405.5156,21.1094 406.7656,19.7969 408.5,19.7969 C409.0781,19.7969 409.6875,19.9531 410.1563,20.2031 C410.6406,20.4844 410.8125,20.7031 410.9063,21.1094 C410.9688,21.5156 411,21.6406 411.1406,21.7656 C411.2813,21.9063 411.5156,22.0156 411.7344,22.0156 C412,22.0156 412.2656,21.875 412.4375,21.6563 C412.5469,21.5 412.5781,21.3125 412.5781,20.8906 L412.5781,19.4688 C412.5781,19.0313 412.5625,18.9063 412.4688,18.75 C412.3125,18.4844 412.0313,18.3438 411.7344,18.3438 C411.4375,18.3438 411.2344,18.4375 411.0156,18.75 L410.8438,18.6719 Z " fill="#000000"/><text fill="#000000" font-family="sans-serif" font-size="12" lengthAdjust="spacing" textLength="53" x="422.5" y="27.1543">ABCMeta</text><line style="stroke:#A80036;stroke-width:1.5;" x1="394.5" x2="477.5" y1="39" y2="39"/><line style="stroke:#A80036;stroke-width:1.5;" x1="394.5" x2="477.5" y1="47" y2="47"/><!--MD5=[1dd23e4c080d4b31086a66bbc74490ad]
class Suite2pImagingDataset--><rect fill="#FEFECE" filter="url(#fj3z76q2t9pya)" height="48" id="Suite2pImagingDataset" style="stroke:#A80036;stroke-width:1.5;" width="171" x="350.5" y="223"/><ellipse cx="365.5" cy="239" fill="#ADD1B2" rx="11" ry="11" style="stroke:#A80036;stroke-width:1.0;"/><path d="M367.8438,234.6719 C366.9063,234.2344 366.3125,234.0938 365.4375,234.0938 C362.8125,234.0938 360.8125,236.1719 360.8125,238.8906 L360.8125,240.0156 C360.8125,242.5938 362.9219,244.4844 365.8125,244.4844 C367.0313,244.4844 368.1875,244.1875 368.9375,243.6406 C369.5156,243.2344 369.8438,242.7813 369.8438,242.3906 C369.8438,241.9375 369.4531,241.5469 368.9844,241.5469 C368.7656,241.5469 368.5625,241.625 368.375,241.8125 C367.9219,242.2969 367.9219,242.2969 367.7344,242.3906 C367.3125,242.6563 366.625,242.7813 365.8594,242.7813 C363.8125,242.7813 362.5156,241.6875 362.5156,239.9844 L362.5156,238.8906 C362.5156,237.1094 363.7656,235.7969 365.5,235.7969 C366.0781,235.7969 366.6875,235.9531 367.1563,236.2031 C367.6406,236.4844 367.8125,236.7031 367.9063,237.1094 C367.9688,237.5156 368,237.6406 368.1406,237.7656 C368.2813,237.9063 368.5156,238.0156 368.7344,238.0156 C369,238.0156 369.2656,237.875 369.4375,237.6563 C369.5469,237.5 369.5781,237.3125 369.5781,236.8906 L369.5781,235.4688 C369.5781,235.0313 369.5625,234.9063 369.4688,234.75 C369.3125,234.4844 369.0313,234.3438 368.7344,234.3438 C368.4375,234.3438 368.2344,234.4375 368.0156,234.75 L367.8438,234.6719 Z " fill="#000000"/><text fill="#000000" font-family="sans-serif" font-size="12" lengthAdjust="spacing" textLength="139" x="379.5" y="243.1543">Suite2pImagingDataset</text><line style="stroke:#A80036;stroke-width:1.5;" x1="351.5" x2="520.5" y1="255" y2="255"/><line style="stroke:#A80036;stroke-width:1.5;" x1="351.5" x2="520.5" y1="263" y2="263"/><!--MD5=[4233a1bd83a632058b6cf460079e7328]
class BatchMixin--><rect fill="#FEFECE" filter="url(#fj3z76q2t9pya)" height="48" id="BatchMixin" style="stroke:#A80036;stroke-width:1.5;" width="95" x="556.5" y="223"/><ellipse cx="571.5" cy="239" fill="#ADD1B2" rx="11" ry="11" style="stroke:#A80036;stroke-width:1.0;"/><path d="M573.8438,234.6719 C572.9063,234.2344 572.3125,234.0938 571.4375,234.0938 C568.8125,234.0938 566.8125,236.1719 566.8125,238.8906 L566.8125,240.0156 C566.8125,242.5938 568.9219,244.4844 571.8125,244.4844 C573.0313,244.4844 574.1875,244.1875 574.9375,243.6406 C575.5156,243.2344 575.8438,242.7813 575.8438,242.3906 C575.8438,241.9375 575.4531,241.5469 574.9844,241.5469 C574.7656,241.5469 574.5625,241.625 574.375,241.8125 C573.9219,242.2969 573.9219,242.2969 573.7344,242.3906 C573.3125,242.6563 572.625,242.7813 571.8594,242.7813 C569.8125,242.7813 568.5156,241.6875 568.5156,239.9844 L568.5156,238.8906 C568.5156,237.1094 569.7656,235.7969 571.5,235.7969 C572.0781,235.7969 572.6875,235.9531 573.1563,236.2031 C573.6406,236.4844 573.8125,236.7031 573.9063,237.1094 C573.9688,237.5156 574,237.6406 574.1406,237.7656 C574.2813,237.9063 574.5156,238.0156 574.7344,238.0156 C575,238.0156 575.2656,237.875 575.4375,237.6563 C575.5469,237.5 575.5781,237.3125 575.5781,236.8906 L575.5781,235.4688 C575.5781,235.0313 575.5625,234.9063 575.4688,234.75 C575.3125,234.4844 575.0313,234.3438 574.7344,234.3438 C574.4375,234.3438 574.2344,234.4375 574.0156,234.75 L573.8438,234.6719 Z " fill="#000000"/><text fill="#000000" font-family="sans-serif" font-size="12" lengthAdjust="spacing" textLength="63" x="585.5" y="243.1543">BatchMixin</text><line style="stroke:#A80036;stroke-width:1.5;" x1="557.5" x2="650.5" y1="255" y2="255"/><line style="stroke:#A80036;stroke-width:1.5;" x1="557.5" x2="650.5" y1="263" y2="263"/><!--MD5=[e6519321e804bcc625b015966ad5ef84]
class BatchSuite2pImagingDataset--><rect fill="#FEFECE" filter="url(#fj3z76q2t9pya)" height="48" id="BatchSuite2pImagingDataset" style="stroke:#A80036;stroke-width:1.5;" width="204" x="418" y="331"/><ellipse cx="433" cy="347" fill="#ADD1B2" rx="11" ry="11" style="stroke:#A80036;stroke-width:1.0;"/><path d="M435.3438,342.6719 C434.4063,342.2344 433.8125,342.0938 432.9375,342.0938 C430.3125,342.0938 428.3125,344.1719 428.3125,346.8906 L428.3125,348.0156 C428.3125,350.5938 430.4219,352.4844 433.3125,352.4844 C434.5313,352.4844 435.6875,352.1875 436.4375,351.6406 C437.0156,351.2344 437.3438,350.7813 437.3438,350.3906 C437.3438,349.9375 436.9531,349.5469 436.4844,349.5469 C436.2656,349.5469 436.0625,349.625 435.875,349.8125 C435.4219,350.2969 435.4219,350.2969 435.2344,350.3906 C434.8125,350.6563 434.125,350.7813 433.3594,350.7813 C431.3125,350.7813 430.0156,349.6875 430.0156,347.9844 L430.0156,346.8906 C430.0156,345.1094 431.2656,343.7969 433,343.7969 C433.5781,343.7969 434.1875,343.9531 434.6563,344.2031 C435.1406,344.4844 435.3125,344.7031 435.4063,345.1094 C435.4688,345.5156 435.5,345.6406 435.6406,345.7656 C435.7813,345.9063 436.0156,346.0156 436.2344,346.0156 C436.5,346.0156 436.7656,345.875 436.9375,345.6563 C437.0469,345.5 437.0781,345.3125 437.0781,344.8906 L437.0781,343.4688 C437.0781,343.0313 437.0625,342.9063 436.9688,342.75 C436.8125,342.4844 436.5313,342.3438 436.2344,342.3438 C435.9375,342.3438 435.7344,342.4375 435.5156,342.75 L435.3438,342.6719 Z " fill="#000000"/><text fill="#000000" font-family="sans-serif" font-size="12" lengthAdjust="spacing" textLength="172" x="447" y="351.1543">BatchSuite2pImagingDataset</text><line style="stroke:#A80036;stroke-width:1.5;" x1="419" x2="621" y1="363" y2="363"/><line style="stroke:#A80036;stroke-width:1.5;" x1="419" x2="621" y1="371" y2="371"/><!--MD5=[df3b9fa109f7ef78cae9e92be87153e8]
reverse link ImagingDataset to CNMFImagingDataset--><path codeLine="2" d="M211.132,65.121 C183.405,81.27 150.733,100.298 125.728,114.862 " fill="none" id="ImagingDataset-backto-CNMFImagingDataset" style="stroke:#A80036;stroke-width:1.0;"/><polygon fill="none" points="207.703,59.017,228.509,55,214.749,71.115,207.703,59.017" style="stroke:#A80036;stroke-width:1.0;"/><!--MD5=[0067234d64cca442da73539c173749fa]
reverse link _Sequence_HDF5 to _DenoisedSequence--><path codeLine="5" d="M614,75.024 C614,88.579 614,103.038 614,114.678 " fill="none" id="_Sequence_HDF5-backto-_DenoisedSequence" style="stroke:#A80036;stroke-width:1.0;"/><polygon fill="none" points="607,75,614,55,621,75,607,75" style="stroke:#A80036;stroke-width:1.0;"/><!--MD5=[72e481aae506d35025a24ecea1678b58]
reverse link ImagingDataset to DenoisedDataset--><path codeLine="6" d="M268,75.024 C268,88.579 268,103.038 268,114.678 " fill="none" id="ImagingDataset-backto-DenoisedDataset" style="stroke:#A80036;stroke-width:1.0;"/><polygon fill="none" points="261,75,268,55,275,75,261,75" style="stroke:#A80036;stroke-width:1.0;"/><!--MD5=[fd82c64752f367b6fdcc98a7f1571378]
reverse link ImagingDataset to Suite2pStrategy--><path codeLine="9" d="M321.593,65.815 C346.948,81.813 376.576,100.506 399.328,114.862 " fill="none" id="ImagingDataset-backto-Suite2pStrategy" style="stroke:#A80036;stroke-width:1.0;"/><polygon fill="none" points="317.633,71.593,304.453,55,325.103,59.753,317.633,71.593" style="stroke:#A80036;stroke-width:1.0;"/><!--MD5=[25719ae63bfdd953a893e21d0d4dc5af]
reverse link ABCMeta to Suite2pStrategy--><path codeLine="10" d="M436,75.024 C436,88.579 436,103.038 436,114.678 " fill="none" id="ABCMeta-backto-Suite2pStrategy" style="stroke:#A80036;stroke-width:1.0;"/><polygon fill="none" points="429,75,436,55,443,75,429,75" style="stroke:#A80036;stroke-width:1.0;"/><!--MD5=[1d28df0082437238e8c7b4bcd8960288]
reverse link Suite2pStrategy to Suite2pImagingDataset--><path codeLine="11" d="M436,183.024 C436,196.579 436,211.038 436,222.678 " fill="none" id="Suite2pStrategy-backto-Suite2pImagingDataset" style="stroke:#A80036;stroke-width:1.0;"/><polygon fill="none" points="429,183,436,163,443,183,429,183" style="stroke:#A80036;stroke-width:1.0;"/><!--MD5=[870bcf61a4d969bee732e6fd215bee0f]
reverse link BatchMixin to BatchSuite2pImagingDataset--><path codeLine="14" d="M573.33,286.7021 C561.645,301.4485 548.694,317.7909 538.481,330.6784 " fill="none" id="BatchMixin-backto-BatchSuite2pImagingDataset" style="stroke:#A80036;stroke-width:1.0;"/><polygon fill="none" points="567.865,282.3278,585.773,271,578.838,291.0229,567.865,282.3278" style="stroke:#A80036;stroke-width:1.0;"/><!--MD5=[a9b42f30999a85f89a394406748f22eb]
reverse link Suite2pImagingDataset to BatchSuite2pImagingDataset--><path codeLine="15" d="M466.67,286.7021 C478.355,301.4485 491.306,317.7909 501.519,330.6784 " fill="none" id="Suite2pImagingDataset-backto-BatchSuite2pImagingDataset" style="stroke:#A80036;stroke-width:1.0;"/><polygon fill="none" points="461.162,291.0229,454.227,271,472.135,282.3278,461.162,291.0229" style="stroke:#A80036;stroke-width:1.0;"/><!--MD5=[773367ec080a6107ae0a141b72e62142]
@startuml
' ### lab3.extraction.cnmf.base
ImagingDataset <|- - CNMFImagingDataset

' ### lab3.extraction.denoising.base
_Sequence_HDF5 <|- - _DenoisedSequence
ImagingDataset <|- - DenoisedDataset

' ### lab3.extraction.s2p.base
ImagingDataset <|- - Suite2pStrategy
ABCMeta <|- - Suite2pStrategy
Suite2pStrategy <|- - Suite2pImagingDataset

' ### lab3.extraction.s2p.batch
BatchMixin <|- - BatchSuite2pImagingDataset
Suite2pImagingDataset <|- - BatchSuite2pImagingDataset
@enduml

@startuml
ImagingDataset <|- - CNMFImagingDataset

_Sequence_HDF5 <|- - _DenoisedSequence
ImagingDataset <|- - DenoisedDataset

ImagingDataset <|- - Suite2pStrategy
ABCMeta <|- - Suite2pStrategy
Suite2pStrategy <|- - Suite2pImagingDataset

BatchMixin <|- - BatchSuite2pImagingDataset
Suite2pImagingDataset <|- - BatchSuite2pImagingDataset
@enduml

PlantUML version 1.2021.9beta2(Unknown compile time)
(GPL source distribution)
Java Runtime: Java(TM) SE Runtime Environment
JVM: Java HotSpot(TM) 64-Bit Server VM
Default Encoding: UTF-8
Language: en
Country: US
--></g></svg>