<?xml version="1.0" encoding="UTF-8" standalone="no"?><svg xmlns="http://www.w3.org/2000/svg" xmlns:xlink="http://www.w3.org/1999/xlink" contentScriptType="application/ecmascript" contentStyleType="text/css" height="609px" preserveAspectRatio="none" style="width:1385px;height:609px;background:#FFFFFF;" version="1.1" viewBox="0 0 1385 609" width="1385px" zoomAndPan="magnify"><defs><filter height="300%" id="f1f5fpbt5a3hdv" width="300%" x="-1" y="-1"><feGaussianBlur result="blurOut" stdDeviation="2.0"/><feColorMatrix in="blurOut" result="blurOut2" type="matrix" values="0 0 0 0 0 0 0 0 0 0 0 0 0 0 0 0 0 0 .4 0"/><feOffset dx="4.0" dy="4.0" in="blurOut2" result="blurOut3"/><feBlend in="SourceGraphic" in2="blurOut3" mode="normal"/></filter></defs><g><!--MD5=[44a1b4afaef76c16e6c9ec4990ad0c8d]
class Item--><rect fill="#FEFECE" filter="url(#f1f5fpbt5a3hdv)" height="48" id="Item" style="stroke:#A80036;stroke-width:1.5;" width="58" x="400.5" y="7"/><ellipse cx="415.5" cy="23" fill="#ADD1B2" rx="11" ry="11" style="stroke:#A80036;stroke-width:1.0;"/><path d="M417.8438,18.6719 C416.9063,18.2344 416.3125,18.0938 415.4375,18.0938 C412.8125,18.0938 410.8125,20.1719 410.8125,22.8906 L410.8125,24.0156 C410.8125,26.5938 412.9219,28.4844 415.8125,28.4844 C417.0313,28.4844 418.1875,28.1875 418.9375,27.6406 C419.5156,27.2344 419.8438,26.7813 419.8438,26.3906 C419.8438,25.9375 419.4531,25.5469 418.9844,25.5469 C418.7656,25.5469 418.5625,25.625 418.375,25.8125 C417.9219,26.2969 417.9219,26.2969 417.7344,26.3906 C417.3125,26.6563 416.625,26.7813 415.8594,26.7813 C413.8125,26.7813 412.5156,25.6875 412.5156,23.9844 L412.5156,22.8906 C412.5156,21.1094 413.7656,19.7969 415.5,19.7969 C416.0781,19.7969 416.6875,19.9531 417.1563,20.2031 C417.6406,20.4844 417.8125,20.7031 417.9063,21.1094 C417.9688,21.5156 418,21.6406 418.1406,21.7656 C418.2813,21.9063 418.5156,22.0156 418.7344,22.0156 C419,22.0156 419.2656,21.875 419.4375,21.6563 C419.5469,21.5 419.5781,21.3125 419.5781,20.8906 L419.5781,19.4688 C419.5781,19.0313 419.5625,18.9063 419.4688,18.75 C419.3125,18.4844 419.0313,18.3438 418.7344,18.3438 C418.4375,18.3438 418.2344,18.4375 418.0156,18.75 L417.8438,18.6719 Z " fill="#000000"/><text fill="#000000" font-family="sans-serif" font-size="12" lengthAdjust="spacing" textLength="26" x="429.5" y="27.1543">Item</text><line style="stroke:#A80036;stroke-width:1.5;" x1="401.5" x2="457.5" y1="39" y2="39"/><line style="stroke:#A80036;stroke-width:1.5;" x1="401.5" x2="457.5" y1="47" y2="47"/><!--MD5=[bddb511951cf0a1d6a79f67b0c2ed87d]
class Filter--><rect fill="#FEFECE" filter="url(#f1f5fpbt5a3hdv)" height="48" id="Filter" style="stroke:#A80036;stroke-width:1.5;" width="62" x="398.5" y="115"/><ellipse cx="413.5" cy="131" fill="#ADD1B2" rx="11" ry="11" style="stroke:#A80036;stroke-width:1.0;"/><path d="M415.8438,126.6719 C414.9063,126.2344 414.3125,126.0938 413.4375,126.0938 C410.8125,126.0938 408.8125,128.1719 408.8125,130.8906 L408.8125,132.0156 C408.8125,134.5938 410.9219,136.4844 413.8125,136.4844 C415.0313,136.4844 416.1875,136.1875 416.9375,135.6406 C417.5156,135.2344 417.8438,134.7813 417.8438,134.3906 C417.8438,133.9375 417.4531,133.5469 416.9844,133.5469 C416.7656,133.5469 416.5625,133.625 416.375,133.8125 C415.9219,134.2969 415.9219,134.2969 415.7344,134.3906 C415.3125,134.6563 414.625,134.7813 413.8594,134.7813 C411.8125,134.7813 410.5156,133.6875 410.5156,131.9844 L410.5156,130.8906 C410.5156,129.1094 411.7656,127.7969 413.5,127.7969 C414.0781,127.7969 414.6875,127.9531 415.1563,128.2031 C415.6406,128.4844 415.8125,128.7031 415.9063,129.1094 C415.9688,129.5156 416,129.6406 416.1406,129.7656 C416.2813,129.9063 416.5156,130.0156 416.7344,130.0156 C417,130.0156 417.2656,129.875 417.4375,129.6563 C417.5469,129.5 417.5781,129.3125 417.5781,128.8906 L417.5781,127.4688 C417.5781,127.0313 417.5625,126.9063 417.4688,126.75 C417.3125,126.4844 417.0313,126.3438 416.7344,126.3438 C416.4375,126.3438 416.2344,126.4375 416.0156,126.75 L415.8438,126.6719 Z " fill="#000000"/><text fill="#000000" font-family="sans-serif" font-size="12" lengthAdjust="spacing" textLength="30" x="427.5" y="135.1543">Filter</text><line style="stroke:#A80036;stroke-width:1.5;" x1="399.5" x2="459.5" y1="147" y2="147"/><line style="stroke:#A80036;stroke-width:1.5;" x1="399.5" x2="459.5" y1="155" y2="155"/><!--MD5=[8e17386280aab1875f6f7c2a39b3575a]
class _BoundFilter--><rect fill="#FEFECE" filter="url(#f1f5fpbt5a3hdv)" height="48" id="_BoundFilter" style="stroke:#A80036;stroke-width:1.5;" width="106" x="213.5" y="223"/><ellipse cx="228.5" cy="239" fill="#ADD1B2" rx="11" ry="11" style="stroke:#A80036;stroke-width:1.0;"/><path d="M230.8438,234.6719 C229.9063,234.2344 229.3125,234.0938 228.4375,234.0938 C225.8125,234.0938 223.8125,236.1719 223.8125,238.8906 L223.8125,240.0156 C223.8125,242.5938 225.9219,244.4844 228.8125,244.4844 C230.0313,244.4844 231.1875,244.1875 231.9375,243.6406 C232.5156,243.2344 232.8438,242.7813 232.8438,242.3906 C232.8438,241.9375 232.4531,241.5469 231.9844,241.5469 C231.7656,241.5469 231.5625,241.625 231.375,241.8125 C230.9219,242.2969 230.9219,242.2969 230.7344,242.3906 C230.3125,242.6563 229.625,242.7813 228.8594,242.7813 C226.8125,242.7813 225.5156,241.6875 225.5156,239.9844 L225.5156,238.8906 C225.5156,237.1094 226.7656,235.7969 228.5,235.7969 C229.0781,235.7969 229.6875,235.9531 230.1563,236.2031 C230.6406,236.4844 230.8125,236.7031 230.9063,237.1094 C230.9688,237.5156 231,237.6406 231.1406,237.7656 C231.2813,237.9063 231.5156,238.0156 231.7344,238.0156 C232,238.0156 232.2656,237.875 232.4375,237.6563 C232.5469,237.5 232.5781,237.3125 232.5781,236.8906 L232.5781,235.4688 C232.5781,235.0313 232.5625,234.9063 232.4688,234.75 C232.3125,234.4844 232.0313,234.3438 231.7344,234.3438 C231.4375,234.3438 231.2344,234.4375 231.0156,234.75 L230.8438,234.6719 Z " fill="#000000"/><text fill="#000000" font-family="sans-serif" font-size="12" lengthAdjust="spacing" textLength="74" x="242.5" y="243.1543">_BoundFilter</text><line style="stroke:#A80036;stroke-width:1.5;" x1="214.5" x2="318.5" y1="255" y2="255"/><line style="stroke:#A80036;stroke-width:1.5;" x1="214.5" x2="318.5" y1="263" y2="263"/><!--MD5=[d9d4c9de175e2b37d8a881ad95056145]
class FilterGroup--><rect fill="#FEFECE" filter="url(#f1f5fpbt5a3hdv)" height="48" id="FilterGroup" style="stroke:#A80036;stroke-width:1.5;" width="99" x="62" y="223"/><ellipse cx="77" cy="239" fill="#ADD1B2" rx="11" ry="11" style="stroke:#A80036;stroke-width:1.0;"/><path d="M79.3438,234.6719 C78.4063,234.2344 77.8125,234.0938 76.9375,234.0938 C74.3125,234.0938 72.3125,236.1719 72.3125,238.8906 L72.3125,240.0156 C72.3125,242.5938 74.4219,244.4844 77.3125,244.4844 C78.5313,244.4844 79.6875,244.1875 80.4375,243.6406 C81.0156,243.2344 81.3438,242.7813 81.3438,242.3906 C81.3438,241.9375 80.9531,241.5469 80.4844,241.5469 C80.2656,241.5469 80.0625,241.625 79.875,241.8125 C79.4219,242.2969 79.4219,242.2969 79.2344,242.3906 C78.8125,242.6563 78.125,242.7813 77.3594,242.7813 C75.3125,242.7813 74.0156,241.6875 74.0156,239.9844 L74.0156,238.8906 C74.0156,237.1094 75.2656,235.7969 77,235.7969 C77.5781,235.7969 78.1875,235.9531 78.6563,236.2031 C79.1406,236.4844 79.3125,236.7031 79.4063,237.1094 C79.4688,237.5156 79.5,237.6406 79.6406,237.7656 C79.7813,237.9063 80.0156,238.0156 80.2344,238.0156 C80.5,238.0156 80.7656,237.875 80.9375,237.6563 C81.0469,237.5 81.0781,237.3125 81.0781,236.8906 L81.0781,235.4688 C81.0781,235.0313 81.0625,234.9063 80.9688,234.75 C80.8125,234.4844 80.5313,234.3438 80.2344,234.3438 C79.9375,234.3438 79.7344,234.4375 79.5156,234.75 L79.3438,234.6719 Z " fill="#000000"/><text fill="#000000" font-family="sans-serif" font-size="12" lengthAdjust="spacing" textLength="67" x="91" y="243.1543">FilterGroup</text><line style="stroke:#A80036;stroke-width:1.5;" x1="63" x2="160" y1="255" y2="255"/><line style="stroke:#A80036;stroke-width:1.5;" x1="63" x2="160" y1="263" y2="263"/><!--MD5=[41314a0efc36828092cff9ebad2fcafd]
class Group--><rect fill="#FEFECE" filter="url(#f1f5fpbt5a3hdv)" height="48" id="Group" style="stroke:#A80036;stroke-width:1.5;" width="69" x="77" y="115"/><ellipse cx="92" cy="131" fill="#ADD1B2" rx="11" ry="11" style="stroke:#A80036;stroke-width:1.0;"/><path d="M94.3438,126.6719 C93.4063,126.2344 92.8125,126.0938 91.9375,126.0938 C89.3125,126.0938 87.3125,128.1719 87.3125,130.8906 L87.3125,132.0156 C87.3125,134.5938 89.4219,136.4844 92.3125,136.4844 C93.5313,136.4844 94.6875,136.1875 95.4375,135.6406 C96.0156,135.2344 96.3438,134.7813 96.3438,134.3906 C96.3438,133.9375 95.9531,133.5469 95.4844,133.5469 C95.2656,133.5469 95.0625,133.625 94.875,133.8125 C94.4219,134.2969 94.4219,134.2969 94.2344,134.3906 C93.8125,134.6563 93.125,134.7813 92.3594,134.7813 C90.3125,134.7813 89.0156,133.6875 89.0156,131.9844 L89.0156,130.8906 C89.0156,129.1094 90.2656,127.7969 92,127.7969 C92.5781,127.7969 93.1875,127.9531 93.6563,128.2031 C94.1406,128.4844 94.3125,128.7031 94.4063,129.1094 C94.4688,129.5156 94.5,129.6406 94.6406,129.7656 C94.7813,129.9063 95.0156,130.0156 95.2344,130.0156 C95.5,130.0156 95.7656,129.875 95.9375,129.6563 C96.0469,129.5 96.0781,129.3125 96.0781,128.8906 L96.0781,127.4688 C96.0781,127.0313 96.0625,126.9063 95.9688,126.75 C95.8125,126.4844 95.5313,126.3438 95.2344,126.3438 C94.9375,126.3438 94.7344,126.4375 94.5156,126.75 L94.3438,126.6719 Z " fill="#000000"/><text fill="#000000" font-family="sans-serif" font-size="12" lengthAdjust="spacing" textLength="37" x="106" y="135.1543">Group</text><line style="stroke:#A80036;stroke-width:1.5;" x1="78" x2="145" y1="147" y2="147"/><line style="stroke:#A80036;stroke-width:1.5;" x1="78" x2="145" y1="155" y2="155"/><!--MD5=[e2f11d1444f8223077e324684d958141]
class _BoundFilterGroup--><rect fill="#FEFECE" filter="url(#f1f5fpbt5a3hdv)" height="48" id="_BoundFilterGroup" style="stroke:#A80036;stroke-width:1.5;" width="143" x="7" y="331"/><ellipse cx="22" cy="347" fill="#ADD1B2" rx="11" ry="11" style="stroke:#A80036;stroke-width:1.0;"/><path d="M24.3438,342.6719 C23.4063,342.2344 22.8125,342.0938 21.9375,342.0938 C19.3125,342.0938 17.3125,344.1719 17.3125,346.8906 L17.3125,348.0156 C17.3125,350.5938 19.4219,352.4844 22.3125,352.4844 C23.5313,352.4844 24.6875,352.1875 25.4375,351.6406 C26.0156,351.2344 26.3438,350.7813 26.3438,350.3906 C26.3438,349.9375 25.9531,349.5469 25.4844,349.5469 C25.2656,349.5469 25.0625,349.625 24.875,349.8125 C24.4219,350.2969 24.4219,350.2969 24.2344,350.3906 C23.8125,350.6563 23.125,350.7813 22.3594,350.7813 C20.3125,350.7813 19.0156,349.6875 19.0156,347.9844 L19.0156,346.8906 C19.0156,345.1094 20.2656,343.7969 22,343.7969 C22.5781,343.7969 23.1875,343.9531 23.6563,344.2031 C24.1406,344.4844 24.3125,344.7031 24.4063,345.1094 C24.4688,345.5156 24.5,345.6406 24.6406,345.7656 C24.7813,345.9063 25.0156,346.0156 25.2344,346.0156 C25.5,346.0156 25.7656,345.875 25.9375,345.6563 C26.0469,345.5 26.0781,345.3125 26.0781,344.8906 L26.0781,343.4688 C26.0781,343.0313 26.0625,342.9063 25.9688,342.75 C25.8125,342.4844 25.5313,342.3438 25.2344,342.3438 C24.9375,342.3438 24.7344,342.4375 24.5156,342.75 L24.3438,342.6719 Z " fill="#000000"/><text fill="#000000" font-family="sans-serif" font-size="12" lengthAdjust="spacing" textLength="111" x="36" y="351.1543">_BoundFilterGroup</text><line style="stroke:#A80036;stroke-width:1.5;" x1="8" x2="149" y1="363" y2="363"/><line style="stroke:#A80036;stroke-width:1.5;" x1="8" x2="149" y1="371" y2="371"/><!--MD5=[5d786f21dd1dc2e09913d715993b0a14]
class ROIFilter--><rect fill="#FEFECE" filter="url(#f1f5fpbt5a3hdv)" height="48" id="ROIFilter" style="stroke:#A80036;stroke-width:1.5;" width="82" x="388.5" y="223"/><ellipse cx="403.5" cy="239" fill="#ADD1B2" rx="11" ry="11" style="stroke:#A80036;stroke-width:1.0;"/><path d="M405.8438,234.6719 C404.9063,234.2344 404.3125,234.0938 403.4375,234.0938 C400.8125,234.0938 398.8125,236.1719 398.8125,238.8906 L398.8125,240.0156 C398.8125,242.5938 400.9219,244.4844 403.8125,244.4844 C405.0313,244.4844 406.1875,244.1875 406.9375,243.6406 C407.5156,243.2344 407.8438,242.7813 407.8438,242.3906 C407.8438,241.9375 407.4531,241.5469 406.9844,241.5469 C406.7656,241.5469 406.5625,241.625 406.375,241.8125 C405.9219,242.2969 405.9219,242.2969 405.7344,242.3906 C405.3125,242.6563 404.625,242.7813 403.8594,242.7813 C401.8125,242.7813 400.5156,241.6875 400.5156,239.9844 L400.5156,238.8906 C400.5156,237.1094 401.7656,235.7969 403.5,235.7969 C404.0781,235.7969 404.6875,235.9531 405.1563,236.2031 C405.6406,236.4844 405.8125,236.7031 405.9063,237.1094 C405.9688,237.5156 406,237.6406 406.1406,237.7656 C406.2813,237.9063 406.5156,238.0156 406.7344,238.0156 C407,238.0156 407.2656,237.875 407.4375,237.6563 C407.5469,237.5 407.5781,237.3125 407.5781,236.8906 L407.5781,235.4688 C407.5781,235.0313 407.5625,234.9063 407.4688,234.75 C407.3125,234.4844 407.0313,234.3438 406.7344,234.3438 C406.4375,234.3438 406.2344,234.4375 406.0156,234.75 L405.8438,234.6719 Z " fill="#000000"/><text fill="#000000" font-family="sans-serif" font-size="12" lengthAdjust="spacing" textLength="50" x="417.5" y="243.1543">ROIFilter</text><line style="stroke:#A80036;stroke-width:1.5;" x1="389.5" x2="469.5" y1="255" y2="255"/><line style="stroke:#A80036;stroke-width:1.5;" x1="389.5" x2="469.5" y1="263" y2="263"/><!--MD5=[a2e7e63d12c480377e267982a5b70fd5]
class TimeFilter--><rect fill="#FEFECE" filter="url(#f1f5fpbt5a3hdv)" height="48" id="TimeFilter" style="stroke:#A80036;stroke-width:1.5;" width="91" x="908" y="223"/><ellipse cx="923" cy="239" fill="#ADD1B2" rx="11" ry="11" style="stroke:#A80036;stroke-width:1.0;"/><path d="M925.3438,234.6719 C924.4063,234.2344 923.8125,234.0938 922.9375,234.0938 C920.3125,234.0938 918.3125,236.1719 918.3125,238.8906 L918.3125,240.0156 C918.3125,242.5938 920.4219,244.4844 923.3125,244.4844 C924.5313,244.4844 925.6875,244.1875 926.4375,243.6406 C927.0156,243.2344 927.3438,242.7813 927.3438,242.3906 C927.3438,241.9375 926.9531,241.5469 926.4844,241.5469 C926.2656,241.5469 926.0625,241.625 925.875,241.8125 C925.4219,242.2969 925.4219,242.2969 925.2344,242.3906 C924.8125,242.6563 924.125,242.7813 923.3594,242.7813 C921.3125,242.7813 920.0156,241.6875 920.0156,239.9844 L920.0156,238.8906 C920.0156,237.1094 921.2656,235.7969 923,235.7969 C923.5781,235.7969 924.1875,235.9531 924.6563,236.2031 C925.1406,236.4844 925.3125,236.7031 925.4063,237.1094 C925.4688,237.5156 925.5,237.6406 925.6406,237.7656 C925.7813,237.9063 926.0156,238.0156 926.2344,238.0156 C926.5,238.0156 926.7656,237.875 926.9375,237.6563 C927.0469,237.5 927.0781,237.3125 927.0781,236.8906 L927.0781,235.4688 C927.0781,235.0313 927.0625,234.9063 926.9688,234.75 C926.8125,234.4844 926.5313,234.3438 926.2344,234.3438 C925.9375,234.3438 925.7344,234.4375 925.5156,234.75 L925.3438,234.6719 Z " fill="#000000"/><text fill="#000000" font-family="sans-serif" font-size="12" lengthAdjust="spacing" textLength="59" x="937" y="243.1543">TimeFilter</text><line style="stroke:#A80036;stroke-width:1.5;" x1="909" x2="998" y1="255" y2="255"/><line style="stroke:#A80036;stroke-width:1.5;" x1="909" x2="998" y1="263" y2="263"/><!--MD5=[72691f73201b8d212667401955800d25]
class _IndexIdentity--><rect fill="#FEFECE" filter="url(#f1f5fpbt5a3hdv)" height="48" id="_IndexIdentity" style="stroke:#A80036;stroke-width:1.5;" width="115" x="357" y="331"/><ellipse cx="372" cy="347" fill="#ADD1B2" rx="11" ry="11" style="stroke:#A80036;stroke-width:1.0;"/><path d="M374.3438,342.6719 C373.4063,342.2344 372.8125,342.0938 371.9375,342.0938 C369.3125,342.0938 367.3125,344.1719 367.3125,346.8906 L367.3125,348.0156 C367.3125,350.5938 369.4219,352.4844 372.3125,352.4844 C373.5313,352.4844 374.6875,352.1875 375.4375,351.6406 C376.0156,351.2344 376.3438,350.7813 376.3438,350.3906 C376.3438,349.9375 375.9531,349.5469 375.4844,349.5469 C375.2656,349.5469 375.0625,349.625 374.875,349.8125 C374.4219,350.2969 374.4219,350.2969 374.2344,350.3906 C373.8125,350.6563 373.125,350.7813 372.3594,350.7813 C370.3125,350.7813 369.0156,349.6875 369.0156,347.9844 L369.0156,346.8906 C369.0156,345.1094 370.2656,343.7969 372,343.7969 C372.5781,343.7969 373.1875,343.9531 373.6563,344.2031 C374.1406,344.4844 374.3125,344.7031 374.4063,345.1094 C374.4688,345.5156 374.5,345.6406 374.6406,345.7656 C374.7813,345.9063 375.0156,346.0156 375.2344,346.0156 C375.5,346.0156 375.7656,345.875 375.9375,345.6563 C376.0469,345.5 376.0781,345.3125 376.0781,344.8906 L376.0781,343.4688 C376.0781,343.0313 376.0625,342.9063 375.9688,342.75 C375.8125,342.4844 375.5313,342.3438 375.2344,342.3438 C374.9375,342.3438 374.7344,342.4375 374.5156,342.75 L374.3438,342.6719 Z " fill="#000000"/><text fill="#000000" font-family="sans-serif" font-size="12" lengthAdjust="spacing" textLength="83" x="386" y="351.1543">_IndexIdentity</text><line style="stroke:#A80036;stroke-width:1.5;" x1="358" x2="471" y1="363" y2="363"/><line style="stroke:#A80036;stroke-width:1.5;" x1="358" x2="471" y1="371" y2="371"/><!--MD5=[24cfeb77a5b464d70d15d5c80c241a53]
class _ColumnIdentity--><rect fill="#FEFECE" filter="url(#f1f5fpbt5a3hdv)" height="48" id="_ColumnIdentity" style="stroke:#A80036;stroke-width:1.5;" width="126" x="963.5" y="331"/><ellipse cx="978.5" cy="347" fill="#ADD1B2" rx="11" ry="11" style="stroke:#A80036;stroke-width:1.0;"/><path d="M980.8438,342.6719 C979.9063,342.2344 979.3125,342.0938 978.4375,342.0938 C975.8125,342.0938 973.8125,344.1719 973.8125,346.8906 L973.8125,348.0156 C973.8125,350.5938 975.9219,352.4844 978.8125,352.4844 C980.0313,352.4844 981.1875,352.1875 981.9375,351.6406 C982.5156,351.2344 982.8438,350.7813 982.8438,350.3906 C982.8438,349.9375 982.4531,349.5469 981.9844,349.5469 C981.7656,349.5469 981.5625,349.625 981.375,349.8125 C980.9219,350.2969 980.9219,350.2969 980.7344,350.3906 C980.3125,350.6563 979.625,350.7813 978.8594,350.7813 C976.8125,350.7813 975.5156,349.6875 975.5156,347.9844 L975.5156,346.8906 C975.5156,345.1094 976.7656,343.7969 978.5,343.7969 C979.0781,343.7969 979.6875,343.9531 980.1563,344.2031 C980.6406,344.4844 980.8125,344.7031 980.9063,345.1094 C980.9688,345.5156 981,345.6406 981.1406,345.7656 C981.2813,345.9063 981.5156,346.0156 981.7344,346.0156 C982,346.0156 982.2656,345.875 982.4375,345.6563 C982.5469,345.5 982.5781,345.3125 982.5781,344.8906 L982.5781,343.4688 C982.5781,343.0313 982.5625,342.9063 982.4688,342.75 C982.3125,342.4844 982.0313,342.3438 981.7344,342.3438 C981.4375,342.3438 981.2344,342.4375 981.0156,342.75 L980.8438,342.6719 Z " fill="#000000"/><text fill="#000000" font-family="sans-serif" font-size="12" lengthAdjust="spacing" textLength="94" x="992.5" y="351.1543">_ColumnIdentity</text><line style="stroke:#A80036;stroke-width:1.5;" x1="964.5" x2="1088.5" y1="363" y2="363"/><line style="stroke:#A80036;stroke-width:1.5;" x1="964.5" x2="1088.5" y1="371" y2="371"/><!--MD5=[a2883c055380f8ae8320b5bbf6c153b9]
class ClassifierROIFilter--><rect fill="#FEFECE" filter="url(#f1f5fpbt5a3hdv)" height="48" id="ClassifierROIFilter" style="stroke:#A80036;stroke-width:1.5;" width="137" x="185" y="331"/><ellipse cx="200" cy="347" fill="#ADD1B2" rx="11" ry="11" style="stroke:#A80036;stroke-width:1.0;"/><path d="M202.3438,342.6719 C201.4063,342.2344 200.8125,342.0938 199.9375,342.0938 C197.3125,342.0938 195.3125,344.1719 195.3125,346.8906 L195.3125,348.0156 C195.3125,350.5938 197.4219,352.4844 200.3125,352.4844 C201.5313,352.4844 202.6875,352.1875 203.4375,351.6406 C204.0156,351.2344 204.3438,350.7813 204.3438,350.3906 C204.3438,349.9375 203.9531,349.5469 203.4844,349.5469 C203.2656,349.5469 203.0625,349.625 202.875,349.8125 C202.4219,350.2969 202.4219,350.2969 202.2344,350.3906 C201.8125,350.6563 201.125,350.7813 200.3594,350.7813 C198.3125,350.7813 197.0156,349.6875 197.0156,347.9844 L197.0156,346.8906 C197.0156,345.1094 198.2656,343.7969 200,343.7969 C200.5781,343.7969 201.1875,343.9531 201.6563,344.2031 C202.1406,344.4844 202.3125,344.7031 202.4063,345.1094 C202.4688,345.5156 202.5,345.6406 202.6406,345.7656 C202.7813,345.9063 203.0156,346.0156 203.2344,346.0156 C203.5,346.0156 203.7656,345.875 203.9375,345.6563 C204.0469,345.5 204.0781,345.3125 204.0781,344.8906 L204.0781,343.4688 C204.0781,343.0313 204.0625,342.9063 203.9688,342.75 C203.8125,342.4844 203.5313,342.3438 203.2344,342.3438 C202.9375,342.3438 202.7344,342.4375 202.5156,342.75 L202.3438,342.6719 Z " fill="#000000"/><text fill="#000000" font-family="sans-serif" font-size="12" lengthAdjust="spacing" textLength="105" x="214" y="351.1543">ClassifierROIFilter</text><line style="stroke:#A80036;stroke-width:1.5;" x1="186" x2="321" y1="363" y2="363"/><line style="stroke:#A80036;stroke-width:1.5;" x1="186" x2="321" y1="371" y2="371"/><!--MD5=[5473e91c0bd3687a61164d0fa16c9e03]
class ResponsivenessFilter--><rect fill="#FEFECE" filter="url(#f1f5fpbt5a3hdv)" height="48" id="ResponsivenessFilter" style="stroke:#A80036;stroke-width:1.5;" width="161" x="507" y="331"/><ellipse cx="522" cy="347" fill="#ADD1B2" rx="11" ry="11" style="stroke:#A80036;stroke-width:1.0;"/><path d="M524.3438,342.6719 C523.4063,342.2344 522.8125,342.0938 521.9375,342.0938 C519.3125,342.0938 517.3125,344.1719 517.3125,346.8906 L517.3125,348.0156 C517.3125,350.5938 519.4219,352.4844 522.3125,352.4844 C523.5313,352.4844 524.6875,352.1875 525.4375,351.6406 C526.0156,351.2344 526.3438,350.7813 526.3438,350.3906 C526.3438,349.9375 525.9531,349.5469 525.4844,349.5469 C525.2656,349.5469 525.0625,349.625 524.875,349.8125 C524.4219,350.2969 524.4219,350.2969 524.2344,350.3906 C523.8125,350.6563 523.125,350.7813 522.3594,350.7813 C520.3125,350.7813 519.0156,349.6875 519.0156,347.9844 L519.0156,346.8906 C519.0156,345.1094 520.2656,343.7969 522,343.7969 C522.5781,343.7969 523.1875,343.9531 523.6563,344.2031 C524.1406,344.4844 524.3125,344.7031 524.4063,345.1094 C524.4688,345.5156 524.5,345.6406 524.6406,345.7656 C524.7813,345.9063 525.0156,346.0156 525.2344,346.0156 C525.5,346.0156 525.7656,345.875 525.9375,345.6563 C526.0469,345.5 526.0781,345.3125 526.0781,344.8906 L526.0781,343.4688 C526.0781,343.0313 526.0625,342.9063 525.9688,342.75 C525.8125,342.4844 525.5313,342.3438 525.2344,342.3438 C524.9375,342.3438 524.7344,342.4375 524.5156,342.75 L524.3438,342.6719 Z " fill="#000000"/><text fill="#000000" font-family="sans-serif" font-size="12" lengthAdjust="spacing" textLength="129" x="536" y="351.1543">ResponsivenessFilter</text><line style="stroke:#A80036;stroke-width:1.5;" x1="508" x2="667" y1="363" y2="363"/><line style="stroke:#A80036;stroke-width:1.5;" x1="508" x2="667" y1="371" y2="371"/><!--MD5=[b0d98c59f54d966784f1e0dab13e2eac]
class Responsiveness--><rect fill="#FEFECE" filter="url(#f1f5fpbt5a3hdv)" height="48" id="Responsiveness" style="stroke:#A80036;stroke-width:1.5;" width="131" x="522" y="223"/><ellipse cx="537" cy="239" fill="#ADD1B2" rx="11" ry="11" style="stroke:#A80036;stroke-width:1.0;"/><path d="M539.3438,234.6719 C538.4063,234.2344 537.8125,234.0938 536.9375,234.0938 C534.3125,234.0938 532.3125,236.1719 532.3125,238.8906 L532.3125,240.0156 C532.3125,242.5938 534.4219,244.4844 537.3125,244.4844 C538.5313,244.4844 539.6875,244.1875 540.4375,243.6406 C541.0156,243.2344 541.3438,242.7813 541.3438,242.3906 C541.3438,241.9375 540.9531,241.5469 540.4844,241.5469 C540.2656,241.5469 540.0625,241.625 539.875,241.8125 C539.4219,242.2969 539.4219,242.2969 539.2344,242.3906 C538.8125,242.6563 538.125,242.7813 537.3594,242.7813 C535.3125,242.7813 534.0156,241.6875 534.0156,239.9844 L534.0156,238.8906 C534.0156,237.1094 535.2656,235.7969 537,235.7969 C537.5781,235.7969 538.1875,235.9531 538.6563,236.2031 C539.1406,236.4844 539.3125,236.7031 539.4063,237.1094 C539.4688,237.5156 539.5,237.6406 539.6406,237.7656 C539.7813,237.9063 540.0156,238.0156 540.2344,238.0156 C540.5,238.0156 540.7656,237.875 540.9375,237.6563 C541.0469,237.5 541.0781,237.3125 541.0781,236.8906 L541.0781,235.4688 C541.0781,235.0313 541.0625,234.9063 540.9688,234.75 C540.8125,234.4844 540.5313,234.3438 540.2344,234.3438 C539.9375,234.3438 539.7344,234.4375 539.5156,234.75 L539.3438,234.6719 Z " fill="#000000"/><text fill="#000000" font-family="sans-serif" font-size="12" lengthAdjust="spacing" textLength="99" x="551" y="243.1543">Responsiveness</text><line style="stroke:#A80036;stroke-width:1.5;" x1="523" x2="652" y1="255" y2="255"/><line style="stroke:#A80036;stroke-width:1.5;" x1="523" x2="652" y1="263" y2="263"/><!--MD5=[aa7941b60b03c9183c5954bf2012905c]
class IsPlaceCell--><rect fill="#FEFECE" filter="url(#f1f5fpbt5a3hdv)" height="48" id="IsPlaceCell" style="stroke:#A80036;stroke-width:1.5;" width="95" x="703" y="331"/><ellipse cx="718" cy="347" fill="#ADD1B2" rx="11" ry="11" style="stroke:#A80036;stroke-width:1.0;"/><path d="M720.3438,342.6719 C719.4063,342.2344 718.8125,342.0938 717.9375,342.0938 C715.3125,342.0938 713.3125,344.1719 713.3125,346.8906 L713.3125,348.0156 C713.3125,350.5938 715.4219,352.4844 718.3125,352.4844 C719.5313,352.4844 720.6875,352.1875 721.4375,351.6406 C722.0156,351.2344 722.3438,350.7813 722.3438,350.3906 C722.3438,349.9375 721.9531,349.5469 721.4844,349.5469 C721.2656,349.5469 721.0625,349.625 720.875,349.8125 C720.4219,350.2969 720.4219,350.2969 720.2344,350.3906 C719.8125,350.6563 719.125,350.7813 718.3594,350.7813 C716.3125,350.7813 715.0156,349.6875 715.0156,347.9844 L715.0156,346.8906 C715.0156,345.1094 716.2656,343.7969 718,343.7969 C718.5781,343.7969 719.1875,343.9531 719.6563,344.2031 C720.1406,344.4844 720.3125,344.7031 720.4063,345.1094 C720.4688,345.5156 720.5,345.6406 720.6406,345.7656 C720.7813,345.9063 721.0156,346.0156 721.2344,346.0156 C721.5,346.0156 721.7656,345.875 721.9375,345.6563 C722.0469,345.5 722.0781,345.3125 722.0781,344.8906 L722.0781,343.4688 C722.0781,343.0313 722.0625,342.9063 721.9688,342.75 C721.8125,342.4844 721.5313,342.3438 721.2344,342.3438 C720.9375,342.3438 720.7344,342.4375 720.5156,342.75 L720.3438,342.6719 Z " fill="#000000"/><text fill="#000000" font-family="sans-serif" font-size="12" lengthAdjust="spacing" textLength="63" x="732" y="351.1543">IsPlaceCell</text><line style="stroke:#A80036;stroke-width:1.5;" x1="704" x2="797" y1="363" y2="363"/><line style="stroke:#A80036;stroke-width:1.5;" x1="704" x2="797" y1="371" y2="371"/><!--MD5=[fb5ea3f8c07eb0839cc446eb7b9364c7]
class PlaceFields--><rect fill="#FEFECE" filter="url(#f1f5fpbt5a3hdv)" height="48" id="PlaceFields" style="stroke:#A80036;stroke-width:1.5;" width="99" x="701" y="223"/><ellipse cx="716" cy="239" fill="#ADD1B2" rx="11" ry="11" style="stroke:#A80036;stroke-width:1.0;"/><path d="M718.3438,234.6719 C717.4063,234.2344 716.8125,234.0938 715.9375,234.0938 C713.3125,234.0938 711.3125,236.1719 711.3125,238.8906 L711.3125,240.0156 C711.3125,242.5938 713.4219,244.4844 716.3125,244.4844 C717.5313,244.4844 718.6875,244.1875 719.4375,243.6406 C720.0156,243.2344 720.3438,242.7813 720.3438,242.3906 C720.3438,241.9375 719.9531,241.5469 719.4844,241.5469 C719.2656,241.5469 719.0625,241.625 718.875,241.8125 C718.4219,242.2969 718.4219,242.2969 718.2344,242.3906 C717.8125,242.6563 717.125,242.7813 716.3594,242.7813 C714.3125,242.7813 713.0156,241.6875 713.0156,239.9844 L713.0156,238.8906 C713.0156,237.1094 714.2656,235.7969 716,235.7969 C716.5781,235.7969 717.1875,235.9531 717.6563,236.2031 C718.1406,236.4844 718.3125,236.7031 718.4063,237.1094 C718.4688,237.5156 718.5,237.6406 718.6406,237.7656 C718.7813,237.9063 719.0156,238.0156 719.2344,238.0156 C719.5,238.0156 719.7656,237.875 719.9375,237.6563 C720.0469,237.5 720.0781,237.3125 720.0781,236.8906 L720.0781,235.4688 C720.0781,235.0313 720.0625,234.9063 719.9688,234.75 C719.8125,234.4844 719.5313,234.3438 719.2344,234.3438 C718.9375,234.3438 718.7344,234.4375 718.5156,234.75 L718.3438,234.6719 Z " fill="#000000"/><text fill="#000000" font-family="sans-serif" font-size="12" lengthAdjust="spacing" textLength="67" x="730" y="243.1543">PlaceFields</text><line style="stroke:#A80036;stroke-width:1.5;" x1="702" x2="799" y1="255" y2="255"/><line style="stroke:#A80036;stroke-width:1.5;" x1="702" x2="799" y1="263" y2="263"/><!--MD5=[21913e2e6567ee27d975e106f5f2a52f]
class IsInterneuron--><rect fill="#FEFECE" filter="url(#f1f5fpbt5a3hdv)" height="48" id="IsInterneuron" style="stroke:#A80036;stroke-width:1.5;" width="111" x="198" y="439"/><ellipse cx="213" cy="455" fill="#ADD1B2" rx="11" ry="11" style="stroke:#A80036;stroke-width:1.0;"/><path d="M215.3438,450.6719 C214.4063,450.2344 213.8125,450.0938 212.9375,450.0938 C210.3125,450.0938 208.3125,452.1719 208.3125,454.8906 L208.3125,456.0156 C208.3125,458.5938 210.4219,460.4844 213.3125,460.4844 C214.5313,460.4844 215.6875,460.1875 216.4375,459.6406 C217.0156,459.2344 217.3438,458.7813 217.3438,458.3906 C217.3438,457.9375 216.9531,457.5469 216.4844,457.5469 C216.2656,457.5469 216.0625,457.625 215.875,457.8125 C215.4219,458.2969 215.4219,458.2969 215.2344,458.3906 C214.8125,458.6563 214.125,458.7813 213.3594,458.7813 C211.3125,458.7813 210.0156,457.6875 210.0156,455.9844 L210.0156,454.8906 C210.0156,453.1094 211.2656,451.7969 213,451.7969 C213.5781,451.7969 214.1875,451.9531 214.6563,452.2031 C215.1406,452.4844 215.3125,452.7031 215.4063,453.1094 C215.4688,453.5156 215.5,453.6406 215.6406,453.7656 C215.7813,453.9063 216.0156,454.0156 216.2344,454.0156 C216.5,454.0156 216.7656,453.875 216.9375,453.6563 C217.0469,453.5 217.0781,453.3125 217.0781,452.8906 L217.0781,451.4688 C217.0781,451.0313 217.0625,450.9063 216.9688,450.75 C216.8125,450.4844 216.5313,450.3438 216.2344,450.3438 C215.9375,450.3438 215.7344,450.4375 215.5156,450.75 L215.3438,450.6719 Z " fill="#000000"/><text fill="#000000" font-family="sans-serif" font-size="12" lengthAdjust="spacing" textLength="79" x="227" y="459.1543">IsInterneuron</text><line style="stroke:#A80036;stroke-width:1.5;" x1="199" x2="308" y1="471" y2="471"/><line style="stroke:#A80036;stroke-width:1.5;" x1="199" x2="308" y1="479" y2="479"/><!--MD5=[4f7ea3b56194e80168a440d000ea42fc]
class PlaceFieldLocationFilter--><rect fill="#FEFECE" filter="url(#f1f5fpbt5a3hdv)" height="48" id="PlaceFieldLocationFilter" style="stroke:#A80036;stroke-width:1.5;" width="172" x="629.5" y="439"/><ellipse cx="644.5" cy="455" fill="#ADD1B2" rx="11" ry="11" style="stroke:#A80036;stroke-width:1.0;"/><path d="M646.8438,450.6719 C645.9063,450.2344 645.3125,450.0938 644.4375,450.0938 C641.8125,450.0938 639.8125,452.1719 639.8125,454.8906 L639.8125,456.0156 C639.8125,458.5938 641.9219,460.4844 644.8125,460.4844 C646.0313,460.4844 647.1875,460.1875 647.9375,459.6406 C648.5156,459.2344 648.8438,458.7813 648.8438,458.3906 C648.8438,457.9375 648.4531,457.5469 647.9844,457.5469 C647.7656,457.5469 647.5625,457.625 647.375,457.8125 C646.9219,458.2969 646.9219,458.2969 646.7344,458.3906 C646.3125,458.6563 645.625,458.7813 644.8594,458.7813 C642.8125,458.7813 641.5156,457.6875 641.5156,455.9844 L641.5156,454.8906 C641.5156,453.1094 642.7656,451.7969 644.5,451.7969 C645.0781,451.7969 645.6875,451.9531 646.1563,452.2031 C646.6406,452.4844 646.8125,452.7031 646.9063,453.1094 C646.9688,453.5156 647,453.6406 647.1406,453.7656 C647.2813,453.9063 647.5156,454.0156 647.7344,454.0156 C648,454.0156 648.2656,453.875 648.4375,453.6563 C648.5469,453.5 648.5781,453.3125 648.5781,452.8906 L648.5781,451.4688 C648.5781,451.0313 648.5625,450.9063 648.4688,450.75 C648.3125,450.4844 648.0313,450.3438 647.7344,450.3438 C647.4375,450.3438 647.2344,450.4375 647.0156,450.75 L646.8438,450.6719 Z " fill="#000000"/><text fill="#000000" font-family="sans-serif" font-size="12" lengthAdjust="spacing" textLength="140" x="658.5" y="459.1543">PlaceFieldLocationFilter</text><line style="stroke:#A80036;stroke-width:1.5;" x1="630.5" x2="800.5" y1="471" y2="471"/><line style="stroke:#A80036;stroke-width:1.5;" x1="630.5" x2="800.5" y1="479" y2="479"/><!--MD5=[86be7f82cdd3cde6393edcdb445f389b]
class PlaceFieldStart--><rect fill="#FEFECE" filter="url(#f1f5fpbt5a3hdv)" height="48" id="PlaceFieldStart" style="stroke:#A80036;stroke-width:1.5;" width="120" x="577.5" y="547"/><ellipse cx="592.5" cy="563" fill="#ADD1B2" rx="11" ry="11" style="stroke:#A80036;stroke-width:1.0;"/><path d="M594.8438,558.6719 C593.9063,558.2344 593.3125,558.0938 592.4375,558.0938 C589.8125,558.0938 587.8125,560.1719 587.8125,562.8906 L587.8125,564.0156 C587.8125,566.5938 589.9219,568.4844 592.8125,568.4844 C594.0313,568.4844 595.1875,568.1875 595.9375,567.6406 C596.5156,567.2344 596.8438,566.7813 596.8438,566.3906 C596.8438,565.9375 596.4531,565.5469 595.9844,565.5469 C595.7656,565.5469 595.5625,565.625 595.375,565.8125 C594.9219,566.2969 594.9219,566.2969 594.7344,566.3906 C594.3125,566.6563 593.625,566.7813 592.8594,566.7813 C590.8125,566.7813 589.5156,565.6875 589.5156,563.9844 L589.5156,562.8906 C589.5156,561.1094 590.7656,559.7969 592.5,559.7969 C593.0781,559.7969 593.6875,559.9531 594.1563,560.2031 C594.6406,560.4844 594.8125,560.7031 594.9063,561.1094 C594.9688,561.5156 595,561.6406 595.1406,561.7656 C595.2813,561.9063 595.5156,562.0156 595.7344,562.0156 C596,562.0156 596.2656,561.875 596.4375,561.6563 C596.5469,561.5 596.5781,561.3125 596.5781,560.8906 L596.5781,559.4688 C596.5781,559.0313 596.5625,558.9063 596.4688,558.75 C596.3125,558.4844 596.0313,558.3438 595.7344,558.3438 C595.4375,558.3438 595.2344,558.4375 595.0156,558.75 L594.8438,558.6719 Z " fill="#000000"/><text fill="#000000" font-family="sans-serif" font-size="12" lengthAdjust="spacing" textLength="88" x="606.5" y="567.1543">PlaceFieldStart</text><line style="stroke:#A80036;stroke-width:1.5;" x1="578.5" x2="696.5" y1="579" y2="579"/><line style="stroke:#A80036;stroke-width:1.5;" x1="578.5" x2="696.5" y1="587" y2="587"/><!--MD5=[b4652c6e696d89d4e6b41efe01dbba8f]
class PlaceFieldStop--><rect fill="#FEFECE" filter="url(#f1f5fpbt5a3hdv)" height="48" id="PlaceFieldStop" style="stroke:#A80036;stroke-width:1.5;" width="120" x="732.5" y="547"/><ellipse cx="747.5" cy="563" fill="#ADD1B2" rx="11" ry="11" style="stroke:#A80036;stroke-width:1.0;"/><path d="M749.8438,558.6719 C748.9063,558.2344 748.3125,558.0938 747.4375,558.0938 C744.8125,558.0938 742.8125,560.1719 742.8125,562.8906 L742.8125,564.0156 C742.8125,566.5938 744.9219,568.4844 747.8125,568.4844 C749.0313,568.4844 750.1875,568.1875 750.9375,567.6406 C751.5156,567.2344 751.8438,566.7813 751.8438,566.3906 C751.8438,565.9375 751.4531,565.5469 750.9844,565.5469 C750.7656,565.5469 750.5625,565.625 750.375,565.8125 C749.9219,566.2969 749.9219,566.2969 749.7344,566.3906 C749.3125,566.6563 748.625,566.7813 747.8594,566.7813 C745.8125,566.7813 744.5156,565.6875 744.5156,563.9844 L744.5156,562.8906 C744.5156,561.1094 745.7656,559.7969 747.5,559.7969 C748.0781,559.7969 748.6875,559.9531 749.1563,560.2031 C749.6406,560.4844 749.8125,560.7031 749.9063,561.1094 C749.9688,561.5156 750,561.6406 750.1406,561.7656 C750.2813,561.9063 750.5156,562.0156 750.7344,562.0156 C751,562.0156 751.2656,561.875 751.4375,561.6563 C751.5469,561.5 751.5781,561.3125 751.5781,560.8906 L751.5781,559.4688 C751.5781,559.0313 751.5625,558.9063 751.4688,558.75 C751.3125,558.4844 751.0313,558.3438 750.7344,558.3438 C750.4375,558.3438 750.2344,558.4375 750.0156,558.75 L749.8438,558.6719 Z " fill="#000000"/><text fill="#000000" font-family="sans-serif" font-size="12" lengthAdjust="spacing" textLength="88" x="761.5" y="567.1543">PlaceFieldStop</text><line style="stroke:#A80036;stroke-width:1.5;" x1="733.5" x2="851.5" y1="579" y2="579"/><line style="stroke:#A80036;stroke-width:1.5;" x1="733.5" x2="851.5" y1="587" y2="587"/><!--MD5=[eb0effe5fa33f09c4c6f9095d934775c]
class SpatialFilter--><rect fill="#FEFECE" filter="url(#f1f5fpbt5a3hdv)" height="48" id="SpatialFilter" style="stroke:#A80036;stroke-width:1.5;" width="102" x="1124.5" y="331"/><ellipse cx="1139.5" cy="347" fill="#ADD1B2" rx="11" ry="11" style="stroke:#A80036;stroke-width:1.0;"/><path d="M1141.8438,342.6719 C1140.9063,342.2344 1140.3125,342.0938 1139.4375,342.0938 C1136.8125,342.0938 1134.8125,344.1719 1134.8125,346.8906 L1134.8125,348.0156 C1134.8125,350.5938 1136.9219,352.4844 1139.8125,352.4844 C1141.0313,352.4844 1142.1875,352.1875 1142.9375,351.6406 C1143.5156,351.2344 1143.8438,350.7813 1143.8438,350.3906 C1143.8438,349.9375 1143.4531,349.5469 1142.9844,349.5469 C1142.7656,349.5469 1142.5625,349.625 1142.375,349.8125 C1141.9219,350.2969 1141.9219,350.2969 1141.7344,350.3906 C1141.3125,350.6563 1140.625,350.7813 1139.8594,350.7813 C1137.8125,350.7813 1136.5156,349.6875 1136.5156,347.9844 L1136.5156,346.8906 C1136.5156,345.1094 1137.7656,343.7969 1139.5,343.7969 C1140.0781,343.7969 1140.6875,343.9531 1141.1563,344.2031 C1141.6406,344.4844 1141.8125,344.7031 1141.9063,345.1094 C1141.9688,345.5156 1142,345.6406 1142.1406,345.7656 C1142.2813,345.9063 1142.5156,346.0156 1142.7344,346.0156 C1143,346.0156 1143.2656,345.875 1143.4375,345.6563 C1143.5469,345.5 1143.5781,345.3125 1143.5781,344.8906 L1143.5781,343.4688 C1143.5781,343.0313 1143.5625,342.9063 1143.4688,342.75 C1143.3125,342.4844 1143.0313,342.3438 1142.7344,342.3438 C1142.4375,342.3438 1142.2344,342.4375 1142.0156,342.75 L1141.8438,342.6719 Z " fill="#000000"/><text fill="#000000" font-family="sans-serif" font-size="12" lengthAdjust="spacing" textLength="70" x="1153.5" y="351.1543">SpatialFilter</text><line style="stroke:#A80036;stroke-width:1.5;" x1="1125.5" x2="1225.5" y1="363" y2="363"/><line style="stroke:#A80036;stroke-width:1.5;" x1="1125.5" x2="1225.5" y1="371" y2="371"/><!--MD5=[a7c80561d5291d16365ba0dc0ed20bc9]
class SpatialEvent--><rect fill="#FEFECE" filter="url(#f1f5fpbt5a3hdv)" height="48" id="SpatialEvent" style="stroke:#A80036;stroke-width:1.5;" width="105" x="1123" y="223"/><ellipse cx="1138" cy="239" fill="#ADD1B2" rx="11" ry="11" style="stroke:#A80036;stroke-width:1.0;"/><path d="M1140.3438,234.6719 C1139.4063,234.2344 1138.8125,234.0938 1137.9375,234.0938 C1135.3125,234.0938 1133.3125,236.1719 1133.3125,238.8906 L1133.3125,240.0156 C1133.3125,242.5938 1135.4219,244.4844 1138.3125,244.4844 C1139.5313,244.4844 1140.6875,244.1875 1141.4375,243.6406 C1142.0156,243.2344 1142.3438,242.7813 1142.3438,242.3906 C1142.3438,241.9375 1141.9531,241.5469 1141.4844,241.5469 C1141.2656,241.5469 1141.0625,241.625 1140.875,241.8125 C1140.4219,242.2969 1140.4219,242.2969 1140.2344,242.3906 C1139.8125,242.6563 1139.125,242.7813 1138.3594,242.7813 C1136.3125,242.7813 1135.0156,241.6875 1135.0156,239.9844 L1135.0156,238.8906 C1135.0156,237.1094 1136.2656,235.7969 1138,235.7969 C1138.5781,235.7969 1139.1875,235.9531 1139.6563,236.2031 C1140.1406,236.4844 1140.3125,236.7031 1140.4063,237.1094 C1140.4688,237.5156 1140.5,237.6406 1140.6406,237.7656 C1140.7813,237.9063 1141.0156,238.0156 1141.2344,238.0156 C1141.5,238.0156 1141.7656,237.875 1141.9375,237.6563 C1142.0469,237.5 1142.0781,237.3125 1142.0781,236.8906 L1142.0781,235.4688 C1142.0781,235.0313 1142.0625,234.9063 1141.9688,234.75 C1141.8125,234.4844 1141.5313,234.3438 1141.2344,234.3438 C1140.9375,234.3438 1140.7344,234.4375 1140.5156,234.75 L1140.3438,234.6719 Z " fill="#000000"/><text fill="#000000" font-family="sans-serif" font-size="12" lengthAdjust="spacing" textLength="73" x="1152" y="243.1543">SpatialEvent</text><line style="stroke:#A80036;stroke-width:1.5;" x1="1124" x2="1227" y1="255" y2="255"/><line style="stroke:#A80036;stroke-width:1.5;" x1="1124" x2="1227" y1="263" y2="263"/><!--MD5=[2380549e86782234038d641c9e7fd2b0]
class EventFilter--><rect fill="#FEFECE" filter="url(#f1f5fpbt5a3hdv)" height="48" id="EventFilter" style="stroke:#A80036;stroke-width:1.5;" width="95" x="833" y="331"/><ellipse cx="848" cy="347" fill="#ADD1B2" rx="11" ry="11" style="stroke:#A80036;stroke-width:1.0;"/><path d="M850.3438,342.6719 C849.4063,342.2344 848.8125,342.0938 847.9375,342.0938 C845.3125,342.0938 843.3125,344.1719 843.3125,346.8906 L843.3125,348.0156 C843.3125,350.5938 845.4219,352.4844 848.3125,352.4844 C849.5313,352.4844 850.6875,352.1875 851.4375,351.6406 C852.0156,351.2344 852.3438,350.7813 852.3438,350.3906 C852.3438,349.9375 851.9531,349.5469 851.4844,349.5469 C851.2656,349.5469 851.0625,349.625 850.875,349.8125 C850.4219,350.2969 850.4219,350.2969 850.2344,350.3906 C849.8125,350.6563 849.125,350.7813 848.3594,350.7813 C846.3125,350.7813 845.0156,349.6875 845.0156,347.9844 L845.0156,346.8906 C845.0156,345.1094 846.2656,343.7969 848,343.7969 C848.5781,343.7969 849.1875,343.9531 849.6563,344.2031 C850.1406,344.4844 850.3125,344.7031 850.4063,345.1094 C850.4688,345.5156 850.5,345.6406 850.6406,345.7656 C850.7813,345.9063 851.0156,346.0156 851.2344,346.0156 C851.5,346.0156 851.7656,345.875 851.9375,345.6563 C852.0469,345.5 852.0781,345.3125 852.0781,344.8906 L852.0781,343.4688 C852.0781,343.0313 852.0625,342.9063 851.9688,342.75 C851.8125,342.4844 851.5313,342.3438 851.2344,342.3438 C850.9375,342.3438 850.7344,342.4375 850.5156,342.75 L850.3438,342.6719 Z " fill="#000000"/><text fill="#000000" font-family="sans-serif" font-size="12" lengthAdjust="spacing" textLength="63" x="862" y="351.1543">EventFilter</text><line style="stroke:#A80036;stroke-width:1.5;" x1="834" x2="927" y1="363" y2="363"/><line style="stroke:#A80036;stroke-width:1.5;" x1="834" x2="927" y1="371" y2="371"/><!--MD5=[f916cc0dfc70978ef86a991e98a6f6b9]
class IsRunning--><rect fill="#FEFECE" filter="url(#f1f5fpbt5a3hdv)" height="48" id="IsRunning" style="stroke:#A80036;stroke-width:1.5;" width="88" x="836.5" y="439"/><ellipse cx="851.5" cy="455" fill="#ADD1B2" rx="11" ry="11" style="stroke:#A80036;stroke-width:1.0;"/><path d="M853.8438,450.6719 C852.9063,450.2344 852.3125,450.0938 851.4375,450.0938 C848.8125,450.0938 846.8125,452.1719 846.8125,454.8906 L846.8125,456.0156 C846.8125,458.5938 848.9219,460.4844 851.8125,460.4844 C853.0313,460.4844 854.1875,460.1875 854.9375,459.6406 C855.5156,459.2344 855.8438,458.7813 855.8438,458.3906 C855.8438,457.9375 855.4531,457.5469 854.9844,457.5469 C854.7656,457.5469 854.5625,457.625 854.375,457.8125 C853.9219,458.2969 853.9219,458.2969 853.7344,458.3906 C853.3125,458.6563 852.625,458.7813 851.8594,458.7813 C849.8125,458.7813 848.5156,457.6875 848.5156,455.9844 L848.5156,454.8906 C848.5156,453.1094 849.7656,451.7969 851.5,451.7969 C852.0781,451.7969 852.6875,451.9531 853.1563,452.2031 C853.6406,452.4844 853.8125,452.7031 853.9063,453.1094 C853.9688,453.5156 854,453.6406 854.1406,453.7656 C854.2813,453.9063 854.5156,454.0156 854.7344,454.0156 C855,454.0156 855.2656,453.875 855.4375,453.6563 C855.5469,453.5 855.5781,453.3125 855.5781,452.8906 L855.5781,451.4688 C855.5781,451.0313 855.5625,450.9063 855.4688,450.75 C855.3125,450.4844 855.0313,450.3438 854.7344,450.3438 C854.4375,450.3438 854.2344,450.4375 854.0156,450.75 L853.8438,450.6719 Z " fill="#000000"/><text fill="#000000" font-family="sans-serif" font-size="12" lengthAdjust="spacing" textLength="56" x="865.5" y="459.1543">IsRunning</text><line style="stroke:#A80036;stroke-width:1.5;" x1="837.5" x2="923.5" y1="471" y2="471"/><line style="stroke:#A80036;stroke-width:1.5;" x1="837.5" x2="923.5" y1="479" y2="479"/><!--MD5=[b69520e3b121b0d0c2630936e4cd55e0]
class InReward--><rect fill="#FEFECE" filter="url(#f1f5fpbt5a3hdv)" height="48" id="InReward" style="stroke:#A80036;stroke-width:1.5;" width="87" x="960" y="439"/><ellipse cx="975" cy="455" fill="#ADD1B2" rx="11" ry="11" style="stroke:#A80036;stroke-width:1.0;"/><path d="M977.3438,450.6719 C976.4063,450.2344 975.8125,450.0938 974.9375,450.0938 C972.3125,450.0938 970.3125,452.1719 970.3125,454.8906 L970.3125,456.0156 C970.3125,458.5938 972.4219,460.4844 975.3125,460.4844 C976.5313,460.4844 977.6875,460.1875 978.4375,459.6406 C979.0156,459.2344 979.3438,458.7813 979.3438,458.3906 C979.3438,457.9375 978.9531,457.5469 978.4844,457.5469 C978.2656,457.5469 978.0625,457.625 977.875,457.8125 C977.4219,458.2969 977.4219,458.2969 977.2344,458.3906 C976.8125,458.6563 976.125,458.7813 975.3594,458.7813 C973.3125,458.7813 972.0156,457.6875 972.0156,455.9844 L972.0156,454.8906 C972.0156,453.1094 973.2656,451.7969 975,451.7969 C975.5781,451.7969 976.1875,451.9531 976.6563,452.2031 C977.1406,452.4844 977.3125,452.7031 977.4063,453.1094 C977.4688,453.5156 977.5,453.6406 977.6406,453.7656 C977.7813,453.9063 978.0156,454.0156 978.2344,454.0156 C978.5,454.0156 978.7656,453.875 978.9375,453.6563 C979.0469,453.5 979.0781,453.3125 979.0781,452.8906 L979.0781,451.4688 C979.0781,451.0313 979.0625,450.9063 978.9688,450.75 C978.8125,450.4844 978.5313,450.3438 978.2344,450.3438 C977.9375,450.3438 977.7344,450.4375 977.5156,450.75 L977.3438,450.6719 Z " fill="#000000"/><text fill="#000000" font-family="sans-serif" font-size="12" lengthAdjust="spacing" textLength="55" x="989" y="459.1543">InReward</text><line style="stroke:#A80036;stroke-width:1.5;" x1="961" x2="1046" y1="471" y2="471"/><line style="stroke:#A80036;stroke-width:1.5;" x1="961" x2="1046" y1="479" y2="479"/><!--MD5=[419551ea611b9e5f8e3a9db89773962a]
class TrialFilter--><rect fill="#FEFECE" filter="url(#f1f5fpbt5a3hdv)" height="48" id="TrialFilter" style="stroke:#A80036;stroke-width:1.5;" width="87" x="1268" y="223"/><ellipse cx="1283" cy="239" fill="#ADD1B2" rx="11" ry="11" style="stroke:#A80036;stroke-width:1.0;"/><path d="M1285.3438,234.6719 C1284.4063,234.2344 1283.8125,234.0938 1282.9375,234.0938 C1280.3125,234.0938 1278.3125,236.1719 1278.3125,238.8906 L1278.3125,240.0156 C1278.3125,242.5938 1280.4219,244.4844 1283.3125,244.4844 C1284.5313,244.4844 1285.6875,244.1875 1286.4375,243.6406 C1287.0156,243.2344 1287.3438,242.7813 1287.3438,242.3906 C1287.3438,241.9375 1286.9531,241.5469 1286.4844,241.5469 C1286.2656,241.5469 1286.0625,241.625 1285.875,241.8125 C1285.4219,242.2969 1285.4219,242.2969 1285.2344,242.3906 C1284.8125,242.6563 1284.125,242.7813 1283.3594,242.7813 C1281.3125,242.7813 1280.0156,241.6875 1280.0156,239.9844 L1280.0156,238.8906 C1280.0156,237.1094 1281.2656,235.7969 1283,235.7969 C1283.5781,235.7969 1284.1875,235.9531 1284.6563,236.2031 C1285.1406,236.4844 1285.3125,236.7031 1285.4063,237.1094 C1285.4688,237.5156 1285.5,237.6406 1285.6406,237.7656 C1285.7813,237.9063 1286.0156,238.0156 1286.2344,238.0156 C1286.5,238.0156 1286.7656,237.875 1286.9375,237.6563 C1287.0469,237.5 1287.0781,237.3125 1287.0781,236.8906 L1287.0781,235.4688 C1287.0781,235.0313 1287.0625,234.9063 1286.9688,234.75 C1286.8125,234.4844 1286.5313,234.3438 1286.2344,234.3438 C1285.9375,234.3438 1285.7344,234.4375 1285.5156,234.75 L1285.3438,234.6719 Z " fill="#000000"/><text fill="#000000" font-family="sans-serif" font-size="12" lengthAdjust="spacing" textLength="55" x="1297" y="243.1543">TrialFilter</text><line style="stroke:#A80036;stroke-width:1.5;" x1="1269" x2="1354" y1="255" y2="255"/><line style="stroke:#A80036;stroke-width:1.5;" x1="1269" x2="1354" y1="263" y2="263"/><!--MD5=[be786bb4bf9223a6e38e111d2a58c66b]
class RunningTrials--><rect fill="#FEFECE" filter="url(#f1f5fpbt5a3hdv)" height="48" id="RunningTrials" style="stroke:#A80036;stroke-width:1.5;" width="110" x="1261.5" y="331"/><ellipse cx="1276.5" cy="347" fill="#ADD1B2" rx="11" ry="11" style="stroke:#A80036;stroke-width:1.0;"/><path d="M1278.8438,342.6719 C1277.9063,342.2344 1277.3125,342.0938 1276.4375,342.0938 C1273.8125,342.0938 1271.8125,344.1719 1271.8125,346.8906 L1271.8125,348.0156 C1271.8125,350.5938 1273.9219,352.4844 1276.8125,352.4844 C1278.0313,352.4844 1279.1875,352.1875 1279.9375,351.6406 C1280.5156,351.2344 1280.8438,350.7813 1280.8438,350.3906 C1280.8438,349.9375 1280.4531,349.5469 1279.9844,349.5469 C1279.7656,349.5469 1279.5625,349.625 1279.375,349.8125 C1278.9219,350.2969 1278.9219,350.2969 1278.7344,350.3906 C1278.3125,350.6563 1277.625,350.7813 1276.8594,350.7813 C1274.8125,350.7813 1273.5156,349.6875 1273.5156,347.9844 L1273.5156,346.8906 C1273.5156,345.1094 1274.7656,343.7969 1276.5,343.7969 C1277.0781,343.7969 1277.6875,343.9531 1278.1563,344.2031 C1278.6406,344.4844 1278.8125,344.7031 1278.9063,345.1094 C1278.9688,345.5156 1279,345.6406 1279.1406,345.7656 C1279.2813,345.9063 1279.5156,346.0156 1279.7344,346.0156 C1280,346.0156 1280.2656,345.875 1280.4375,345.6563 C1280.5469,345.5 1280.5781,345.3125 1280.5781,344.8906 L1280.5781,343.4688 C1280.5781,343.0313 1280.5625,342.9063 1280.4688,342.75 C1280.3125,342.4844 1280.0313,342.3438 1279.7344,342.3438 C1279.4375,342.3438 1279.2344,342.4375 1279.0156,342.75 L1278.8438,342.6719 Z " fill="#000000"/><text fill="#000000" font-family="sans-serif" font-size="12" lengthAdjust="spacing" textLength="78" x="1290.5" y="351.1543">RunningTrials</text><line style="stroke:#A80036;stroke-width:1.5;" x1="1262.5" x2="1370.5" y1="363" y2="363"/><line style="stroke:#A80036;stroke-width:1.5;" x1="1262.5" x2="1370.5" y1="371" y2="371"/><!--MD5=[28302058c0c554d57f38d2eb9fe0c75a]
reverse link Item to Filter--><path codeLine="2" d="M429.5,75.024 C429.5,88.579 429.5,103.038 429.5,114.678 " fill="none" id="Item-backto-Filter" style="stroke:#A80036;stroke-width:1.0;"/><polygon fill="none" points="422.5,75,429.5,55,436.5,75,422.5,75" style="stroke:#A80036;stroke-width:1.0;"/><!--MD5=[dbb42ed4e8dd41a3093cb7e4c28898cf]
reverse link Filter to _BoundFilter--><path codeLine="3" d="M381.429,171.261 C355.965,187.82 325.236,207.804 301.961,222.939 " fill="none" id="Filter-backto-_BoundFilter" style="stroke:#A80036;stroke-width:1.0;"/><polygon fill="none" points="377.875,165.222,398.457,160.187,385.507,176.959,377.875,165.222" style="stroke:#A80036;stroke-width:1.0;"/><!--MD5=[8bfd39f5bc7dab268a74c3c3a0c78517]
reverse link Filter to FilterGroup--><path codeLine="4" d="M379.451,156.683 C319.752,176.583 220.578,209.641 161.085,229.472 " fill="none" id="Filter-backto-FilterGroup" style="stroke:#A80036;stroke-width:1.0;"/><polygon fill="none" points="377.243,150.041,398.43,150.357,381.67,163.322,377.243,150.041" style="stroke:#A80036;stroke-width:1.0;"/><!--MD5=[e90c3c21d84250bea1626403dc8fc6b3]
reverse link Group to FilterGroup--><path codeLine="5" d="M111.5,183.024 C111.5,196.579 111.5,211.038 111.5,222.678 " fill="none" id="Group-backto-FilterGroup" style="stroke:#A80036;stroke-width:1.0;"/><polygon fill="none" points="104.5001,183,111.5,163,118.5,183,104.5001,183" style="stroke:#A80036;stroke-width:1.0;"/><!--MD5=[2ac6356644627ac2384ea3542e9793dc]
reverse link FilterGroup to _BoundFilterGroup--><path codeLine="6" d="M98.2565,290.54 C93.993,304.235 89.4275,318.9 85.7605,330.678 " fill="none" id="FilterGroup-backto-_BoundFilterGroup" style="stroke:#A80036;stroke-width:1.0;"/><polygon fill="none" points="91.7108,288.016,104.3395,271,105.078,292.177,91.7108,288.016" style="stroke:#A80036;stroke-width:1.0;"/><!--MD5=[e5bfd59a6b4507b904fc1d9972d4c57d]
reverse link _BoundFilter to _BoundFilterGroup--><path codeLine="7" d="M208.166,280.89 C179.437,297.089 145.49,316.229 119.538,330.862 " fill="none" id="_BoundFilter-backto-_BoundFilterGroup" style="stroke:#A80036;stroke-width:1.0;"/><polygon fill="none" points="204.847,274.726,225.707,271,211.723,286.921,204.847,274.726" style="stroke:#A80036;stroke-width:1.0;"/><!--MD5=[c762ec65a1ded457c941019c2895c3ad]
reverse link Filter to ROIFilter--><path codeLine="8" d="M429.5,183.024 C429.5,196.579 429.5,211.038 429.5,222.678 " fill="none" id="Filter-backto-ROIFilter" style="stroke:#A80036;stroke-width:1.0;"/><polygon fill="none" points="422.5,183,429.5,163,436.5,183,422.5,183" style="stroke:#A80036;stroke-width:1.0;"/><!--MD5=[f7301689f81917ad0dbe1d800e9d477a]
reverse link Filter to TimeFilter--><path codeLine="9" d="M480.469,150.31 C582.44,170.938 810.128,216.997 907.69,236.733 " fill="none" id="Filter-backto-TimeFilter" style="stroke:#A80036;stroke-width:1.0;"/><polygon fill="none" points="478.924,157.14,460.709,146.313,481.7,143.418,478.924,157.14" style="stroke:#A80036;stroke-width:1.0;"/><!--MD5=[9e3247190ad0fa39d02126faec18d2b1]
reverse link ROIFilter to _IndexIdentity--><path codeLine="10" d="M423.412,291.024 C421.494,304.579 419.447,319.038 417.8,330.678 " fill="none" id="ROIFilter-backto-_IndexIdentity" style="stroke:#A80036;stroke-width:1.0;"/><polygon fill="none" points="416.512,289.822,426.245,271,430.374,291.784,416.512,289.822" style="stroke:#A80036;stroke-width:1.0;"/><!--MD5=[2cb022efb32ac32e4305108cee75cd73]
reverse link TimeFilter to _ColumnIdentity--><path codeLine="11" d="M980.81,287.656 C990.792,302.15 1001.754,318.068 1010.44,330.678 " fill="none" id="TimeFilter-backto-_ColumnIdentity" style="stroke:#A80036;stroke-width:1.0;"/><polygon fill="none" points="974.919,291.443,969.34,271,986.449,283.502,974.919,291.443" style="stroke:#A80036;stroke-width:1.0;"/><!--MD5=[d3f67942cfeff30202db3b80e8aeb229]
reverse link ROIFilter to ClassifierROIFilter--><path codeLine="14" d="M374.123,281.352 C347.393,297.451 315.984,316.368 291.918,330.862 " fill="none" id="ROIFilter-backto-ClassifierROIFilter" style="stroke:#A80036;stroke-width:1.0;"/><polygon fill="none" points="370.566,275.323,391.311,271,377.789,287.315,370.566,275.323" style="stroke:#A80036;stroke-width:1.0;"/><!--MD5=[f98384554dda116475d8e4586383ffc9]
reverse link ROIFilter to ResponsivenessFilter--><path codeLine="15" d="M480.595,282.279 C504.287,298.173 531.82,316.645 553.011,330.862 " fill="none" id="ROIFilter-backto-ResponsivenessFilter" style="stroke:#A80036;stroke-width:1.0;"/><polygon fill="none" points="476.492,287.956,463.784,271,484.292,276.33,476.492,287.956" style="stroke:#A80036;stroke-width:1.0;"/><!--MD5=[70b59ee65188a7dd7109f0668aa06af6]
reverse link Responsiveness to ResponsivenessFilter--><path codeLine="16" d="M587.5,291.024 C587.5,304.579 587.5,319.038 587.5,330.678 " fill="none" id="Responsiveness-backto-ResponsivenessFilter" style="stroke:#A80036;stroke-width:1.0;"/><polygon fill="none" points="580.5,291,587.5,271,594.5,291,580.5,291" style="stroke:#A80036;stroke-width:1.0;"/><!--MD5=[03e9c3ae12085d5220dfbec17cc3ad70]
reverse link ROIFilter to IsPlaceCell--><path codeLine="17" d="M490.147,267.163 C542.114,283.702 618.896,308.424 685.5,331 C691.168,332.921 697.102,334.97 702.981,337.022 " fill="none" id="ROIFilter-backto-IsPlaceCell" style="stroke:#A80036;stroke-width:1.0;"/><polygon fill="none" points="487.789,273.758,470.846,261.033,492.027,260.415,487.789,273.758" style="stroke:#A80036;stroke-width:1.0;"/><!--MD5=[51719f51a94e60d9ca6c1f6d9999e34e]
reverse link PlaceFields to IsPlaceCell--><path codeLine="18" d="M750.5,291.024 C750.5,304.579 750.5,319.038 750.5,330.678 " fill="none" id="PlaceFields-backto-IsPlaceCell" style="stroke:#A80036;stroke-width:1.0;"/><polygon fill="none" points="743.5,291,750.5,271,757.5,291,743.5,291" style="stroke:#A80036;stroke-width:1.0;"/><!--MD5=[9b5015f023470f281a17f699d5565225]
reverse link ClassifierROIFilter to IsInterneuron--><path codeLine="19" d="M253.5,399.024 C253.5,412.579 253.5,427.038 253.5,438.678 " fill="none" id="ClassifierROIFilter-backto-IsInterneuron" style="stroke:#A80036;stroke-width:1.0;"/><polygon fill="none" points="246.5,399,253.5,379,260.5,399,246.5,399" style="stroke:#A80036;stroke-width:1.0;"/><!--MD5=[71a6005ce363ec8b42eff82d783fc34e]
reverse link IsPlaceCell to PlaceFieldLocationFilter--><path codeLine="20" d="M736.613,398.057 C732.046,411.889 727.136,426.761 723.201,438.678 " fill="none" id="IsPlaceCell-backto-PlaceFieldLocationFilter" style="stroke:#A80036;stroke-width:1.0;"/><polygon fill="none" points="729.988,395.797,742.906,379,743.282,400.187,729.988,395.797" style="stroke:#A80036;stroke-width:1.0;"/><!--MD5=[9e44aa988d72cf92a56c35cab3440e5c]
reverse link PlaceFieldLocationFilter to PlaceFieldStart--><path codeLine="21" d="M686.671,503.1784 C675.912,517.7995 664.042,533.9295 654.661,546.6784 " fill="none" id="PlaceFieldLocationFilter-backto-PlaceFieldStart" style="stroke:#A80036;stroke-width:1.0;"/><polygon fill="none" points="681.083,498.9604,698.575,487,692.36,507.258,681.083,498.9604" style="stroke:#A80036;stroke-width:1.0;"/><!--MD5=[d05447310a843d0c145fcf8713fdc8ff]
reverse link PlaceFieldLocationFilter to PlaceFieldStop--><path codeLine="22" d="M744.306,503.6557 C754.835,518.1498 766.399,534.0681 775.559,546.6784 " fill="none" id="PlaceFieldLocationFilter-backto-PlaceFieldStop" style="stroke:#A80036;stroke-width:1.0;"/><polygon fill="none" points="738.299,507.2958,732.208,487,749.626,499.0677,738.299,507.2958" style="stroke:#A80036;stroke-width:1.0;"/><!--MD5=[50b0956f7b6beb8039c5fd60f7695bae]
reverse link TimeFilter to SpatialFilter--><path codeLine="26" d="M1017.73,278.666 C1052.62,295.329 1095.07,315.595 1127.14,330.909 " fill="none" id="TimeFilter-backto-SpatialFilter" style="stroke:#A80036;stroke-width:1.0;"/><polygon fill="none" points="1014.26,284.769,999.229,269.835,1020.29,272.136,1014.26,284.769" style="stroke:#A80036;stroke-width:1.0;"/><!--MD5=[e148c710d63fe8a3f0f42a4aa9727590]
reverse link SpatialEvent to SpatialFilter--><path codeLine="27" d="M1175.5,291.024 C1175.5,304.579 1175.5,319.038 1175.5,330.678 " fill="none" id="SpatialEvent-backto-SpatialFilter" style="stroke:#A80036;stroke-width:1.0;"/><polygon fill="none" points="1168.5,291,1175.5,271,1182.5,291,1168.5,291" style="stroke:#A80036;stroke-width:1.0;"/><!--MD5=[d9f88d73dcd816f03f6af3c4846debd9]
reverse link TimeFilter to EventFilter--><path codeLine="28" d="M926.19,287.656 C916.208,302.15 905.246,318.068 896.561,330.678 " fill="none" id="TimeFilter-backto-EventFilter" style="stroke:#A80036;stroke-width:1.0;"/><polygon fill="none" points="920.551,283.502,937.66,271,932.081,291.443,920.551,283.502" style="stroke:#A80036;stroke-width:1.0;"/><!--MD5=[be574d509dc3e9748841104870a14e93]
reverse link EventFilter to IsRunning--><path codeLine="29" d="M880.5,399.024 C880.5,412.579 880.5,427.038 880.5,438.678 " fill="none" id="EventFilter-backto-IsRunning" style="stroke:#A80036;stroke-width:1.0;"/><polygon fill="none" points="873.5,399,880.5,379,887.5,399,873.5,399" style="stroke:#A80036;stroke-width:1.0;"/><!--MD5=[af5df072eee42cba87806c07ef568bea]
reverse link EventFilter to InReward--><path codeLine="30" d="M922.394,392.104 C940.263,407.503 960.599,425.029 976.438,438.678 " fill="none" id="EventFilter-backto-InReward" style="stroke:#A80036;stroke-width:1.0;"/><polygon fill="none" points="917.77,397.359,907.189,379,926.909,386.754,917.77,397.359" style="stroke:#A80036;stroke-width:1.0;"/><!--MD5=[e3a7f8bc7809980d0b5c888b6a344976]
reverse link Filter to TrialFilter--><path codeLine="33" d="M480.913,141.071 C610.668,144.667 961.317,159.945 1245.5,223 C1252.84,224.63 1260.5,226.819 1267.89,229.201 " fill="none" id="Filter-backto-TrialFilter" style="stroke:#A80036;stroke-width:1.0;"/><polygon fill="none" points="480.483,148.063,460.667,140.557,480.839,134.067,480.483,148.063" style="stroke:#A80036;stroke-width:1.0;"/><!--MD5=[387e1811fc882fffc9de6e87d6f7d94c]
reverse link TrialFilter to RunningTrials--><path codeLine="34" d="M1313.53,291.024 C1314.17,304.579 1314.85,319.038 1315.4,330.678 " fill="none" id="TrialFilter-backto-RunningTrials" style="stroke:#A80036;stroke-width:1.0;"/><polygon fill="none" points="1306.54,291.308,1312.58,271,1320.52,290.648,1306.54,291.308" style="stroke:#A80036;stroke-width:1.0;"/><!--MD5=[74b943c101ea247c4ce985470c54715a]
@startuml
' ### lab3.core.filters
Item <|- - Filter
Filter <|- - _BoundFilter
Filter <|- - FilterGroup
Group <|- - FilterGroup
FilterGroup <|- - _BoundFilterGroup
_BoundFilter <|- - _BoundFilterGroup
Filter <|- - ROIFilter
Filter <|- - TimeFilter
ROIFilter <|- - _IndexIdentity
TimeFilter <|- - _ColumnIdentity

' ### lab3.filters.roi_filters
ROIFilter <|- - ClassifierROIFilter
ROIFilter <|- - ResponsivenessFilter
Responsiveness <|- - ResponsivenessFilter
ROIFilter <|- - IsPlaceCell
PlaceFields <|- - IsPlaceCell
ClassifierROIFilter <|- - IsInterneuron
IsPlaceCell <|- - PlaceFieldLocationFilter
PlaceFieldLocationFilter <|- - PlaceFieldStart
PlaceFieldLocationFilter <|- - PlaceFieldStop


' ### lab3.filters.time_filters
TimeFilter <|- - SpatialFilter
SpatialEvent <|- - SpatialFilter
TimeFilter <|- - EventFilter
EventFilter <|- - IsRunning
EventFilter <|- - InReward

' ### lab3.filters.trial_filters
Filter <|- - TrialFilter
TrialFilter <|- - RunningTrials
@enduml

@startuml
Item <|- - Filter
Filter <|- - _BoundFilter
Filter <|- - FilterGroup
Group <|- - FilterGroup
FilterGroup <|- - _BoundFilterGroup
_BoundFilter <|- - _BoundFilterGroup
Filter <|- - ROIFilter
Filter <|- - TimeFilter
ROIFilter <|- - _IndexIdentity
TimeFilter <|- - _ColumnIdentity

ROIFilter <|- - ClassifierROIFilter
ROIFilter <|- - ResponsivenessFilter
Responsiveness <|- - ResponsivenessFilter
ROIFilter <|- - IsPlaceCell
PlaceFields <|- - IsPlaceCell
ClassifierROIFilter <|- - IsInterneuron
IsPlaceCell <|- - PlaceFieldLocationFilter
PlaceFieldLocationFilter <|- - PlaceFieldStart
PlaceFieldLocationFilter <|- - PlaceFieldStop


TimeFilter <|- - SpatialFilter
SpatialEvent <|- - SpatialFilter
TimeFilter <|- - EventFilter
EventFilter <|- - IsRunning
EventFilter <|- - InReward

Filter <|- - TrialFilter
TrialFilter <|- - RunningTrials
@enduml

PlantUML version 1.2021.9beta2(Unknown compile time)
(GPL source distribution)
Java Runtime: Java(TM) SE Runtime Environment
JVM: Java HotSpot(TM) 64-Bit Server VM
Default Encoding: UTF-8
Language: en
Country: US
--></g></svg>