<?xml version="1.0" encoding="UTF-8" standalone="no"?><svg xmlns="http://www.w3.org/2000/svg" xmlns:xlink="http://www.w3.org/1999/xlink" contentScriptType="application/ecmascript" contentStyleType="text/css" height="393px" preserveAspectRatio="none" style="width:1589px;height:393px;background:#FFFFFF;" version="1.1" viewBox="0 0 1589 393" width="1589px" zoomAndPan="magnify"><defs><filter height="300%" id="fyf0wacqzxzs1" width="300%" x="-1" y="-1"><feGaussianBlur result="blurOut" stdDeviation="2.0"/><feColorMatrix in="blurOut" result="blurOut2" type="matrix" values="0 0 0 0 0 0 0 0 0 0 0 0 0 0 0 0 0 0 .4 0"/><feOffset dx="4.0" dy="4.0" in="blurOut2" result="blurOut3"/><feBlend in="SourceGraphic" in2="blurOut3" mode="normal"/></filter></defs><g><!--MD5=[7cba758a0a8a99c83a396ef828548ffb]
class HDFStore--><rect fill="#FEFECE" filter="url(#fyf0wacqzxzs1)" height="48" id="HDFStore" style="stroke:#A80036;stroke-width:1.5;" width="90" x="7" y="7"/><ellipse cx="22" cy="23" fill="#ADD1B2" rx="11" ry="11" style="stroke:#A80036;stroke-width:1.0;"/><path d="M24.3438,18.6719 C23.4063,18.2344 22.8125,18.0938 21.9375,18.0938 C19.3125,18.0938 17.3125,20.1719 17.3125,22.8906 L17.3125,24.0156 C17.3125,26.5938 19.4219,28.4844 22.3125,28.4844 C23.5313,28.4844 24.6875,28.1875 25.4375,27.6406 C26.0156,27.2344 26.3438,26.7813 26.3438,26.3906 C26.3438,25.9375 25.9531,25.5469 25.4844,25.5469 C25.2656,25.5469 25.0625,25.625 24.875,25.8125 C24.4219,26.2969 24.4219,26.2969 24.2344,26.3906 C23.8125,26.6563 23.125,26.7813 22.3594,26.7813 C20.3125,26.7813 19.0156,25.6875 19.0156,23.9844 L19.0156,22.8906 C19.0156,21.1094 20.2656,19.7969 22,19.7969 C22.5781,19.7969 23.1875,19.9531 23.6563,20.2031 C24.1406,20.4844 24.3125,20.7031 24.4063,21.1094 C24.4688,21.5156 24.5,21.6406 24.6406,21.7656 C24.7813,21.9063 25.0156,22.0156 25.2344,22.0156 C25.5,22.0156 25.7656,21.875 25.9375,21.6563 C26.0469,21.5 26.0781,21.3125 26.0781,20.8906 L26.0781,19.4688 C26.0781,19.0313 26.0625,18.9063 25.9688,18.75 C25.8125,18.4844 25.5313,18.3438 25.2344,18.3438 C24.9375,18.3438 24.7344,18.4375 24.5156,18.75 L24.3438,18.6719 Z " fill="#000000"/><text fill="#000000" font-family="sans-serif" font-size="12" lengthAdjust="spacing" textLength="58" x="36" y="27.1543">HDFStore</text><line style="stroke:#A80036;stroke-width:1.5;" x1="8" x2="96" y1="39" y2="39"/><line style="stroke:#A80036;stroke-width:1.5;" x1="8" x2="96" y1="47" y2="47"/><!--MD5=[f3873823740d0513483d71b7611cf47a]
class SignalFile--><rect fill="#FEFECE" filter="url(#fyf0wacqzxzs1)" height="48" id="SignalFile" style="stroke:#A80036;stroke-width:1.5;" width="89" x="7.5" y="115"/><ellipse cx="22.5" cy="131" fill="#ADD1B2" rx="11" ry="11" style="stroke:#A80036;stroke-width:1.0;"/><path d="M24.8438,126.6719 C23.9063,126.2344 23.3125,126.0938 22.4375,126.0938 C19.8125,126.0938 17.8125,128.1719 17.8125,130.8906 L17.8125,132.0156 C17.8125,134.5938 19.9219,136.4844 22.8125,136.4844 C24.0313,136.4844 25.1875,136.1875 25.9375,135.6406 C26.5156,135.2344 26.8438,134.7813 26.8438,134.3906 C26.8438,133.9375 26.4531,133.5469 25.9844,133.5469 C25.7656,133.5469 25.5625,133.625 25.375,133.8125 C24.9219,134.2969 24.9219,134.2969 24.7344,134.3906 C24.3125,134.6563 23.625,134.7813 22.8594,134.7813 C20.8125,134.7813 19.5156,133.6875 19.5156,131.9844 L19.5156,130.8906 C19.5156,129.1094 20.7656,127.7969 22.5,127.7969 C23.0781,127.7969 23.6875,127.9531 24.1563,128.2031 C24.6406,128.4844 24.8125,128.7031 24.9063,129.1094 C24.9688,129.5156 25,129.6406 25.1406,129.7656 C25.2813,129.9063 25.5156,130.0156 25.7344,130.0156 C26,130.0156 26.2656,129.875 26.4375,129.6563 C26.5469,129.5 26.5781,129.3125 26.5781,128.8906 L26.5781,127.4688 C26.5781,127.0313 26.5625,126.9063 26.4688,126.75 C26.3125,126.4844 26.0313,126.3438 25.7344,126.3438 C25.4375,126.3438 25.2344,126.4375 25.0156,126.75 L24.8438,126.6719 Z " fill="#000000"/><text fill="#000000" font-family="sans-serif" font-size="12" lengthAdjust="spacing" textLength="57" x="36.5" y="135.1543">SignalFile</text><line style="stroke:#A80036;stroke-width:1.5;" x1="8.5" x2="95.5" y1="147" y2="147"/><line style="stroke:#A80036;stroke-width:1.5;" x1="8.5" x2="95.5" y1="155" y2="155"/><!--MD5=[1182380c4c765c1b1c19ec976452f089]
class DataFrame--><rect fill="#FEFECE" filter="url(#fyf0wacqzxzs1)" height="48" id="DataFrame" style="stroke:#A80036;stroke-width:1.5;" width="97" x="136.5" y="7"/><ellipse cx="151.5" cy="23" fill="#ADD1B2" rx="11" ry="11" style="stroke:#A80036;stroke-width:1.0;"/><path d="M153.8438,18.6719 C152.9063,18.2344 152.3125,18.0938 151.4375,18.0938 C148.8125,18.0938 146.8125,20.1719 146.8125,22.8906 L146.8125,24.0156 C146.8125,26.5938 148.9219,28.4844 151.8125,28.4844 C153.0313,28.4844 154.1875,28.1875 154.9375,27.6406 C155.5156,27.2344 155.8438,26.7813 155.8438,26.3906 C155.8438,25.9375 155.4531,25.5469 154.9844,25.5469 C154.7656,25.5469 154.5625,25.625 154.375,25.8125 C153.9219,26.2969 153.9219,26.2969 153.7344,26.3906 C153.3125,26.6563 152.625,26.7813 151.8594,26.7813 C149.8125,26.7813 148.5156,25.6875 148.5156,23.9844 L148.5156,22.8906 C148.5156,21.1094 149.7656,19.7969 151.5,19.7969 C152.0781,19.7969 152.6875,19.9531 153.1563,20.2031 C153.6406,20.4844 153.8125,20.7031 153.9063,21.1094 C153.9688,21.5156 154,21.6406 154.1406,21.7656 C154.2813,21.9063 154.5156,22.0156 154.7344,22.0156 C155,22.0156 155.2656,21.875 155.4375,21.6563 C155.5469,21.5 155.5781,21.3125 155.5781,20.8906 L155.5781,19.4688 C155.5781,19.0313 155.5625,18.9063 155.4688,18.75 C155.3125,18.4844 155.0313,18.3438 154.7344,18.3438 C154.4375,18.3438 154.2344,18.4375 154.0156,18.75 L153.8438,18.6719 Z " fill="#000000"/><text fill="#000000" font-family="sans-serif" font-size="12" lengthAdjust="spacing" textLength="65" x="165.5" y="27.1543">DataFrame</text><line style="stroke:#A80036;stroke-width:1.5;" x1="137.5" x2="232.5" y1="39" y2="39"/><line style="stroke:#A80036;stroke-width:1.5;" x1="137.5" x2="232.5" y1="47" y2="47"/><!--MD5=[79f661d62652e4b5d7114ed5f0695b56]
class SignalFrame--><rect fill="#FEFECE" filter="url(#fyf0wacqzxzs1)" height="48" id="SignalFrame" style="stroke:#A80036;stroke-width:1.5;" width="106" x="132" y="115"/><ellipse cx="147" cy="131" fill="#ADD1B2" rx="11" ry="11" style="stroke:#A80036;stroke-width:1.0;"/><path d="M149.3438,126.6719 C148.4063,126.2344 147.8125,126.0938 146.9375,126.0938 C144.3125,126.0938 142.3125,128.1719 142.3125,130.8906 L142.3125,132.0156 C142.3125,134.5938 144.4219,136.4844 147.3125,136.4844 C148.5313,136.4844 149.6875,136.1875 150.4375,135.6406 C151.0156,135.2344 151.3438,134.7813 151.3438,134.3906 C151.3438,133.9375 150.9531,133.5469 150.4844,133.5469 C150.2656,133.5469 150.0625,133.625 149.875,133.8125 C149.4219,134.2969 149.4219,134.2969 149.2344,134.3906 C148.8125,134.6563 148.125,134.7813 147.3594,134.7813 C145.3125,134.7813 144.0156,133.6875 144.0156,131.9844 L144.0156,130.8906 C144.0156,129.1094 145.2656,127.7969 147,127.7969 C147.5781,127.7969 148.1875,127.9531 148.6563,128.2031 C149.1406,128.4844 149.3125,128.7031 149.4063,129.1094 C149.4688,129.5156 149.5,129.6406 149.6406,129.7656 C149.7813,129.9063 150.0156,130.0156 150.2344,130.0156 C150.5,130.0156 150.7656,129.875 150.9375,129.6563 C151.0469,129.5 151.0781,129.3125 151.0781,128.8906 L151.0781,127.4688 C151.0781,127.0313 151.0625,126.9063 150.9688,126.75 C150.8125,126.4844 150.5313,126.3438 150.2344,126.3438 C149.9375,126.3438 149.7344,126.4375 149.5156,126.75 L149.3438,126.6719 Z " fill="#000000"/><text fill="#000000" font-family="sans-serif" font-size="12" lengthAdjust="spacing" textLength="74" x="161" y="135.1543">SignalFrame</text><line style="stroke:#A80036;stroke-width:1.5;" x1="133" x2="237" y1="147" y2="147"/><line style="stroke:#A80036;stroke-width:1.5;" x1="133" x2="237" y1="155" y2="155"/><!--MD5=[15d141ce390878be018b97eb44e340b2]
class Automorphism--><rect fill="#FEFECE" filter="url(#fyf0wacqzxzs1)" height="48" id="Automorphism" style="stroke:#A80036;stroke-width:1.5;" width="119" x="1036.5" y="7"/><ellipse cx="1051.5" cy="23" fill="#ADD1B2" rx="11" ry="11" style="stroke:#A80036;stroke-width:1.0;"/><path d="M1053.8438,18.6719 C1052.9063,18.2344 1052.3125,18.0938 1051.4375,18.0938 C1048.8125,18.0938 1046.8125,20.1719 1046.8125,22.8906 L1046.8125,24.0156 C1046.8125,26.5938 1048.9219,28.4844 1051.8125,28.4844 C1053.0313,28.4844 1054.1875,28.1875 1054.9375,27.6406 C1055.5156,27.2344 1055.8438,26.7813 1055.8438,26.3906 C1055.8438,25.9375 1055.4531,25.5469 1054.9844,25.5469 C1054.7656,25.5469 1054.5625,25.625 1054.375,25.8125 C1053.9219,26.2969 1053.9219,26.2969 1053.7344,26.3906 C1053.3125,26.6563 1052.625,26.7813 1051.8594,26.7813 C1049.8125,26.7813 1048.5156,25.6875 1048.5156,23.9844 L1048.5156,22.8906 C1048.5156,21.1094 1049.7656,19.7969 1051.5,19.7969 C1052.0781,19.7969 1052.6875,19.9531 1053.1563,20.2031 C1053.6406,20.4844 1053.8125,20.7031 1053.9063,21.1094 C1053.9688,21.5156 1054,21.6406 1054.1406,21.7656 C1054.2813,21.9063 1054.5156,22.0156 1054.7344,22.0156 C1055,22.0156 1055.2656,21.875 1055.4375,21.6563 C1055.5469,21.5 1055.5781,21.3125 1055.5781,20.8906 L1055.5781,19.4688 C1055.5781,19.0313 1055.5625,18.9063 1055.4688,18.75 C1055.3125,18.4844 1055.0313,18.3438 1054.7344,18.3438 C1054.4375,18.3438 1054.2344,18.4375 1054.0156,18.75 L1053.8438,18.6719 Z " fill="#000000"/><text fill="#000000" font-family="sans-serif" font-size="12" lengthAdjust="spacing" textLength="87" x="1065.5" y="27.1543">Automorphism</text><line style="stroke:#A80036;stroke-width:1.5;" x1="1037.5" x2="1154.5" y1="39" y2="39"/><line style="stroke:#A80036;stroke-width:1.5;" x1="1037.5" x2="1154.5" y1="47" y2="47"/><!--MD5=[a5a5a7d43a508386408cc9fb076d51f7]
class DecompositionStrategy--><rect fill="#FEFECE" filter="url(#fyf0wacqzxzs1)" height="48" id="DecompositionStrategy" style="stroke:#A80036;stroke-width:1.5;" width="174" x="1200" y="115"/><ellipse cx="1215" cy="131" fill="#ADD1B2" rx="11" ry="11" style="stroke:#A80036;stroke-width:1.0;"/><path d="M1217.3438,126.6719 C1216.4063,126.2344 1215.8125,126.0938 1214.9375,126.0938 C1212.3125,126.0938 1210.3125,128.1719 1210.3125,130.8906 L1210.3125,132.0156 C1210.3125,134.5938 1212.4219,136.4844 1215.3125,136.4844 C1216.5313,136.4844 1217.6875,136.1875 1218.4375,135.6406 C1219.0156,135.2344 1219.3438,134.7813 1219.3438,134.3906 C1219.3438,133.9375 1218.9531,133.5469 1218.4844,133.5469 C1218.2656,133.5469 1218.0625,133.625 1217.875,133.8125 C1217.4219,134.2969 1217.4219,134.2969 1217.2344,134.3906 C1216.8125,134.6563 1216.125,134.7813 1215.3594,134.7813 C1213.3125,134.7813 1212.0156,133.6875 1212.0156,131.9844 L1212.0156,130.8906 C1212.0156,129.1094 1213.2656,127.7969 1215,127.7969 C1215.5781,127.7969 1216.1875,127.9531 1216.6563,128.2031 C1217.1406,128.4844 1217.3125,128.7031 1217.4063,129.1094 C1217.4688,129.5156 1217.5,129.6406 1217.6406,129.7656 C1217.7813,129.9063 1218.0156,130.0156 1218.2344,130.0156 C1218.5,130.0156 1218.7656,129.875 1218.9375,129.6563 C1219.0469,129.5 1219.0781,129.3125 1219.0781,128.8906 L1219.0781,127.4688 C1219.0781,127.0313 1219.0625,126.9063 1218.9688,126.75 C1218.8125,126.4844 1218.5313,126.3438 1218.2344,126.3438 C1217.9375,126.3438 1217.7344,126.4375 1217.5156,126.75 L1217.3438,126.6719 Z " fill="#000000"/><text fill="#000000" font-family="sans-serif" font-size="12" lengthAdjust="spacing" textLength="142" x="1229" y="135.1543">DecompositionStrategy</text><line style="stroke:#A80036;stroke-width:1.5;" x1="1201" x2="1373" y1="147" y2="147"/><line style="stroke:#A80036;stroke-width:1.5;" x1="1201" x2="1373" y1="155" y2="155"/><!--MD5=[bfe0f974bfe45cba04645244d52f4a28]
class LinearDynamicalSystem--><rect fill="#FEFECE" filter="url(#fyf0wacqzxzs1)" height="48" id="LinearDynamicalSystem" style="stroke:#A80036;stroke-width:1.5;" width="174" x="1207" y="223"/><ellipse cx="1222" cy="239" fill="#ADD1B2" rx="11" ry="11" style="stroke:#A80036;stroke-width:1.0;"/><path d="M1224.3438,234.6719 C1223.4063,234.2344 1222.8125,234.0938 1221.9375,234.0938 C1219.3125,234.0938 1217.3125,236.1719 1217.3125,238.8906 L1217.3125,240.0156 C1217.3125,242.5938 1219.4219,244.4844 1222.3125,244.4844 C1223.5313,244.4844 1224.6875,244.1875 1225.4375,243.6406 C1226.0156,243.2344 1226.3438,242.7813 1226.3438,242.3906 C1226.3438,241.9375 1225.9531,241.5469 1225.4844,241.5469 C1225.2656,241.5469 1225.0625,241.625 1224.875,241.8125 C1224.4219,242.2969 1224.4219,242.2969 1224.2344,242.3906 C1223.8125,242.6563 1223.125,242.7813 1222.3594,242.7813 C1220.3125,242.7813 1219.0156,241.6875 1219.0156,239.9844 L1219.0156,238.8906 C1219.0156,237.1094 1220.2656,235.7969 1222,235.7969 C1222.5781,235.7969 1223.1875,235.9531 1223.6563,236.2031 C1224.1406,236.4844 1224.3125,236.7031 1224.4063,237.1094 C1224.4688,237.5156 1224.5,237.6406 1224.6406,237.7656 C1224.7813,237.9063 1225.0156,238.0156 1225.2344,238.0156 C1225.5,238.0156 1225.7656,237.875 1225.9375,237.6563 C1226.0469,237.5 1226.0781,237.3125 1226.0781,236.8906 L1226.0781,235.4688 C1226.0781,235.0313 1226.0625,234.9063 1225.9688,234.75 C1225.8125,234.4844 1225.5313,234.3438 1225.2344,234.3438 C1224.9375,234.3438 1224.7344,234.4375 1224.5156,234.75 L1224.3438,234.6719 Z " fill="#000000"/><text fill="#000000" font-family="sans-serif" font-size="12" lengthAdjust="spacing" textLength="142" x="1236" y="243.1543">LinearDynamicalSystem</text><line style="stroke:#A80036;stroke-width:1.5;" x1="1208" x2="1380" y1="255" y2="255"/><line style="stroke:#A80036;stroke-width:1.5;" x1="1208" x2="1380" y1="263" y2="263"/><!--MD5=[b261c8f2377b7ac5b1e797bf7045467e]
class DFOFStrategy--><rect fill="#FEFECE" filter="url(#fyf0wacqzxzs1)" height="48" id="DFOFStrategy" style="stroke:#A80036;stroke-width:1.5;" width="116" x="583" y="115"/><ellipse cx="598" cy="131" fill="#ADD1B2" rx="11" ry="11" style="stroke:#A80036;stroke-width:1.0;"/><path d="M600.3438,126.6719 C599.4063,126.2344 598.8125,126.0938 597.9375,126.0938 C595.3125,126.0938 593.3125,128.1719 593.3125,130.8906 L593.3125,132.0156 C593.3125,134.5938 595.4219,136.4844 598.3125,136.4844 C599.5313,136.4844 600.6875,136.1875 601.4375,135.6406 C602.0156,135.2344 602.3438,134.7813 602.3438,134.3906 C602.3438,133.9375 601.9531,133.5469 601.4844,133.5469 C601.2656,133.5469 601.0625,133.625 600.875,133.8125 C600.4219,134.2969 600.4219,134.2969 600.2344,134.3906 C599.8125,134.6563 599.125,134.7813 598.3594,134.7813 C596.3125,134.7813 595.0156,133.6875 595.0156,131.9844 L595.0156,130.8906 C595.0156,129.1094 596.2656,127.7969 598,127.7969 C598.5781,127.7969 599.1875,127.9531 599.6563,128.2031 C600.1406,128.4844 600.3125,128.7031 600.4063,129.1094 C600.4688,129.5156 600.5,129.6406 600.6406,129.7656 C600.7813,129.9063 601.0156,130.0156 601.2344,130.0156 C601.5,130.0156 601.7656,129.875 601.9375,129.6563 C602.0469,129.5 602.0781,129.3125 602.0781,128.8906 L602.0781,127.4688 C602.0781,127.0313 602.0625,126.9063 601.9688,126.75 C601.8125,126.4844 601.5313,126.3438 601.2344,126.3438 C600.9375,126.3438 600.7344,126.4375 600.5156,126.75 L600.3438,126.6719 Z " fill="#000000"/><text fill="#000000" font-family="sans-serif" font-size="12" lengthAdjust="spacing" textLength="84" x="612" y="135.1543">DFOFStrategy</text><line style="stroke:#A80036;stroke-width:1.5;" x1="584" x2="698" y1="147" y2="147"/><line style="stroke:#A80036;stroke-width:1.5;" x1="584" x2="698" y1="155" y2="155"/><!--MD5=[10bf762b11c8b47cee063450962bf238]
class CustomFilterDFOF--><rect fill="#FEFECE" filter="url(#fyf0wacqzxzs1)" height="48" id="CustomFilterDFOF" style="stroke:#A80036;stroke-width:1.5;" width="140" x="411" y="223"/><ellipse cx="426" cy="239" fill="#ADD1B2" rx="11" ry="11" style="stroke:#A80036;stroke-width:1.0;"/><path d="M428.3438,234.6719 C427.4063,234.2344 426.8125,234.0938 425.9375,234.0938 C423.3125,234.0938 421.3125,236.1719 421.3125,238.8906 L421.3125,240.0156 C421.3125,242.5938 423.4219,244.4844 426.3125,244.4844 C427.5313,244.4844 428.6875,244.1875 429.4375,243.6406 C430.0156,243.2344 430.3438,242.7813 430.3438,242.3906 C430.3438,241.9375 429.9531,241.5469 429.4844,241.5469 C429.2656,241.5469 429.0625,241.625 428.875,241.8125 C428.4219,242.2969 428.4219,242.2969 428.2344,242.3906 C427.8125,242.6563 427.125,242.7813 426.3594,242.7813 C424.3125,242.7813 423.0156,241.6875 423.0156,239.9844 L423.0156,238.8906 C423.0156,237.1094 424.2656,235.7969 426,235.7969 C426.5781,235.7969 427.1875,235.9531 427.6563,236.2031 C428.1406,236.4844 428.3125,236.7031 428.4063,237.1094 C428.4688,237.5156 428.5,237.6406 428.6406,237.7656 C428.7813,237.9063 429.0156,238.0156 429.2344,238.0156 C429.5,238.0156 429.7656,237.875 429.9375,237.6563 C430.0469,237.5 430.0781,237.3125 430.0781,236.8906 L430.0781,235.4688 C430.0781,235.0313 430.0625,234.9063 429.9688,234.75 C429.8125,234.4844 429.5313,234.3438 429.2344,234.3438 C428.9375,234.3438 428.7344,234.4375 428.5156,234.75 L428.3438,234.6719 Z " fill="#000000"/><text fill="#000000" font-family="sans-serif" font-size="12" lengthAdjust="spacing" textLength="108" x="440" y="243.1543">CustomFilterDFOF</text><line style="stroke:#A80036;stroke-width:1.5;" x1="412" x2="550" y1="255" y2="255"/><line style="stroke:#A80036;stroke-width:1.5;" x1="412" x2="550" y1="263" y2="263"/><!--MD5=[d35cb34c04c3e1c02d98a993d486e819]
class JiaDFOF--><rect fill="#FEFECE" filter="url(#fyf0wacqzxzs1)" height="48" id="JiaDFOF" style="stroke:#A80036;stroke-width:1.5;" width="79" x="296.5" y="223"/><ellipse cx="311.5" cy="239" fill="#ADD1B2" rx="11" ry="11" style="stroke:#A80036;stroke-width:1.0;"/><path d="M313.8438,234.6719 C312.9063,234.2344 312.3125,234.0938 311.4375,234.0938 C308.8125,234.0938 306.8125,236.1719 306.8125,238.8906 L306.8125,240.0156 C306.8125,242.5938 308.9219,244.4844 311.8125,244.4844 C313.0313,244.4844 314.1875,244.1875 314.9375,243.6406 C315.5156,243.2344 315.8438,242.7813 315.8438,242.3906 C315.8438,241.9375 315.4531,241.5469 314.9844,241.5469 C314.7656,241.5469 314.5625,241.625 314.375,241.8125 C313.9219,242.2969 313.9219,242.2969 313.7344,242.3906 C313.3125,242.6563 312.625,242.7813 311.8594,242.7813 C309.8125,242.7813 308.5156,241.6875 308.5156,239.9844 L308.5156,238.8906 C308.5156,237.1094 309.7656,235.7969 311.5,235.7969 C312.0781,235.7969 312.6875,235.9531 313.1563,236.2031 C313.6406,236.4844 313.8125,236.7031 313.9063,237.1094 C313.9688,237.5156 314,237.6406 314.1406,237.7656 C314.2813,237.9063 314.5156,238.0156 314.7344,238.0156 C315,238.0156 315.2656,237.875 315.4375,237.6563 C315.5469,237.5 315.5781,237.3125 315.5781,236.8906 L315.5781,235.4688 C315.5781,235.0313 315.5625,234.9063 315.4688,234.75 C315.3125,234.4844 315.0313,234.3438 314.7344,234.3438 C314.4375,234.3438 314.2344,234.4375 314.0156,234.75 L313.8438,234.6719 Z " fill="#000000"/><text fill="#000000" font-family="sans-serif" font-size="12" lengthAdjust="spacing" textLength="47" x="325.5" y="243.1543">JiaDFOF</text><line style="stroke:#A80036;stroke-width:1.5;" x1="297.5" x2="374.5" y1="255" y2="255"/><line style="stroke:#A80036;stroke-width:1.5;" x1="297.5" x2="374.5" y1="263" y2="263"/><!--MD5=[46605f61d3cb09dfb95a2bba7f9808ac]
class SlowTrendMixin--><rect fill="#FEFECE" filter="url(#fyf0wacqzxzs1)" height="48" id="SlowTrendMixin" style="stroke:#A80036;stroke-width:1.5;" width="126" x="273" y="115"/><ellipse cx="288" cy="131" fill="#ADD1B2" rx="11" ry="11" style="stroke:#A80036;stroke-width:1.0;"/><path d="M290.3438,126.6719 C289.4063,126.2344 288.8125,126.0938 287.9375,126.0938 C285.3125,126.0938 283.3125,128.1719 283.3125,130.8906 L283.3125,132.0156 C283.3125,134.5938 285.4219,136.4844 288.3125,136.4844 C289.5313,136.4844 290.6875,136.1875 291.4375,135.6406 C292.0156,135.2344 292.3438,134.7813 292.3438,134.3906 C292.3438,133.9375 291.9531,133.5469 291.4844,133.5469 C291.2656,133.5469 291.0625,133.625 290.875,133.8125 C290.4219,134.2969 290.4219,134.2969 290.2344,134.3906 C289.8125,134.6563 289.125,134.7813 288.3594,134.7813 C286.3125,134.7813 285.0156,133.6875 285.0156,131.9844 L285.0156,130.8906 C285.0156,129.1094 286.2656,127.7969 288,127.7969 C288.5781,127.7969 289.1875,127.9531 289.6563,128.2031 C290.1406,128.4844 290.3125,128.7031 290.4063,129.1094 C290.4688,129.5156 290.5,129.6406 290.6406,129.7656 C290.7813,129.9063 291.0156,130.0156 291.2344,130.0156 C291.5,130.0156 291.7656,129.875 291.9375,129.6563 C292.0469,129.5 292.0781,129.3125 292.0781,128.8906 L292.0781,127.4688 C292.0781,127.0313 292.0625,126.9063 291.9688,126.75 C291.8125,126.4844 291.5313,126.3438 291.2344,126.3438 C290.9375,126.3438 290.7344,126.4375 290.5156,126.75 L290.3438,126.6719 Z " fill="#000000"/><text fill="#000000" font-family="sans-serif" font-size="12" lengthAdjust="spacing" textLength="94" x="302" y="135.1543">SlowTrendMixin</text><line style="stroke:#A80036;stroke-width:1.5;" x1="274" x2="398" y1="147" y2="147"/><line style="stroke:#A80036;stroke-width:1.5;" x1="274" x2="398" y1="155" y2="155"/><!--MD5=[6022d4db756534e5443c78331f6fcd6c]
class MaxminDFOF--><rect fill="#FEFECE" filter="url(#fyf0wacqzxzs1)" height="48" id="MaxminDFOF" style="stroke:#A80036;stroke-width:1.5;" width="110" x="586" y="223"/><ellipse cx="601" cy="239" fill="#ADD1B2" rx="11" ry="11" style="stroke:#A80036;stroke-width:1.0;"/><path d="M603.3438,234.6719 C602.4063,234.2344 601.8125,234.0938 600.9375,234.0938 C598.3125,234.0938 596.3125,236.1719 596.3125,238.8906 L596.3125,240.0156 C596.3125,242.5938 598.4219,244.4844 601.3125,244.4844 C602.5313,244.4844 603.6875,244.1875 604.4375,243.6406 C605.0156,243.2344 605.3438,242.7813 605.3438,242.3906 C605.3438,241.9375 604.9531,241.5469 604.4844,241.5469 C604.2656,241.5469 604.0625,241.625 603.875,241.8125 C603.4219,242.2969 603.4219,242.2969 603.2344,242.3906 C602.8125,242.6563 602.125,242.7813 601.3594,242.7813 C599.3125,242.7813 598.0156,241.6875 598.0156,239.9844 L598.0156,238.8906 C598.0156,237.1094 599.2656,235.7969 601,235.7969 C601.5781,235.7969 602.1875,235.9531 602.6563,236.2031 C603.1406,236.4844 603.3125,236.7031 603.4063,237.1094 C603.4688,237.5156 603.5,237.6406 603.6406,237.7656 C603.7813,237.9063 604.0156,238.0156 604.2344,238.0156 C604.5,238.0156 604.7656,237.875 604.9375,237.6563 C605.0469,237.5 605.0781,237.3125 605.0781,236.8906 L605.0781,235.4688 C605.0781,235.0313 605.0625,234.9063 604.9688,234.75 C604.8125,234.4844 604.5313,234.3438 604.2344,234.3438 C603.9375,234.3438 603.7344,234.4375 603.5156,234.75 L603.3438,234.6719 Z " fill="#000000"/><text fill="#000000" font-family="sans-serif" font-size="12" lengthAdjust="spacing" textLength="78" x="615" y="243.1543">MaxminDFOF</text><line style="stroke:#A80036;stroke-width:1.5;" x1="587" x2="695" y1="255" y2="255"/><line style="stroke:#A80036;stroke-width:1.5;" x1="587" x2="695" y1="263" y2="263"/><!--MD5=[92e504786b2a0c9c10259dde58cc5652]
class Suite2pDFOF--><rect fill="#FEFECE" filter="url(#fyf0wacqzxzs1)" height="48" id="Suite2pDFOF" style="stroke:#A80036;stroke-width:1.5;" width="111" x="731.5" y="223"/><ellipse cx="746.5" cy="239" fill="#ADD1B2" rx="11" ry="11" style="stroke:#A80036;stroke-width:1.0;"/><path d="M748.8438,234.6719 C747.9063,234.2344 747.3125,234.0938 746.4375,234.0938 C743.8125,234.0938 741.8125,236.1719 741.8125,238.8906 L741.8125,240.0156 C741.8125,242.5938 743.9219,244.4844 746.8125,244.4844 C748.0313,244.4844 749.1875,244.1875 749.9375,243.6406 C750.5156,243.2344 750.8438,242.7813 750.8438,242.3906 C750.8438,241.9375 750.4531,241.5469 749.9844,241.5469 C749.7656,241.5469 749.5625,241.625 749.375,241.8125 C748.9219,242.2969 748.9219,242.2969 748.7344,242.3906 C748.3125,242.6563 747.625,242.7813 746.8594,242.7813 C744.8125,242.7813 743.5156,241.6875 743.5156,239.9844 L743.5156,238.8906 C743.5156,237.1094 744.7656,235.7969 746.5,235.7969 C747.0781,235.7969 747.6875,235.9531 748.1563,236.2031 C748.6406,236.4844 748.8125,236.7031 748.9063,237.1094 C748.9688,237.5156 749,237.6406 749.1406,237.7656 C749.2813,237.9063 749.5156,238.0156 749.7344,238.0156 C750,238.0156 750.2656,237.875 750.4375,237.6563 C750.5469,237.5 750.5781,237.3125 750.5781,236.8906 L750.5781,235.4688 C750.5781,235.0313 750.5625,234.9063 750.4688,234.75 C750.3125,234.4844 750.0313,234.3438 749.7344,234.3438 C749.4375,234.3438 749.2344,234.4375 749.0156,234.75 L748.8438,234.6719 Z " fill="#000000"/><text fill="#000000" font-family="sans-serif" font-size="12" lengthAdjust="spacing" textLength="79" x="760.5" y="243.1543">Suite2pDFOF</text><line style="stroke:#A80036;stroke-width:1.5;" x1="732.5" x2="841.5" y1="255" y2="255"/><line style="stroke:#A80036;stroke-width:1.5;" x1="732.5" x2="841.5" y1="263" y2="263"/><!--MD5=[4f1505b38e2e017763943fd37e00812c]
class SignalGetter--><rect fill="#FEFECE" filter="url(#fyf0wacqzxzs1)" height="48" id="SignalGetter" style="stroke:#A80036;stroke-width:1.5;" width="106" x="1443" y="7"/><ellipse cx="1458" cy="23" fill="#ADD1B2" rx="11" ry="11" style="stroke:#A80036;stroke-width:1.0;"/><path d="M1460.3438,18.6719 C1459.4063,18.2344 1458.8125,18.0938 1457.9375,18.0938 C1455.3125,18.0938 1453.3125,20.1719 1453.3125,22.8906 L1453.3125,24.0156 C1453.3125,26.5938 1455.4219,28.4844 1458.3125,28.4844 C1459.5313,28.4844 1460.6875,28.1875 1461.4375,27.6406 C1462.0156,27.2344 1462.3438,26.7813 1462.3438,26.3906 C1462.3438,25.9375 1461.9531,25.5469 1461.4844,25.5469 C1461.2656,25.5469 1461.0625,25.625 1460.875,25.8125 C1460.4219,26.2969 1460.4219,26.2969 1460.2344,26.3906 C1459.8125,26.6563 1459.125,26.7813 1458.3594,26.7813 C1456.3125,26.7813 1455.0156,25.6875 1455.0156,23.9844 L1455.0156,22.8906 C1455.0156,21.1094 1456.2656,19.7969 1458,19.7969 C1458.5781,19.7969 1459.1875,19.9531 1459.6563,20.2031 C1460.1406,20.4844 1460.3125,20.7031 1460.4063,21.1094 C1460.4688,21.5156 1460.5,21.6406 1460.6406,21.7656 C1460.7813,21.9063 1461.0156,22.0156 1461.2344,22.0156 C1461.5,22.0156 1461.7656,21.875 1461.9375,21.6563 C1462.0469,21.5 1462.0781,21.3125 1462.0781,20.8906 L1462.0781,19.4688 C1462.0781,19.0313 1462.0625,18.9063 1461.9688,18.75 C1461.8125,18.4844 1461.5313,18.3438 1461.2344,18.3438 C1460.9375,18.3438 1460.7344,18.4375 1460.5156,18.75 L1460.3438,18.6719 Z " fill="#000000"/><text fill="#000000" font-family="sans-serif" font-size="12" lengthAdjust="spacing" textLength="74" x="1472" y="27.1543">SignalGetter</text><line style="stroke:#A80036;stroke-width:1.5;" x1="1444" x2="1548" y1="39" y2="39"/><line style="stroke:#A80036;stroke-width:1.5;" x1="1444" x2="1548" y1="47" y2="47"/><!--MD5=[93ec0817ec355c41e906f0057261f609]
class Event2Signals--><rect fill="#FEFECE" filter="url(#fyf0wacqzxzs1)" height="48" id="Event2Signals" style="stroke:#A80036;stroke-width:1.5;" width="116" x="1438" y="115"/><ellipse cx="1453" cy="131" fill="#ADD1B2" rx="11" ry="11" style="stroke:#A80036;stroke-width:1.0;"/><path d="M1455.3438,126.6719 C1454.4063,126.2344 1453.8125,126.0938 1452.9375,126.0938 C1450.3125,126.0938 1448.3125,128.1719 1448.3125,130.8906 L1448.3125,132.0156 C1448.3125,134.5938 1450.4219,136.4844 1453.3125,136.4844 C1454.5313,136.4844 1455.6875,136.1875 1456.4375,135.6406 C1457.0156,135.2344 1457.3438,134.7813 1457.3438,134.3906 C1457.3438,133.9375 1456.9531,133.5469 1456.4844,133.5469 C1456.2656,133.5469 1456.0625,133.625 1455.875,133.8125 C1455.4219,134.2969 1455.4219,134.2969 1455.2344,134.3906 C1454.8125,134.6563 1454.125,134.7813 1453.3594,134.7813 C1451.3125,134.7813 1450.0156,133.6875 1450.0156,131.9844 L1450.0156,130.8906 C1450.0156,129.1094 1451.2656,127.7969 1453,127.7969 C1453.5781,127.7969 1454.1875,127.9531 1454.6563,128.2031 C1455.1406,128.4844 1455.3125,128.7031 1455.4063,129.1094 C1455.4688,129.5156 1455.5,129.6406 1455.6406,129.7656 C1455.7813,129.9063 1456.0156,130.0156 1456.2344,130.0156 C1456.5,130.0156 1456.7656,129.875 1456.9375,129.6563 C1457.0469,129.5 1457.0781,129.3125 1457.0781,128.8906 L1457.0781,127.4688 C1457.0781,127.0313 1457.0625,126.9063 1456.9688,126.75 C1456.8125,126.4844 1456.5313,126.3438 1456.2344,126.3438 C1455.9375,126.3438 1455.7344,126.4375 1455.5156,126.75 L1455.3438,126.6719 Z " fill="#000000"/><text fill="#000000" font-family="sans-serif" font-size="12" lengthAdjust="spacing" textLength="84" x="1467" y="135.1543">Event2Signals</text><line style="stroke:#A80036;stroke-width:1.5;" x1="1439" x2="1553" y1="147" y2="147"/><line style="stroke:#A80036;stroke-width:1.5;" x1="1439" x2="1553" y1="155" y2="155"/><!--MD5=[48f27509f96bc27a606d99953a704f79]
class EventOnsets2Signals--><rect fill="#FEFECE" filter="url(#fyf0wacqzxzs1)" height="48" id="EventOnsets2Signals" style="stroke:#A80036;stroke-width:1.5;" width="159" x="1416.5" y="223"/><ellipse cx="1431.5" cy="239" fill="#ADD1B2" rx="11" ry="11" style="stroke:#A80036;stroke-width:1.0;"/><path d="M1433.8438,234.6719 C1432.9063,234.2344 1432.3125,234.0938 1431.4375,234.0938 C1428.8125,234.0938 1426.8125,236.1719 1426.8125,238.8906 L1426.8125,240.0156 C1426.8125,242.5938 1428.9219,244.4844 1431.8125,244.4844 C1433.0313,244.4844 1434.1875,244.1875 1434.9375,243.6406 C1435.5156,243.2344 1435.8438,242.7813 1435.8438,242.3906 C1435.8438,241.9375 1435.4531,241.5469 1434.9844,241.5469 C1434.7656,241.5469 1434.5625,241.625 1434.375,241.8125 C1433.9219,242.2969 1433.9219,242.2969 1433.7344,242.3906 C1433.3125,242.6563 1432.625,242.7813 1431.8594,242.7813 C1429.8125,242.7813 1428.5156,241.6875 1428.5156,239.9844 L1428.5156,238.8906 C1428.5156,237.1094 1429.7656,235.7969 1431.5,235.7969 C1432.0781,235.7969 1432.6875,235.9531 1433.1563,236.2031 C1433.6406,236.4844 1433.8125,236.7031 1433.9063,237.1094 C1433.9688,237.5156 1434,237.6406 1434.1406,237.7656 C1434.2813,237.9063 1434.5156,238.0156 1434.7344,238.0156 C1435,238.0156 1435.2656,237.875 1435.4375,237.6563 C1435.5469,237.5 1435.5781,237.3125 1435.5781,236.8906 L1435.5781,235.4688 C1435.5781,235.0313 1435.5625,234.9063 1435.4688,234.75 C1435.3125,234.4844 1435.0313,234.3438 1434.7344,234.3438 C1434.4375,234.3438 1434.2344,234.4375 1434.0156,234.75 L1433.8438,234.6719 Z " fill="#000000"/><text fill="#000000" font-family="sans-serif" font-size="12" lengthAdjust="spacing" textLength="127" x="1445.5" y="243.1543">EventOnsets2Signals</text><line style="stroke:#A80036;stroke-width:1.5;" x1="1417.5" x2="1574.5" y1="255" y2="255"/><line style="stroke:#A80036;stroke-width:1.5;" x1="1417.5" x2="1574.5" y1="263" y2="263"/><!--MD5=[bb9bd03db68b604c5cb26f61e9b9c000]
class TimeOnsets2Signals--><rect fill="#FEFECE" filter="url(#fyf0wacqzxzs1)" height="48" id="TimeOnsets2Signals" style="stroke:#A80036;stroke-width:1.5;" width="155" x="1418.5" y="331"/><ellipse cx="1433.5" cy="347" fill="#ADD1B2" rx="11" ry="11" style="stroke:#A80036;stroke-width:1.0;"/><path d="M1435.8438,342.6719 C1434.9063,342.2344 1434.3125,342.0938 1433.4375,342.0938 C1430.8125,342.0938 1428.8125,344.1719 1428.8125,346.8906 L1428.8125,348.0156 C1428.8125,350.5938 1430.9219,352.4844 1433.8125,352.4844 C1435.0313,352.4844 1436.1875,352.1875 1436.9375,351.6406 C1437.5156,351.2344 1437.8438,350.7813 1437.8438,350.3906 C1437.8438,349.9375 1437.4531,349.5469 1436.9844,349.5469 C1436.7656,349.5469 1436.5625,349.625 1436.375,349.8125 C1435.9219,350.2969 1435.9219,350.2969 1435.7344,350.3906 C1435.3125,350.6563 1434.625,350.7813 1433.8594,350.7813 C1431.8125,350.7813 1430.5156,349.6875 1430.5156,347.9844 L1430.5156,346.8906 C1430.5156,345.1094 1431.7656,343.7969 1433.5,343.7969 C1434.0781,343.7969 1434.6875,343.9531 1435.1563,344.2031 C1435.6406,344.4844 1435.8125,344.7031 1435.9063,345.1094 C1435.9688,345.5156 1436,345.6406 1436.1406,345.7656 C1436.2813,345.9063 1436.5156,346.0156 1436.7344,346.0156 C1437,346.0156 1437.2656,345.875 1437.4375,345.6563 C1437.5469,345.5 1437.5781,345.3125 1437.5781,344.8906 L1437.5781,343.4688 C1437.5781,343.0313 1437.5625,342.9063 1437.4688,342.75 C1437.3125,342.4844 1437.0313,342.3438 1436.7344,342.3438 C1436.4375,342.3438 1436.2344,342.4375 1436.0156,342.75 L1435.8438,342.6719 Z " fill="#000000"/><text fill="#000000" font-family="sans-serif" font-size="12" lengthAdjust="spacing" textLength="123" x="1447.5" y="351.1543">TimeOnsets2Signals</text><line style="stroke:#A80036;stroke-width:1.5;" x1="1419.5" x2="1572.5" y1="363" y2="363"/><line style="stroke:#A80036;stroke-width:1.5;" x1="1419.5" x2="1572.5" y1="371" y2="371"/><!--MD5=[080762c1fd2acf1e2924fcbc0794bc93]
class SpikesStrategy--><rect fill="#FEFECE" filter="url(#fyf0wacqzxzs1)" height="48" id="SpikesStrategy" style="stroke:#A80036;stroke-width:1.5;" width="124" x="1034" y="115"/><ellipse cx="1049" cy="131" fill="#ADD1B2" rx="11" ry="11" style="stroke:#A80036;stroke-width:1.0;"/><path d="M1051.3438,126.6719 C1050.4063,126.2344 1049.8125,126.0938 1048.9375,126.0938 C1046.3125,126.0938 1044.3125,128.1719 1044.3125,130.8906 L1044.3125,132.0156 C1044.3125,134.5938 1046.4219,136.4844 1049.3125,136.4844 C1050.5313,136.4844 1051.6875,136.1875 1052.4375,135.6406 C1053.0156,135.2344 1053.3438,134.7813 1053.3438,134.3906 C1053.3438,133.9375 1052.9531,133.5469 1052.4844,133.5469 C1052.2656,133.5469 1052.0625,133.625 1051.875,133.8125 C1051.4219,134.2969 1051.4219,134.2969 1051.2344,134.3906 C1050.8125,134.6563 1050.125,134.7813 1049.3594,134.7813 C1047.3125,134.7813 1046.0156,133.6875 1046.0156,131.9844 L1046.0156,130.8906 C1046.0156,129.1094 1047.2656,127.7969 1049,127.7969 C1049.5781,127.7969 1050.1875,127.9531 1050.6563,128.2031 C1051.1406,128.4844 1051.3125,128.7031 1051.4063,129.1094 C1051.4688,129.5156 1051.5,129.6406 1051.6406,129.7656 C1051.7813,129.9063 1052.0156,130.0156 1052.2344,130.0156 C1052.5,130.0156 1052.7656,129.875 1052.9375,129.6563 C1053.0469,129.5 1053.0781,129.3125 1053.0781,128.8906 L1053.0781,127.4688 C1053.0781,127.0313 1053.0625,126.9063 1052.9688,126.75 C1052.8125,126.4844 1052.5313,126.3438 1052.2344,126.3438 C1051.9375,126.3438 1051.7344,126.4375 1051.5156,126.75 L1051.3438,126.6719 Z " fill="#000000"/><text fill="#000000" font-family="sans-serif" font-size="12" lengthAdjust="spacing" textLength="92" x="1063" y="135.1543">SpikesStrategy</text><line style="stroke:#A80036;stroke-width:1.5;" x1="1035" x2="1157" y1="147" y2="147"/><line style="stroke:#A80036;stroke-width:1.5;" x1="1035" x2="1157" y1="155" y2="155"/><!--MD5=[7dd65f61a8cc75e7605732c410de34e1]
class MADMixin--><rect fill="#FEFECE" filter="url(#fyf0wacqzxzs1)" height="48" id="MADMixin" style="stroke:#A80036;stroke-width:1.5;" width="89" x="903.5" y="115"/><ellipse cx="918.5" cy="131" fill="#ADD1B2" rx="11" ry="11" style="stroke:#A80036;stroke-width:1.0;"/><path d="M920.8438,126.6719 C919.9063,126.2344 919.3125,126.0938 918.4375,126.0938 C915.8125,126.0938 913.8125,128.1719 913.8125,130.8906 L913.8125,132.0156 C913.8125,134.5938 915.9219,136.4844 918.8125,136.4844 C920.0313,136.4844 921.1875,136.1875 921.9375,135.6406 C922.5156,135.2344 922.8438,134.7813 922.8438,134.3906 C922.8438,133.9375 922.4531,133.5469 921.9844,133.5469 C921.7656,133.5469 921.5625,133.625 921.375,133.8125 C920.9219,134.2969 920.9219,134.2969 920.7344,134.3906 C920.3125,134.6563 919.625,134.7813 918.8594,134.7813 C916.8125,134.7813 915.5156,133.6875 915.5156,131.9844 L915.5156,130.8906 C915.5156,129.1094 916.7656,127.7969 918.5,127.7969 C919.0781,127.7969 919.6875,127.9531 920.1563,128.2031 C920.6406,128.4844 920.8125,128.7031 920.9063,129.1094 C920.9688,129.5156 921,129.6406 921.1406,129.7656 C921.2813,129.9063 921.5156,130.0156 921.7344,130.0156 C922,130.0156 922.2656,129.875 922.4375,129.6563 C922.5469,129.5 922.5781,129.3125 922.5781,128.8906 L922.5781,127.4688 C922.5781,127.0313 922.5625,126.9063 922.4688,126.75 C922.3125,126.4844 922.0313,126.3438 921.7344,126.3438 C921.4375,126.3438 921.2344,126.4375 921.0156,126.75 L920.8438,126.6719 Z " fill="#000000"/><text fill="#000000" font-family="sans-serif" font-size="12" lengthAdjust="spacing" textLength="57" x="932.5" y="135.1543">MADMixin</text><line style="stroke:#A80036;stroke-width:1.5;" x1="904.5" x2="991.5" y1="147" y2="147"/><line style="stroke:#A80036;stroke-width:1.5;" x1="904.5" x2="991.5" y1="155" y2="155"/><!--MD5=[d7b3197bab1b4792bfc39cf2afec794a]
class OasisAR1Spikes--><rect fill="#FEFECE" filter="url(#fyf0wacqzxzs1)" height="48" id="OasisAR1Spikes" style="stroke:#A80036;stroke-width:1.5;" width="129" x="877.5" y="223"/><ellipse cx="892.5" cy="239" fill="#ADD1B2" rx="11" ry="11" style="stroke:#A80036;stroke-width:1.0;"/><path d="M894.8438,234.6719 C893.9063,234.2344 893.3125,234.0938 892.4375,234.0938 C889.8125,234.0938 887.8125,236.1719 887.8125,238.8906 L887.8125,240.0156 C887.8125,242.5938 889.9219,244.4844 892.8125,244.4844 C894.0313,244.4844 895.1875,244.1875 895.9375,243.6406 C896.5156,243.2344 896.8438,242.7813 896.8438,242.3906 C896.8438,241.9375 896.4531,241.5469 895.9844,241.5469 C895.7656,241.5469 895.5625,241.625 895.375,241.8125 C894.9219,242.2969 894.9219,242.2969 894.7344,242.3906 C894.3125,242.6563 893.625,242.7813 892.8594,242.7813 C890.8125,242.7813 889.5156,241.6875 889.5156,239.9844 L889.5156,238.8906 C889.5156,237.1094 890.7656,235.7969 892.5,235.7969 C893.0781,235.7969 893.6875,235.9531 894.1563,236.2031 C894.6406,236.4844 894.8125,236.7031 894.9063,237.1094 C894.9688,237.5156 895,237.6406 895.1406,237.7656 C895.2813,237.9063 895.5156,238.0156 895.7344,238.0156 C896,238.0156 896.2656,237.875 896.4375,237.6563 C896.5469,237.5 896.5781,237.3125 896.5781,236.8906 L896.5781,235.4688 C896.5781,235.0313 896.5625,234.9063 896.4688,234.75 C896.3125,234.4844 896.0313,234.3438 895.7344,234.3438 C895.4375,234.3438 895.2344,234.4375 895.0156,234.75 L894.8438,234.6719 Z " fill="#000000"/><text fill="#000000" font-family="sans-serif" font-size="12" lengthAdjust="spacing" textLength="97" x="906.5" y="243.1543">OasisAR1Spikes</text><line style="stroke:#A80036;stroke-width:1.5;" x1="878.5" x2="1005.5" y1="255" y2="255"/><line style="stroke:#A80036;stroke-width:1.5;" x1="878.5" x2="1005.5" y1="263" y2="263"/><!--MD5=[f91744e902833d775634c8005767c8d2]
class OasisAR2Spikes--><rect fill="#FEFECE" filter="url(#fyf0wacqzxzs1)" height="48" id="OasisAR2Spikes" style="stroke:#A80036;stroke-width:1.5;" width="130" x="1042" y="223"/><ellipse cx="1057" cy="239" fill="#ADD1B2" rx="11" ry="11" style="stroke:#A80036;stroke-width:1.0;"/><path d="M1059.3438,234.6719 C1058.4063,234.2344 1057.8125,234.0938 1056.9375,234.0938 C1054.3125,234.0938 1052.3125,236.1719 1052.3125,238.8906 L1052.3125,240.0156 C1052.3125,242.5938 1054.4219,244.4844 1057.3125,244.4844 C1058.5313,244.4844 1059.6875,244.1875 1060.4375,243.6406 C1061.0156,243.2344 1061.3438,242.7813 1061.3438,242.3906 C1061.3438,241.9375 1060.9531,241.5469 1060.4844,241.5469 C1060.2656,241.5469 1060.0625,241.625 1059.875,241.8125 C1059.4219,242.2969 1059.4219,242.2969 1059.2344,242.3906 C1058.8125,242.6563 1058.125,242.7813 1057.3594,242.7813 C1055.3125,242.7813 1054.0156,241.6875 1054.0156,239.9844 L1054.0156,238.8906 C1054.0156,237.1094 1055.2656,235.7969 1057,235.7969 C1057.5781,235.7969 1058.1875,235.9531 1058.6563,236.2031 C1059.1406,236.4844 1059.3125,236.7031 1059.4063,237.1094 C1059.4688,237.5156 1059.5,237.6406 1059.6406,237.7656 C1059.7813,237.9063 1060.0156,238.0156 1060.2344,238.0156 C1060.5,238.0156 1060.7656,237.875 1060.9375,237.6563 C1061.0469,237.5 1061.0781,237.3125 1061.0781,236.8906 L1061.0781,235.4688 C1061.0781,235.0313 1061.0625,234.9063 1060.9688,234.75 C1060.8125,234.4844 1060.5313,234.3438 1060.2344,234.3438 C1059.9375,234.3438 1059.7344,234.4375 1059.5156,234.75 L1059.3438,234.6719 Z " fill="#000000"/><text fill="#000000" font-family="sans-serif" font-size="12" lengthAdjust="spacing" textLength="98" x="1071" y="243.1543">OasisAR2Spikes</text><line style="stroke:#A80036;stroke-width:1.5;" x1="1043" x2="1171" y1="255" y2="255"/><line style="stroke:#A80036;stroke-width:1.5;" x1="1043" x2="1171" y1="263" y2="263"/><!--MD5=[bda3694e63365701564aecf16e6af422]
reverse link HDFStore to SignalFile--><path codeLine="2" d="M52,75.024 C52,88.579 52,103.038 52,114.678 " fill="none" id="HDFStore-backto-SignalFile" style="stroke:#A80036;stroke-width:1.0;"/><polygon fill="none" points="45.0001,75,52,55,59.0001,75,45.0001,75" style="stroke:#A80036;stroke-width:1.0;"/><!--MD5=[fcab9676fb82c89e2efa9221d44c3e26]
reverse link DataFrame to SignalFrame--><path codeLine="3" d="M185,75.024 C185,88.579 185,103.038 185,114.678 " fill="none" id="DataFrame-backto-SignalFrame" style="stroke:#A80036;stroke-width:1.0;"/><polygon fill="none" points="178,75,185,55,192,75,178,75" style="stroke:#A80036;stroke-width:1.0;"/><!--MD5=[b9ec6155e1a721dd62bcce88420baefc]
reverse link Automorphism to DecompositionStrategy--><path codeLine="6" d="M1155.26,64.89 C1184.45,81.089 1218.94,100.229 1245.31,114.862 " fill="none" id="Automorphism-backto-DecompositionStrategy" style="stroke:#A80036;stroke-width:1.0;"/><polygon fill="none" points="1151.53,70.826,1137.44,55,1158.33,58.585,1151.53,70.826" style="stroke:#A80036;stroke-width:1.0;"/><!--MD5=[845fbfe98ffdc373abd227a9c7fb3280]
reverse link DecompositionStrategy to LinearDynamicalSystem--><path codeLine="7" d="M1289.84,183.024 C1290.74,196.579 1291.69,211.038 1292.46,222.678 " fill="none" id="DecompositionStrategy-backto-LinearDynamicalSystem" style="stroke:#A80036;stroke-width:1.0;"/><polygon fill="none" points="1282.85,183.418,1288.52,163,1296.82,182.496,1282.85,183.418" style="stroke:#A80036;stroke-width:1.0;"/><!--MD5=[895e8ac4fe09366165917ede0929a1e4]
reverse link Automorphism to DFOFStrategy--><path codeLine="10" d="M1016.49,50.523 C925.883,71.632 779.943,105.631 699.283,124.422 " fill="none" id="Automorphism-backto-DFOFStrategy" style="stroke:#A80036;stroke-width:1.0;"/><polygon fill="none" points="1014.98,43.687,1036.05,45.967,1018.16,57.322,1014.98,43.687" style="stroke:#A80036;stroke-width:1.0;"/><!--MD5=[19c1553f985f87b312914602799bcda3]
reverse link DFOFStrategy to CustomFilterDFOF--><path codeLine="11" d="M589.609,174.047 C565.539,189.993 537.489,208.576 515.926,222.862 " fill="none" id="DFOFStrategy-backto-CustomFilterDFOF" style="stroke:#A80036;stroke-width:1.0;"/><polygon fill="none" points="585.743,168.211,606.282,163,593.475,179.882,585.743,168.211" style="stroke:#A80036;stroke-width:1.0;"/><!--MD5=[9c9ac154da863f404b525097a8b5e802]
reverse link DFOFStrategy to JiaDFOF--><path codeLine="12" d="M563.428,164.626 C514.319,180.544 449.629,202.12 393,223 C387.393,225.067 381.512,227.331 375.744,229.606 " fill="none" id="DFOFStrategy-backto-JiaDFOF" style="stroke:#A80036;stroke-width:1.0;"/><polygon fill="none" points="561.593,157.862,582.777,158.385,565.891,171.186,561.593,157.862" style="stroke:#A80036;stroke-width:1.0;"/><!--MD5=[ffa6e2f2f249dd86484ebcd1569a5c39]
reverse link SlowTrendMixin to JiaDFOF--><path codeLine="13" d="M336,183.024 C336,196.579 336,211.038 336,222.678 " fill="none" id="SlowTrendMixin-backto-JiaDFOF" style="stroke:#A80036;stroke-width:1.0;"/><polygon fill="none" points="329,183,336,163,343,183,329,183" style="stroke:#A80036;stroke-width:1.0;"/><!--MD5=[65a73bd107121e3b11f49704442cbb78]
reverse link DFOFStrategy to MaxminDFOF--><path codeLine="14" d="M641,183.024 C641,196.579 641,211.038 641,222.678 " fill="none" id="DFOFStrategy-backto-MaxminDFOF" style="stroke:#A80036;stroke-width:1.0;"/><polygon fill="none" points="634,183,641,163,648,183,634,183" style="stroke:#A80036;stroke-width:1.0;"/><!--MD5=[1cfd15d9708dab0eed8a3e35ef2b60f9]
reverse link DFOFStrategy to Suite2pDFOF--><path codeLine="15" d="M689.178,174.979 C710.85,190.713 735.836,208.853 755.13,222.862 " fill="none" id="DFOFStrategy-backto-Suite2pDFOF" style="stroke:#A80036;stroke-width:1.0;"/><polygon fill="none" points="684.752,180.415,672.68,163,692.977,169.086,684.752,180.415" style="stroke:#A80036;stroke-width:1.0;"/><!--MD5=[e3c92ec987b28c9644d2df8a0e024e31]
reverse link SignalGetter to Event2Signals--><path codeLine="18" d="M1496,75.024 C1496,88.579 1496,103.038 1496,114.678 " fill="none" id="SignalGetter-backto-Event2Signals" style="stroke:#A80036;stroke-width:1.0;"/><polygon fill="none" points="1489,75,1496,55,1503,75,1489,75" style="stroke:#A80036;stroke-width:1.0;"/><!--MD5=[5a0c284729d7f82edd45117c09588859]
reverse link Event2Signals to EventOnsets2Signals--><path codeLine="19" d="M1496,183.024 C1496,196.579 1496,211.038 1496,222.678 " fill="none" id="Event2Signals-backto-EventOnsets2Signals" style="stroke:#A80036;stroke-width:1.0;"/><polygon fill="none" points="1489,183,1496,163,1503,183,1489,183" style="stroke:#A80036;stroke-width:1.0;"/><!--MD5=[1bfd0c8e04e316dc582187ae85591c93]
reverse link EventOnsets2Signals to TimeOnsets2Signals--><path codeLine="20" d="M1496,291.0236 C1496,304.5792 1496,319.0381 1496,330.6784 " fill="none" id="EventOnsets2Signals-backto-TimeOnsets2Signals" style="stroke:#A80036;stroke-width:1.0;"/><polygon fill="none" points="1489,291.0005,1496,271,1503,291.0004,1489,291.0005" style="stroke:#A80036;stroke-width:1.0;"/><!--MD5=[58ee247f2b94ed3f5104f77053892fc8]
reverse link Automorphism to SpikesStrategy--><path codeLine="23" d="M1096,75.024 C1096,88.579 1096,103.038 1096,114.678 " fill="none" id="Automorphism-backto-SpikesStrategy" style="stroke:#A80036;stroke-width:1.0;"/><polygon fill="none" points="1089,75,1096,55,1103,75,1089,75" style="stroke:#A80036;stroke-width:1.0;"/><!--MD5=[81b6e13a9acd9115d54597f26da105f6]
reverse link MADMixin to OasisAR1Spikes--><path codeLine="24" d="M945.565,183.024 C944.797,196.579 943.979,211.038 943.32,222.678 " fill="none" id="MADMixin-backto-OasisAR1Spikes" style="stroke:#A80036;stroke-width:1.0;"/><polygon fill="none" points="938.579,182.573,946.698,163,952.557,183.364,938.579,182.573" style="stroke:#A80036;stroke-width:1.0;"/><!--MD5=[c09e981a8fa0f7c32db605bbfc5e221f]
reverse link SpikesStrategy to OasisAR1Spikes--><path codeLine="25" d="M1045.86,174.512 C1022.84,190.354 996.17,208.714 975.616,222.862 " fill="none" id="SpikesStrategy-backto-OasisAR1Spikes" style="stroke:#A80036;stroke-width:1.0;"/><polygon fill="none" points="1042.14,168.574,1062.58,163,1050.08,180.106,1042.14,168.574" style="stroke:#A80036;stroke-width:1.0;"/><!--MD5=[ecee764fd9ba7c8daff61ed3d49ae56f]
reverse link MADMixin to OasisAR2Spikes--><path codeLine="26" d="M999.419,174.279 C1023.26,190.173 1050.97,208.645 1072.29,222.862 " fill="none" id="MADMixin-backto-OasisAR2Spikes" style="stroke:#A80036;stroke-width:1.0;"/><polygon fill="none" points="995.259,179.919,982.501,163,1003.025,168.27,995.259,179.919" style="stroke:#A80036;stroke-width:1.0;"/><!--MD5=[7182014c0a7211a935ee1c4afa866c21]
reverse link SpikesStrategy to OasisAR2Spikes--><path codeLine="27" d="M1100.46,183.024 C1101.87,196.579 1103.37,211.038 1104.58,222.678 " fill="none" id="SpikesStrategy-backto-OasisAR2Spikes" style="stroke:#A80036;stroke-width:1.0;"/><polygon fill="none" points="1093.49,183.616,1098.39,163,1107.41,182.171,1093.49,183.616" style="stroke:#A80036;stroke-width:1.0;"/><!--MD5=[451d2d2d32942b7697691946c26aefe1]
@startuml
' ### lab3.signal.base
HDFStore <|- - SignalFile
DataFrame <|- - SignalFrame

' ### lab3.signal.decomposition
Automorphism <|- - DecompositionStrategy
DecompositionStrategy <|- - LinearDynamicalSystem

' ### lab3.signal.dfof
Automorphism <|- - DFOFStrategy
DFOFStrategy <|- - CustomFilterDFOF
DFOFStrategy <|- - JiaDFOF
SlowTrendMixin <|- - JiaDFOF
DFOFStrategy <|- - MaxminDFOF
DFOFStrategy <|- - Suite2pDFOF

' ### lab3.signal.signal_getter
SignalGetter <|- - Event2Signals
Event2Signals <|- - EventOnsets2Signals
EventOnsets2Signals <|- - TimeOnsets2Signals

' ### lab3.signal.spikes
Automorphism <|- - SpikesStrategy
MADMixin <|- - OasisAR1Spikes
SpikesStrategy <|- - OasisAR1Spikes
MADMixin <|- - OasisAR2Spikes
SpikesStrategy <|- - OasisAR2Spikes
@enduml

@startuml
HDFStore <|- - SignalFile
DataFrame <|- - SignalFrame

Automorphism <|- - DecompositionStrategy
DecompositionStrategy <|- - LinearDynamicalSystem

Automorphism <|- - DFOFStrategy
DFOFStrategy <|- - CustomFilterDFOF
DFOFStrategy <|- - JiaDFOF
SlowTrendMixin <|- - JiaDFOF
DFOFStrategy <|- - MaxminDFOF
DFOFStrategy <|- - Suite2pDFOF

SignalGetter <|- - Event2Signals
Event2Signals <|- - EventOnsets2Signals
EventOnsets2Signals <|- - TimeOnsets2Signals

Automorphism <|- - SpikesStrategy
MADMixin <|- - OasisAR1Spikes
SpikesStrategy <|- - OasisAR1Spikes
MADMixin <|- - OasisAR2Spikes
SpikesStrategy <|- - OasisAR2Spikes
@enduml

PlantUML version 1.2021.9beta2(Unknown compile time)
(GPL source distribution)
Java Runtime: Java(TM) SE Runtime Environment
JVM: Java HotSpot(TM) 64-Bit Server VM
Default Encoding: UTF-8
Language: en
Country: US
--></g></svg>